<?xml version="1.0" encoding="utf-8"?>
<!-- Generator: Adobe Illustrator 19.2.1, SVG Export Plug-In . SVG Version: 6.00 Build 0)  -->
<svg version="1.1" id="Web_Design_2_" xmlns="http://www.w3.org/2000/svg" xmlns:xlink="http://www.w3.org/1999/xlink" x="0px"
	 y="0px" viewBox="0 0 200 200" style="enable-background:new 0 0 200 200;" xml:space="preserve">
<style type="text/css">
	.st0{fill:#F2F2F2;}
	.st1{fill:#FFDB79;}
	.st2{fill:#34465C;}
	.st3{fill:#34404F;}
	.st4{fill:#6E7F8F;}
	.st5{fill:#FFE8AE;}
	.st6{fill:#FEFEFE;}
	.st7{fill:#363F48;}
	.st8{fill:#F16858;}
	.st9{fill:#C02729;}
	.st10{fill:#D0D2D4;}
	.st11{fill:#7C7C7C;}
	.st12{fill:#FFFFFF;}
	.st13{fill:#353F49;}
	.st14{fill:#F77B55;}
	.st15{fill:#76D0DE;}
	.st16{fill:#CCCCCC;}
	.st17{fill:#08C6A2;}
</style>
<g id="Web_Design">
	<path class="st0" d="M-42,596.1c-1.6,5.1-3.2,9.9-4.9,14.3c-1.7,4.4-3.3,8.6-5,12.8h-5.6c-2-5.9-3.8-12.1-5.4-18.6
		c-1.6-6.5-3-13.6-4.3-21.3h5.9c0.5,3,1.1,6,1.7,9c0.6,3,1.2,5.9,1.8,8.7s1.2,5.5,1.8,8.1s1.2,5,1.9,7.1c1.5-4,3.2-8.5,4.9-13.3
		s3.3-9.8,4.8-14.9h4.8c1.5,5.1,3.1,10.1,4.9,14.9c1.8,4.8,3.4,9.2,5,13.3c0.6-2.1,1.2-4.5,1.8-7.1c0.6-2.6,1.2-5.3,1.8-8.1
		c0.6-2.8,1.2-5.7,1.8-8.8c0.6-3,1.1-6,1.7-9h5.7c-1.4,7.7-2.9,14.8-4.4,21.3c-1.6,6.5-3.3,12.7-5.3,18.6h-5.6
		c-1.7-4.1-3.3-8.4-5-12.8C-38.7,606-40.3,601.3-42,596.1z"/>
	<path class="st0" d="M-10.3,623.2v-39.9h24.4v4.8H-4.7V600H12v4.7H-4.7v13.8h20.2v4.8L-10.3,623.2L-10.3,623.2z"/>
	<path class="st0" d="M33.4,623.5c-0.8,0-1.7,0-2.6-0.1c-0.9,0-1.9-0.1-2.8-0.2c-0.9-0.1-1.9-0.2-2.8-0.3s-1.8-0.3-2.5-0.5v-38.7
		c0.8-0.2,1.6-0.3,2.5-0.5c0.9-0.1,1.9-0.2,2.8-0.3s1.9-0.1,2.8-0.2c0.9,0,1.8-0.1,2.6-0.1c2.3,0,4.5,0.2,6.5,0.5s3.8,0.9,5.2,1.8
		c1.5,0.8,2.6,1.9,3.5,3.3c0.8,1.3,1.3,3,1.3,5c0,2.2-0.5,4-1.6,5.4c-1,1.4-2.4,2.4-4.1,3.1c2.3,0.7,4.2,1.8,5.6,3.3
		c1.4,1.5,2.1,3.6,2.1,6.3c0,4-1.5,7-4.4,9C44.4,622.5,39.8,623.5,33.4,623.5z M28.1,600.1H34c1.4,0,2.7-0.1,3.9-0.3s2.3-0.5,3.2-1
		s1.6-1.2,2.1-2s0.8-1.8,0.8-3.1c0-1.2-0.3-2.1-0.8-2.9c-0.5-0.8-1.3-1.4-2.2-1.9s-2-0.8-3.3-1.1c-1.3-0.2-2.6-0.3-4-0.3
		s-2.5,0-3.3,0.1c-0.8,0-1.5,0.1-2.2,0.2v12.3H28.1z M28.1,604.6v14.1c0.4,0,0.9,0.1,1.5,0.1c0.5,0,1.1,0.1,1.8,0.1s1.4,0,2.3,0
		c1.7,0,3.2-0.1,4.7-0.3s2.8-0.6,3.9-1.1c1.1-0.5,2-1.3,2.7-2.2c0.7-1,1-2.2,1-3.6c0-1.3-0.2-2.4-0.7-3.3c-0.5-0.9-1.2-1.6-2.2-2.2
		c-0.9-0.5-2.1-0.9-3.4-1.2c-1.3-0.2-2.8-0.3-4.4-0.3L28.1,604.6L28.1,604.6z"/>
	<path class="st0" d="M105.7,603.2c0,3.5-0.5,6.5-1.6,9c-1.1,2.6-2.6,4.7-4.6,6.3c-2,1.7-4.3,2.9-7,3.7s-5.7,1.2-9,1.2
		c-1.6,0-3.4-0.1-5.3-0.2c-1.9-0.1-3.7-0.4-5.3-0.8v-38.7c1.6-0.4,3.3-0.6,5.3-0.8c1.9-0.1,3.7-0.2,5.3-0.2c3.3,0,6.3,0.4,9,1.2
		s5.1,2.1,7,3.7c2,1.7,3.5,3.8,4.6,6.3C105.2,596.8,105.7,599.8,105.7,603.2z M84,618.6c5.3,0,9.3-1.4,11.9-4.1
		c2.6-2.7,3.9-6.5,3.9-11.4s-1.3-8.7-3.9-11.4s-6.6-4.1-11.9-4.1c-1.6,0-2.8,0-3.7,0.1c-0.9,0-1.5,0.1-1.8,0.1v30.5
		c0.3,0,1,0.1,1.8,0.1C81.2,618.6,82.4,618.6,84,618.6z"/>
	<path class="st0" d="M114,623.2v-39.9h24.4v4.8h-18.8V600h16.7v4.7h-16.7v13.8h20.2v4.8L114,623.2L114,623.2z"/>
	<path class="st0" d="M156.2,619.2c5.8,0,8.8-2,8.8-6c0-1.2-0.3-2.3-0.8-3.1c-0.5-0.9-1.2-1.6-2.1-2.2c-0.9-0.6-1.9-1.2-3-1.6
		c-1.1-0.5-2.3-0.9-3.6-1.4c-1.5-0.5-2.8-1.1-4.1-1.7c-1.3-0.6-2.4-1.4-3.4-2.2c-1-0.9-1.7-1.9-2.3-3.1c-0.6-1.2-0.8-2.6-0.8-4.3
		c0-3.5,1.2-6.2,3.6-8.2c2.4-2,5.7-2.9,9.9-2.9c2.4,0,4.6,0.3,6.6,0.8s3.4,1.1,4.3,1.7l-1.8,4.6c-0.8-0.5-2-1-3.6-1.5
		s-3.4-0.7-5.6-0.7c-1.1,0-2.1,0.1-3,0.3s-1.7,0.6-2.4,1c-0.7,0.5-1.2,1-1.6,1.8c-0.4,0.7-0.6,1.5-0.6,2.5c0,1.1,0.2,2,0.6,2.7
		c0.4,0.7,1,1.4,1.8,1.9c0.8,0.6,1.7,1.1,2.7,1.5c1,0.5,2.1,0.9,3.4,1.4c1.7,0.7,3.3,1.4,4.8,2.1c1.4,0.7,2.7,1.5,3.7,2.5
		c1.1,1,1.9,2.1,2.4,3.4c0.6,1.3,0.9,2.9,0.9,4.8c0,3.5-1.3,6.2-3.8,8.1c-2.6,1.9-6.2,2.8-10.8,2.8c-1.6,0-3-0.1-4.3-0.3
		s-2.5-0.5-3.5-0.7c-1-0.3-1.9-0.6-2.7-0.9c-0.8-0.3-1.3-0.6-1.8-0.8l1.7-4.6c0.9,0.5,2.2,1.1,4,1.7
		C151.4,618.9,153.6,619.2,156.2,619.2z"/>
	<path class="st0" d="M177.6,583.3h5.6v39.9h-5.6V583.3z"/>
	<path class="st0" d="M217.4,603.6h5.6v18.7c-0.5,0.2-1.1,0.3-2,0.5s-1.9,0.4-3,0.6c-1.1,0.2-2.4,0.4-3.7,0.5s-2.7,0.2-4.1,0.2
		c-2.8,0-5.4-0.5-7.7-1.4s-4.3-2.3-5.9-4c-1.7-1.8-2.9-3.9-3.8-6.5c-0.9-2.6-1.4-5.5-1.4-8.9c0-3.3,0.5-6.3,1.5-8.9
		c1-2.6,2.4-4.8,4.1-6.5c1.7-1.8,3.8-3.1,6.1-4s4.8-1.4,7.5-1.4c1.8,0,3.4,0.1,4.8,0.3c1.4,0.2,2.6,0.5,3.6,0.8s1.8,0.6,2.4,0.9
		c0.6,0.3,1.1,0.5,1.3,0.7l-1.8,4.7c-1.1-0.7-2.6-1.3-4.4-1.8c-1.8-0.5-3.7-0.7-5.6-0.7c-2,0-3.9,0.4-5.6,1.1
		c-1.7,0.7-3.1,1.8-4.3,3.2s-2.1,3.1-2.7,5c-0.7,2-1,4.2-1,6.7c0,2.4,0.3,4.5,0.8,6.5c0.6,2,1.4,3.6,2.5,5s2.5,2.5,4.2,3.3
		s3.6,1.2,5.9,1.2c1.6,0,3-0.1,4.1-0.3s1.9-0.3,2.4-0.5v-15H217.4z"/>
	<path class="st0" d="M259.1,623.2c-0.8-1.4-1.8-3-2.9-4.8s-2.3-3.6-3.5-5.5c-1.3-1.9-2.6-3.8-3.9-5.8c-1.4-2-2.7-3.8-4.1-5.7
		c-1.3-1.8-2.6-3.5-3.9-5.2c-1.3-1.6-2.4-3-3.5-4.3v31.2h-5.5v-39.9h4.4c1.8,1.9,3.7,4.2,5.8,6.7c2.1,2.6,4.1,5.2,6.1,7.9
		s3.9,5.4,5.7,8s3.3,4.9,4.5,7v-29.5h5.5v39.9L259.1,623.2L259.1,623.2z"/>
</g>
<g>
	<g id="Web_Design_1_">
		<g>
			<polygon class="st1" points="66.7,41.2 91.7,41.2 92.3,41.2 92.3,41.8 92.3,58.6 112.3,58.6 112.9,58.6 112.9,59.2 112.9,67.7 
				111.7,67.7 111.7,59.8 91.7,59.8 91.1,59.8 91.1,59.2 91.1,42.4 66.7,42.4 			"/>
			<polygon class="st1" points="47,49.8 33.7,49.8 33.7,72.4 32.5,72.4 32.5,49.2 32.5,48.6 33.1,48.6 47,48.6 			"/>
		</g>
		<g>
			<path class="st2" d="M53.7,78.5h99.7c2,0,3.7,1.7,3.7,3.7v68H50v-68C50,80.2,51.6,78.5,53.7,78.5L53.7,78.5z"/>
			<path class="st3" d="M33.3,162.6h70.2h70.2c0.4,0,0.3-0.3-0.2-0.7l-15-11.6c-0.5-0.4-1.2-0.7-1.6-0.7h-53.3H50.2
				c-0.4,0-1.1,0.3-1.6,0.7l-15,11.7C33,162.3,32.9,162.6,33.3,162.6L33.3,162.6z"/>
			<path class="st2" d="M33.9,161.8c46.4,0,92.8,0,139.2,0c1,0,1.1,0.9,0.2,1.9l-1.9,2.1c-0.9,1.1-2.6,1.9-3.6,1.9
				c-42.9,0-85.8,0-128.7,0c-1.1,0-2.7-0.9-3.6-1.9l-1.9-2.1C32.7,162.6,32.8,161.8,33.9,161.8L33.9,161.8z"/>
			<polygon class="st4" points="92.6,156.2 98.5,156.2 108.6,156.2 114.4,156.2 117.7,159.8 105.3,159.8 101.8,159.8 89.3,159.8 			
				"/>
			<rect x="53.4" y="83.1" class="st5" width="100.4" height="63.4"/>
		</g>
		<g>
			<g>
				<path class="st6" d="M163.8,66.6c0.8-1.3,1.3-2.7,1.5-4.2l4.4-0.8l-1.2-6.9l-4.4,0.8c-0.3-0.6-0.8-1.3-1.3-1.8
					c-0.5-0.6-1-1.1-1.6-1.6l1.5-4.2l-6.5-2.4l-1.6,4.2c-1.5,0-3,0.2-4.4,0.8l-2.9-3.5l-5.4,4.5l2.9,3.4c-0.8,1.3-1.3,2.7-1.5,4.2
					l-4.4,0.8l1.2,6.9l4.4-0.8c0.3,0.6,0.8,1.3,1.3,1.8c0.5,0.6,1,1.1,1.6,1.6l-1.6,4.2l6.6,2.4l1.6-4.2c1.5,0,3-0.2,4.4-0.8
					l2.9,3.5l5.4-4.5L163.8,66.6z"/>
				<path class="st7" d="M158.8,66.1c2.9-2.4,3.3-6.8,0.9-9.7c-2.4-2.9-6.8-3.3-9.7-0.9c-2.9,2.4-3.3,6.8-0.9,9.7
					C151.5,68.1,155.9,68.5,158.8,66.1L158.8,66.1z"/>
			</g>
			<g>
				<path class="st6" d="M135.4,52.1c-0.4-1-1-1.8-1.8-2.5l1.3-2.8l-4.4-2l-1.3,2.8c-0.5-0.1-1-0.1-1.5,0c-0.5,0.1-1,0.2-1.5,0.3
					l-1.8-2.6l-4,2.8l1.8,2.6c-0.6,0.8-1,1.8-1.3,2.8l-3.1,0.3l0.5,4.8l3.1-0.3c0.4,1,1,1.8,1.8,2.5l-1.3,2.9l4.4,2l1.3-2.8
					c0.5,0.1,1,0.1,1.5,0c0.5,0,1-0.1,1.5-0.3l1.8,2.5l4-2.8l-1.8-2.6c0.6-0.8,1-1.8,1.3-2.8l3.1-0.3l-0.5-4.8L135.4,52.1z"/>
				<path class="st7" d="M133.1,54.8c-0.2-2.6-2.6-4.6-5.2-4.3c-2.6,0.2-4.6,2.6-4.3,5.2c0.2,2.6,2.6,4.6,5.2,4.3
					S133.4,57.4,133.1,54.8L133.1,54.8z"/>
			</g>
		</g>
		<g>
			<path class="st6" d="M57.2,32.3c-4.8,0-8.9,3.1-10.1,7.3c-4.7,0.5-8.4,4.3-8.4,8.8c0,4.9,4.3,8.9,9.5,8.9l0,0h24.3l0,0
				c0,0,0,0,0.1,0c4.5,0,8.2-3.4,8.2-7.7c0-3.2-2-5.9-4.9-7c0-0.1,0-0.1,0-0.2c0-3-2.6-5.4-5.8-5.4c-1.2,0-2.4,0.4-3.3,1
				C65,34.6,61.4,32.3,57.2,32.3L57.2,32.3z"/>
			<path class="st6" d="M90.4,52.7c-2.5,0-4.7,1.6-5.3,3.8c-2.5,0.3-4.4,2.2-4.4,4.6c0,2.6,2.2,4.6,4.9,4.6l0,0h12.6l0,0l0,0
				c2.4,0,4.3-1.8,4.3-4c0-1.6-1.1-3.1-2.6-3.7v-0.1c0-1.6-1.3-2.8-3-2.8c-0.7,0-1.3,0.2-1.7,0.5C94.5,53.9,92.6,52.7,90.4,52.7
				L90.4,52.7z"/>
		</g>
		<g>
			<rect x="144.4" y="109.3" class="st6" width="33.6" height="43.1"/>
			<path class="st8" d="M178.2,109.3h-17h-17c-0.7,0-1.2-0.6-1.2-1.2v-1.8c0-0.7,0.5-1.2,1.2-1.2h12.2c0-0.2,0-0.3,0-0.5
				c0-2.6,2.1-4.8,4.8-4.8c2.6,0,4.7,2.1,4.7,4.8c0,0.2,0,0.3,0,0.5h12.2c0.7,0,1.2,0.6,1.2,1.2v1.8
				C179.4,108.8,178.9,109.3,178.2,109.3L178.2,109.3z M161.2,102.7c-1,0-1.8,0.8-1.8,1.8s0.8,1.8,1.8,1.8c1,0,1.8-0.8,1.8-1.8
				S162.2,102.7,161.2,102.7L161.2,102.7z"/>
			<path class="st9" d="M178.2,109.3h-17h-17c-0.7,0-1.2-0.6-1.2-1.2l0,0h36.5l0,0C179.4,108.8,178.9,109.3,178.2,109.3L178.2,109.3
				z"/>
			<polygon class="st10" points="172.4,152.4 178,146.9 172.4,147 			"/>
			<g>
				<rect x="149.3" y="115.4" class="st11" width="23.7" height="2"/>
				<rect x="149.3" y="123.2" class="st11" width="23.7" height="2"/>
				<rect x="149.3" y="130.9" class="st11" width="23.7" height="2"/>
				<rect x="149.3" y="138.7" class="st11" width="23.7" height="2"/>
			</g>
		</g>
		<g>
			<g>
				<path class="st12" d="M23.1,67.6h113.2c1.6,0,2.8,1.3,2.8,2.9v64.2c0,1.6-1.3,2.9-2.8,2.9H23.1c-1.6,0-2.9-1.3-2.9-2.9V70.5
					C20.2,68.9,21.5,67.6,23.1,67.6L23.1,67.6z"/>
				<g>
					<path class="st13" d="M22.7,67.6h113.9c1.4,0,2.5,1.1,2.5,2.5v7.7c0,0.1-0.1,0.2-0.2,0.2H20.2v-7.9
						C20.2,68.8,21.4,67.6,22.7,67.6L22.7,67.6z"/>
					<path class="st14" d="M26.1,75c1.2,0,2.2-1,2.2-2.3c0-1.3-1-2.3-2.2-2.3c-1.2,0-2.2,1-2.2,2.3C23.9,74,24.9,75,26.1,75L26.1,75
						z"/>
					<path class="st15" d="M32.2,75c1.2,0,2.2-1,2.2-2.3c0-1.3-1-2.3-2.2-2.3s-2.2,1-2.2,2.3C30,74,31,75,32.2,75L32.2,75z"/>
					<path class="st1" d="M38.3,75c1.2,0,2.2-1,2.2-2.3c0-1.3-1-2.3-2.2-2.3s-2.2,1-2.2,2.3C36.1,74,37.1,75,38.3,75L38.3,75z"/>
					<rect x="43.8" y="70.8" class="st12" width="91.9" height="4.3"/>
				</g>
			</g>
			<rect x="29.8" y="82.1" class="st16" width="25.5" height="3.4"/>
			<rect x="65.9" y="82.1" class="st16" width="25.5" height="3.4"/>
			<rect x="102.1" y="82.1" class="st16" width="25.5" height="3.4"/>
			<rect x="29.1" y="91" class="st1" width="61.3" height="27.9"/>
			<rect x="95.5" y="91" class="st14" width="18.8" height="17.8"/>
			<rect x="28.6" y="122.1" class="st16" width="46.9" height="1.9"/>
			<rect x="37.6" y="125.7" class="st16" width="46.9" height="1.9"/>
			<rect x="30" y="129.5" class="st16" width="46.9" height="1.9"/>
			<polygon class="st12" points="108.7,99.9 104.9,102.2 101.1,104.5 101.1,99.9 101.1,95.3 104.9,97.6 			"/>
			<rect x="95.5" y="113.2" class="st17" width="37.6" height="17.8"/>
			<rect x="114.3" y="91" class="st1" width="18.8" height="17.8"/>
			<path class="st13" d="M43.1,107.3l-3.6-1.6l4.1-1.6l0.2-0.9l-5.3,2.1l-0.2,0.9l4.7,2.1L43.1,107.3z M51.2,106.3l-0.9,5.1h1.3
				l2-11.3h-1.3l-0.9,5.1h-2.8l0.9-5.1h-1.3l-2,11.3h1.4l0.9-5.1H51.2z M55.8,111.4l1.8-10.2h2l0.2-1.1h-5.4l-0.2,1.1h2.1l-1.8,10.2
				H55.8z M66.2,102.3l-1.6,9.1h1.2l2-11.3H66l-3.3,9l-0.3-9h-1.8l-2,11.3h1.1l1.6-9l0.3,9h1.2L66.2,102.3z M71.6,111.4l0.2-1.1
				h-3.2l1.7-10.1H69l-2,11.3h4.6V111.4z M75.6,108.2l5.4-2.1l0.2-0.9l-4.6-2.1l-0.2,0.9l3.6,1.6l-4.1,1.6L75.6,108.2z"/>
			<path class="st6" d="M105.4,123.5l-2.8-1.3l3.2-1.3l0.1-0.7l-4.2,1.6l-0.1,0.7l3.7,1.6L105.4,123.5z M109.3,117.7l-1.3,8.9h2.1
				c1.4,0,2.2-0.8,2.4-2.2l0.7-4.5c0.2-1.4-0.3-2.2-1.7-2.2C111.5,117.7,109.3,117.7,109.3,117.7z M109.1,125.8l1.1-7.1h1.1
				c0.7,0,1,0.5,0.9,1.3l-0.7,4.6c-0.1,0.8-0.5,1.3-1.3,1.3h-1.1V125.8z M114.3,117.7l-1.3,8.9h1l1.3-8.9H114.3z M116.1,117.7
				l0.3,8.9h1.5l3-8.9H120l-2.6,7.8l-0.3-7.8H116.1z M122.7,124.2l4.2-1.6l0.1-0.7l-3.7-1.6l-0.1,0.7l2.8,1.3l-3.2,1.3L122.7,124.2z
				"/>
		</g>
	</g>
	<path class="st12" d="M130.8,55c-0.1-1.3-1.3-2.3-2.6-2.2c-1.3,0.1-2.3,1.3-2.2,2.6c0.1,1.3,1.3,2.3,2.6,2.2
		C130,57.5,131,56.3,130.8,55L130.8,55z"/>
	<path class="st12" d="M156.7,63.5c1.5-1.2,1.7-3.4,0.4-4.9c-1.2-1.5-3.4-1.7-4.9-0.5s-1.7,3.4-0.4,4.9
		C152.9,64.4,155.1,64.7,156.7,63.5L156.7,63.5z"/>
</g>
</svg>
