<?xml version="1.0" encoding="utf-8"?>
<!-- Generator: Adobe Illustrator 19.2.1, SVG Export Plug-In . SVG Version: 6.00 Build 0)  -->
<svg version="1.1" id="Layer_1" xmlns="http://www.w3.org/2000/svg" xmlns:xlink="http://www.w3.org/1999/xlink" x="0px" y="0px"
	 viewBox="0 0 442.1 269.4" style="enable-background:new 0 0 442.1 269.4;" xml:space="preserve">
<style type="text/css">
	.st0{opacity:0.15;}
	.st1{fill:#06856D;}
	.st2{fill:#FFFFFF;}
	.st3{fill:#F37167;}
	.st4{fill:#F26865;}
	.st5{fill:#F15D62;}
	.st6{fill:#2D313B;}
	.st7{fill:#3E434F;}
	.st8{fill:#393E49;}
	.st9{fill:#F1F2F2;}
	.st10{fill:#474F59;}
	.st11{fill:#5A626E;}
	.st12{fill:#1D82FA;}
	.st13{fill:#469CFA;}
	.st14{opacity:0.7;fill:#59A1FB;}
	.st15{opacity:0.8;fill:#F1F2F2;}
	.st16{fill:none;}
	.st17{opacity:0.8;fill:#FFFFFF;}
	.st18{fill:#1D80FA;}
	.st19{fill:#F37769;}
	.st20{fill:#E9E8E9;}
	.st21{fill:#F26F67;}
	.st22{fill:#E6E7E8;}
	.st23{opacity:0.2;fill:#589DBC;}
	.st24{fill:#FBFBFB;}
	.st25{fill:#F6F6F6;}
	.st26{fill:#EBEBEC;}
	.st27{fill:#1D79FA;}
	.st28{fill:#BCBEC0;}
	.st29{fill:#D3D4D5;}
	.st30{fill:#D1D3D4;}
	.st31{fill:#EAEBEC;}
</style>
<g>
	<g>
		<g class="st0">
			<g>
				<g>
					<path class="st1" d="M605.4,90.5c4.9-2.7,9.7-5.4,14.5-8.1c-6.2-11.9-15.3-22.4-27.5-30.5c3.2-4.5,6.5-9.1,9.7-13.6
						c-0.3-0.2-0.7-0.5-1.1-0.7c-3.2,4.6-6.5,9.3-9.7,13.9c12.3,7.9,21.6,18.4,27.9,30.2c-4.7,2.6-9.3,5.3-14,8
						c-3.6-6.7-8.4-12.9-14.4-18.3c-1.4,1.5-2.8,3-4.2,4.5c0.2,0.2,0.4,0.4,0.6,0.5c1.4-1.4,2.7-2.9,4.1-4.3
						C597.1,77.5,601.8,83.7,605.4,90.5z"/>
				</g>
				<g>
					<path class="st1" d="M601.1,38.5c1.6,1,3,1.7,3.2,1.4c0.2-0.3-0.8-1.4-2.4-2.5c-1.6-1-3.1-1.6-3.3-1.3
						C598.4,36.4,599.6,37.4,601.1,38.5z"/>
				</g>
				<g>
					<path class="st1" d="M591.5,52.2c1.3,0.9,2.6,1.4,2.8,1.1c0.2-0.3-0.7-1.3-2-2.2c-1.3-0.9-2.6-1.3-2.8-1
						C589.2,50.4,590.2,51.3,591.5,52.2z"/>
				</g>
				<g>
					<path class="st1" d="M586.6,76.5c0.7,0.6,1.4,1,1.6,0.8c0.2-0.2-0.2-0.9-0.9-1.6c-0.7-0.6-1.5-1-1.7-0.7
						C585.5,75.2,585.9,75.8,586.6,76.5z"/>
				</g>
				<g>
					<path class="st1" d="M619,82.3c0.7,1.3,1.5,2.2,1.8,2c0.3-0.2,0.1-1.4-0.6-2.7c-0.7-1.3-1.5-2.2-1.9-2
						C618,79.8,618.4,81,619,82.3z"/>
				</g>
				<g>
					<path class="st1" d="M604.6,90.4c0.6,1,1.3,1.8,1.6,1.6c0.3-0.2,0.2-1.2-0.4-2.3c-0.6-1.1-1.3-1.8-1.6-1.6
						C603.8,88.3,604,89.4,604.6,90.4z"/>
				</g>
				<g>
					<path class="st1" d="M590.9,72.3c0.6,0.5,1.2,0.8,1.3,0.7c0.2-0.2-0.2-0.7-0.7-1.3c-0.6-0.5-1.2-0.8-1.3-0.6
						C590,71.2,590.4,71.7,590.9,72.3z"/>
				</g>
			</g>
			<g>
				<g>
					<path class="st1" d="M577.5,115c5.2-1.7,10.5-3.4,15.8-5.1c-2.3-8-6.3-15.4-12.1-21.7c4.1-3.8,8.2-7.6,12.3-11.4
						c-0.2-0.2-0.4-0.4-0.6-0.6c-4.1,3.9-8.3,7.8-12.4,11.7c5.9,6.2,10,13.6,12.4,21.5c-5.1,1.7-10.2,3.4-15.2,5.1
						c-1.2-3.9-2.9-7.7-5.3-11.1c-1.7,1.2-3.4,2.4-5,3.6c0.1,0.1,0.1,0.2,0.2,0.3c1.6-1.1,3.2-2.3,4.9-3.4
						C574.6,107.3,576.4,111.1,577.5,115z"/>
				</g>
				<g>
					<path class="st1" d="M592.6,77c0.8,0.9,1.7,1.4,2,1.1c0.3-0.2-0.2-1.2-1-2.1c-0.8-0.9-1.7-1.4-2-1.1
						C591.3,75.3,591.8,76.2,592.6,77z"/>
				</g>
				<g>
					<path class="st1" d="M580.3,88.5c0.6,0.7,1.4,1,1.6,0.8c0.3-0.2,0-1-0.7-1.7c-0.7-0.7-1.4-1-1.7-0.8
						C579.4,87.1,579.7,87.8,580.3,88.5z"/>
				</g>
				<g>
					<path class="st1" d="M567,107.4c0.2,0.4,0.7,0.5,0.9,0.4c0.3-0.2,0.2-0.6,0-1c-0.3-0.4-0.7-0.5-0.9-0.4
						C566.7,106.6,566.7,107.1,567,107.4z"/>
				</g>
				<g>
					<path class="st1" d="M592.4,109.9c0.3,0.8,0.7,1.5,1.1,1.4c0.3-0.1,0.5-0.9,0.2-1.8c-0.2-0.9-0.8-1.5-1.1-1.4
						C592.3,108.2,592.2,109,592.4,109.9z"/>
				</g>
				<g>
					<path class="st1" d="M576.8,115c0.2,0.6,0.6,1,1,0.9c0.3-0.1,0.5-0.7,0.3-1.3c-0.2-0.6-0.6-1-1-0.9
						C576.8,113.8,576.6,114.4,576.8,115z"/>
				</g>
				<g>
					<path class="st1" d="M572,104.1c0.2,0.3,0.6,0.5,0.7,0.4c0.2-0.1,0.2-0.5,0-0.9c-0.2-0.3-0.6-0.5-0.8-0.3
						C571.7,103.3,571.7,103.7,572,104.1z"/>
				</g>
			</g>
			<g>
				<g>
					<path class="st1" d="M603.1,127.9c5.5,0,10.9,0.1,16.4,0.1c0.3-11.9-1.8-23.7-6.4-34.6c5.1-2.3,10.1-4.6,15.2-7
						c-0.1-0.3-0.3-0.7-0.4-1c-5.1,2.4-10.2,4.8-15.4,7.2c4.7,10.8,6.9,22.6,6.8,34.4c-5.3,0-10.6,0.1-15.9,0.1
						c0.1-6.6-0.8-13.1-2.5-19.4c-2,0.6-3.9,1.2-5.9,1.8c0.1,0.2,0.1,0.4,0.2,0.6c1.9-0.6,3.8-1.2,5.6-1.7
						C602.5,114.8,603.2,121.3,603.1,127.9z"/>
				</g>
				<g>
					<path class="st1" d="M627.4,86.2c0.6,1.4,1.3,2.5,1.7,2.3c0.3-0.1,0.1-1.4-0.4-2.9c-0.6-1.4-1.4-2.4-1.8-2.3
						C626.5,83.5,626.8,84.8,627.4,86.2z"/>
				</g>
				<g>
					<path class="st1" d="M612.2,93.3c0.5,1.2,1.2,2,1.5,1.9c0.3-0.1,0.2-1.2-0.3-2.4c-0.5-1.2-1.2-2-1.6-1.8
						C611.5,91,611.7,92.1,612.2,93.3z"/>
				</g>
				<g>
					<path class="st1" d="M594.6,110.1c0.2,0.7,0.6,1.3,0.9,1.2c0.3-0.1,0.4-0.8,0.2-1.5c-0.2-0.7-0.6-1.3-0.9-1.2
						C594.5,108.7,594.4,109.3,594.6,110.1z"/>
				</g>
				<g>
					<path class="st1" d="M618.8,127.5c0,1.3,0.2,2.3,0.6,2.3c0.4,0,0.7-1,0.7-2.3c0-1.3-0.3-2.4-0.7-2.4
						C619.1,125.2,618.8,126.2,618.8,127.5z"/>
				</g>
				<g>
					<path class="st1" d="M602.5,127.5c0,1,0.2,1.8,0.6,1.8c0.4,0,0.7-0.8,0.7-1.8c0-1.1-0.3-1.9-0.7-1.9
						C602.8,125.7,602.5,126.5,602.5,127.5z"/>
				</g>
				<g>
					<path class="st1" d="M600.4,108.5c0.2,0.6,0.5,1.1,0.7,1c0.2-0.1,0.3-0.6,0.1-1.2c-0.2-0.6-0.5-1.1-0.7-1
						C600.3,107.3,600.2,107.9,600.4,108.5z"/>
				</g>
			</g>
			<g>
				<g>
					<path class="st1" d="M629.5,187.8c0.1,0,0.1,0.1,0.2,0.1c4.8-7.8,8.7-16.3,11.5-25c2.2,0.8,4.4,1.5,6.6,2.3
						c8.5-26.2,8.6-55.3-0.9-81.1c-3.1,1.3-6.3,2.5-9.4,3.8c-8.7-23.7-26.1-44.3-53.3-56c0,0.1-0.1,0.1-0.1,0.2
						c27.6,11.8,45.1,32.9,53.6,57c3.2-1.2,6.3-2.5,9.5-3.7c8.8,25,8.8,53.1,0.8,78.6c-2.2-0.7-4.4-1.5-6.6-2.2
						C638.5,170.8,634.6,179.6,629.5,187.8z"/>
				</g>
				<g>
					<path class="st1" d="M587.4,33.3c0.2-0.3-1.1-1.3-2.9-2.1c-1.8-0.8-3.4-1.1-3.6-0.8c-0.2,0.3,1.2,1.2,3,2
						C585.7,33.2,587.2,33.6,587.4,33.3z"/>
				</g>
				<g>
					<path class="st1" d="M638.5,90.9c0.3-0.1,0.2-1.5-0.4-3.1c-0.6-1.6-1.4-2.7-1.7-2.6c-0.3,0.1-0.1,1.5,0.5,3.1
						C637.5,89.8,638.2,91,638.5,90.9z"/>
				</g>
				<g>
					<path class="st1" d="M628.5,189.6c0.2,0.2,1.1-0.7,1.8-1.8c0.7-1.2,1.1-2.3,0.8-2.5c-0.3-0.1-1,0.7-1.7,1.9
						C628.7,188.4,628.3,189.4,628.5,189.6z"/>
				</g>
				<g>
					<path class="st1" d="M648,87.4c0.4-0.1,0.2-1.6-0.5-3.4c-0.6-1.7-1.5-3-1.8-2.9c-0.3,0.1-0.1,1.7,0.6,3.4
						C646.9,86.2,647.7,87.5,648,87.4z"/>
				</g>
				<g>
					<path class="st1" d="M646.7,168.1c0.3,0.1,1.1-1.2,1.7-3c0.6-1.8,0.7-3.3,0.4-3.4c-0.4-0.1-1,1.2-1.6,3
						C646.6,166.4,646.4,167.9,646.7,168.1z"/>
				</g>
				<g>
					<path class="st1" d="M640.7,164.5c0.2,0.1,0.7-0.7,1-1.7c0.4-1.1,0.4-1.9,0.2-2c-0.2-0.1-0.6,0.7-1,1.8
						C640.6,163.5,640.4,164.4,640.7,164.5z"/>
				</g>
			</g>
			<g>
				<g>
					<path class="st1" d="M585.3,158.5c0.1,0,0.1,0.1,0.2,0.1c2.5-4,4.5-8.4,5.9-12.9c2.2,0.8,4.4,1.5,6.6,2.3
						c4.6-14.3,4.7-30.1-0.5-44.2c-3.1,1.3-6.3,2.5-9.4,3.8c-4.3-11.9-13.1-22.2-26.7-28.1c0,0.1-0.1,0.2-0.1,0.2
						c13.8,5.9,22.6,16.4,26.8,28.5c3.1-1.2,6.3-2.4,9.5-3.7c4.8,13.6,4.8,28.9,0.4,42.7c-2.2-0.7-4.4-1.4-6.6-2.2
						C589.9,149.8,587.9,154.3,585.3,158.5z"/>
				</g>
				<g>
					<path class="st1" d="M563,80.3c0.2-0.3-0.4-0.9-1.3-1.3c-0.9-0.4-1.8-0.4-1.9-0.1c-0.2,0.3,0.5,0.9,1.4,1.3
						C561.9,80.6,562.8,80.7,563,80.3z"/>
				</g>
				<g>
					<path class="st1" d="M588.6,109.2c0.3-0.1,0.4-0.9,0.1-1.7c-0.3-0.8-0.8-1.3-1.2-1.2c-0.3,0.2-0.4,0.9-0.1,1.7
						C587.7,108.8,588.2,109.3,588.6,109.2z"/>
				</g>
				<g>
					<path class="st1" d="M584.8,159.5c0.3,0.2,0.8-0.2,1.1-0.8c0.4-0.6,0.5-1.3,0.2-1.4c-0.2-0.2-0.8,0.2-1.1,0.8
						C584.7,158.7,584.6,159.3,584.8,159.5z"/>
				</g>
				<g>
					<path class="st1" d="M598.1,105.7c0.3-0.1,0.4-1,0-1.9c-0.3-0.9-0.9-1.6-1.3-1.4c-0.3,0.2-0.3,1,0,1.9
						C597.2,105.1,597.8,105.8,598.1,105.7z"/>
				</g>
				<g>
					<path class="st1" d="M597.4,149.6c0.3,0.1,0.9-0.5,1.2-1.5c0.3-1,0.2-1.9-0.1-2c-0.4-0.1-0.9,0.6-1.2,1.5
						C597,148.6,597,149.4,597.4,149.6z"/>
				</g>
				<g>
					<path class="st1" d="M591.1,146.6c0.2,0.1,0.5-0.3,0.7-0.8c0.2-0.5,0.1-1-0.1-1.1c-0.2-0.1-0.5,0.3-0.7,0.8
						C590.9,146,590.9,146.5,591.1,146.6z"/>
				</g>
			</g>
			<g>
				<g>
					<path class="st1" d="M575.9,194.5c0,0.1,0.1,0.2,0.1,0.2c5.8-3.2,11-7.1,15.5-11.7c1.6,1.7,3.2,3.4,4.9,5.1
						c13.9-14,22.2-33,24.3-52.6c-3.3-0.3-6.7-0.6-10-1c1.8-17.4-1.9-35.3-12-49.8c-0.1,0.1-0.1,0.1-0.2,0.2
						c10.2,14.6,13.9,32.8,11.9,50.4c3.3,0.4,6.7,0.7,10,1.1c-2.2,19-10.3,37.3-23.5,50.9c-1.6-1.7-3.3-3.4-4.9-5
						C587.3,187.1,581.9,191.2,575.9,194.5z"/>
				</g>
				<g>
					<path class="st1" d="M599.8,86.6c0.3-0.2,0-1.2-0.6-2.1c-0.7-1-1.5-1.6-1.8-1.3c-0.3,0.2,0,1.1,0.7,2.1
						C598.7,86.2,599.5,86.8,599.8,86.6z"/>
				</g>
				<g>
					<path class="st1" d="M610.1,136.8c0.3,0.1,0.8-0.9,0.9-2c0.1-1.2-0.1-2.1-0.5-2.2c-0.4,0-0.7,0.9-0.9,2
						C609.6,135.8,609.8,136.7,610.1,136.8z"/>
				</g>
				<g>
					<path class="st1" d="M574.6,195.4c0.2,0.3,1,0.1,1.9-0.4c0.9-0.5,1.5-1.1,1.3-1.4c-0.2-0.3-1,0-1.9,0.4
						C575.1,194.5,574.5,195.1,574.6,195.4z"/>
				</g>
				<g>
					<path class="st1" d="M620.3,138.1c0.4,0,0.8-1,1-2.3c0.1-1.3-0.1-2.4-0.4-2.5c-0.4,0-0.8,1-0.9,2.3
						C619.8,136.9,619.9,138,620.3,138.1z"/>
				</g>
				<g>
					<path class="st1" d="M594.7,189.6c0.2,0.3,1.2-0.2,2.2-1.2c1-1,1.5-2,1.2-2.2c-0.3-0.3-1.2,0.3-2.1,1.2
						C595,188.4,594.5,189.4,594.7,189.6z"/>
				</g>
				<g>
					<path class="st1" d="M590.6,183.9c0.1,0.2,0.7-0.1,1.3-0.6c0.5-0.5,0.8-1.1,0.7-1.3c-0.2-0.1-0.7,0.2-1.3,0.7
						C590.8,183.2,590.5,183.7,590.6,183.9z"/>
				</g>
			</g>
			<g>
				<g>
					<path class="st1" d="M565.6,157.4c0.1,0,0.1,0.1,0.2,0.2c2.5-2.3,4.6-5,6.4-7.9c1.9,1.3,3.9,2.6,5.8,3.8
						c5.8-9.5,8.4-21.1,7.2-32.2c-3.3,0.4-6.7,0.9-10,1.3c-0.9-8.8-4.8-17.2-11.9-23.2c-0.1,0.1-0.1,0.1-0.2,0.2
						c7.2,6.1,11.1,14.6,11.9,23.5c3.3-0.4,6.7-0.8,10-1.2c1,10.7-1.4,21.8-7,31.1c-2-1.3-3.9-2.5-5.9-3.8
						C570.3,152.2,568.1,154.9,565.6,157.4z"/>
				</g>
				<g>
					<path class="st1" d="M564,100.2c0.3-0.3,0.1-0.8-0.4-1.2c-0.5-0.4-1.1-0.5-1.3-0.2c-0.2,0.3,0,0.8,0.4,1.2
						C563.2,100.4,563.7,100.5,564,100.2z"/>
				</g>
				<g>
					<path class="st1" d="M575.1,123.8c0.4,0,0.6-0.6,0.6-1.2c-0.1-0.6-0.4-1-0.8-1c-0.3,0.1-0.6,0.6-0.5,1.1
						C574.5,123.4,574.8,123.8,575.1,123.8z"/>
				</g>
				<g>
					<path class="st1" d="M565.1,158c0.2,0.2,0.7,0.1,1-0.2c0.4-0.4,0.5-0.8,0.3-1c-0.2-0.2-0.7-0.1-1,0.2
						C565,157.3,564.9,157.8,565.1,158z"/>
				</g>
				<g>
					<path class="st1" d="M585.2,122.8c0.4,0,0.6-0.7,0.5-1.4c-0.1-0.8-0.4-1.3-0.8-1.3c-0.4,0.1-0.6,0.7-0.5,1.4
						C584.5,122.2,584.8,122.8,585.2,122.8z"/>
				</g>
				<g>
					<path class="st1" d="M577.2,154.5c0.3,0.2,0.9-0.1,1.3-0.8c0.4-0.7,0.4-1.3,0.1-1.5c-0.3-0.2-0.9,0.2-1.2,0.8
						C577,153.6,576.9,154.3,577.2,154.5z"/>
				</g>
				<g>
					<path class="st1" d="M571.7,150.2c0.2,0.1,0.5,0,0.7-0.4c0.2-0.3,0.2-0.7,0-0.9c-0.2-0.1-0.5,0.1-0.7,0.4
						C571.6,149.7,571.5,150.1,571.7,150.2z"/>
				</g>
			</g>
			<g>
				<g>
					<path class="st1" d="M531.1,180.8c0,0.1,0,0.2,0,0.2c6,0.9,11.6,0.9,16.8,0.2c0.4,2.3,0.8,4.6,1.2,6.9
						c16.5-2.2,29.3-10.8,37.9-22.5c-2.7-2.1-5.3-4.2-8-6.3c7.3-9.8,10.9-22.2,10.6-34.5c-0.1,0-0.2,0-0.2,0
						c0.3,12.4-3.4,24.9-10.9,34.8c2.6,2.1,5.3,4.2,7.9,6.4c-8.4,11.2-20.8,19.4-36.6,21.7c-0.4-2.3-0.9-4.6-1.3-6.9
						C543.1,181.7,537.3,181.7,531.1,180.8z"/>
				</g>
				<g>
					<path class="st1" d="M589.4,126.4c0.4,0,0.7-0.7,0.6-1.5c0-0.8-0.3-1.5-0.7-1.5c-0.4,0.1-0.6,0.7-0.6,1.5
						C588.8,125.8,589.1,126.4,589.4,126.4z"/>
				</g>
				<g>
					<path class="st1" d="M577.9,160.6c0.3,0.2,0.9-0.1,1.4-0.8c0.5-0.7,0.6-1.4,0.3-1.6c-0.3-0.2-0.9,0.1-1.4,0.8
						C577.8,159.7,577.6,160.4,577.9,160.6z"/>
				</g>
				<g>
					<path class="st1" d="M529.7,180.7c-0.1,0.3,0.7,0.7,1.6,0.8c0.9,0.1,1.7,0,1.7-0.3c0-0.3-0.7-0.6-1.6-0.8
						C530.5,180.3,529.7,180.4,529.7,180.7z"/>
				</g>
				<g>
					<path class="st1" d="M585.7,167.2c0.3,0.2,1-0.2,1.6-1c0.6-0.8,0.8-1.6,0.5-1.8c-0.3-0.2-1,0.2-1.6,1
						C585.7,166.1,585.4,166.9,585.7,167.2z"/>
				</g>
				<g>
					<path class="st1" d="M547.1,188.3c0.1,0.4,1,0.6,2.1,0.4c1.1-0.2,2-0.6,1.9-1c-0.1-0.3-1-0.5-2.1-0.3
						C547.9,187.5,547.1,187.9,547.1,188.3z"/>
				</g>
				<g>
					<path class="st1" d="M546.8,181.4c0,0.2,0.6,0.3,1.2,0.3c0.6-0.1,1.1-0.3,1-0.6c0-0.2-0.5-0.3-1.1-0.3
						C547.2,180.9,546.8,181.1,546.8,181.4z"/>
				</g>
			</g>
			<g>
				<g>
					<path class="st1" d="M588.7,179.8C588.7,179.8,588.8,179.8,588.7,179.8c2-1.9,3.8-3.9,5.5-6.1c0.8,0.7,1.7,1.3,2.5,2
						c4.9-6.3,8.8-13.5,11.5-21c-1.4-0.6-2.8-1.1-4.2-1.6c2.6-7.2,4.2-14.7,4.6-22.3c0,0-0.1,0-0.1,0c-0.4,7.7-2.1,15.4-4.7,22.6
						c1.4,0.6,2.8,1.1,4.2,1.7c-2.7,7.3-6.5,14.2-11.2,20.3c-0.8-0.7-1.6-1.4-2.5-2C592.6,175.6,590.7,177.7,588.7,179.8z"/>
				</g>
				<g>
					<path class="st1" d="M608.4,131.6c0.2,0,0.3-0.4,0.4-0.9c0-0.5-0.1-0.9-0.3-0.9c-0.1,0-0.3,0.4-0.3,0.9
						C608.2,131.2,608.3,131.6,608.4,131.6z"/>
				</g>
				<g>
					<path class="st1" d="M603.5,153.9c0.2,0.1,0.4-0.3,0.6-0.8c0.2-0.5,0.2-0.9,0-1c-0.2-0.1-0.4,0.3-0.6,0.8
						C603.4,153.4,603.4,153.9,603.5,153.9z"/>
				</g>
				<g>
					<path class="st1" d="M588.3,180.3c0.1,0.1,0.4-0.1,0.7-0.3c0.3-0.3,0.4-0.6,0.3-0.7c-0.1-0.1-0.4,0.1-0.7,0.3
						C588.4,179.8,588.2,180.2,588.3,180.3z"/>
				</g>
				<g>
					<path class="st1" d="M607.8,155.6c0.2,0.1,0.4-0.3,0.6-0.8c0.2-0.5,0.2-1,0.1-1c-0.2-0.1-0.4,0.3-0.6,0.8
						C607.6,155.1,607.6,155.6,607.8,155.6z"/>
				</g>
				<g>
					<path class="st1" d="M596,176.4c0.1,0.1,0.5-0.1,0.8-0.5c0.3-0.4,0.5-0.9,0.4-1c-0.1-0.1-0.5,0.2-0.8,0.6
						C596.1,175.8,595.9,176.3,596,176.4z"/>
				</g>
				<g>
					<path class="st1" d="M593.9,174.1c0.1,0.1,0.3-0.1,0.5-0.3c0.2-0.3,0.3-0.5,0.2-0.6c-0.1-0.1-0.3,0.1-0.5,0.3
						C593.9,173.7,593.8,174,593.9,174.1z"/>
				</g>
			</g>
			<g>
				<g>
					<path class="st1" d="M580.5,153.1C580.4,153,580.4,153,580.5,153.1c-1,1.5-2,3.1-3.1,4.6c-0.8-0.6-1.7-1.3-2.5-1.9
						c-2.9,3.9-6.4,7.4-10.5,10.2c0.9,1.3,1.7,2.5,2.6,3.8c-4.6,3.1-9.8,5.4-15.7,6.7c0,0.1,0,0.1,0,0.1c6-1.3,11.3-3.7,15.9-6.9
						c-0.9-1.3-1.7-2.6-2.6-3.8c4-2.8,7.4-6.1,10.2-10c0.8,0.6,1.7,1.3,2.5,2C578.5,156.4,579.5,154.8,580.5,153.1z"/>
				</g>
				<g>
					<path class="st1" d="M552,176.5c-0.1-0.2-0.4-0.2-0.8-0.1c-0.4,0.1-0.7,0.3-0.6,0.4c0,0.2,0.4,0.2,0.8,0.1
						C551.8,176.8,552,176.6,552,176.5z"/>
				</g>
				<g>
					<path class="st1" d="M567.5,169.5c-0.1-0.1-0.4-0.1-0.7,0.1c-0.3,0.2-0.5,0.5-0.4,0.6c0.1,0.1,0.4,0.1,0.7-0.1
						C567.5,169.9,567.6,169.6,567.5,169.5z"/>
				</g>
				<g>
					<path class="st1" d="M580.6,152.6c-0.1-0.1-0.3,0.1-0.5,0.3c-0.2,0.2-0.2,0.5,0,0.6c0.1,0.1,0.3-0.1,0.5-0.3
						C580.7,153,580.7,152.7,580.6,152.6z"/>
				</g>
				<g>
					<path class="st1" d="M564.9,165.7c-0.1-0.1-0.4-0.1-0.7,0.1c-0.3,0.2-0.4,0.5-0.3,0.6c0.1,0.1,0.4,0.1,0.7-0.1
						C564.9,166.1,565,165.8,564.9,165.7z"/>
				</g>
				<g>
					<path class="st1" d="M575.2,155.3c-0.1-0.1-0.4,0-0.6,0.3c-0.2,0.3-0.3,0.6-0.1,0.7c0.1,0.1,0.4,0,0.6-0.3
						C575.3,155.7,575.4,155.4,575.2,155.3z"/>
				</g>
				<g>
					<path class="st1" d="M577.6,157.4c-0.1-0.1-0.3,0-0.4,0.2c-0.1,0.2-0.2,0.4-0.1,0.4c0.1,0.1,0.3,0,0.4-0.2
						C577.6,157.7,577.7,157.5,577.6,157.4z"/>
				</g>
			</g>
			<g>
				<g>
					<path class="st1" d="M615.2,54.8c0,0.1-0.1,0.1-0.1,0.1c4.5,4.7,8.4,9.7,11.8,15.1c-1.4,0.9-2.8,1.8-4.2,2.8
						c9,14.3,13.8,30.8,14.6,47.5c2.4-0.2,4.8-0.3,7.2-0.5c0.9,18.1-2.5,36.6-9.8,53.1c0.1,0,0.1,0,0.2,0.1
						c7.4-16.9,10.8-35.6,9.8-54c-2.4,0.2-4.8,0.4-7.2,0.6c-0.9-16.3-5.5-32.3-14.1-46.2c1.4-0.9,2.8-1.8,4.2-2.7
						C624,65,619.9,59.7,615.2,54.8z"/>
				</g>
				<g>
					<path class="st1" d="M635.5,171c-0.2-0.1-0.8,0.7-1.3,1.8c-0.5,1.1-0.7,2.1-0.5,2.2c0.2,0.1,0.8-0.7,1.3-1.8
						C635.6,172,635.7,171.1,635.5,171z"/>
				</g>
				<g>
					<path class="st1" d="M644.3,117.5c-0.3,0-0.4,1-0.4,2.2c0.1,1.2,0.3,2.2,0.6,2.1c0.3,0,0.5-1,0.4-2.2
						C644.8,118.4,644.6,117.5,644.3,117.5z"/>
				</g>
				<g>
					<path class="st1" d="M614,53.8c-0.2,0.1,0.3,0.8,1,1.5c0.7,0.7,1.4,1.2,1.5,1.1c0.2-0.2-0.2-0.9-0.9-1.6
						C614.9,54.1,614.2,53.7,614,53.8z"/>
				</g>
				<g>
					<path class="st1" d="M637.1,118.2c-0.3,0-0.4,1-0.3,2.1c0.1,1.1,0.3,2,0.6,2c0.2,0,0.4-0.9,0.4-2.1
						C637.7,119,637.4,118.1,637.1,118.2z"/>
				</g>
				<g>
					<path class="st1" d="M621.7,71.1c-0.2,0.2,0.1,1,0.7,2c0.6,1,1.3,1.6,1.5,1.5c0.2-0.1-0.1-1-0.7-2
						C622.6,71.6,621.9,70.9,621.7,71.1z"/>
				</g>
				<g>
					<path class="st1" d="M626.2,69c-0.2,0.1,0.1,0.7,0.5,1.3c0.4,0.6,0.8,1.1,1,1c0.1-0.1-0.1-0.7-0.5-1.3
						C626.8,69.3,626.4,68.9,626.2,69z"/>
				</g>
			</g>
			<g>
				<g>
					<path class="st1" d="M605.9,162c-0.1,0.2-0.2,0.3-0.3,0.5c1.2,0.7,2.5,1.3,3.7,1.9c-2.5,5.2-5.5,10.1-9.1,14.6
						c3,2.5,6.1,5,9.1,7.6c5.9-7.5,10.5-15.9,13.9-24.8c3.6,1.5,7.3,2.9,10.9,4.4c0.1-0.2,0.2-0.5,0.3-0.8
						c-3.7-1.5-7.4-2.9-11.1-4.4c-3.3,8.9-7.9,17.3-13.7,24.8c-2.9-2.4-5.9-4.9-8.8-7.3c3.5-4.5,6.5-9.5,9-14.6
						C608.5,163.4,607.2,162.7,605.9,162z"/>
				</g>
				<g>
					<path class="st1" d="M634.1,165.5c-0.4,1.1-0.6,2.1-0.3,2.2c0.2,0.1,0.8-0.7,1.2-1.8c0.4-1.1,0.5-2.1,0.3-2.2
						C635,163.6,634.5,164.4,634.1,165.5z"/>
				</g>
				<g>
					<path class="st1" d="M622.9,161.3c-0.4,1-0.5,1.8-0.2,1.9c0.2,0.1,0.7-0.6,1.1-1.6c0.4-1,0.4-1.9,0.2-1.9
						C623.7,159.6,623.3,160.4,622.9,161.3z"/>
				</g>
				<g>
					<path class="st1" d="M605.5,162.1c-0.3,0.6-0.4,1.2-0.2,1.3c0.2,0.1,0.6-0.3,0.9-1c0.3-0.6,0.4-1.2,0.2-1.3
						C606.2,161.1,605.8,161.5,605.5,162.1z"/>
				</g>
				<g>
					<path class="st1" d="M609.2,186c-0.6,0.8-1,1.6-0.8,1.8c0.2,0.2,0.9-0.4,1.5-1.2c0.6-0.8,1-1.6,0.8-1.8
						C610.5,184.7,609.8,185.2,609.2,186z"/>
				</g>
				<g>
					<path class="st1" d="M600.1,178.5c-0.5,0.7-0.9,1.4-0.7,1.6c0.2,0.2,0.8-0.3,1.4-1c0.5-0.7,0.8-1.4,0.6-1.6
						C601.3,177.4,600.7,177.8,600.1,178.5z"/>
				</g>
				<g>
					<path class="st1" d="M609.2,164.3c-0.3,0.5-0.3,1-0.2,1c0.1,0.1,0.4-0.3,0.7-0.8c0.2-0.5,0.3-1,0.2-1.1
						C609.7,163.4,609.4,163.8,609.2,164.3z"/>
				</g>
			</g>
			<g>
				<g>
					<path class="st1" d="M567.8,170.9c-0.1,0.1-0.2,0.2-0.3,0.2c0.8,1.2,1.6,2.4,2.3,3.5c-3.4,2.3-7.1,4.2-11.1,5.6
						c1.4,3.7,2.8,7.4,4.2,11.1c7.1-2.5,13.3-6.2,18.7-10.7c2.5,3.1,5,6.2,7.5,9.3c0.1-0.1,0.3-0.3,0.5-0.4
						c-2.6-3.1-5.1-6.2-7.7-9.4c-5.3,4.6-11.5,8.3-18.5,10.8c-1.4-3.6-2.8-7.1-4.2-10.7c4-1.4,7.7-3.4,11.1-5.7
						C569.5,173.3,568.6,172.1,567.8,170.9z"/>
				</g>
				<g>
					<path class="st1" d="M589.1,189.3c-0.7,0.6-1.1,1.2-1,1.4c0.2,0.2,0.9-0.1,1.6-0.7c0.7-0.6,1.1-1.2,0.9-1.4
						C590.5,188.4,589.8,188.7,589.1,189.3z"/>
				</g>
				<g>
					<path class="st1" d="M581.5,180c-0.6,0.5-0.9,1.1-0.8,1.3c0.2,0.2,0.8,0,1.4-0.5c0.6-0.5,0.9-1.1,0.7-1.3
						C582.7,179.3,582.1,179.5,581.5,180z"/>
				</g>
				<g>
					<path class="st1" d="M567.5,170.7c-0.4,0.3-0.6,0.6-0.5,0.8c0.1,0.2,0.6,0.1,1-0.2c0.4-0.3,0.6-0.6,0.5-0.8
						C568.3,170.4,567.9,170.5,567.5,170.7z"/>
				</g>
				<g>
					<path class="st1" d="M563,190.7c-0.8,0.3-1.3,0.7-1.2,0.9c0.1,0.2,0.8,0.2,1.6,0c0.8-0.3,1.3-0.7,1.2-1
						C564.5,190.4,563.8,190.5,563,190.7z"/>
				</g>
				<g>
					<path class="st1" d="M558.8,179.7c-0.6,0.2-1.1,0.6-1,0.8c0.1,0.3,0.7,0.3,1.3,0.1c0.7-0.2,1.1-0.6,1-0.9
						C560,179.5,559.4,179.5,558.8,179.7z"/>
				</g>
				<g>
					<path class="st1" d="M569.7,174.4c-0.3,0.2-0.5,0.5-0.4,0.7c0.1,0.1,0.4,0.1,0.8-0.1c0.3-0.2,0.5-0.5,0.4-0.7
						C570.4,174.1,570.1,174.2,569.7,174.4z"/>
				</g>
			</g>
			<g>
				<g>
					<path class="st1" d="M559.1,88.5c0.1,0,0.2,0.1,0.3,0.2c0.7-1.2,1.3-2.5,2-3.7c3.6,1.7,6.7,3.8,9.5,6.2
						c2.6-2.9,5.3-5.9,7.9-8.9c-5-4.3-11-7.8-18-10.3c1.5-3.7,2.9-7.3,4.4-11c-0.2-0.1-0.4-0.2-0.6-0.2c-1.5,3.7-2.9,7.5-4.4,11.2
						c7.1,2.5,13.1,6,18.1,10.2c-2.5,2.9-5.1,5.8-7.6,8.7c-2.8-2.4-6-4.4-9.6-6.1C560.4,85.9,559.7,87.2,559.1,88.5z"/>
				</g>
				<g>
					<path class="st1" d="M564.6,61.3c0.9,0.3,1.7,0.4,1.8,0.2c0.1-0.2-0.6-0.7-1.5-1.1c-1-0.3-1.8-0.4-1.9-0.1
						C563,60.5,563.7,61,564.6,61.3z"/>
				</g>
				<g>
					<path class="st1" d="M560.3,72.3c0.7,0.3,1.4,0.3,1.5,0.1c0.1-0.2-0.4-0.7-1.2-1c-0.8-0.3-1.5-0.3-1.6,0
						C559,71.7,559.5,72.1,560.3,72.3z"/>
				</g>
				<g>
					<path class="st1" d="M559.1,88.9c0.4,0.2,0.8,0.2,0.9,0c0.1-0.2-0.1-0.5-0.6-0.7c-0.4-0.2-0.8-0.2-0.9,0
						C558.4,88.3,558.7,88.7,559.1,88.9z"/>
				</g>
				<g>
					<path class="st1" d="M578.6,82.8c0.5,0.5,1.1,0.7,1.3,0.5c0.2-0.2-0.1-0.7-0.7-1.2c-0.5-0.5-1.1-0.7-1.3-0.5
						C577.7,81.8,578,82.3,578.6,82.8z"/>
				</g>
				<g>
					<path class="st1" d="M570.4,91.4c0.4,0.4,0.9,0.5,1.1,0.3c0.2-0.2,0-0.7-0.5-1c-0.4-0.4-0.9-0.5-1.1-0.3
						C569.8,90.6,570,91,570.4,91.4z"/>
				</g>
				<g>
					<path class="st1" d="M561.2,85.2c0.4,0.2,0.7,0.2,0.8,0c0.1-0.1-0.1-0.4-0.5-0.6c-0.4-0.2-0.7-0.2-0.8,0
						C560.6,84.7,560.8,85,561.2,85.2z"/>
				</g>
			</g>
			<g>
				<g>
					<path class="st1" d="M637.1,98.1c0,0.1,0.1,0.2,0.1,0.3c0.6-0.2,1.2-0.3,1.7-0.5c0.8,3.1,1.5,6.2,2,9.3c1.6-0.3,3.3-0.7,4.9-1
						c-0.8-4.8-1.9-9.5-3.3-14.1c1.6-0.5,3.2-1.1,4.8-1.6c0-0.1-0.1-0.2-0.1-0.3c-1.6,0.6-3.2,1.1-4.9,1.7c1.4,4.6,2.5,9.3,3.3,14
						c-1.6,0.3-3.2,0.6-4.8,1c-0.5-3.1-1.2-6.3-2-9.3C638.3,97.7,637.7,97.9,637.1,98.1z"/>
				</g>
				<g>
					<path class="st1" d="M647,90.4c0.2,0.5,0.4,0.9,0.5,0.9c0.1,0,0.1-0.5-0.1-1c-0.2-0.5-0.4-0.9-0.5-0.9
						C646.8,89.4,646.9,89.9,647,90.4z"/>
				</g>
				<g>
					<path class="st1" d="M642.2,92c0.1,0.5,0.4,0.9,0.5,0.9c0.1-0.1,0.1-0.5-0.1-1c-0.2-0.5-0.4-0.9-0.5-0.8
						C642,91.1,642.1,91.5,642.2,92z"/>
				</g>
				<g>
					<path class="st1" d="M637,98.3c0.1,0.4,0.3,0.7,0.3,0.7c0.1,0,0.1-0.4,0-0.8c-0.1-0.4-0.2-0.7-0.3-0.7
						C636.9,97.5,636.9,97.9,637,98.3z"/>
				</g>
				<g>
					<path class="st1" d="M645.5,106.1c0.1,0.5,0.2,0.9,0.4,0.9c0.1,0,0.1-0.5,0-1c-0.1-0.5-0.3-0.9-0.4-0.9
						C645.4,105.1,645.5,105.6,645.5,106.1z"/>
				</g>
				<g>
					<path class="st1" d="M640.6,107.1c0.1,0.5,0.2,0.9,0.3,0.8c0.1,0,0.1-0.4,0.1-0.9c-0.1-0.5-0.2-0.9-0.3-0.9
						C640.6,106.1,640.6,106.6,640.6,107.1z"/>
				</g>
				<g>
					<path class="st1" d="M638.8,97.8c0.1,0.3,0.2,0.5,0.3,0.5c0.1,0,0.1-0.3,0-0.6c-0.1-0.3-0.2-0.6-0.3-0.5
						C638.7,97.3,638.7,97.5,638.8,97.8z"/>
				</g>
			</g>
			<g>
				<g>
					<path class="st1" d="M619.6,117.5c0,0.1,0,0.2,0,0.3c0.6-0.1,1.2-0.2,1.8-0.2c0.2,2.5,0.4,5.1,0.4,7.7c1.7,0,3.3-0.1,5-0.1
						c0-3.9-0.3-7.8-0.8-11.7c1.7-0.3,3.3-0.5,5-0.8c0-0.1,0-0.2,0-0.3c-1.7,0.3-3.4,0.6-5,0.8c0.5,3.9,0.8,7.8,0.8,11.7
						c-1.6,0-3.2,0.1-4.8,0.1c0-2.5-0.2-5.1-0.4-7.6C620.8,117.4,620.2,117.4,619.6,117.5z"/>
				</g>
				<g>
					<path class="st1" d="M630.7,112.5c0.1,0.5,0.2,0.8,0.3,0.8c0.1,0,0.1-0.4,0.1-0.8c-0.1-0.5-0.2-0.8-0.3-0.8
						C630.6,111.6,630.6,112,630.7,112.5z"/>
				</g>
				<g>
					<path class="st1" d="M625.7,113.3c0.1,0.4,0.2,0.8,0.3,0.7c0.1,0,0.2-0.4,0.1-0.8c-0.1-0.5-0.2-0.7-0.3-0.7
						C625.6,112.5,625.6,112.9,625.7,113.3z"/>
				</g>
				<g>
					<path class="st1" d="M619.4,117.7c0.1,0.3,0.1,0.6,0.2,0.6c0.1,0,0.1-0.3,0.1-0.6c-0.1-0.3-0.1-0.5-0.2-0.5
						C619.4,117.1,619.4,117.4,619.4,117.7z"/>
				</g>
				<g>
					<path class="st1" d="M626.5,125c0,0.4,0.1,0.8,0.2,0.8c0.1,0,0.2-0.3,0.2-0.8c0-0.4-0.1-0.8-0.2-0.8
						C626.6,124.2,626.5,124.5,626.5,125z"/>
				</g>
				<g>
					<path class="st1" d="M621.5,125.1c0,0.4,0.1,0.7,0.2,0.7c0.1,0,0.2-0.3,0.2-0.7c0-0.4-0.1-0.7-0.2-0.7
						C621.6,124.4,621.5,124.7,621.5,125.1z"/>
				</g>
				<g>
					<path class="st1" d="M621.2,117.6c0,0.2,0.1,0.4,0.2,0.4c0.1,0,0.1-0.2,0.1-0.5c0-0.3-0.1-0.5-0.2-0.4
						C621.2,117.1,621.2,117.3,621.2,117.6z"/>
				</g>
			</g>
			<g>
				<g>
					<path class="st1" d="M587.5,95.7c0.1,0.1,0.1,0.1,0.1,0.2c0.6-0.4,1.2-0.7,1.7-1.1c1.1,1.8,2.1,3.6,3,5.5
						c1.7-0.9,3.4-1.7,5.1-2.6c-1.4-3-3.1-5.9-5-8.6c1.6-1.1,3.2-2.3,4.7-3.4c-0.1-0.1-0.1-0.1-0.2-0.2c-1.6,1.1-3.2,2.3-4.8,3.4
						c1.9,2.7,3.6,5.6,5,8.6c-1.7,0.9-3.3,1.7-5,2.6c-0.9-1.9-1.9-3.7-3-5.5C588.7,94.9,588.1,95.3,587.5,95.7z"/>
				</g>
				<g>
					<path class="st1" d="M597,85.7c0.2,0.3,0.5,0.5,0.6,0.4c0.1-0.1,0-0.4-0.2-0.7c-0.2-0.3-0.5-0.5-0.6-0.5
						C596.6,85,596.7,85.3,597,85.7z"/>
				</g>
				<g>
					<path class="st1" d="M592.2,89.1c0.2,0.3,0.4,0.5,0.6,0.4c0.1-0.1,0-0.4-0.2-0.6c-0.2-0.3-0.5-0.5-0.6-0.4
						C591.9,88.5,592,88.8,592.2,89.1z"/>
				</g>
				<g>
					<path class="st1" d="M587.4,95.9c0.1,0.2,0.3,0.3,0.4,0.3c0.1-0.1,0.1-0.3-0.1-0.5c-0.1-0.2-0.3-0.4-0.4-0.3
						C587.2,95.4,587.3,95.6,587.4,95.9z"/>
				</g>
				<g>
					<path class="st1" d="M597.2,97.7c0.2,0.3,0.4,0.5,0.5,0.5c0.1-0.1,0.1-0.4-0.1-0.7c-0.2-0.3-0.4-0.5-0.5-0.5
						C597,97,597,97.3,597.2,97.7z"/>
				</g>
				<g>
					<path class="st1" d="M592.1,100.2c0.1,0.3,0.4,0.5,0.5,0.4c0.1-0.1,0.1-0.3,0-0.6c-0.1-0.3-0.3-0.5-0.5-0.4
						C591.9,99.7,591.9,99.9,592.1,100.2z"/>
				</g>
				<g>
					<path class="st1" d="M589.2,94.8c0.1,0.2,0.3,0.3,0.3,0.2c0.1,0,0-0.2-0.1-0.4c-0.1-0.2-0.2-0.3-0.3-0.2
						C589,94.4,589.1,94.6,589.2,94.8z"/>
				</g>
			</g>
			<g>
				<g>
					<path class="st1" d="M630.1,159.1C630.2,159.1,630.2,159.1,630.1,159.1c0.9-2.6,1.7-5.3,2.4-8.1c0.8,0.2,1.5,0.4,2.3,0.6
						c1.9-7.9,2.9-16,3.1-24.1c-1.1,0-2.3,0-3.4,0c0.1-7.9-0.6-15.7-2.2-23.4c0,0-0.1,0-0.1,0c1.7,7.8,2.4,15.8,2.3,23.8
						c1.1,0,2.3,0,3.4,0c-0.2,7.8-1.2,15.7-3,23.3c-0.8-0.2-1.5-0.4-2.3-0.5C631.8,153.5,631,156.3,630.1,159.1z"/>
				</g>
				<g>
					<path class="st1" d="M632.3,105c0.1,0,0.2-0.5,0-1c-0.1-0.5-0.3-0.9-0.4-0.9c-0.1,0-0.1,0.5,0,1C632,104.7,632.2,105,632.3,105
						z"/>
				</g>
				<g>
					<path class="st1" d="M634.4,128.5c0.1,0,0.2-0.4,0.3-0.9c0-0.5-0.1-1-0.2-1c-0.1,0-0.2,0.4-0.2,0.9
						C634.2,128.1,634.3,128.5,634.4,128.5z"/>
				</g>
				<g>
					<path class="st1" d="M630,159.7c0.1,0,0.3-0.3,0.4-0.7c0.1-0.4,0.2-0.8,0.1-0.8c-0.1,0-0.3,0.3-0.4,0.7
						C629.9,159.3,629.9,159.7,630,159.7z"/>
				</g>
				<g>
					<path class="st1" d="M637.8,128.5c0.1,0,0.2-0.4,0.2-1c0-0.5-0.1-1-0.2-1c-0.1,0-0.2,0.4-0.2,1
						C637.6,128.1,637.7,128.5,637.8,128.5z"/>
				</g>
				<g>
					<path class="st1" d="M634.6,152.5c0.1,0,0.3-0.4,0.4-0.9c0.1-0.5,0.1-1,0-1c-0.1,0-0.3,0.4-0.4,0.9
						C634.4,152,634.4,152.4,634.6,152.5z"/>
				</g>
				<g>
					<path class="st1" d="M632.4,151.5c0.1,0,0.2-0.2,0.3-0.6c0.1-0.3,0.1-0.6,0-0.6c-0.1,0-0.2,0.2-0.3,0.5
						C632.3,151.2,632.3,151.5,632.4,151.5z"/>
				</g>
			</g>
			<g>
				<g>
					<path class="st1" d="M604.2,145.5C604.2,145.5,604.1,145.5,604.2,145.5c-0.6,1.9-1.1,3.8-1.8,5.6c-0.7-0.3-1.5-0.5-2.2-0.8
						c-1.8,5.1-4.1,9.9-6.9,14.4c1,0.6,1.9,1.3,2.9,2c-3,4.8-6.6,9.2-10.8,13c0,0,0.1,0,0.1,0.1c4.2-3.9,7.9-8.4,10.9-13.3
						c-1-0.6-1.9-1.3-2.9-1.9c2.7-4.4,5-9.1,6.7-14c0.7,0.3,1.5,0.6,2.2,0.9C603.1,149.5,603.7,147.5,604.2,145.5z"/>
				</g>
				<g>
					<path class="st1" d="M585.9,179.3c-0.1-0.1-0.4,0-0.7,0.3c-0.3,0.3-0.4,0.5-0.3,0.6c0.1,0.1,0.4,0,0.7-0.3
						C585.8,179.7,585.9,179.4,585.9,179.3z"/>
				</g>
				<g>
					<path class="st1" d="M596.5,166.1c-0.1-0.1-0.4,0.1-0.6,0.4c-0.2,0.3-0.3,0.6-0.2,0.7c0.1,0.1,0.4-0.1,0.5-0.4
						C596.5,166.5,596.6,166.2,596.5,166.1z"/>
				</g>
				<g>
					<path class="st1" d="M604.3,145.1c-0.1,0-0.2,0.2-0.3,0.5c-0.1,0.3-0.1,0.5,0,0.6c0.1,0,0.3-0.2,0.3-0.5
						C604.4,145.4,604.4,145.1,604.3,145.1z"/>
				</g>
				<g>
					<path class="st1" d="M593.6,164.2c-0.1-0.1-0.3,0.1-0.5,0.4c-0.2,0.3-0.3,0.6-0.1,0.7c0.1,0.1,0.3-0.1,0.5-0.4
						C593.7,164.6,593.7,164.3,593.6,164.2z"/>
				</g>
				<g>
					<path class="st1" d="M600.4,149.8c-0.1,0-0.3,0.2-0.4,0.5c-0.1,0.4-0.1,0.7,0,0.7c0.1,0.1,0.3-0.2,0.4-0.5
						C600.5,150.2,600.5,149.9,600.4,149.8z"/>
				</g>
				<g>
					<path class="st1" d="M602.5,150.8c-0.1,0-0.2,0.1-0.3,0.3c-0.1,0.2-0.1,0.4,0,0.4c0.1,0,0.2-0.1,0.3-0.3
						C602.6,151.1,602.6,150.9,602.5,150.8z"/>
				</g>
			</g>
			<g>
				<g>
					<path class="st1" d="M571.2,92.6C571.1,92.6,571.1,92.7,571.2,92.6c0.8,0.8,1.6,1.6,2.3,2.4c-0.5,0.4-0.9,0.9-1.4,1.3
						c2,2.1,3.8,4.5,5.3,7c0.8-0.5,1.5-1,2.3-1.5c1.6,2.6,2.9,5.4,3.9,8.3c0,0,0,0,0.1,0c-1-2.9-2.3-5.8-4-8.4
						c-0.8,0.5-1.6,1-2.3,1.5c-1.4-2.4-3.2-4.7-5.1-6.8c0.5-0.4,0.9-0.8,1.4-1.3C572.8,94.2,572,93.4,571.2,92.6z"/>
				</g>
				<g>
					<path class="st1" d="M583.5,109.7c-0.1,0-0.1,0.2,0,0.4c0.1,0.2,0.2,0.3,0.3,0.3c0.1,0,0.1-0.2,0-0.4
						C583.7,109.8,583.6,109.7,583.5,109.7z"/>
				</g>
				<g>
					<path class="st1" d="M579.5,101.4c-0.1,0.1-0.1,0.2,0,0.4c0.1,0.2,0.3,0.3,0.3,0.2c0.1-0.1,0.1-0.2,0-0.4
						C579.7,101.5,579.6,101.4,579.5,101.4z"/>
				</g>
				<g>
					<path class="st1" d="M570.9,92.5c0,0,0,0.2,0.1,0.3c0.1,0.1,0.3,0.2,0.3,0.1c0.1,0,0-0.2-0.1-0.3
						C571.1,92.5,571,92.4,570.9,92.5z"/>
				</g>
				<g>
					<path class="st1" d="M577.2,102.9c-0.1,0.1-0.1,0.2,0,0.4c0.1,0.2,0.2,0.3,0.3,0.2c0.1-0.1,0.1-0.2,0-0.4
						C577.4,102.9,577.3,102.8,577.2,102.9z"/>
				</g>
				<g>
					<path class="st1" d="M571.9,96c-0.1,0.1,0,0.2,0.1,0.4c0.1,0.1,0.3,0.2,0.4,0.1c0.1-0.1,0-0.2-0.1-0.4
						C572.1,96,572,95.9,571.9,96z"/>
				</g>
				<g>
					<path class="st1" d="M573.3,94.8c0,0,0,0.1,0.1,0.2c0.1,0.1,0.2,0.1,0.3,0.1c0.1,0,0-0.2-0.1-0.2
						C573.5,94.8,573.4,94.8,573.3,94.8z"/>
				</g>
			</g>
			<g>
				<g>
					<path class="st1" d="M587.1,61C587.1,61,587.1,61.1,587.1,61c1.6,1.2,3.2,2.4,4.7,3.6c-0.4,0.5-0.8,1-1.2,1.4
						c4.2,3.4,7.9,7.1,11.1,11.1c0.7-0.6,1.4-1.1,2.1-1.7c3.3,4.2,6.1,8.7,8.5,13.4c0,0,0,0,0,0c-2.4-4.8-5.2-9.3-8.6-13.6
						c-0.7,0.6-1.4,1.1-2.1,1.7c-3.1-3.9-6.7-7.5-10.7-10.8c0.4-0.5,0.8-1,1.2-1.4C590.5,63.4,588.8,62.2,587.1,61z"/>
				</g>
				<g>
					<path class="st1" d="M612,88.3c-0.1,0,0,0.3,0.1,0.6c0.1,0.3,0.3,0.5,0.4,0.5c0.1,0,0.1-0.3-0.1-0.7
						C612.2,88.4,612,88.2,612,88.3z"/>
				</g>
				<g>
					<path class="st1" d="M603.3,74.9c-0.1,0.1,0,0.3,0.2,0.6c0.2,0.3,0.5,0.5,0.6,0.4c0.1-0.1,0-0.3-0.3-0.6
						C603.7,75,603.4,74.8,603.3,74.9z"/>
				</g>
				<g>
					<path class="st1" d="M586.7,60.8c0,0.1,0.1,0.3,0.4,0.4c0.3,0.2,0.5,0.3,0.5,0.2c0-0.1-0.1-0.3-0.4-0.4
						C587,60.8,586.7,60.7,586.7,60.8z"/>
				</g>
				<g>
					<path class="st1" d="M601.2,76.6c-0.1,0.1,0,0.3,0.2,0.6c0.2,0.3,0.4,0.5,0.5,0.4c0.1-0.1,0-0.3-0.2-0.6
						C601.6,76.7,601.3,76.6,601.2,76.6z"/>
				</g>
				<g>
					<path class="st1" d="M590.1,65.6c-0.1,0.1,0.1,0.3,0.4,0.6c0.3,0.2,0.6,0.3,0.6,0.2c0.1-0.1-0.1-0.3-0.4-0.5
						C590.5,65.7,590.2,65.6,590.1,65.6z"/>
				</g>
				<g>
					<path class="st1" d="M591.5,64.4c0,0.1,0.1,0.2,0.3,0.4c0.2,0.1,0.3,0.2,0.4,0.2c0-0.1-0.1-0.2-0.2-0.4
						C591.7,64.4,591.6,64.3,591.5,64.4z"/>
				</g>
			</g>
			<g>
				<g>
					<path class="st1" d="M594.6,111.4C594.6,111.4,594.5,111.4,594.6,111.4c0.3,1.7,0.7,3.3,0.9,4.9c-0.8,0.2-1.6,0.3-2.3,0.5
						c0.7,4.4,1,9,0.7,13.5c1.1,0.1,2.3,0.1,3.4,0.2c-0.3,4.8-1.1,9.6-2.5,14.3c0,0,0.1,0,0.1,0c1.4-4.7,2.2-9.6,2.5-14.5
						c-1.1-0.1-2.3-0.1-3.4-0.2c0.2-4.4,0-8.8-0.7-13.1c0.8-0.1,1.5-0.3,2.3-0.4C595.4,114.8,595,113.1,594.6,111.4z"/>
				</g>
				<g>
					<path class="st1" d="M595,144.1c-0.1,0-0.3,0.2-0.4,0.5c-0.1,0.3-0.1,0.6,0.1,0.7c0.1,0,0.3-0.2,0.4-0.5
						C595.2,144.5,595.1,144.2,595,144.1z"/>
				</g>
				<g>
					<path class="st1" d="M597.4,129.8c-0.1,0-0.2,0.3-0.3,0.6c0,0.3,0.1,0.6,0.2,0.6c0.1,0,0.2-0.3,0.3-0.6
						C597.6,130.1,597.5,129.8,597.4,129.8z"/>
				</g>
				<g>
					<path class="st1" d="M594.5,111c-0.1,0-0.1,0.2-0.1,0.5c0.1,0.2,0.2,0.4,0.3,0.4c0.1,0,0.1-0.2,0.1-0.5
						C594.7,111.2,594.5,111,594.5,111z"/>
				</g>
				<g>
					<path class="st1" d="M593.9,129.7c-0.1,0-0.2,0.2-0.3,0.5c0,0.3,0.1,0.6,0.2,0.6c0.1,0,0.3-0.2,0.3-0.6
						C594.1,129.9,594,129.7,593.9,129.7z"/>
				</g>
				<g>
					<path class="st1" d="M593.1,116.3c-0.1,0-0.2,0.3-0.1,0.6c0.1,0.3,0.2,0.5,0.3,0.5c0.1,0,0.2-0.3,0.2-0.6
						C593.4,116.4,593.3,116.2,593.1,116.3z"/>
				</g>
				<g>
					<path class="st1" d="M595.5,116c-0.1,0-0.1,0.2-0.1,0.4c0,0.2,0.1,0.3,0.2,0.3c0.1,0,0.1-0.2,0.1-0.4
						C595.7,116.1,595.5,116,595.5,116z"/>
				</g>
			</g>
			<g>
				<g>
					<path class="st1" d="M562.2,97.7c0,0,0.1,0.1,0.1,0.1c0.4-0.5,0.8-1.1,1.3-1.6c1.2,0.9,2.3,1.8,3.3,2.8c1.3-1.3,2.7-2.7,4-4
						c-1.7-1.6-3.5-3.2-5.6-4.5c1.1-1.5,2.3-3.1,3.4-4.6c-0.1,0-0.1-0.1-0.2-0.1c-1.1,1.6-2.3,3.2-3.4,4.7c2,1.4,3.9,2.9,5.6,4.5
						c-1.3,1.3-2.6,2.6-3.9,3.9c-1-1-2.1-1.9-3.3-2.8C563.1,96.6,562.7,97.1,562.2,97.7z"/>
				</g>
				<g>
					<path class="st1" d="M568.5,86c0.3,0.2,0.5,0.2,0.6,0.1c0.1-0.1-0.1-0.3-0.3-0.5c-0.2-0.2-0.5-0.2-0.6-0.1
						C568.1,85.6,568.2,85.8,568.5,86z"/>
				</g>
				<g>
					<path class="st1" d="M565.1,90.6c0.2,0.2,0.5,0.2,0.5,0.1c0.1-0.1,0-0.3-0.3-0.5c-0.3-0.2-0.5-0.2-0.5-0.1
						C564.8,90.3,564.9,90.5,565.1,90.6z"/>
				</g>
				<g>
					<path class="st1" d="M562.2,97.8c0.2,0.1,0.3,0.1,0.4,0.1c0.1-0.1,0-0.2-0.1-0.3c-0.2-0.1-0.3-0.1-0.4-0.1
						C562,97.6,562.1,97.8,562.2,97.8z"/>
				</g>
				<g>
					<path class="st1" d="M570.7,95.1c0.2,0.2,0.4,0.3,0.5,0.2c0.1-0.1,0-0.3-0.2-0.5c-0.2-0.2-0.4-0.3-0.5-0.2
						C570.4,94.7,570.5,94.9,570.7,95.1z"/>
				</g>
				<g>
					<path class="st1" d="M566.7,99.1c0.2,0.1,0.4,0.2,0.4,0.1c0.1-0.1,0.1-0.3-0.1-0.4c-0.2-0.2-0.4-0.2-0.5-0.1
						C566.5,98.8,566.5,98.9,566.7,99.1z"/>
				</g>
				<g>
					<path class="st1" d="M563.5,96.3c0.1,0.1,0.3,0.1,0.3,0.1c0-0.1,0-0.2-0.1-0.3c-0.1-0.1-0.3-0.1-0.3,0
						C563.3,96.1,563.4,96.2,563.5,96.3z"/>
				</g>
			</g>
			<g>
				<g>
					<path class="st1" d="M625.6,162.3c0.1,0,0.2,0.1,0.2,0.1c8-21.4,8.9-45.7,1.8-67.4c-3.2,1.2-6.4,2.3-9.6,3.5
						c-6-18.4-18.5-34.6-38.1-44.7c1.1-2,2.3-4.1,3.4-6.1c-8.1-4.2-17.4-7.3-27.8-9.3c0,0.1-0.1,0.2-0.1,0.3
						c10,1.9,18.9,4.8,26.7,8.8c-1.1,2-2.2,4.1-3.4,6.1c20.4,10.1,33.2,26.9,39.2,45.8c3.2-1.1,6.4-2.2,9.6-3.4
						C634.5,117.4,633.5,141.2,625.6,162.3z"/>
				</g>
				<g>
					<path class="st1" d="M626.7,159.8c-0.3-0.1-1,0.9-1.5,2.3c-0.5,1.4-0.7,2.6-0.4,2.8c0.3,0.1,1.1-0.9,1.6-2.3
						C626.9,161.2,627,159.9,626.7,159.8z"/>
				</g>
				<g>
					<path class="st1" d="M626.9,93.3c-0.3,0.1-0.2,1.4,0.2,2.8c0.4,1.4,1.1,2.5,1.4,2.4c0.3-0.1,0.3-1.4-0.2-2.8
						C628,94.2,627.3,93.1,626.9,93.3z"/>
				</g>
				<g>
					<path class="st1" d="M553.3,38.1c0,0.3,1.2,0.7,2.7,1c1.5,0.3,2.8,0.3,2.8,0c0.1-0.3-1.1-0.8-2.6-1.1
						C554.7,37.8,553.4,37.8,553.3,38.1z"/>
				</g>
				<g>
					<path class="st1" d="M617.5,97c-0.3,0.1-0.3,1.3,0.1,2.5c0.4,1.2,1,2.2,1.3,2.1c0.3-0.1,0.3-1.2-0.1-2.5
						C618.4,97.8,617.8,96.8,617.5,97z"/>
				</g>
				<g>
					<path class="st1" d="M576.7,52.3c-0.2,0.3,0.8,1.1,2.2,1.8c1.4,0.7,2.6,1,2.7,0.7c0.2-0.3-0.7-1.1-2.1-1.8
						C578.2,52.3,576.9,52,576.7,52.3z"/>
				</g>
				<g>
					<path class="st1" d="M580.9,46.7c-0.1,0.2,0.6,0.7,1.5,1.2c0.9,0.5,1.7,0.7,1.8,0.5c0.1-0.2-0.5-0.8-1.4-1.2
						C581.8,46.7,581,46.4,580.9,46.7z"/>
				</g>
			</g>
			<g>
				<path class="st1" d="M571,68.8c2.8-5,5.5-10,8.3-14.9c-0.2-0.1-0.3-0.1-0.5-0.2c-2.7,5-5.4,10-8.2,15
					C570.8,68.7,570.9,68.7,571,68.8z"/>
			</g>
			<g>
				<path class="st1" d="M570.4,69.3c1.2,0.6,2.2,0.8,2.4,0.5c0.2-0.3-0.6-1.1-1.7-1.7c-1.2-0.6-2.3-0.7-2.5-0.4
					C568.5,68,569.3,68.8,570.4,69.3z"/>
			</g>
			<g>
				<path class="st1" d="M634.5,166c0,0,0.1,0,0.1,0c4.1-11,6.5-22.7,7.2-34.4c1.1-3.8,2-7.7,2.7-11.7c-0.1-0.2-0.1-0.3-0.1-0.4
					c-0.7,4.1-1.6,8-2.7,11.9C641.1,143.1,638.7,154.9,634.5,166z"/>
			</g>
			<g>
				<path class="st1" d="M586.5,166.1c0.5,0.4,1.1,0.9,1.6,1.3c4.3-5.7,7.6-12,9.8-18.8c0,0-0.1,0-0.1-0.1
					c-2.2,6.7-5.4,12.9-9.6,18.5c-0.5-0.4-1-0.8-1.5-1.2C586.6,166,586.5,166.1,586.5,166.1z"/>
			</g>
			<g>
				<path class="st1" d="M623.2,161.5c0.1,0,0.1,0.1,0.2,0.1c3-8.1,5-16.7,5.9-25.3c-2.9-0.3-5.8-0.6-8.7-0.8c0,0.2-0.1,0.4-0.1,0.7
					c2.8,0.3,5.7,0.6,8.6,0.9C628.2,145.3,626.2,153.6,623.2,161.5z"/>
			</g>
			<g>
				<path class="st1" d="M585,121.5c0.1,0,0.1,0,0.2,0c-0.2-1.8-0.4-3.5-0.8-5.3c-2.1,0.5-4.3,1-6.4,1.6c-0.2-1-0.4-1.9-0.7-2.8
					c-0.1,0-0.1,0-0.2,0.1c0.3,1,0.5,2,0.8,3.1c2.1-0.5,4.3-1,6.4-1.5C584.6,118.2,584.8,119.8,585,121.5z"/>
			</g>
			<g>
				<path class="st1" d="M589.8,145.4c0.5,0.2,1,0.3,1.5,0.5c0.1-0.1,0.1-0.3,0.1-0.4c-0.5-0.1-0.9-0.3-1.4-0.4
					c2.1-6.6,3.1-13.6,2.9-20.5c-1.2,0.1-2.4,0.1-3.6,0.2c0,0.1,0,0.3,0,0.4c1.1-0.1,2.3-0.1,3.4-0.2
					C593,131.9,592,138.8,589.8,145.4z"/>
			</g>
			<g>
				<path class="st1" d="M609.3,164.4c0,0,0.1,0.1,0.2,0.1c2.9-6.1,5.2-12.5,6.6-19.1c-2.4-0.6-4.8-1.1-7.2-1.7c0.7-3,1.2-6,1.5-9
					c-0.1,0-0.1,0-0.2,0c-0.3,3.2-0.9,6.4-1.6,9.6c2.4,0.6,4.8,1.2,7.2,1.7C614.3,152.3,612.2,158.5,609.3,164.4z"/>
			</g>
			<g>
				<path class="st1" d="M602.6,145.6c0.5,0.1,1,0.3,1.4,0.4c0-0.1,0.1-0.2,0.1-0.3c-0.4-0.1-0.9-0.2-1.3-0.4
					c1.3-4.8,2-9.7,2.4-14.7c1.1,0,2.2,0.1,3.3,0.1c0-0.1,0-0.2,0-0.4c-1.2,0-2.3-0.1-3.5-0.1C604.8,135.4,603.9,140.6,602.6,145.6z
					"/>
			</g>
			<g>
				<path class="st1" d="M646.9,84.2c0,0,0.1,0,0.1,0c-1.2-3.2-2.5-6.3-3.9-9.3c-2.2,1.1-4.4,2.2-6.6,3.3c-7.4-15.8-19-29.9-35-40.3
					c0,0,0,0.1-0.1,0.1c16.2,10.6,27.8,24.8,35.2,40.8c2.2-1.1,4.4-2.2,6.6-3.3C644.7,78.3,645.8,81.3,646.9,84.2z"/>
			</g>
			<g>
				<path class="st1" d="M580.8,42.7c1.7-3.4,3.4-6.8,5.1-10.2c-0.2-0.1-0.4-0.2-0.6-0.3c-1.7,3.4-3.3,6.7-5,10.1
					c-7.1-3.2-15-5.6-23.7-7.3c-0.2,1.2-0.5,2.3-0.7,3.5c0.2,0,0.4,0.1,0.6,0.1c0.2-1.1,0.5-2.3,0.7-3.4
					C565.9,37,573.8,39.5,580.8,42.7z"/>
			</g>
			<g>
				<path class="st1" d="M586.9,76.1c0-0.1,0.1-0.1,0.1-0.1c-2.3-2.1-4.8-4.1-7.5-5.9c-1.4,1.9-2.8,3.9-4.2,5.8c2,1.4,4,2.8,5.8,4.4
					c-0.7,0.7-1.4,1.5-2,2.3c0.1,0.1,0.3,0.2,0.4,0.3c0.7-0.8,1.4-1.6,2.2-2.4c-1.8-1.6-3.7-3.1-5.7-4.5c1.3-1.8,2.7-3.7,4-5.5
					C582.4,72.3,584.7,74.2,586.9,76.1z"/>
			</g>
			<g>
				<path class="st1" d="M568.3,74c0.9-1.6,1.8-3.2,2.7-4.9c-0.1-0.1-0.3-0.1-0.4-0.2c-0.9,1.6-1.8,3.2-2.6,4.8
					c-1.7-0.8-3.5-1.6-5.3-2.3c-0.1,0.3-0.2,0.5-0.4,0.8c-0.6-0.1-1.2-0.2-1.8-0.3c0.1,0.1,0.1,0.1,0.2,0.2c0.7,0.1,1.3,0.2,2,0.3
					c0.1-0.3,0.2-0.5,0.3-0.8C564.9,72.3,566.7,73.1,568.3,74z"/>
			</g>
			<g>
				<path class="st1" d="M622.7,72.9c0,0,0.1,0,0.1-0.1c-3.2-5.1-6.9-9.9-11.1-14.3c1.2-1.2,2.5-2.3,3.7-3.5
					c-0.1-0.1-0.3-0.3-0.4-0.4c-1.3,1.2-2.5,2.4-3.8,3.6C615.6,62.8,619.4,67.7,622.7,72.9z"/>
			</g>
			<g>
				<path class="st1" d="M607.7,95.6c1.7-0.8,3.5-1.6,5.2-2.4c-0.1-0.1-0.1-0.3-0.2-0.4c-1.7,0.8-3.4,1.6-5.1,2.4
					c-0.7-1.7-1.6-3.4-2.4-5.1c0,0-0.1,0.1-0.1,0.1C606,91.9,606.9,93.8,607.7,95.6z"/>
			</g>
			<g>
				<path class="st1" d="M559.2,88.6c0,0,0-0.1,0.1-0.1c-2.1-1-4.4-1.9-6.9-2.7c0.9-2.8,1.9-5.6,2.8-8.4c2.2,0.6,4.2,1.4,6.2,2.3
					c0,0,0-0.1,0.1-0.1c-2.1-0.9-4.2-1.7-6.5-2.3c-0.9,2.9-1.9,5.8-2.8,8.6C554.6,86.6,557,87.5,559.2,88.6z"/>
			</g>
			<g>
				<path class="st1" d="M573.1,123.4c0.7-0.1,1.3-0.2,2-0.2c0-0.1,0-0.1,0-0.2c-0.6,0.1-1.2,0.1-1.8,0.2
					c-0.6-5.8-2.5-11.4-5.8-16.1c0,0-0.1,0-0.1,0.1C570.7,112,572.6,117.6,573.1,123.4z"/>
			</g>
			<g>
				<path class="st1" d="M567.5,171.1c0,0.1,0.1,0.1,0.1,0.2c1.2-0.8,2.3-1.6,3.4-2.5c-0.1-0.2-0.3-0.3-0.4-0.5
					c3.1-2.6,5.9-5.5,8.3-8.7c-0.1,0-0.1-0.1-0.1-0.1c-2.5,3.3-5.3,6.3-8.6,8.9c0.1,0.2,0.3,0.3,0.4,0.5
					C569.6,169.6,568.6,170.4,567.5,171.1z"/>
			</g>
			<g>
				<path class="st1" d="M596.5,194.7c0.9,1,1.8,2,2.7,3.1c3.8-3.4,7.2-7.1,10.3-11.1c-0.1,0-0.1-0.1-0.2-0.1
					c-2.9,3.8-6.2,7.3-9.8,10.6c-0.8-0.9-1.6-1.9-2.4-2.8c1-0.9,1.9-1.8,2.8-2.7c-1.1-1.2-2.3-2.4-3.4-3.6c-0.1,0.2-0.3,0.3-0.4,0.5
					c1.1,1.1,2.2,2.3,3.2,3.4C598.4,192.9,597.4,193.8,596.5,194.7z"/>
			</g>
		</g>
		<g>
			<g>
				<g>
					<path class="st2" d="M599.2,92.1c4.4-2.4,8.7-4.8,13.1-7.3c-5.6-10.7-13.8-20.2-24.8-27.5c2.9-4.1,5.8-8.2,8.7-12.3
						c-0.3-0.2-0.7-0.4-1-0.6c-2.9,4.2-5.8,8.3-8.7,12.5c11.1,7.1,19.4,16.5,25.1,27.1c-4.2,2.4-8.4,4.8-12.6,7.2
						c-3.3-6-7.6-11.6-12.9-16.4c-1.3,1.3-2.5,2.7-3.8,4.1c0.2,0.2,0.4,0.3,0.5,0.5c1.2-1.3,2.5-2.6,3.7-3.9
						C591.8,80.5,596,86.1,599.2,92.1z"/>
				</g>
				<g>
					<path class="st2" d="M595.4,45.3c1.4,0.9,2.7,1.5,2.9,1.2c0.2-0.3-0.8-1.3-2.2-2.2c-1.4-0.9-2.8-1.4-3-1.1
						C592.9,43.5,594,44.4,595.4,45.3z"/>
				</g>
				<g>
					<path class="st2" d="M586.7,57.7c1.2,0.8,2.3,1.2,2.5,1c0.2-0.2-0.6-1.1-1.8-1.9c-1.2-0.8-2.4-1.2-2.6-0.9
						C584.6,56.1,585.5,56.9,586.7,57.7z"/>
				</g>
				<g>
					<path class="st2" d="M582.3,79.5c0.6,0.6,1.3,0.9,1.5,0.7c0.2-0.2-0.2-0.8-0.8-1.4c-0.6-0.6-1.3-0.9-1.5-0.7
						C581.3,78.4,581.7,79,582.3,79.5z"/>
				</g>
				<g>
					<path class="st2" d="M611.5,84.8c0.6,1.2,1.3,2,1.6,1.8c0.3-0.2,0.1-1.2-0.6-2.4c-0.6-1.2-1.4-2-1.7-1.8
						C610.6,82.6,610.9,83.6,611.5,84.8z"/>
				</g>
				<g>
					<path class="st2" d="M598.5,92.1c0.5,1,1.1,1.6,1.4,1.4c0.3-0.2,0.2-1.1-0.4-2c-0.5-1-1.2-1.6-1.5-1.4
						C597.8,90.2,598,91.1,598.5,92.1z"/>
				</g>
				<g>
					<path class="st2" d="M586.2,75.8c0.5,0.5,1.1,0.8,1.2,0.6c0.1-0.1-0.2-0.7-0.7-1.1s-1.1-0.7-1.2-0.6
						C585.3,74.8,585.7,75.3,586.2,75.8z"/>
				</g>
			</g>
			<g>
				<g>
					<path class="st2" d="M574.1,114.2c4.7-1.5,9.4-3,14.2-4.5c-2.1-7.2-5.7-13.9-10.9-19.5c3.7-3.4,7.4-6.8,11.1-10.3
						c-0.2-0.2-0.3-0.4-0.5-0.5c-3.7,3.5-7.4,7-11.1,10.5c5.3,5.6,9,12.2,11.1,19.3c-4.6,1.5-9.1,3-13.7,4.5c-1-3.5-2.6-6.9-4.8-10
						c-1.5,1.1-3,2.1-4.5,3.2c0.1,0.1,0.1,0.2,0.2,0.3c1.5-1,2.9-2,4.4-3.1C571.5,107.3,573.1,110.7,574.1,114.2z"/>
				</g>
				<g>
					<path class="st2" d="M587.7,80c0.7,0.8,1.5,1.3,1.8,1c0.2-0.2-0.1-1.1-0.9-1.9c-0.8-0.8-1.6-1.2-1.8-1
						C586.5,78.4,587,79.3,587.7,80z"/>
				</g>
				<g>
					<path class="st2" d="M576.6,90.4c0.6,0.6,1.2,0.9,1.5,0.7c0.2-0.2,0-0.9-0.6-1.5c-0.6-0.6-1.3-0.9-1.5-0.7
						C575.8,89.1,576.1,89.8,576.6,90.4z"/>
				</g>
				<g>
					<path class="st2" d="M564.6,107.4c0.2,0.3,0.6,0.5,0.8,0.3c0.2-0.2,0.2-0.6,0-0.9c-0.2-0.4-0.6-0.5-0.8-0.3
						C564.4,106.7,564.4,107.1,564.6,107.4z"/>
				</g>
				<g>
					<path class="st2" d="M587.5,109.6c0.2,0.8,0.7,1.3,1,1.2c0.3-0.1,0.4-0.8,0.2-1.6c-0.2-0.8-0.7-1.3-1-1.2
						C587.4,108.1,587.3,108.9,587.5,109.6z"/>
				</g>
				<g>
					<path class="st2" d="M573.5,114.2c0.2,0.5,0.5,0.9,0.9,0.8c0.3-0.1,0.5-0.6,0.3-1.2c-0.2-0.6-0.6-0.9-0.9-0.8
						C573.4,113.1,573.3,113.7,573.5,114.2z"/>
				</g>
				<g>
					<path class="st2" d="M569.1,104.4c0.2,0.3,0.5,0.5,0.7,0.3c0.2-0.1,0.2-0.5,0-0.8c-0.2-0.3-0.5-0.4-0.7-0.3
						C568.9,103.7,568.9,104.1,569.1,104.4z"/>
				</g>
			</g>
			<g>
				<g>
					<path class="st2" d="M597.1,125.8c4.9,0,9.8,0.1,14.7,0.1c0.2-10.7-1.6-21.3-5.8-31.1c4.6-2.1,9.1-4.2,13.7-6.3
						c-0.1-0.3-0.3-0.6-0.4-0.9c-4.6,2.2-9.2,4.3-13.8,6.5c4.2,9.7,6.2,20.3,6.1,30.9c-4.8,0-9.5,0-14.3,0.1
						c0.1-5.9-0.7-11.8-2.2-17.4c-1.8,0.5-3.5,1.1-5.3,1.7c0.1,0.2,0.1,0.4,0.2,0.6c1.7-0.5,3.4-1,5.1-1.6
						C596.6,114,597.3,119.9,597.1,125.8z"/>
				</g>
				<g>
					<path class="st2" d="M619,88.3c0.6,1.3,1.2,2.2,1.5,2.1c0.3-0.1,0.1-1.3-0.4-2.6c-0.6-1.3-1.3-2.2-1.6-2
						C618.2,85.9,618.5,87,619,88.3z"/>
				</g>
				<g>
					<path class="st2" d="M605.3,94.7c0.5,1.1,1,1.8,1.4,1.7c0.3-0.1,0.2-1.1-0.3-2.2c-0.5-1.1-1.1-1.8-1.4-1.7
						C604.7,92.6,604.9,93.6,605.3,94.7z"/>
				</g>
				<g>
					<path class="st2" d="M589.5,109.8c0.2,0.7,0.5,1.1,0.8,1.1c0.3-0.1,0.3-0.7,0.2-1.4c-0.2-0.7-0.6-1.1-0.8-1
						C589.4,108.5,589.3,109.1,589.5,109.8z"/>
				</g>
				<g>
					<path class="st2" d="M611.2,125.5c0,1.1,0.2,2.1,0.5,2.1c0.3,0,0.6-0.9,0.7-2.1c0-1.2-0.3-2.1-0.6-2.1
						C611.5,123.4,611.3,124.3,611.2,125.5z"/>
				</g>
				<g>
					<path class="st2" d="M596.6,125.5c0,0.9,0.2,1.7,0.5,1.7c0.3,0,0.6-0.7,0.6-1.6c0-1-0.3-1.7-0.6-1.7
						C596.8,123.8,596.6,124.6,596.6,125.5z"/>
				</g>
				<g>
					<path class="st2" d="M594.7,108.4c0.1,0.6,0.4,1,0.6,0.9c0.2-0.1,0.2-0.6,0.1-1.1c-0.2-0.6-0.5-1-0.6-0.9
						C594.6,107.3,594.5,107.8,594.7,108.4z"/>
				</g>
			</g>
			<g>
				<g>
					<path class="st2" d="M620.9,179.7c0.1,0,0.1,0.1,0.2,0.1c4.3-7,7.8-14.6,10.4-22.5c2,0.7,3.9,1.4,5.9,2
						c7.6-23.6,7.7-49.8-0.8-73c-2.8,1.1-5.7,2.3-8.5,3.4c-7.8-21.3-23.5-39.9-48-50.4c0,0.1-0.1,0.1-0.1,0.2
						c24.8,10.7,40.6,29.6,48.2,51.3c2.8-1.1,5.7-2.2,8.5-3.3c8,22.5,7.9,47.8,0.7,70.7c-2-0.7-4-1.3-5.9-2
						C629,164.4,625.4,172.3,620.9,179.7z"/>
				</g>
				<g>
					<path class="st2" d="M583,40.7c0.2-0.3-1-1.1-2.6-1.8c-1.6-0.7-3.1-1-3.2-0.7c-0.1,0.3,1.1,1.1,2.7,1.8
						C581.5,40.6,582.8,41,583,40.7z"/>
				</g>
				<g>
					<path class="st2" d="M629,92.5c0.3-0.1,0.2-1.4-0.3-2.8c-0.5-1.4-1.2-2.5-1.5-2.3c-0.3,0.1-0.1,1.4,0.4,2.8
						C628.1,91.6,628.7,92.6,629,92.5z"/>
				</g>
				<g>
					<path class="st2" d="M620,181.4c0.2,0.1,1-0.6,1.6-1.6c0.7-1.1,1-2.1,0.8-2.3c-0.2-0.1-0.9,0.6-1.6,1.7
						C620.2,180.2,619.8,181.2,620,181.4z"/>
				</g>
				<g>
					<path class="st2" d="M637.6,89.3c0.3-0.1,0.1-1.5-0.4-3c-0.6-1.6-1.3-2.7-1.6-2.6c-0.3,0.1-0.1,1.5,0.5,3
						C636.6,88.3,637.3,89.4,637.6,89.3z"/>
				</g>
				<g>
					<path class="st2" d="M636.4,162c0.3,0.1,1-1.1,1.5-2.7c0.5-1.6,0.6-3,0.3-3.1c-0.3-0.1-0.9,1.1-1.5,2.7
						C636.3,160.5,636.1,161.8,636.4,162z"/>
				</g>
				<g>
					<path class="st2" d="M631,158.8c0.2,0.1,0.6-0.6,0.9-1.5c0.3-0.9,0.4-1.7,0.2-1.8c-0.2,0-0.6,0.6-0.9,1.6
						C630.8,157.9,630.8,158.7,631,158.8z"/>
				</g>
			</g>
			<g>
				<g>
					<path class="st2" d="M581.2,153.4c0,0,0.1,0.1,0.2,0.1c2.2-3.6,4-7.5,5.4-11.6c2,0.7,3.9,1.4,5.9,2c4.2-12.9,4.2-27.1-0.4-39.8
						c-2.8,1.1-5.7,2.3-8.5,3.4c-3.9-10.7-11.8-20-24.1-25.3c0,0.1-0.1,0.1-0.1,0.2c12.4,5.3,20.3,14.8,24.1,25.7
						c2.8-1.1,5.7-2.2,8.5-3.3c4.3,12.3,4.3,26,0.4,38.4c-2-0.7-4-1.3-5.9-2C585.3,145.5,583.5,149.6,581.2,153.4z"/>
				</g>
				<g>
					<path class="st2" d="M561,83c0.2-0.3-0.4-0.8-1.2-1.2c-0.8-0.3-1.6-0.4-1.7-0.1c-0.1,0.3,0.5,0.8,1.2,1.1
						C560.1,83.3,560.9,83.3,561,83z"/>
				</g>
				<g>
					<path class="st2" d="M584.1,109c0.3-0.1,0.4-0.8,0.1-1.5c-0.3-0.7-0.7-1.2-1-1.1c-0.3,0.1-0.3,0.8-0.1,1.5
						C583.3,108.6,583.7,109.1,584.1,109z"/>
				</g>
				<g>
					<path class="st2" d="M580.7,154.3c0.2,0.1,0.7-0.2,1-0.7c0.3-0.6,0.4-1.1,0.2-1.3c-0.2-0.2-0.7,0.2-1,0.7
						C580.6,153.5,580.5,154.1,580.7,154.3z"/>
				</g>
				<g>
					<path class="st2" d="M592.6,105.8c0.3-0.1,0.3-0.9,0-1.8c-0.3-0.8-0.9-1.4-1.1-1.3c-0.3,0.1-0.3,0.9,0,1.7
						C591.8,105.3,592.3,105.9,592.6,105.8z"/>
				</g>
				<g>
					<path class="st2" d="M592,145.3c0.3,0.1,0.8-0.5,1.1-1.3c0.3-0.9,0.2-1.7-0.1-1.7c-0.3-0.1-0.8,0.5-1.1,1.4
						C591.7,144.4,591.7,145.2,592,145.3z"/>
				</g>
				<g>
					<path class="st2" d="M586.4,142.6c0.2,0.1,0.5-0.3,0.6-0.7c0.2-0.5,0.1-0.9-0.1-1c-0.2-0.1-0.5,0.2-0.6,0.8
						C586.2,142.1,586.2,142.6,586.4,142.6z"/>
				</g>
			</g>
			<g>
				<g>
					<path class="st2" d="M572.7,185.8c0,0.1,0.1,0.1,0.1,0.2c5.2-2.9,9.9-6.4,13.9-10.5c1.5,1.5,2.9,3.1,4.4,4.6
						c12.5-12.6,20-29.7,21.9-47.4c-3-0.3-6-0.6-9-0.9c1.6-15.6-1.7-31.8-10.8-44.8c-0.1,0.1-0.1,0.1-0.2,0.1
						c9.2,13.2,12.5,29.5,10.7,45.3c3,0.3,6,0.7,9,1c-2,17.1-9.2,33.6-21.2,45.8c-1.5-1.5-3-3-4.4-4.5
						C582.9,179.1,578.1,182.8,572.7,185.8z"/>
				</g>
				<g>
					<path class="st2" d="M594.2,88.7c0.3-0.2,0-1.1-0.6-1.9c-0.6-0.9-1.3-1.4-1.6-1.2c-0.3,0.2,0,1,0.6,1.9
						C593.2,88.3,593.9,88.9,594.2,88.7z"/>
				</g>
				<g>
					<path class="st2" d="M603.5,133.8c0.3,0.1,0.7-0.8,0.8-1.8c0.1-1.1-0.1-1.9-0.4-2c-0.3,0-0.7,0.8-0.8,1.8
						C603,132.9,603.2,133.8,603.5,133.8z"/>
				</g>
				<g>
					<path class="st2" d="M571.5,186.6c0.1,0.2,0.9,0.1,1.7-0.3c0.8-0.4,1.3-1,1.2-1.3c-0.1-0.2-0.9,0-1.7,0.4
						C571.9,185.8,571.4,186.3,571.5,186.6z"/>
				</g>
				<g>
					<path class="st2" d="M612.6,135c0.3,0,0.7-0.9,0.9-2.1c0.1-1.2-0.1-2.2-0.4-2.2c-0.3,0-0.7,0.9-0.8,2.1
						C612.1,134,612.3,134.9,612.6,135z"/>
				</g>
				<g>
					<path class="st2" d="M589.6,181.4c0.2,0.2,1.1-0.2,1.9-1.1c0.9-0.9,1.3-1.7,1.1-2c-0.2-0.2-1.1,0.2-1.9,1.1
						C589.9,180.3,589.4,181.1,589.6,181.4z"/>
				</g>
				<g>
					<path class="st2" d="M585.9,176.2c0.1,0.1,0.7-0.1,1.1-0.6c0.5-0.5,0.8-1,0.6-1.2c-0.2-0.1-0.7,0.1-1.1,0.6
						C586.1,175.6,585.8,176.1,585.9,176.2z"/>
				</g>
			</g>
			<g>
				<g>
					<path class="st2" d="M563.4,152.3c0.1,0,0.1,0.1,0.1,0.2c2.2-2.1,4.1-4.5,5.7-7.1c1.8,1.1,3.5,2.3,5.2,3.5
						c5.3-8.5,7.5-19,6.5-29c-3,0.4-6,0.8-9,1.2c-0.8-7.9-4.3-15.5-10.7-20.9c-0.1,0.1-0.1,0.1-0.2,0.2c6.5,5.5,10,13.2,10.7,21.2
						c3-0.4,6-0.7,9-1.1c0.9,9.7-1.3,19.7-6.3,28c-1.8-1.1-3.5-2.3-5.3-3.4C567.7,147.7,565.7,150.2,563.4,152.3z"/>
				</g>
				<g>
					<path class="st2" d="M561.9,100.9c0.2-0.3,0.1-0.7-0.3-1.1c-0.4-0.4-1-0.4-1.2-0.2c-0.2,0.3,0,0.7,0.4,1.1
						C561.2,101.1,561.7,101.2,561.9,100.9z"/>
				</g>
				<g>
					<path class="st2" d="M572,122.1c0.3,0,0.6-0.5,0.5-1c0-0.5-0.4-0.9-0.7-0.9c-0.3,0.1-0.5,0.5-0.5,1
						C571.4,121.8,571.7,122.2,572,122.1z"/>
				</g>
				<g>
					<path class="st2" d="M563,152.9c0.2,0.2,0.6,0.1,1-0.2c0.3-0.3,0.4-0.8,0.3-0.9c-0.2-0.2-0.6-0.1-0.9,0.2
						C562.9,152.3,562.8,152.7,563,152.9z"/>
				</g>
				<g>
					<path class="st2" d="M581,121.2c0.3,0,0.6-0.6,0.5-1.3c-0.1-0.7-0.4-1.2-0.7-1.1c-0.3,0.1-0.5,0.6-0.4,1.3
						C580.4,120.7,580.7,121.3,581,121.2z"/>
				</g>
				<g>
					<path class="st2" d="M573.8,149.8c0.3,0.2,0.8-0.1,1.1-0.7c0.3-0.6,0.4-1.2,0.1-1.4c-0.3-0.2-0.8,0.2-1.1,0.7
						C573.6,149,573.5,149.6,573.8,149.8z"/>
				</g>
				<g>
					<path class="st2" d="M568.9,145.9c0.2,0.1,0.5,0,0.7-0.3c0.2-0.3,0.2-0.7,0-0.8c-0.2-0.1-0.5,0.1-0.6,0.4
						C568.8,145.4,568.7,145.8,568.9,145.9z"/>
				</g>
			</g>
			<g>
				<g>
					<path class="st2" d="M532.3,173.5c0,0.1,0,0.1,0,0.2c5.4,0.8,10.4,0.8,15.1,0.2c0.4,2.1,0.7,4.1,1.1,6.2
						c14.8-2,26.3-9.7,34.1-20.2c-2.4-1.9-4.8-3.8-7.2-5.7c6.5-8.8,9.8-20,9.5-31.1c-0.1,0-0.2,0-0.2,0c0.3,11.1-3.1,22.5-9.8,31.3
						c2.4,1.9,4.7,3.8,7.1,5.7c-7.6,10-18.7,17.5-32.9,19.5c-0.4-2.1-0.8-4.1-1.2-6.2C543.1,174.2,537.9,174.3,532.3,173.5z"/>
				</g>
				<g>
					<path class="st2" d="M584.8,124.5c0.3,0,0.6-0.6,0.6-1.3c0-0.8-0.3-1.3-0.7-1.3c-0.3,0.1-0.5,0.6-0.6,1.4
						C584.2,123.9,584.5,124.5,584.8,124.5z"/>
				</g>
				<g>
					<path class="st2" d="M574.5,155.3c0.2,0.2,0.8-0.1,1.3-0.7c0.4-0.6,0.6-1.2,0.3-1.5c-0.3-0.2-0.8,0.1-1.3,0.7
						C574.4,154.4,574.2,155,574.5,155.3z"/>
				</g>
				<g>
					<path class="st2" d="M531.1,173.4c-0.1,0.3,0.6,0.6,1.4,0.7c0.8,0.1,1.5,0,1.5-0.3c0-0.3-0.6-0.6-1.4-0.7
						C531.8,173,531.1,173.1,531.1,173.4z"/>
				</g>
				<g>
					<path class="st2" d="M581.5,161.1c0.3,0.2,0.9-0.2,1.4-0.9c0.5-0.7,0.7-1.5,0.5-1.6c-0.3-0.2-0.9,0.2-1.4,0.9
						C581.4,160.2,581.2,160.9,581.5,161.1z"/>
				</g>
				<g>
					<path class="st2" d="M546.8,180.2c0,0.3,0.9,0.5,1.9,0.4c1-0.2,1.7-0.5,1.7-0.9c-0.1-0.3-0.9-0.4-1.9-0.3
						C547.5,179.5,546.7,179.8,546.8,180.2z"/>
				</g>
				<g>
					<path class="st2" d="M546.5,173.9c0,0.2,0.5,0.3,1.1,0.2c0.5-0.1,1-0.3,0.9-0.5c0-0.2-0.5-0.3-1-0.2
						C546.9,173.5,546.5,173.7,546.5,173.9z"/>
				</g>
			</g>
			<g>
				<g>
					<path class="st2" d="M584.2,172.5C584.2,172.5,584.2,172.5,584.2,172.5c1.8-1.7,3.4-3.5,4.9-5.5c0.7,0.6,1.5,1.2,2.2,1.8
						c4.4-5.7,7.9-12.1,10.4-18.9c-1.3-0.5-2.5-1-3.8-1.5c2.3-6.4,3.7-13.2,4.1-20.1c0,0-0.1,0-0.1,0c-0.4,6.9-1.9,13.8-4.3,20.3
						c1.3,0.5,2.5,1,3.8,1.5c-2.4,6.6-5.8,12.8-10.1,18.3c-0.7-0.6-1.5-1.2-2.2-1.8C587.7,168.7,586,170.7,584.2,172.5z"/>
				</g>
				<g>
					<path class="st2" d="M601.9,129.2c0.2,0,0.3-0.4,0.3-0.8c0-0.4-0.1-0.8-0.2-0.8c-0.1,0-0.3,0.4-0.3,0.8
						C601.7,128.8,601.8,129.2,601.9,129.2z"/>
				</g>
				<g>
					<path class="st2" d="M597.5,149.3c0.1,0.1,0.4-0.2,0.5-0.7c0.2-0.4,0.2-0.8,0-0.9c-0.2-0.1-0.4,0.3-0.5,0.7
						C597.4,148.8,597.4,149.2,597.5,149.3z"/>
				</g>
				<g>
					<path class="st2" d="M583.8,172.9c0.1,0.1,0.4-0.1,0.6-0.3c0.2-0.3,0.4-0.6,0.3-0.6c-0.1-0.1-0.4,0.1-0.6,0.3
						C583.9,172.5,583.7,172.9,583.8,172.9z"/>
				</g>
				<g>
					<path class="st2" d="M601.3,150.8c0.1,0.1,0.4-0.3,0.6-0.7c0.2-0.4,0.2-0.9,0-0.9c-0.1-0.1-0.4,0.3-0.5,0.7
						C601.2,150.3,601.2,150.7,601.3,150.8z"/>
				</g>
				<g>
					<path class="st2" d="M590.8,169.4c0.1,0.1,0.5-0.1,0.8-0.5c0.3-0.4,0.4-0.8,0.3-0.9c-0.1-0.1-0.5,0.2-0.8,0.5
						C590.8,168.9,590.6,169.4,590.8,169.4z"/>
				</g>
				<g>
					<path class="st2" d="M588.8,167.4c0.1,0.1,0.3-0.1,0.4-0.3c0.2-0.2,0.3-0.5,0.2-0.5c-0.1-0.1-0.3,0.1-0.4,0.3
						C588.8,167.1,588.7,167.3,588.8,167.4z"/>
				</g>
			</g>
			<g>
				<g>
					<path class="st2" d="M576.8,148.5C576.8,148.4,576.7,148.4,576.8,148.5c-0.9,1.4-1.8,2.8-2.8,4.2c-0.8-0.6-1.5-1.2-2.3-1.7
						c-2.6,3.5-5.7,6.7-9.4,9.2c0.8,1.1,1.6,2.3,2.3,3.4c-4.1,2.8-8.8,4.9-14.1,6.1c0,0,0,0.1,0,0.1c5.4-1.2,10.1-3.3,14.3-6.2
						c-0.8-1.2-1.6-2.3-2.3-3.5c3.6-2.5,6.7-5.5,9.2-9c0.8,0.6,1.5,1.2,2.2,1.8C575,151.5,575.9,150,576.8,148.5z"/>
				</g>
				<g>
					<path class="st2" d="M551.2,169.5c0-0.2-0.4-0.2-0.7-0.1c-0.4,0.1-0.6,0.2-0.6,0.4c0,0.2,0.4,0.2,0.7,0.1
						C550.9,169.9,551.2,169.7,551.2,169.5z"/>
				</g>
				<g>
					<path class="st2" d="M565.1,163.2c-0.1-0.1-0.4-0.1-0.6,0.1c-0.3,0.2-0.4,0.4-0.4,0.6c0.1,0.1,0.4,0.1,0.7-0.1
						C565.1,163.6,565.2,163.4,565.1,163.2z"/>
				</g>
				<g>
					<path class="st2" d="M576.9,148.1c-0.1-0.1-0.3,0.1-0.4,0.3c-0.1,0.2-0.2,0.4-0.1,0.5c0.1,0.1,0.3-0.1,0.4-0.3
						C577,148.4,577,148.2,576.9,148.1z"/>
				</g>
				<g>
					<path class="st2" d="M562.8,159.8c-0.1-0.1-0.4-0.1-0.6,0.1c-0.2,0.2-0.4,0.4-0.3,0.5c0.1,0.1,0.4,0.1,0.6-0.1
						C562.7,160.2,562.9,159.9,562.8,159.8z"/>
				</g>
				<g>
					<path class="st2" d="M572.1,150.5c-0.1-0.1-0.4,0-0.5,0.3c-0.2,0.2-0.2,0.5-0.1,0.6c0.1,0.1,0.4,0,0.5-0.3
						C572.1,150.9,572.2,150.6,572.1,150.5z"/>
				</g>
				<g>
					<path class="st2" d="M574.2,152.4c-0.1-0.1-0.2,0-0.3,0.2c-0.1,0.1-0.2,0.3-0.1,0.4c0.1,0.1,0.2,0,0.4-0.2
						C574.2,152.6,574.3,152.4,574.2,152.4z"/>
				</g>
			</g>
			<g>
				<g>
					<path class="st2" d="M608,60.1c0,0-0.1,0.1-0.1,0.1c4.1,4.2,7.6,8.8,10.6,13.6c-1.3,0.8-2.5,1.6-3.8,2.5
						c8.1,12.9,12.4,27.7,13.1,42.8c2.2-0.2,4.3-0.3,6.5-0.5c0.8,16.3-2.2,32.9-8.8,47.8c0.1,0,0.1,0.1,0.2,0.1
						c6.7-15.2,9.7-32.1,8.8-48.6c-2.2,0.2-4.3,0.3-6.4,0.5c-0.8-14.7-5-29-12.7-41.6c1.3-0.8,2.6-1.6,3.8-2.5
						C615.9,69.2,612.2,64.4,608,60.1z"/>
				</g>
				<g>
					<path class="st2" d="M626.3,164.6c-0.2-0.1-0.7,0.6-1.2,1.6c-0.4,1-0.6,1.9-0.4,2c0.2,0.1,0.8-0.6,1.2-1.6
						C626.3,165.5,626.5,164.7,626.3,164.6z"/>
				</g>
				<g>
					<path class="st2" d="M634.2,116.4c-0.2,0-0.4,0.9-0.3,2c0.1,1.1,0.3,1.9,0.5,1.9c0.2,0,0.4-0.9,0.3-2
						C634.7,117.3,634.5,116.4,634.2,116.4z"/>
				</g>
				<g>
					<path class="st2" d="M607,59.1c-0.1,0.1,0.3,0.8,0.9,1.4c0.6,0.7,1.2,1.1,1.4,1c0.1-0.1-0.2-0.8-0.9-1.4
						C607.8,59.4,607.1,59,607,59.1z"/>
				</g>
				<g>
					<path class="st2" d="M627.8,117.1c-0.2,0-0.4,0.9-0.3,1.9c0,1,0.2,1.8,0.5,1.8c0.2,0,0.4-0.9,0.4-1.9
						C628.3,117.8,628,117,627.8,117.1z"/>
				</g>
				<g>
					<path class="st2" d="M613.8,74.7c-0.2,0.1,0.1,0.9,0.6,1.8c0.5,0.9,1.1,1.5,1.3,1.3c0.2-0.1,0-0.9-0.6-1.8
						C614.7,75.1,614,74.6,613.8,74.7z"/>
				</g>
				<g>
					<path class="st2" d="M617.9,72.8c-0.1,0.1,0.1,0.6,0.4,1.2c0.3,0.6,0.7,1,0.9,0.9c0.1-0.1-0.1-0.6-0.4-1.2
						C618.5,73.1,618.1,72.7,617.9,72.8z"/>
				</g>
			</g>
			<g>
				<g>
					<path class="st2" d="M599.6,156.6c-0.1,0.1-0.1,0.3-0.2,0.5c1.1,0.6,2.2,1.2,3.3,1.7c-2.3,4.7-5,9.1-8.1,13.1
						c2.7,2.3,5.4,4.5,8.2,6.8c5.3-6.7,9.4-14.3,12.5-22.3c3.3,1.3,6.6,2.6,9.8,4c0.1-0.2,0.2-0.5,0.3-0.7c-3.3-1.3-6.7-2.6-10-4
						c-3,8-7.1,15.6-12.3,22.3c-2.7-2.2-5.3-4.4-8-6.5c3.2-4.1,5.8-8.5,8.1-13.2C602,157.7,600.8,157.1,599.6,156.6z"/>
				</g>
				<g>
					<path class="st2" d="M625,159.6c-0.4,1-0.5,1.9-0.3,1.9c0.2,0.1,0.7-0.6,1.1-1.6c0.4-1,0.5-1.9,0.3-2
						C625.8,157.9,625.4,158.7,625,159.6z"/>
				</g>
				<g>
					<path class="st2" d="M615,155.9c-0.3,0.9-0.4,1.6-0.2,1.7c0.2,0.1,0.7-0.5,1-1.4c0.3-0.9,0.4-1.7,0.2-1.8
						C615.7,154.4,615.3,155,615,155.9z"/>
				</g>
				<g>
					<path class="st2" d="M599.3,156.6c-0.3,0.6-0.4,1.1-0.2,1.2c0.2,0.1,0.5-0.3,0.8-0.9c0.3-0.5,0.3-1.1,0.2-1.2
						C599.9,155.7,599.5,156.1,599.3,156.6z"/>
				</g>
				<g>
					<path class="st2" d="M602.6,178.1c-0.6,0.7-0.9,1.4-0.7,1.6c0.2,0.2,0.8-0.3,1.4-1c0.6-0.7,0.9-1.5,0.7-1.6
						C603.8,176.9,603.2,177.4,602.6,178.1z"/>
				</g>
				<g>
					<path class="st2" d="M594.5,171.4c-0.5,0.6-0.8,1.3-0.6,1.4c0.2,0.2,0.7-0.2,1.3-0.9c0.5-0.6,0.7-1.3,0.6-1.4
						C595.5,170.3,595,170.7,594.5,171.4z"/>
				</g>
				<g>
					<path class="st2" d="M602.6,158.6c-0.2,0.5-0.3,0.9-0.2,1c0.1,0.1,0.4-0.2,0.6-0.7c0.2-0.5,0.3-0.9,0.2-1
						C603.1,157.8,602.8,158.1,602.6,158.6z"/>
				</g>
			</g>
			<g>
				<g>
					<path class="st2" d="M565.4,164.5c-0.1,0.1-0.2,0.1-0.3,0.2c0.7,1.1,1.4,2.1,2.1,3.2c-3,2-6.3,3.7-10,5c1.3,3.3,2.6,6.6,3.8,10
						c6.4-2.3,12-5.6,16.8-9.6c2.3,2.8,4.5,5.6,6.8,8.4c0.1-0.1,0.3-0.3,0.4-0.4c-2.3-2.8-4.6-5.6-7-8.4c-4.8,4.1-10.4,7.5-16.7,9.7
						c-1.3-3.2-2.5-6.4-3.8-9.6c3.6-1.3,6.9-3,10-5.1C566.9,166.7,566.1,165.6,565.4,164.5z"/>
				</g>
				<g>
					<path class="st2" d="M584.6,181.1c-0.6,0.5-1,1.1-0.9,1.3c0.2,0.2,0.8-0.1,1.4-0.6c0.6-0.5,1-1.1,0.8-1.3
						C585.8,180.3,585.2,180.6,584.6,181.1z"/>
				</g>
				<g>
					<path class="st2" d="M577.7,172.7c-0.5,0.4-0.9,0.9-0.7,1.1c0.1,0.2,0.7,0,1.2-0.5c0.5-0.5,0.8-1,0.7-1.2
						C578.8,172.1,578.3,172.3,577.7,172.7z"/>
				</g>
				<g>
					<path class="st2" d="M565.1,164.4c-0.4,0.2-0.6,0.6-0.5,0.7c0.1,0.2,0.5,0.1,0.8-0.1c0.4-0.2,0.6-0.6,0.5-0.8
						C565.8,164.1,565.4,164.1,565.1,164.4z"/>
				</g>
				<g>
					<path class="st2" d="M561.1,182.4c-0.7,0.2-1.2,0.6-1.1,0.8c0.1,0.2,0.7,0.2,1.4,0c0.7-0.2,1.2-0.7,1.1-0.9
						C562.4,182.1,561.8,182.1,561.1,182.4z"/>
				</g>
				<g>
					<path class="st2" d="M557.2,172.5c-0.6,0.2-1,0.5-0.9,0.8c0.1,0.2,0.6,0.3,1.2,0c0.6-0.2,1-0.6,0.9-0.8
						C558.3,172.3,557.8,172.3,557.2,172.5z"/>
				</g>
				<g>
					<path class="st2" d="M567.1,167.7c-0.3,0.2-0.5,0.5-0.4,0.6c0.1,0.1,0.4,0.1,0.7-0.1c0.3-0.2,0.5-0.5,0.4-0.6
						C567.7,167.4,567.4,167.4,567.1,167.7z"/>
				</g>
			</g>
			<g>
				<g>
					<path class="st2" d="M557.5,90.4c0.1,0,0.2,0.1,0.3,0.2c0.6-1.1,1.2-2.2,1.8-3.3c3.2,1.5,6,3.4,8.5,5.6c2.4-2.6,4.7-5.3,7.1-8
						c-4.5-3.8-9.9-7-16.2-9.3c1.3-3.3,2.6-6.6,4-9.9c-0.2-0.1-0.4-0.1-0.6-0.2c-1.3,3.4-2.6,6.7-3.9,10.1
						c6.4,2.2,11.8,5.4,16.3,9.1c-2.3,2.6-4.5,5.2-6.8,7.8c-2.5-2.1-5.4-4-8.7-5.5C558.7,88,558.1,89.2,557.5,90.4z"/>
				</g>
				<g>
					<path class="st2" d="M562.5,65.9c0.8,0.3,1.5,0.4,1.6,0.2c0.1-0.2-0.5-0.7-1.3-0.9c-0.9-0.3-1.6-0.3-1.7-0.1
						C561.1,65.2,561.7,65.6,562.5,65.9z"/>
				</g>
				<g>
					<path class="st2" d="M558.6,75.8c0.7,0.2,1.3,0.3,1.4,0.1c0.1-0.2-0.4-0.6-1.1-0.9c-0.7-0.3-1.3-0.3-1.4,0
						C557.4,75.2,557.9,75.6,558.6,75.8z"/>
				</g>
				<g>
					<path class="st2" d="M557.5,90.7c0.4,0.2,0.7,0.2,0.8,0c0.1-0.2-0.1-0.4-0.5-0.6c-0.4-0.2-0.7-0.2-0.8,0
						C556.9,90.2,557.2,90.5,557.5,90.7z"/>
				</g>
				<g>
					<path class="st2" d="M575.1,85.2c0.5,0.4,1,0.6,1.2,0.4c0.2-0.2-0.1-0.7-0.6-1.1c-0.5-0.4-1-0.6-1.2-0.4
						C574.3,84.3,574.6,84.8,575.1,85.2z"/>
				</g>
				<g>
					<path class="st2" d="M567.7,92.9c0.4,0.3,0.8,0.5,1,0.3c0.2-0.2,0-0.6-0.4-0.9c-0.4-0.3-0.8-0.5-1-0.3
						C567.2,92.2,567.4,92.6,567.7,92.9z"/>
				</g>
				<g>
					<path class="st2" d="M559.4,87.4c0.3,0.2,0.6,0.2,0.7,0c0.1-0.1-0.1-0.4-0.4-0.5c-0.3-0.1-0.6-0.2-0.7,0
						C558.9,87,559.1,87.2,559.4,87.4z"/>
				</g>
			</g>
			<g>
				<g>
					<path class="st2" d="M627.7,99c0,0.1,0,0.2,0.1,0.3c0.5-0.2,1-0.3,1.5-0.5c0.7,2.8,1.3,5.6,1.8,8.4c1.5-0.3,2.9-0.6,4.4-0.9
						c-0.7-4.3-1.7-8.5-3-12.7c1.4-0.5,2.9-1,4.3-1.5c0-0.1-0.1-0.2-0.1-0.3c-1.5,0.5-2.9,1-4.4,1.5c1.3,4.1,2.3,8.4,3,12.6
						c-1.5,0.3-2.9,0.6-4.3,0.9c-0.5-2.8-1.1-5.6-1.8-8.4C628.8,98.7,628.3,98.8,627.7,99z"/>
				</g>
				<g>
					<path class="st2" d="M636.7,92.1c0.2,0.5,0.4,0.8,0.4,0.8c0.1,0,0.1-0.4-0.1-0.9c-0.2-0.5-0.3-0.8-0.4-0.8
						C636.5,91.2,636.5,91.6,636.7,92.1z"/>
				</g>
				<g>
					<path class="st2" d="M632.4,93.5c0.1,0.5,0.3,0.8,0.4,0.8c0.1,0,0.1-0.4-0.1-0.9c-0.1-0.5-0.3-0.8-0.4-0.8
						C632.2,92.7,632.2,93.1,632.4,93.5z"/>
				</g>
				<g>
					<path class="st2" d="M627.6,99.2c0.1,0.3,0.2,0.6,0.3,0.6c0.1,0,0.1-0.3,0-0.7c-0.1-0.4-0.2-0.6-0.3-0.6
						C627.5,98.5,627.5,98.8,627.6,99.2z"/>
				</g>
				<g>
					<path class="st2" d="M635.3,106.2c0.1,0.5,0.2,0.8,0.3,0.8c0.1,0,0.1-0.4,0-0.9c-0.1-0.5-0.2-0.8-0.3-0.8
						C635.3,105.3,635.3,105.7,635.3,106.2z"/>
				</g>
				<g>
					<path class="st2" d="M630.9,107.1c0.1,0.4,0.2,0.8,0.3,0.8c0.1,0,0.1-0.4,0-0.8c-0.1-0.4-0.2-0.8-0.3-0.8
						C630.9,106.2,630.9,106.6,630.9,107.1z"/>
				</g>
				<g>
					<path class="st2" d="M629.2,98.8c0.1,0.3,0.2,0.5,0.2,0.5c0.1,0,0.1-0.3,0-0.5c-0.1-0.3-0.2-0.5-0.2-0.5
						C629.1,98.3,629.2,98.5,629.2,98.8z"/>
				</g>
			</g>
			<g>
				<g>
					<path class="st2" d="M611.9,116.5c0,0.1,0,0.2,0,0.2c0.5-0.1,1.1-0.1,1.6-0.2c0.2,2.3,0.3,4.6,0.4,6.9c1.5,0,3-0.1,4.5-0.1
						c0-3.5-0.3-7-0.7-10.5c1.5-0.2,3-0.5,4.5-0.7c0-0.1,0-0.2,0-0.3c-1.5,0.2-3,0.5-4.5,0.8c0.5,3.5,0.7,7,0.8,10.5
						c-1.4,0-2.9,0.1-4.3,0.1c0-2.3-0.1-4.6-0.4-6.9C613,116.4,612.5,116.4,611.9,116.5z"/>
				</g>
				<g>
					<path class="st2" d="M621.9,111.9c0.1,0.4,0.2,0.7,0.3,0.7c0.1,0,0.1-0.3,0.1-0.7c-0.1-0.4-0.2-0.7-0.3-0.7
						C621.9,111.2,621.9,111.5,621.9,111.9z"/>
				</g>
				<g>
					<path class="st2" d="M617.4,112.7c0.1,0.4,0.2,0.7,0.3,0.7c0.1,0,0.1-0.3,0.1-0.7c0-0.4-0.2-0.7-0.3-0.7
						C617.4,112,617.4,112.3,617.4,112.7z"/>
				</g>
				<g>
					<path class="st2" d="M611.8,116.6c0,0.3,0.1,0.5,0.2,0.5c0.1,0,0.1-0.3,0.1-0.6c0-0.3-0.1-0.5-0.2-0.5
						C611.8,116.1,611.8,116.3,611.8,116.6z"/>
				</g>
				<g>
					<path class="st2" d="M618.2,123.2c0,0.4,0.1,0.7,0.2,0.7c0.1,0,0.2-0.3,0.2-0.7c0-0.4-0.1-0.7-0.2-0.7
						C618.3,122.5,618.2,122.8,618.2,123.2z"/>
				</g>
				<g>
					<path class="st2" d="M613.7,123.3c0,0.3,0.1,0.6,0.2,0.6c0.1,0,0.2-0.3,0.2-0.7c0-0.4-0.1-0.7-0.2-0.7
						C613.8,122.7,613.7,122.9,613.7,123.3z"/>
				</g>
				<g>
					<path class="st2" d="M613.4,116.5c0,0.2,0.1,0.4,0.2,0.4c0.1,0,0.1-0.2,0.1-0.4c0-0.2-0.1-0.4-0.2-0.4
						C613.5,116.1,613.4,116.3,613.4,116.5z"/>
				</g>
			</g>
			<g>
				<g>
					<path class="st2" d="M583.1,96.8c0.1,0.1,0.1,0.1,0.1,0.2c0.5-0.3,1-0.7,1.6-1c1,1.6,1.9,3.3,2.7,4.9c1.5-0.8,3.1-1.6,4.6-2.3
						c-1.3-2.7-2.8-5.3-4.5-7.8c1.4-1,2.9-2,4.3-3c-0.1-0.1-0.1-0.1-0.1-0.2c-1.4,1-2.9,2.1-4.3,3.1c1.7,2.5,3.2,5,4.5,7.7
						c-1.5,0.8-3,1.5-4.5,2.3c-0.8-1.7-1.7-3.4-2.7-5C584.1,96.1,583.6,96.5,583.1,96.8z"/>
				</g>
				<g>
					<path class="st2" d="M591.6,87.8c0.2,0.3,0.4,0.5,0.5,0.4c0.1-0.1,0-0.4-0.2-0.7c-0.2-0.3-0.5-0.5-0.5-0.4
						C591.3,87.2,591.4,87.5,591.6,87.8z"/>
				</g>
				<g>
					<path class="st2" d="M587.3,90.9c0.2,0.3,0.4,0.4,0.5,0.4c0.1-0.1,0-0.3-0.2-0.6c-0.2-0.3-0.4-0.4-0.5-0.4
						C587.1,90.3,587.2,90.6,587.3,90.9z"/>
				</g>
				<g>
					<path class="st2" d="M583,97c0.1,0.2,0.3,0.3,0.4,0.3c0.1-0.1,0.1-0.3-0.1-0.5c-0.1-0.2-0.3-0.3-0.4-0.3
						C582.8,96.6,582.9,96.8,583,97z"/>
				</g>
				<g>
					<path class="st2" d="M591.8,98.6c0.1,0.3,0.3,0.5,0.4,0.4c0.1-0.1,0.1-0.3-0.1-0.6c-0.1-0.3-0.3-0.5-0.4-0.4
						C591.7,98,591.7,98.3,591.8,98.6z"/>
				</g>
				<g>
					<path class="st2" d="M587.2,100.9c0.1,0.3,0.3,0.5,0.4,0.4c0.1-0.1,0.1-0.3,0-0.6c-0.1-0.3-0.3-0.4-0.4-0.4
						C587.1,100.4,587.1,100.7,587.2,100.9z"/>
				</g>
				<g>
					<path class="st2" d="M584.6,96c0.1,0.2,0.2,0.3,0.3,0.2c0.1,0,0-0.2-0.1-0.4c-0.1-0.1-0.2-0.2-0.3-0.2
						C584.5,95.7,584.5,95.9,584.6,96z"/>
				</g>
			</g>
			<g>
				<g>
					<path class="st2" d="M621.5,153.9C621.5,153.9,621.5,153.9,621.5,153.9c0.9-2.4,1.5-4.8,2.1-7.3c0.7,0.2,1.4,0.4,2.1,0.5
						c1.7-7.1,2.6-14.4,2.8-21.7c-1,0-2.1,0-3.1,0c0.1-7.1-0.5-14.2-2-21.1c0,0,0,0-0.1,0c1.5,7,2.2,14.2,2,21.4c1,0,2.1,0,3.1,0
						c-0.1,7.1-1,14.1-2.7,21c-0.7-0.2-1.4-0.3-2.1-0.5C623,148.8,622.3,151.4,621.5,153.9z"/>
				</g>
				<g>
					<path class="st2" d="M623.5,105.2c0.1,0,0.1-0.4,0-0.9c-0.1-0.5-0.3-0.8-0.4-0.8c-0.1,0-0.1,0.4,0,0.9
						C623.2,104.9,623.4,105.3,623.5,105.2z"/>
				</g>
				<g>
					<path class="st2" d="M625.3,126.4c0.1,0,0.2-0.4,0.2-0.8c0-0.5-0.1-0.9-0.2-0.9c-0.1,0-0.2,0.4-0.2,0.8
						C625.1,126,625.2,126.4,625.3,126.4z"/>
				</g>
				<g>
					<path class="st2" d="M621.3,154.5c0.1,0,0.3-0.3,0.4-0.6c0.1-0.3,0.1-0.7,0.1-0.7c-0.1,0-0.3,0.3-0.4,0.6
						C621.3,154.1,621.2,154.5,621.3,154.5z"/>
				</g>
				<g>
					<path class="st2" d="M628.4,126.4c0.1,0,0.2-0.4,0.2-0.9c0-0.5-0.1-0.9-0.2-0.9c-0.1,0-0.2,0.4-0.2,0.9
						C628.2,126,628.3,126.4,628.4,126.4z"/>
				</g>
				<g>
					<path class="st2" d="M625.5,147.9c0.1,0,0.3-0.4,0.4-0.8c0.1-0.5,0.1-0.9,0-0.9c-0.1,0-0.3,0.3-0.4,0.8
						C625.4,147.5,625.3,147.9,625.5,147.9z"/>
				</g>
				<g>
					<path class="st2" d="M623.5,147.1c0.1,0,0.2-0.2,0.3-0.5c0.1-0.3,0.1-0.5,0-0.6c-0.1,0-0.2,0.2-0.2,0.5
						C623.4,146.8,623.4,147,623.5,147.1z"/>
				</g>
			</g>
			<g>
				<g>
					<path class="st2" d="M598.1,141.7C598.1,141.7,598.1,141.7,598.1,141.7c-0.5,1.7-1,3.4-1.6,5.1c-0.7-0.2-1.3-0.5-2-0.7
						c-1.6,4.6-3.7,8.9-6.2,13c0.9,0.6,1.7,1.2,2.6,1.8c-2.7,4.3-6,8.2-9.7,11.7c0,0,0,0,0.1,0.1c3.8-3.5,7.1-7.6,9.8-12
						c-0.8-0.6-1.7-1.2-2.6-1.7c2.5-3.9,4.5-8.2,6-12.6c0.7,0.2,1.3,0.5,2,0.8C597.1,145.3,597.7,143.5,598.1,141.7z"/>
				</g>
				<g>
					<path class="st2" d="M581.6,172.1c-0.1-0.1-0.3,0-0.6,0.3c-0.2,0.2-0.4,0.5-0.3,0.6c0.1,0.1,0.3,0,0.6-0.2
						C581.6,172.5,581.7,172.2,581.6,172.1z"/>
				</g>
				<g>
					<path class="st2" d="M591.2,160.2c-0.1-0.1-0.3,0.1-0.5,0.4c-0.2,0.3-0.2,0.5-0.2,0.6c0.1,0.1,0.3-0.1,0.5-0.4
						C591.2,160.6,591.3,160.3,591.2,160.2z"/>
				</g>
				<g>
					<path class="st2" d="M598.2,141.3c-0.1,0-0.2,0.2-0.3,0.4c-0.1,0.3-0.1,0.5,0,0.5c0.1,0,0.2-0.2,0.3-0.4
						C598.3,141.5,598.3,141.3,598.2,141.3z"/>
				</g>
				<g>
					<path class="st2" d="M588.6,158.5c-0.1-0.1-0.3,0.1-0.5,0.4c-0.1,0.3-0.2,0.5-0.1,0.6c0.1,0.1,0.3-0.1,0.5-0.4
						C588.7,158.8,588.7,158.6,588.6,158.5z"/>
				</g>
				<g>
					<path class="st2" d="M594.7,145.5c-0.1,0-0.3,0.2-0.4,0.5c-0.1,0.3-0.1,0.6,0,0.6c0.1,0,0.3-0.2,0.4-0.5
						C594.8,145.9,594.8,145.6,594.7,145.5z"/>
				</g>
				<g>
					<path class="st2" d="M596.6,146.5c-0.1,0-0.2,0.1-0.2,0.3c-0.1,0.2-0.1,0.4,0,0.4c0.1,0,0.2-0.1,0.2-0.3
						C596.7,146.7,596.7,146.5,596.6,146.5z"/>
				</g>
			</g>
			<g>
				<g>
					<path class="st2" d="M568.4,94.1C568.4,94.1,568.4,94.1,568.4,94.1c0.7,0.7,1.4,1.4,2.1,2.1c-0.4,0.4-0.8,0.8-1.2,1.2
						c1.8,1.9,3.4,4,4.7,6.3c0.7-0.4,1.4-0.9,2.1-1.3c1.4,2.4,2.6,4.9,3.5,7.5c0,0,0,0,0.1,0c-0.9-2.6-2.1-5.2-3.6-7.6
						c-0.7,0.4-1.4,0.9-2.1,1.3c-1.3-2.1-2.8-4.2-4.6-6.1c0.4-0.4,0.8-0.8,1.2-1.2C569.9,95.5,569.2,94.8,568.4,94.1z"/>
				</g>
				<g>
					<path class="st2" d="M579.5,109.5c-0.1,0-0.1,0.2,0,0.4c0.1,0.2,0.2,0.3,0.2,0.2c0.1,0,0.1-0.2,0-0.4
						C579.7,109.5,579.6,109.4,579.5,109.5z"/>
				</g>
				<g>
					<path class="st2" d="M575.9,102c-0.1,0-0.1,0.2,0,0.4c0.1,0.2,0.2,0.2,0.3,0.2c0.1-0.1,0.1-0.2,0-0.4
						C576.1,102,576,101.9,575.9,102z"/>
				</g>
				<g>
					<path class="st2" d="M568.2,93.9c0,0,0,0.2,0.1,0.3c0.1,0.1,0.3,0.1,0.3,0.1c0,0,0-0.2-0.1-0.3
						C568.4,93.9,568.2,93.9,568.2,93.9z"/>
				</g>
				<g>
					<path class="st2" d="M573.8,103.3c-0.1,0.1,0,0.2,0,0.4c0.1,0.1,0.2,0.2,0.3,0.2c0.1-0.1,0.1-0.2,0-0.4
						C574,103.3,573.9,103.3,573.8,103.3z"/>
				</g>
				<g>
					<path class="st2" d="M569.1,97.1c-0.1,0.1,0,0.2,0.1,0.4c0.1,0.1,0.3,0.2,0.4,0.1c0.1-0.1,0-0.2-0.1-0.3
						C569.3,97.1,569.1,97.1,569.1,97.1z"/>
				</g>
				<g>
					<path class="st2" d="M570.4,96.1c0,0,0,0.1,0.1,0.2c0.1,0.1,0.2,0.1,0.2,0.1c0.1,0,0-0.1-0.1-0.2
						C570.5,96.1,570.4,96,570.4,96.1z"/>
				</g>
			</g>
			<g>
				<g>
					<path class="st2" d="M582.7,65.6C582.7,65.6,582.7,65.7,582.7,65.6c1.5,1.1,2.9,2.1,4.3,3.2c-0.4,0.4-0.7,0.9-1.1,1.3
						c3.8,3,7.1,6.4,10,10c0.6-0.5,1.3-1,1.9-1.5c3,3.8,5.5,7.8,7.6,12.1c0,0,0,0,0,0c-2.1-4.3-4.7-8.4-7.8-12.2
						c-0.6,0.5-1.3,1-1.9,1.5c-2.8-3.5-6-6.8-9.6-9.7c0.4-0.4,0.7-0.9,1.1-1.3C585.8,67.8,584.3,66.7,582.7,65.6z"/>
				</g>
				<g>
					<path class="st2" d="M605.1,90.2c-0.1,0,0,0.3,0.1,0.6c0.1,0.3,0.3,0.5,0.4,0.4c0.1,0,0.1-0.3-0.1-0.6
						C605.4,90.3,605.2,90.1,605.1,90.2z"/>
				</g>
				<g>
					<path class="st2" d="M597.4,78.1c-0.1,0.1,0,0.3,0.2,0.6c0.2,0.3,0.4,0.4,0.5,0.4c0.1-0.1,0-0.3-0.2-0.6
						C597.7,78.2,597.4,78.1,597.4,78.1z"/>
				</g>
				<g>
					<path class="st2" d="M582.4,65.4c0,0.1,0.1,0.2,0.3,0.4c0.2,0.2,0.4,0.2,0.5,0.2c0-0.1-0.1-0.2-0.3-0.4
						C582.6,65.4,582.4,65.4,582.4,65.4z"/>
				</g>
				<g>
					<path class="st2" d="M595.5,79.7c-0.1,0.1,0,0.3,0.2,0.5c0.2,0.2,0.4,0.4,0.5,0.4c0.1-0.1,0-0.3-0.2-0.5
						C595.7,79.8,595.5,79.6,595.5,79.7z"/>
				</g>
				<g>
					<path class="st2" d="M585.5,69.8c0,0.1,0.1,0.3,0.4,0.5c0.2,0.2,0.5,0.3,0.6,0.2c0.1-0.1-0.1-0.3-0.4-0.5
						C585.8,69.8,585.5,69.7,585.5,69.8z"/>
				</g>
				<g>
					<path class="st2" d="M586.7,68.6c0,0,0.1,0.2,0.2,0.3c0.1,0.1,0.3,0.2,0.3,0.2c0-0.1-0.1-0.2-0.2-0.3
						C586.9,68.7,586.8,68.6,586.7,68.6z"/>
				</g>
			</g>
			<g>
				<g>
					<path class="st2" d="M589.5,111C589.5,111,589.4,111,589.5,111c0.3,1.5,0.6,2.9,0.8,4.4c-0.7,0.2-1.4,0.3-2.1,0.4
						c0.7,4,0.9,8.1,0.6,12.1c1,0,2.1,0.1,3.1,0.1c-0.3,4.4-1,8.7-2.2,12.8c0,0,0.1,0,0.1,0c1.2-4.3,2-8.6,2.2-13.1
						c-1,0-2.1-0.1-3.1-0.1c0.2-4,0-7.9-0.6-11.8c0.7-0.1,1.4-0.3,2.1-0.4C590.2,114,589.9,112.5,589.5,111z"/>
				</g>
				<g>
					<path class="st2" d="M589.9,140.4c-0.1,0-0.3,0.2-0.3,0.4c-0.1,0.3-0.1,0.6,0.1,0.6c0.1,0,0.3-0.2,0.3-0.5
						C590,140.7,590,140.5,589.9,140.4z"/>
				</g>
				<g>
					<path class="st2" d="M592,127.5c-0.1,0-0.2,0.2-0.2,0.5c0,0.3,0.1,0.5,0.2,0.5c0.1,0,0.2-0.2,0.2-0.5
						C592.2,127.8,592.1,127.5,592,127.5z"/>
				</g>
				<g>
					<path class="st2" d="M589.4,110.6c-0.1,0-0.1,0.2-0.1,0.4c0.1,0.2,0.2,0.4,0.3,0.4c0.1,0,0.1-0.2,0.1-0.4
						C589.6,110.8,589.4,110.6,589.4,110.6z"/>
				</g>
				<g>
					<path class="st2" d="M588.9,127.4c-0.1,0-0.2,0.2-0.2,0.5c0,0.3,0.1,0.5,0.2,0.5c0.1,0,0.2-0.2,0.2-0.5
						C589.1,127.6,589,127.4,588.9,127.4z"/>
				</g>
				<g>
					<path class="st2" d="M588.2,115.3c-0.1,0-0.1,0.2-0.1,0.5c0.1,0.3,0.2,0.5,0.3,0.4c0.1,0,0.2-0.2,0.1-0.5
						C588.4,115.5,588.3,115.3,588.2,115.3z"/>
				</g>
				<g>
					<path class="st2" d="M590.3,115.1c-0.1,0-0.1,0.2-0.1,0.3c0,0.2,0.1,0.3,0.2,0.3c0.1,0,0.1-0.2,0.1-0.3
						C590.5,115.2,590.4,115.1,590.3,115.1z"/>
				</g>
			</g>
			<g>
				<g>
					<path class="st2" d="M560.4,98.6c0,0,0.1,0.1,0.1,0.1c0.4-0.5,0.8-0.9,1.1-1.4c1.1,0.8,2,1.6,3,2.5c1.2-1.2,2.4-2.4,3.6-3.6
						c-1.5-1.5-3.2-2.8-5-4.1c1-1.4,2-2.8,3-4.2c-0.1,0-0.1-0.1-0.2-0.1c-1,1.4-2,2.8-3,4.2c1.8,1.2,3.5,2.6,5,4
						c-1.2,1.2-2.3,2.3-3.5,3.5c-0.9-0.9-1.9-1.7-3-2.5C561.1,97.6,560.8,98.1,560.4,98.6z"/>
				</g>
				<g>
					<path class="st2" d="M566,88.1c0.2,0.1,0.5,0.2,0.5,0.1c0.1-0.1-0.1-0.3-0.3-0.4c-0.2-0.2-0.5-0.2-0.5-0.1
						C565.6,87.7,565.7,87.9,566,88.1z"/>
				</g>
				<g>
					<path class="st2" d="M563,92.3c0.2,0.1,0.4,0.2,0.5,0.1c0.1-0.1,0-0.3-0.2-0.4c-0.2-0.1-0.4-0.2-0.5-0.1
						C562.6,91.9,562.8,92.1,563,92.3z"/>
				</g>
				<g>
					<path class="st2" d="M560.3,98.8c0.1,0.1,0.3,0.1,0.3,0c0.1-0.1,0-0.2-0.1-0.3c-0.1-0.1-0.3-0.1-0.3-0.1
						C560.2,98.5,560.2,98.7,560.3,98.8z"/>
				</g>
				<g>
					<path class="st2" d="M568,96.3c0.2,0.2,0.4,0.2,0.5,0.1c0.1-0.1,0-0.3-0.1-0.4c-0.2-0.2-0.4-0.2-0.4-0.1
						C567.7,95.9,567.8,96.1,568,96.3z"/>
				</g>
				<g>
					<path class="st2" d="M564.4,99.9c0.1,0.1,0.3,0.2,0.4,0.1c0.1-0.1,0-0.3-0.1-0.4c-0.2-0.1-0.3-0.2-0.4-0.1
						C564.2,99.6,564.2,99.8,564.4,99.9z"/>
				</g>
				<g>
					<path class="st2" d="M561.5,97.4c0.1,0.1,0.2,0.1,0.3,0c0-0.1,0-0.2-0.1-0.2c-0.1-0.1-0.2-0.1-0.3,0
						C561.4,97.2,561.4,97.3,561.5,97.4z"/>
				</g>
			</g>
			<g>
				<g>
					<path class="st2" d="M617.4,156.8c0.1,0,0.1,0.1,0.2,0.1c7.2-19.3,8-41.1,1.6-60.6c-2.9,1.1-5.7,2.1-8.6,3.1
						c-5.4-16.5-16.6-31.2-34.3-40.2c1-1.8,2.1-3.7,3.1-5.5c-7.3-3.7-15.6-6.6-25-8.4c0,0.1,0,0.2-0.1,0.2c9,1.7,17,4.4,24,7.9
						c-1,1.8-2,3.7-3,5.5c18.3,9.1,29.9,24.2,35.2,41.3c2.9-1,5.8-2,8.6-3C625.4,116.4,624.5,137.8,617.4,156.8z"/>
				</g>
				<g>
					<path class="st2" d="M618.3,154.5c-0.3-0.1-0.9,0.8-1.4,2.1c-0.5,1.2-0.6,2.3-0.3,2.5c0.3,0.1,1-0.8,1.4-2.1
						C618.5,155.8,618.6,154.7,618.3,154.5z"/>
				</g>
				<g>
					<path class="st2" d="M618.6,94.7c-0.3,0.1-0.2,1.2,0.2,2.5c0.4,1.3,1,2.2,1.3,2.1c0.3-0.1,0.3-1.3-0.1-2.5
						C619.5,95.5,618.9,94.5,618.6,94.7z"/>
				</g>
				<g>
					<path class="st2" d="M552.4,45c0,0.3,1,0.7,2.4,0.9c1.3,0.3,2.5,0.3,2.5,0c0.1-0.2-1-0.7-2.4-1C553.6,44.8,552.4,44.8,552.4,45
						z"/>
				</g>
				<g>
					<path class="st2" d="M610.1,98c-0.3,0.1-0.2,1.1,0.1,2.3c0.4,1.1,0.9,2,1.2,1.9c0.3-0.1,0.3-1.1-0.1-2.3
						C611,98.7,610.4,97.9,610.1,98z"/>
				</g>
				<g>
					<path class="st2" d="M573.4,57.8c-0.2,0.3,0.8,1,2,1.6c1.2,0.6,2.3,0.9,2.5,0.6c0.2-0.3-0.6-1-1.9-1.7
						C574.7,57.8,573.5,57.5,573.4,57.8z"/>
				</g>
				<g>
					<path class="st2" d="M577.1,52.7c-0.1,0.2,0.5,0.7,1.3,1.1c0.8,0.4,1.5,0.6,1.7,0.4c0.1-0.2-0.5-0.7-1.3-1.1
						C578,52.7,577.2,52.5,577.1,52.7z"/>
				</g>
			</g>
			<g>
				<path class="st2" d="M568.2,72.6c2.5-4.5,5-9,7.4-13.5c-0.1-0.1-0.3-0.1-0.4-0.2c-2.5,4.5-4.9,9-7.4,13.5
					C568,72.5,568.1,72.6,568.2,72.6z"/>
			</g>
			<g>
				<path class="st2" d="M567.8,73.1c1.1,0.5,2,0.7,2.2,0.4c0.2-0.3-0.5-1-1.6-1.6c-1.1-0.5-2.1-0.7-2.3-0.4
					C566,71.9,566.7,72.6,567.8,73.1z"/>
			</g>
			<g>
				<path class="st2" d="M625.4,160.1c0,0,0.1,0,0.1,0c3.7-9.9,5.9-20.4,6.5-31c1-3.4,1.8-6.9,2.4-10.5c0-0.1-0.1-0.3-0.1-0.4
					c-0.6,3.6-1.5,7.2-2.5,10.7C631.3,139.5,629.1,150.1,625.4,160.1z"/>
			</g>
			<g>
				<path class="st2" d="M582.2,160.2c0.5,0.4,1,0.8,1.5,1.2c3.8-5.1,6.8-10.8,8.8-16.9c-0.1,0-0.1,0-0.1,0c-2,6-4.9,11.6-8.6,16.6
					c-0.4-0.3-0.9-0.7-1.4-1.1C582.3,160.1,582.2,160.2,582.2,160.2z"/>
			</g>
			<g>
				<path class="st2" d="M615.3,156c0.1,0,0.1,0.1,0.2,0.1c2.7-7.3,4.5-15,5.3-22.8c-2.6-0.3-5.2-0.5-7.9-0.8c0,0.2,0,0.4-0.1,0.6
					c2.6,0.3,5.1,0.5,7.7,0.8C619.7,141.5,617.9,148.9,615.3,156z"/>
			</g>
			<g>
				<path class="st2" d="M580.8,120c0.1,0,0.1,0,0.2,0c-0.2-1.6-0.4-3.2-0.7-4.7c-1.9,0.5-3.8,0.9-5.8,1.4c-0.2-0.9-0.4-1.7-0.6-2.5
					c-0.1,0-0.1,0-0.2,0.1c0.3,0.9,0.5,1.8,0.7,2.8c1.9-0.5,3.8-0.9,5.8-1.4C580.5,117.1,580.7,118.5,580.8,120z"/>
			</g>
			<g>
				<path class="st2" d="M585.2,141.5c0.5,0.2,0.9,0.3,1.4,0.5c0.1-0.1,0.1-0.2,0.1-0.4c-0.4-0.1-0.8-0.3-1.2-0.4
					c1.9-5.9,2.8-12.2,2.6-18.5c-1.1,0.1-2.2,0.1-3.2,0.2c0,0.1,0,0.2,0,0.4c1,0,2.1-0.1,3.1-0.1
					C588.1,129.4,587.1,135.7,585.2,141.5z"/>
			</g>
			<g>
				<path class="st2" d="M602.8,158.6c0,0,0.1,0.1,0.1,0.1c2.6-5.5,4.7-11.3,6-17.2c-2.2-0.5-4.3-1-6.5-1.5c0.6-2.7,1-5.4,1.3-8.1
					c0,0-0.1,0-0.2,0c-0.3,2.9-0.8,5.8-1.5,8.6c2.2,0.5,4.3,1.1,6.5,1.6C607.3,147.8,605.3,153.4,602.8,158.6z"/>
			</g>
			<g>
				<path class="st2" d="M596.7,141.7c0.4,0.1,0.9,0.2,1.3,0.4c0-0.1,0.1-0.2,0.1-0.3c-0.4-0.1-0.8-0.2-1.2-0.3
					c1.1-4.3,1.8-8.7,2.1-13.2c1,0,2,0.1,3,0.1c0-0.1,0-0.2,0-0.3c-1,0-2.1-0.1-3.1-0.1C598.7,132.6,597.9,137.2,596.7,141.7z"/>
			</g>
			<g>
				<path class="st2" d="M636.6,86.5c0,0,0.1,0,0.1,0c-1-2.9-2.2-5.6-3.5-8.4c-2,1-3.9,2-5.9,3c-6.7-14.2-17.1-26.9-31.5-36.3
					c0,0,0,0.1-0.1,0.1c14.5,9.5,25,22.3,31.7,36.7c2-1,4-2,6-3C634.5,81.2,635.6,83.9,636.6,86.5z"/>
			</g>
			<g>
				<path class="st2" d="M577.1,49.2c1.5-3.1,3.1-6.1,4.6-9.2c-0.2-0.1-0.4-0.2-0.5-0.2c-1.5,3-3,6.1-4.5,9.1
					c-6.4-2.9-13.5-5.1-21.3-6.6c-0.2,1-0.4,2.1-0.6,3.2c0.2,0.1,0.4,0.1,0.6,0.1c0.2-1,0.4-2,0.6-3C563.7,44,570.8,46.3,577.1,49.2
					z"/>
			</g>
			<g>
				<path class="st2" d="M582.6,79.2c0-0.1,0.1-0.1,0.1-0.1c-2.1-1.9-4.4-3.7-6.8-5.3c-1.2,1.7-2.5,3.5-3.7,5.2
					c1.8,1.2,3.6,2.5,5.2,3.9c-0.6,0.7-1.2,1.4-1.8,2c0.1,0.1,0.3,0.2,0.4,0.3c0.7-0.7,1.3-1.4,1.9-2.1c-1.6-1.4-3.3-2.8-5.1-4
					c1.2-1.6,2.4-3.3,3.6-4.9C578.5,75.8,580.6,77.5,582.6,79.2z"/>
			</g>
			<g>
				<path class="st2" d="M565.9,77.3c0.8-1.5,1.6-2.9,2.4-4.4c-0.1-0.1-0.2-0.1-0.3-0.2c-0.8,1.4-1.6,2.9-2.4,4.3
					c-1.5-0.7-3.1-1.4-4.7-2.1c-0.1,0.2-0.2,0.5-0.3,0.7c-0.5-0.1-1.1-0.2-1.6-0.3c0,0.1,0.1,0.1,0.1,0.2c0.6,0.1,1.2,0.2,1.8,0.3
					c0.1-0.2,0.2-0.5,0.3-0.7C562.8,75.8,564.4,76.5,565.9,77.3z"/>
			</g>
			<g>
				<path class="st2" d="M614.8,76.3c0,0,0.1,0,0.1-0.1c-2.9-4.6-6.2-8.9-10-12.8c1.1-1.1,2.2-2.1,3.3-3.2c-0.1-0.1-0.2-0.2-0.4-0.4
					c-1.1,1.1-2.3,2.2-3.4,3.3C608.4,67.2,611.8,71.6,614.8,76.3z"/>
			</g>
			<g>
				<path class="st2" d="M601.3,96.8c1.6-0.7,3.1-1.5,4.7-2.2c-0.1-0.1-0.1-0.2-0.2-0.4c-1.5,0.7-3.1,1.4-4.6,2.2
					c-0.7-1.5-1.4-3.1-2.2-4.6c0,0-0.1,0.1-0.1,0.1C599.8,93.5,600.5,95.1,601.3,96.8z"/>
			</g>
			<g>
				<path class="st2" d="M557.6,90.4c0,0,0-0.1,0.1-0.1c-1.9-0.9-4-1.7-6.2-2.4c0.8-2.5,1.7-5,2.5-7.5c1.9,0.6,3.8,1.3,5.6,2
					c0,0,0-0.1,0-0.1c-1.9-0.8-3.8-1.5-5.9-2.1c-0.9,2.6-1.7,5.2-2.5,7.8C553.5,88.7,555.6,89.5,557.6,90.4z"/>
			</g>
			<g>
				<path class="st2" d="M570.2,121.8c0.6-0.1,1.2-0.2,1.8-0.2c0-0.1,0-0.1,0-0.2c-0.6,0.1-1.1,0.1-1.7,0.2
					c-0.5-5.2-2.2-10.2-5.2-14.5c0,0-0.1,0-0.1,0.1C568,111.5,569.7,116.6,570.2,121.8z"/>
			</g>
			<g>
				<path class="st2" d="M565.1,164.7c0,0.1,0.1,0.1,0.1,0.1c1.1-0.7,2.1-1.5,3.1-2.3c-0.1-0.2-0.3-0.3-0.4-0.5
					c2.8-2.3,5.3-4.9,7.4-7.8c-0.1,0-0.1-0.1-0.1-0.1c-2.2,3-4.8,5.7-7.7,8c0.1,0.2,0.2,0.3,0.4,0.5
					C567,163.4,566.1,164.1,565.1,164.7z"/>
			</g>
			<g>
				<path class="st2" d="M591.2,185.9c0.8,0.9,1.6,1.8,2.4,2.8c3.4-3.1,6.5-6.4,9.3-10c-0.1,0-0.1-0.1-0.1-0.1
					c-2.7,3.4-5.6,6.6-8.8,9.5c-0.7-0.8-1.5-1.7-2.2-2.5c0.9-0.8,1.7-1.6,2.5-2.5c-1-1.1-2-2.1-3.1-3.2c-0.1,0.1-0.3,0.3-0.4,0.4
					c1,1,1.9,2.1,2.9,3.1C592.9,184.3,592.1,185.2,591.2,185.9z"/>
			</g>
		</g>
	</g>
</g>
<g>
	<g>
		<g>
			<g>
				<rect x="395.9" y="140.9" class="st3" width="2.5" height="94.5"/>
				<rect x="398.4" y="140.9" class="st4" width="2.6" height="94.5"/>
				<rect x="401.1" y="140.9" class="st5" width="2.5" height="94.5"/>
			</g>
			<g>
				<path class="st6" d="M401.3,130.3l-1.5-6.8l-1.5,6.8C399.2,130.8,400.3,130.8,401.3,130.3z"/>
				<path class="st2" d="M398.2,130.3l-2.3,10.6h7.7l-2.3-10.6C400.3,130.8,399.2,130.8,398.2,130.3z"/>
			</g>
			<rect x="395.9" y="235.4" class="st2" width="7.7" height="2.6"/>
			<rect x="395.9" y="238" class="st7" width="7.7" height="9.6"/>
		</g>
		<rect x="395.9" y="238" class="st8" width="2.3" height="9.6"/>
		<rect x="395.9" y="235.4" class="st9" width="2.3" height="2.6"/>
	</g>
	<g>
		<g>
			<path class="st2" d="M432.1,220.4c0-2.9-1.9-5.3-4.2-5.3h-13.1c-2.3,0-4.2,2.4-4.2,5.3v4.6h21.5V220.4z"/>
			<path class="st10" d="M432.1,248.7V225h-21.5v23.7c0,0.1,0,0.1,0,0.2h21.5C432.1,248.8,432.1,248.8,432.1,248.7z"/>
		</g>
		<rect x="410.6" y="225" class="st11" width="21.5" height="3.4"/>
	</g>
	<g>
		<rect x="99.6" y="62.1" class="st12" width="253.9" height="170.7"/>
		<rect x="110.7" y="62.1" class="st13" width="2.6" height="170.7"/>
		<rect x="131.4" y="62.1" class="st13" width="2.6" height="170.7"/>
		<rect x="99.6" y="72.8" class="st13" width="253.9" height="2.6"/>
		<rect x="99.6" y="93.5" class="st13" width="253.9" height="2.6"/>
		<rect x="99.6" y="114" class="st13" width="253.9" height="2.6"/>
		<rect x="99.6" y="134.7" class="st13" width="253.9" height="2.6"/>
		<rect x="99.6" y="156.8" class="st13" width="253.9" height="2.6"/>
		<rect x="99.6" y="177.5" class="st13" width="253.9" height="2.6"/>
		<rect x="99.6" y="199" class="st13" width="253.9" height="2.6"/>
		<rect x="99.6" y="219.7" class="st13" width="253.9" height="2.6"/>
		<rect x="152.1" y="62.1" class="st13" width="2.6" height="170.7"/>
		<rect x="173.6" y="62.1" class="st13" width="2.6" height="170.7"/>
		<rect x="195" y="62.1" class="st13" width="2.6" height="170.7"/>
		<rect x="216.1" y="62.1" class="st13" width="2.6" height="170.7"/>
		<rect x="236.8" y="62.1" class="st13" width="2.6" height="170.7"/>
		<rect x="257.5" y="62.1" class="st13" width="2.6" height="170.7"/>
		<rect x="279" y="62.1" class="st13" width="2.6" height="170.7"/>
		<rect x="300.4" y="62.1" class="st13" width="2.6" height="170.7"/>
		<rect x="321.4" y="62.1" class="st13" width="2.6" height="170.7"/>
		<rect x="342.1" y="62.1" class="st13" width="2.6" height="170.7"/>
	</g>
	<g>
		<g>
			<path class="st14" d="M307.8,96.1h-64.1c-1,0-1.9,0.9-1.9,1.9v15.5h67.9V98C309.7,97,308.8,96.1,307.8,96.1z M289.1,106.9h-25.4
				c-0.6,0-1.2-0.5-1.2-1.2c0-0.6,0.5-1.2,1.2-1.2h25.4c0.6,0,1.2,0.5,1.2,1.2C290.3,106.4,289.7,106.9,289.1,106.9z"/>
			<path class="st15" d="M307.8,93.8h-64.1c-2.3,0-4.2,1.9-4.2,4.2v17.9l0,0v75.3v20.6c0,2.3,1.9,4.2,4.2,4.2h64.1
				c2.3,0,4.2-1.9,4.2-4.2v-20.6v-2.3v-73v-2.3V98C312,95.7,310.1,93.8,307.8,93.8z M309.7,211.8c0,1-0.9,1.9-1.9,1.9h-64.1
				c-1,0-1.9-0.8-1.9-1.9v-20.6h67.9V211.8z M309.7,188.9h-67.9l0-73h67.9V188.9z M241.7,113.6V98.1c0-1,0.9-1.9,1.9-1.9h64.1
				c1,0,1.9,0.9,1.9,1.9v15.5H241.7z"/>
			<path class="st14" d="M241.7,211.8c0,1,0.8,1.9,1.9,1.9h64.1c1,0,1.9-0.8,1.9-1.9v-20.6h-67.9V211.8z M276.4,196.7
				c3.5,0,6.3,2.8,6.3,6.3c0,3.5-2.8,6.3-6.3,6.3h0c-3.5,0-6.3-2.8-6.3-6.3C270.1,199.5,272.9,196.7,276.4,196.7z"/>
			<rect x="241.7" y="115.9" class="st14" width="67.9" height="73"/>
			<path class="st14" d="M276.4,206.9c2.2,0,3.9-1.8,3.9-3.9c0-2.2-1.8-3.9-3.9-3.9c-2.2,0-3.9,1.8-3.9,3.9
				C272.4,205.2,274.2,206.9,276.4,206.9z"/>
			<path class="st15" d="M276.4,209.3L276.4,209.3c3.5,0,6.3-2.8,6.3-6.3c0-3.5-2.8-6.3-6.3-6.3c-3.5,0-6.3,2.8-6.3,6.3
				C270.1,206.5,272.9,209.3,276.4,209.3z M276.4,199.1c2.2,0,3.9,1.8,3.9,3.9c0,2.2-1.8,3.9-3.9,3.9c-2.2,0-3.9-1.8-3.9-3.9
				C272.4,200.8,274.2,199.1,276.4,199.1z"/>
			<path class="st15" d="M289.1,104.6h-25.4c-0.6,0-1.2,0.5-1.2,1.2c0,0.6,0.5,1.2,1.2,1.2h25.4c0.6,0,1.2-0.5,1.2-1.2
				C290.3,105.1,289.7,104.6,289.1,104.6z"/>
		</g>
		<g>
			<path class="st16" d="M260.1,137.9l-9.6,8.7l-0.1,0.1c0.2,0.1,0.5,0.2,0.7,0.2h17.8c0.1,0,0.1,0,0.2,0l-4.1-4L260.1,137.9z"/>
			<path class="st16" d="M259.1,136.9l-9.3-9.1c0,0,0,0.1,0,0.1v17.4l2.4-2.1L259.1,136.9z"/>
			<path class="st16" d="M260.2,136l3.1-2.8l6.8-6.2c-0.3-0.3-0.6-0.4-1-0.4h-17.8c-0.2,0-0.4,0-0.6,0.1l1.1,1L260.2,136z"/>
			<path class="st16" d="M270.4,145.4v-16.9l-9.3,8.4l5.9,5.7l3.3,3.3C270.4,145.8,270.4,145.6,270.4,145.4z"/>
			<path class="st17" d="M271.8,128c0-0.2,0-0.4-0.1-0.6l0,0l-0.2-0.4c0,0,0,0,0,0l-0.4-0.9l-0.1,0.1c-0.5-0.5-1.2-0.9-2-0.9h-17.8
				c-0.6,0-1.1,0.2-1.6,0.5l-0.1-0.1l-0.5,0.6c0,0,0,0,0,0l-0.4,0.5l0.1,0.1c-0.2,0.4-0.3,0.8-0.3,1.2v17.5c0,0.3,0.1,0.7,0.2,1
				l-0.1,0.1l0.3,0.5l0.4,0.7l0.1-0.1c0.5,0.4,1.1,0.6,1.8,0.6h17.8c0.5,0,0.9-0.1,1.3-0.3l0.1,0.1l0.5-0.4l0,0l0.5-0.5l-0.1-0.1
				c0.3-0.4,0.4-0.9,0.4-1.5V128z M251.2,126.6h17.8c0.4,0,0.7,0.2,1,0.4l-6.8,6.2l-3.1,2.8l-8.4-8.2l-1.1-1
				C250.8,126.6,251,126.6,251.2,126.6z M249.8,128c0,0,0-0.1,0-0.1l9.3,9.1l-6.9,6.3l-2.4,2.1V128z M269.1,146.8h-17.8
				c-0.3,0-0.5-0.1-0.7-0.2l0.1-0.1l9.6-8.7l5.1,4.9l4.1,4C269.2,146.8,269.1,146.8,269.1,146.8z M261.1,136.9l9.3-8.4v16.9
				c0,0.2,0,0.3-0.1,0.5l-3.3-3.3L261.1,136.9z"/>
		</g>
		<g>
			<path class="st16" d="M290.3,137.6l-9.6,8.7l-0.1,0.1c0.2,0.1,0.5,0.2,0.7,0.2h17.8c0.1,0,0.1,0,0.2,0l-4.1-4L290.3,137.6z"/>
			<path class="st16" d="M289.3,136.6l-9.3-9.1c0,0,0,0.1,0,0.1V145l2.4-2.1L289.3,136.6z"/>
			<path class="st16" d="M290.3,135.7l3.1-2.8l6.8-6.2c-0.3-0.3-0.6-0.4-1-0.4h-17.8c-0.2,0-0.4,0-0.6,0.1l1.1,1L290.3,135.7z"/>
			<path class="st16" d="M300.6,145.1v-16.9l-9.3,8.4l5.9,5.7l3.3,3.3C300.6,145.5,300.6,145.3,300.6,145.1z"/>
			<path class="st17" d="M302,127.7c0-0.2,0-0.4-0.1-0.6l0,0l-0.2-0.5l0,0l-0.4-0.9l-0.1,0.1c-0.5-0.6-1.2-0.9-2-0.9h-17.8
				c-0.6,0-1.1,0.2-1.6,0.5l-0.1-0.1l-0.5,0.6c0,0,0,0,0,0l-0.4,0.5l0.1,0.1c-0.2,0.4-0.3,0.8-0.3,1.2v17.5c0,0.3,0.1,0.7,0.2,1
				l-0.1,0.1l0.3,0.5l0.4,0.7l0.1-0.1c0.5,0.4,1.1,0.6,1.8,0.6h17.8c0.5,0,0.9-0.1,1.3-0.3l0.1,0.1l0.5-0.4l0,0l0.5-0.5l-0.1-0.1
				c0.3-0.4,0.4-0.9,0.4-1.5V127.7z M281.4,126.3h17.8c0.4,0,0.7,0.2,1,0.4l-6.8,6.2l-3.1,2.8l-8.4-8.2l-1.1-1
				C281,126.3,281.2,126.3,281.4,126.3z M280,127.7c0,0,0-0.1,0-0.1l9.3,9.1l-6.9,6.3L280,145V127.7z M299.2,146.5h-17.8
				c-0.3,0-0.5-0.1-0.7-0.2l0.1-0.1l9.6-8.7l5.1,4.9l4.1,4C299.4,146.5,299.3,146.5,299.2,146.5z M291.3,136.7l9.3-8.4v16.9
				c0,0.2,0,0.3-0.1,0.5l-3.3-3.3L291.3,136.7z"/>
		</g>
		<g>
			<path class="st16" d="M260.1,170.4l-9.6,8.7l-0.1,0.1c0.2,0.1,0.5,0.2,0.7,0.2h17.8c0.1,0,0.1,0,0.2,0l-4.1-4L260.1,170.4z"/>
			<path class="st16" d="M259.1,169.5l-9.3-9.1c0,0,0,0.1,0,0.1v17.4l2.4-2.1L259.1,169.5z"/>
			<path class="st16" d="M260.2,168.6l3.1-2.8l6.8-6.2c-0.3-0.3-0.6-0.4-1-0.4h-17.8c-0.2,0-0.4,0-0.6,0.1l1.1,1L260.2,168.6z"/>
			<path class="st16" d="M270.4,178v-16.9l-9.3,8.4l5.9,5.7l3.3,3.3C270.4,178.3,270.4,178.2,270.4,178z"/>
			<path class="st17" d="M271.8,160.5c0-0.2,0-0.4-0.1-0.6l0,0l-0.2-0.4c0,0,0,0,0,0l-0.4-0.9l-0.1,0.1c-0.5-0.6-1.2-0.9-2-0.9
				h-17.8c-0.6,0-1.1,0.2-1.6,0.5l-0.1-0.1l-0.5,0.6l0,0l-0.4,0.5l0.1,0.1c-0.2,0.4-0.3,0.8-0.3,1.2V178c0,0.3,0.1,0.7,0.2,1
				l-0.1,0.1l0.3,0.5l0.4,0.7l0.1-0.1c0.5,0.4,1.1,0.6,1.8,0.6h17.8c0.5,0,0.9-0.1,1.3-0.3l0.1,0.1l0.5-0.4l0,0l0.5-0.5l-0.1-0.1
				c0.3-0.4,0.4-0.9,0.4-1.5V160.5z M251.2,159.2h17.8c0.4,0,0.7,0.2,1,0.4l-6.8,6.2l-3.1,2.8l-8.4-8.2l-1.1-1
				C250.8,159.2,251,159.2,251.2,159.2z M249.8,160.5c0,0,0-0.1,0-0.1l9.3,9.1l-6.9,6.3l-2.4,2.1V160.5z M269.1,179.4h-17.8
				c-0.3,0-0.5-0.1-0.7-0.2l0.1-0.1l9.6-8.7l5.1,4.9l4.1,4C269.2,179.4,269.1,179.4,269.1,179.4z M261.1,169.5l9.3-8.4V178
				c0,0.2,0,0.3-0.1,0.5l-3.3-3.3L261.1,169.5z"/>
		</g>
		<g>
			<path class="st16" d="M290.3,170.2l-9.6,8.7l-0.1,0.1c0.2,0.1,0.5,0.2,0.7,0.2h17.8c0.1,0,0.1,0,0.2,0l-4.1-4L290.3,170.2z"/>
			<path class="st16" d="M289.3,169.2l-9.3-9.1c0,0,0,0.1,0,0.1v17.4l2.4-2.1L289.3,169.2z"/>
			<path class="st16" d="M290.3,168.3l3.1-2.8l6.8-6.2c-0.3-0.3-0.6-0.4-1-0.4h-17.8c-0.2,0-0.4,0-0.6,0.1l1.1,1L290.3,168.3z"/>
			<path class="st16" d="M300.6,177.7v-16.9l-9.3,8.4l5.9,5.7l3.3,3.3C300.6,178.1,300.6,177.9,300.6,177.7z"/>
			<path class="st17" d="M302,160.3c0-0.2,0-0.4-0.1-0.6l0,0l-0.2-0.4c0,0,0,0,0,0l-0.4-0.9l-0.1,0.1c-0.5-0.6-1.2-0.9-2-0.9h-17.8
				c-0.6,0-1.1,0.2-1.6,0.5l-0.1-0.1l-0.5,0.6c0,0,0,0,0,0l-0.4,0.5l0.1,0.1c-0.2,0.4-0.3,0.8-0.3,1.2v17.5c0,0.3,0.1,0.7,0.2,1
				l-0.1,0.1l0.3,0.5l0.4,0.7l0.1-0.1c0.5,0.4,1.1,0.6,1.8,0.6h17.8c0.5,0,0.9-0.1,1.3-0.3l0.1,0.1l0.5-0.4c0,0,0,0,0,0l0.5-0.5
				l-0.1-0.1c0.3-0.4,0.4-0.9,0.4-1.5V160.3z M281.4,158.9h17.8c0.4,0,0.7,0.2,1,0.4l-6.8,6.2l-3.1,2.8l-8.4-8.2l-1.1-1
				C281,158.9,281.2,158.9,281.4,158.9z M280,160.3c0,0,0-0.1,0-0.1l9.3,9.1l-6.9,6.3l-2.4,2.1V160.3z M299.2,179.1h-17.8
				c-0.3,0-0.5-0.1-0.7-0.2l0.1-0.1l9.6-8.7l5.1,4.9l4.1,4C299.4,179.1,299.3,179.1,299.2,179.1z M291.3,169.2l9.3-8.4v16.9
				c0,0.2,0,0.3-0.1,0.5l-3.3-3.3L291.3,169.2z"/>
		</g>
	</g>
	<path class="st12" d="M353.5,62.1v101.7v8v61c9,0,9,9.3,9,9.3v-60.2c0,0,0-7.3,0-18c0-28.8,0-82.7,0-90.9
		C362.4,61.6,353.5,62.1,353.5,62.1z"/>
	<path class="st12" d="M90.6,73.3c0,8.2,0,62.1,0,90.9c0,10.8,0,18,0,18v60.2c0,0,0-9.6,9-9.6v-60.7v-8V62.4
		C99.6,62.4,90.6,61.9,90.6,73.3z"/>
	<path class="st18" d="M353.5,232.8H99.6c-9,0-9,9.6-9,9.6c0,9.1,9,8.7,9,8.7h253.9c0,0,9,0.1,9-9
		C362.4,242.1,362.4,232.8,353.5,232.8z"/>
	<g>
		<g>
			<rect x="318" y="11.7" class="st19" width="121.7" height="82.8"/>
			<rect x="318" y="94.5" class="st2" width="121.7" height="13.7"/>
			<g>
				<path class="st20" d="M321.6,102.1c0,1.3,1,2.3,2.3,2.3h3.5c1.3,0,2.3-1,2.3-2.3v-1.2c0-1.3-1-2.3-2.3-2.3H324
					c-1.3,0-2.3,1-2.3,2.3V102.1z"/>
				<path class="st20" d="M423.8,102c0,1.3,1,2.3,2.3,2.3h0.6c1.3,0,2.3-1,2.3-2.3v-1.2c0-1.3-1-2.3-2.3-2.3h-0.6
					c-1.3,0-2.3,1-2.3,2.3V102z"/>
				<path class="st20" d="M430.9,102c0,1.3,1,2.3,2.3,2.3h0.6c1.3,0,2.3-1,2.3-2.3v-1.2c0-1.3-1-2.3-2.3-2.3h-0.6
					c-1.3,0-2.3,1-2.3,2.3V102z"/>
				<path class="st20" d="M332.7,101.4c0,0.6,0.5,1.1,1.1,1.1h86.5c0.6,0,1.1-0.5,1.1-1.1c0-0.6-0.5-1.1-1.1-1.1h-86.5
					C333.2,100.3,332.7,100.8,332.7,101.4C332.7,101.4,332.7,100.8,332.7,101.4z"/>
			</g>
			<path class="st5" d="M372.7,62l13-6.5c0.2-0.1,0.4-0.4,0.4-0.6c0-0.3-0.1-0.5-0.4-0.6l-13-6.5c-0.2-0.1-0.5-0.1-0.7,0
				c-0.2,0.1-0.3,0.4-0.3,0.6v13c0,0,0,0,0,0c0,0.4,0.3,0.7,0.7,0.7C372.4,62.2,372.6,62.1,372.7,62z"/>
		</g>
		<g>
			<path class="st21" d="M422.1,11.7H318v67.4C334.5,48.6,372.9,23.9,422.1,11.7z"/>
		</g>
	</g>
	<g>
		<rect x="5.1" y="77.5" class="st8" width="104.2" height="18.1"/>
		<rect x="5.1" y="95.6" class="st2" width="104.2" height="111.4"/>
		<g>
			<path class="st2" d="M18.5,84.1c0,0.2-0.2,0.4-0.4,0.4h-7.6c-0.2,0-0.4-0.2-0.4-0.4l0,0c0-0.2,0.2-0.4,0.4-0.4h7.6
				C18.3,83.7,18.5,83.9,18.5,84.1L18.5,84.1z"/>
			<path class="st2" d="M18.5,86.5c0,0.2-0.2,0.4-0.4,0.4h-7.6c-0.2,0-0.4-0.2-0.4-0.4l0,0c0-0.2,0.2-0.4,0.4-0.4h7.6
				C18.3,86.1,18.5,86.3,18.5,86.5L18.5,86.5z"/>
			<path class="st2" d="M18.5,88.9c0,0.2-0.2,0.4-0.4,0.4h-7.6c-0.2,0-0.4-0.2-0.4-0.4l0,0c0-0.2,0.2-0.4,0.4-0.4h7.6
				C18.3,88.5,18.5,88.7,18.5,88.9L18.5,88.9z"/>
		</g>
		<path class="st2" d="M98.4,85.6l2.9,2.9c0.1,0.1,0.3,0.2,0.5,0.2c0.2,0,0.3-0.1,0.5-0.2l2.9-2.9c0.2-0.2,0.2-0.7,0-0.9
			c-0.2-0.2-0.7-0.2-0.9,0l-2.5,2.5l-2.5-2.5c-0.2-0.2-0.6-0.2-0.9,0C98.1,84.9,98.1,85.3,98.4,85.6z"/>
		<g>
			<rect x="14.6" y="117.9" class="st9" width="84.9" height="16.8"/>
			<rect x="14.6" y="117.9" class="st22" width="2" height="16.8"/>
			<rect x="14.6" y="132.7" class="st22" width="84.9" height="2"/>
		</g>
		<g>
			<rect x="14.6" y="157.8" class="st9" width="84.9" height="16.8"/>
			<rect x="14.6" y="157.8" class="st22" width="2" height="16.8"/>
			<rect x="14.6" y="172.6" class="st22" width="84.9" height="2"/>
		</g>
		<rect x="14.6" y="102.6" class="st23" width="29.7" height="5.6"/>
		<rect x="14.6" y="110.6" class="st23" width="38.9" height="2.7"/>
		<rect x="14.6" y="141.6" class="st23" width="29.7" height="5.6"/>
		<rect x="14.6" y="149.5" class="st23" width="38.9" height="2.7"/>
		<path class="st9" d="M36.5,195.5c0,1.4,1.1,2.5,2.5,2.5h35.6c1.4,0,2.5-1.1,2.5-2.5V185c0-1.4-1.1-2.5-2.5-2.5H39
			c-1.4,0-2.5,1.1-2.5,2.5V195.5z"/>
	</g>
	<g>
		<rect x="57.1" y="12.6" class="st8" width="82.5" height="15.4"/>
		<rect x="57.1" y="28" class="st24" width="82.5" height="15.4"/>
		<rect x="57.1" y="43.4" class="st25" width="82.5" height="15.4"/>
		<rect x="57.1" y="58.8" class="st24" width="82.5" height="15.4"/>
		<rect x="57.1" y="74.2" class="st24" width="82.5" height="15.4"/>
		<path class="st2" d="M127.4,19.3l2.9,2.9c0.1,0.1,0.3,0.2,0.5,0.2c0.2,0,0.3-0.1,0.5-0.2l2.9-2.9c0.2-0.2,0.2-0.7,0-0.9
			c-0.2-0.2-0.7-0.2-0.9,0l-2.5,2.5l-2.5-2.5c-0.2-0.2-0.7-0.2-0.9,0C127.1,18.7,127.1,19.1,127.4,19.3z"/>
		<path class="st26" d="M62.3,35.7c0,1.5,1.2,2.7,2.7,2.7h24.1c1.5,0,2.7-1.2,2.7-2.7c0-1.5-1.2-2.7-2.7-2.7H65
			C63.5,33,62.3,34.2,62.3,35.7C62.3,35.7,62.3,34.2,62.3,35.7z"/>
		<path class="st26" d="M62.3,51.1c0,1.5,1.2,2.7,2.7,2.7h24.1c1.5,0,2.7-1.2,2.7-2.7c0-1.5-1.2-2.7-2.7-2.7H65
			C63.5,48.4,62.3,49.6,62.3,51.1C62.3,51.1,62.3,49.6,62.3,51.1z"/>
		<path class="st26" d="M62.3,66.5c0,1.5,1.2,2.7,2.7,2.7h24.1c1.5,0,2.7-1.2,2.7-2.7c0-1.5-1.2-2.7-2.7-2.7H65
			C63.5,63.8,62.3,65,62.3,66.5C62.3,66.5,62.3,65,62.3,66.5z"/>
		<path class="st26" d="M62.3,81.9c0,1.5,1.2,2.7,2.7,2.7h24.1c1.5,0,2.7-1.2,2.7-2.7c0-1.5-1.2-2.7-2.7-2.7H65
			C63.5,79.2,62.3,80.4,62.3,81.9C62.3,81.9,62.3,80.4,62.3,81.9z"/>
		<path class="st2" d="M81.9,17.9c0,0.4-0.5,0.7-1.1,0.7H62c-0.6,0-1.1-0.3-1.1-0.7l0,0c0-0.4,0.5-0.7,1.1-0.7h18.9
			C81.4,17.3,81.9,17.6,81.9,17.9L81.9,17.9z"/>
		<path class="st2" d="M73.6,22.2c0,0.4-0.5,0.7-1.1,0.7H62c-0.6,0-1.1-0.3-1.1-0.7l0,0c0-0.4,0.5-0.7,1.1-0.7h10.6
			C73.1,21.5,73.6,21.8,73.6,22.2L73.6,22.2z"/>
		<path class="st26" d="M134.3,35.7c0,1.2-0.9,2.1-2.1,2.1h-0.1c-1.2,0-2.1-0.9-2.1-2.1l0,0c0-1.2,0.9-2.1,2.1-2.1h0.1
			C133.3,33.6,134.3,34.5,134.3,35.7L134.3,35.7z"/>
		<path class="st26" d="M134.3,51.1c0,1.2-0.9,2.1-2.1,2.1h-0.1c-1.2,0-2.1-0.9-2.1-2.1l0,0c0-1.2,0.9-2.1,2.1-2.1h0.1
			C133.3,49,134.3,49.9,134.3,51.1L134.3,51.1z"/>
		<path class="st26" d="M134.3,66.5c0,1.2-0.9,2.1-2.1,2.1h-0.1c-1.2,0-2.1-0.9-2.1-2.1l0,0c0-1.2,0.9-2.1,2.1-2.1h0.1
			C133.3,64.4,134.3,65.3,134.3,66.5L134.3,66.5z"/>
		<path class="st26" d="M134.3,81.9c0,1.2-0.9,2.1-2.1,2.1h-0.1c-1.2,0-2.1-0.9-2.1-2.1l0,0c0-1.2,0.9-2.1,2.1-2.1h0.1
			C133.3,79.8,134.3,80.7,134.3,81.9L134.3,81.9z"/>
	</g>
	<g>
		<path class="st27" d="M359.4,237.2c0.7,0,1.3,0.1,1.8,0.1c-1.1-2.3-3.4-4.6-7.8-4.6H99.6c-4.4,0-6.6,2.3-7.8,4.7
			c0.7-0.1,1.4-0.2,2.2-0.2H359.4z"/>
	</g>
	<g>
		<g>
			<g>
				<g>
					<path class="st2" d="M206.4,98.1c0-1.7-1.4-3.1-3.1-3.1h-64.1c-1.7,0-3.1,1.4-3.1,3.1v16.7h70.3V98.1z"/>
					<path class="st2" d="M136.2,211.9c0,1.7,1.4,3.1,3.1,3.1h64.1c1.7,0,3.1-1.4,3.1-3.1v-21.8h-70.3V211.9z"/>
					<rect x="136.2" y="114.8" class="st7" width="70.3" height="75.3"/>
				</g>
				<path class="st28" d="M177.1,203.1c0,2.8-2.3,5.1-5.1,5.1c-2.8,0-5.1-2.3-5.1-5.1c0-2.8,2.3-5.1,5.1-5.1
					C174.8,197.9,177.1,200.2,177.1,203.1z"/>
				<path class="st28" d="M185.3,104.1c0,1-0.8,1.9-1.9,1.9h-24.9c-1,0-1.9-0.8-1.9-1.9l0,0c0-1,0.8-1.9,1.9-1.9h24.9
					C184.4,102.2,185.3,103,185.3,104.1L185.3,104.1z"/>
			</g>
		</g>
		<g>
			<path class="st8" d="M199.1,114.8h-62.9l0,70C143.9,151.9,167.9,125.4,199.1,114.8z"/>
		</g>
	</g>
	<g>
		<rect x="372.9" y="134" class="st22" width="16.5" height="114"/>
		<g>
			<g>
				<rect x="372.9" y="242.1" class="st29" width="8.6" height="1.7"/>
			</g>
			<g>
				<rect x="372.9" y="221.9" class="st29" width="8.6" height="1.7"/>
			</g>
			<g>
				<rect x="372.9" y="211.6" class="st29" width="8.6" height="1.7"/>
			</g>
			<g>
				<rect x="372.9" y="201.1" class="st29" width="8.6" height="1.7"/>
			</g>
			<g>
				<rect x="372.9" y="190.9" class="st29" width="9.1" height="1.7"/>
			</g>
			<g>
				<rect x="372.9" y="181.3" class="st29" width="9.1" height="1.7"/>
			</g>
			<g>
				<rect x="372.9" y="170.7" class="st29" width="9.1" height="1.7"/>
			</g>
			<g>
				<rect x="372.9" y="232" class="st29" width="8.6" height="1.7"/>
			</g>
			<g>
				<rect x="372.9" y="236.9" class="st29" width="4.3" height="1.7"/>
			</g>
			<g>
				<rect x="372.9" y="226.9" class="st29" width="4.3" height="1.7"/>
			</g>
			<g>
				<rect x="372.9" y="217" class="st29" width="4.3" height="1.7"/>
			</g>
			<g>
				<rect x="372.9" y="206.5" class="st29" width="4.3" height="1.7"/>
			</g>
			<g>
				<rect x="372.9" y="196.4" class="st29" width="4.3" height="1.7"/>
			</g>
			<g>
				<rect x="372.9" y="186.2" class="st29" width="4.3" height="1.7"/>
			</g>
			<g>
				<rect x="372.9" y="175.8" class="st29" width="4.3" height="1.7"/>
			</g>
		</g>
		<g>
			<g>
				<rect x="372.9" y="163.4" class="st29" width="8.6" height="1.7"/>
			</g>
			<g>
				<rect x="372.9" y="143.2" class="st29" width="8.6" height="1.7"/>
			</g>
			<g>
				<rect x="372.9" y="153.3" class="st29" width="8.6" height="1.7"/>
			</g>
			<g>
				<rect x="372.9" y="158.2" class="st29" width="4.3" height="1.7"/>
			</g>
			<g>
				<rect x="372.9" y="148.2" class="st29" width="4.3" height="1.7"/>
			</g>
			<g>
				<rect x="372.9" y="138.3" class="st29" width="4.3" height="1.7"/>
			</g>
		</g>
		<rect x="387.9" y="134" class="st30" width="1.6" height="113.9"/>
	</g>
	<g>
		<rect x="169.3" y="24.4" class="st2" width="96.6" height="18.7"/>
		<rect x="265.9" y="24.4" class="st8" width="20.5" height="18.7"/>
		<g>
			<path class="st31" d="M187.2,35.8h-3.6v-1.5h3.5v-1.1h-3.5v-1.5h3.6v-1.2h-4.8c0,2.2,0,4.3,0,6.5h4.8V35.8z M180.8,31.6
				c-0.5-1-1.5-1.3-2.5-1.3c-1.2,0-2.5,0.6-2.5,1.9c0,1.4,1.2,1.8,2.5,2c0.9,0.1,1.5,0.3,1.5,1c0,0.7-0.7,1-1.5,1
				c-0.8,0-1.5-0.3-1.8-1l-1,0.5c0.5,1.2,1.5,1.6,2.8,1.6c1.4,0,2.7-0.6,2.7-2.1c0-1.5-1.3-1.9-2.6-2.1c-0.8-0.1-1.4-0.3-1.4-0.8
				c0-0.5,0.4-0.9,1.3-0.9c0.7,0,1.3,0.4,1.5,0.7L180.8,31.6z"/>
			<path class="st31" d="M192.7,34.7h-2.4l1.2-2.7L192.7,34.7z M193.7,37h1.3l-2.9-6.5h-1.3l-2.9,6.5h1.3l0.6-1.2h3.4L193.7,37z"/>
			<path class="st31" d="M199.2,31.7c0.8,0,1.1,0.5,1.1,1c0,0.5-0.3,1-1.1,1h-1.9v-2.1H199.2z M201.8,37l-2-2.2
				c1.2-0.2,1.6-1.1,1.6-2c0-1.1-0.8-2.1-2.3-2.1c-1,0-2.1,0-3.1,0V37h1.2v-2.2h1.2l1.9,2.2L201.8,37L201.8,37z"/>
			<path class="st31" d="M207.6,35.4c-0.4,0.4-1.1,0.7-1.6,0.7c-1.6,0-2.2-1.1-2.2-2.2c0-1.1,0.7-2.2,2.2-2.2c0.6,0,1.1,0.2,1.6,0.6
				l0.8-0.8c-0.7-0.7-1.5-1-2.4-1c-2.3,0-3.4,1.7-3.4,3.4c0,1.7,1,3.3,3.4,3.3c0.9,0,1.8-0.3,2.5-1L207.6,35.4z"/>
			<polygon class="st31" points="215.2,37 215.2,30.6 214,30.6 214,33.3 210.8,33.3 210.8,30.6 209.6,30.6 209.6,37 210.8,37 
				210.8,34.4 214,34.4 214,37 			"/>
		</g>
	</g>
</g>
</svg>
