<?xml version="1.0" encoding="utf-8"?>
<!-- Generator: Adobe Illustrator 19.2.1, SVG Export Plug-In . SVG Version: 6.00 Build 0)  -->
<svg version="1.1" id="Layer_1" xmlns="http://www.w3.org/2000/svg" xmlns:xlink="http://www.w3.org/1999/xlink" x="0px" y="0px"
	 viewBox="0 0 200 200" style="enable-background:new 0 0 200 200;" xml:space="preserve">
<style type="text/css">
	.st0{fill:#858486;}
	.st1{fill:#D6D7D7;}
	.st2{fill:#A1A1A2;}
	.st3{fill:#003048;}
	.st4{fill:#292D2A;}
	.st5{fill:#99534E;}
	.st6{fill:#080F14;}
	.st7{fill:#00AABC;}
	.st8{fill:#B77747;}
	.st9{fill:#C46D65;}
	.st10{fill:#5C2B58;}
	.st11{fill:#EBEAEB;}
	.st12{fill:#F8FAFB;}
	.st13{fill:#C3C2C3;}
	.st14{fill:#FFFFFF;}
	.st15{fill:#041F2B;}
	.st16{fill:#007582;}
	.st17{fill:#00708D;}
	.st18{fill:#0C0D0C;}
	.st19{fill:#00818F;}
	.st20{fill:#00B4C8;}
	.st21{fill:#E8E7E8;}
	.st22{fill:#FDCDA2;}
	.st23{fill:#00465A;}
	.st24{fill:#002936;}
	.st25{fill:#956441;}
	.st26{fill:#B57B50;}
	.st27{fill:#FABFB3;}
	.st28{fill:#A1509A;}
	.st29{fill:#6E3468;}
	.st30{fill:#FCD6CE;}
	.st31{fill:#C1C0C0;}
	.st32{fill:#9F9F9F;}
	.st33{fill:#B0AFAF;}
	.st34{fill:#763E3A;}
	.st35{fill:#002334;}
	.st36{fill:#171A18;}
	.st37{fill:#00646F;}
	.st38{fill:#091118;}
	.st39{fill:#00B1C7;}
</style>
<g>
	<g>
		<path class="st0" d="M155.2,124.9V117c0-3.7,3-6.8,6.8-6.8h0c3.7,0,6.8,3,6.8,6.8v7.9c0,3.7-3,6.8-6.8,6.8h0
			C158.3,131.7,155.2,128.6,155.2,124.9z"/>
		<g>
			<g>
				<path class="st1" d="M173.5,131.2c2.7-0.1,4.9-2.3,4.9-5.5v-9.6c0-3.2-2.2-5.4-4.9-5.5c0,0,0,0,0,0c0,0,0,0,0,0c0,0,0,0,0,0
					c0,0,0,0,0,0c0,0,0,0,0,0c0,0,0,0,0,0c0,0,0,0,0,0c0,0,0,0,0,0c0,0,0,0,0,0c0,0,0,0,0,0c0,0,0,0,0,0c0,0,0,0,0,0c0,0,0,0,0,0
					c0,0,0,0,0,0c0,0,0,0,0,0c0,0,0,0,0,0c0,0,0,0,0,0c0,0,0,0,0,0c0,0,0,0,0,0c0,0,0,0,0,0c0,0,0,0,0,0c0,0,0,0,0,0c0,0,0,0,0,0
					c0,0,0,0,0,0c0,0,0,0,0,0c0,0,0,0,0,0c0,0,0,0,0,0c0,0,0,0,0,0c0,0,0,0,0,0c0,0,0,0,0,0c0,0,0,0,0,0c0,0,0,0,0,0c0,0,0,0,0,0
					c0,0,0,0,0,0c0,0,0,0,0,0c0,0,0,0,0,0c0,0,0,0,0,0c0,0,0,0,0,0c0,0,0,0,0,0c0,0,0,0,0,0c0,0,0,0,0,0c0,0,0,0,0,0c0,0,0,0,0,0
					c0,0,0,0,0,0c0,0,0,0,0,0c0,0,0,0,0,0c0,0,0,0,0,0c0,0,0,0,0,0c0,0,0,0,0,0c0,0,0,0,0,0c0,0,0,0,0,0c0,0,0,0,0,0c0,0,0,0,0,0
					c0,0,0,0,0,0c0,0,0,0,0,0c0,0,0,0,0,0c0,0,0,0,0,0c0,0,0,0,0,0c0,0,0,0,0,0c0,0,0,0,0,0c-0.4,0-0.8,0-1.2,0.1l-3.7,0.8
					c-2.4,0.5-4.2,3.1-4.2,5.8v7.2c0,2.7,1.8,5.3,4.2,5.8l3.7,0.8c0.4,0.1,0.8,0.1,1.2,0.1c0,0,0,0,0,0c0,0,0,0,0,0c0,0,0,0,0,0
					c0,0,0,0,0,0c0,0,0,0,0,0c0,0,0,0,0,0c0,0,0,0,0,0c0,0,0,0,0,0c0,0,0,0,0,0c0,0,0,0,0,0c0,0,0,0,0,0c0,0,0,0,0,0c0,0,0,0,0,0
					c0,0,0,0,0,0c0,0,0,0,0,0c0,0,0,0,0,0c0,0,0,0,0,0c0,0,0,0,0,0c0,0,0,0,0,0c0,0,0,0,0,0c0,0,0,0,0,0c0,0,0,0,0,0c0,0,0,0,0,0
					c0,0,0,0,0,0c0,0,0,0,0,0c0,0,0,0,0,0c0,0,0,0,0,0c0,0,0,0,0,0c0,0,0,0,0,0c0,0,0,0,0,0c0,0,0,0,0,0c0,0,0,0,0,0c0,0,0,0,0,0
					c0,0,0,0,0,0c0,0,0,0,0,0c0,0,0,0,0,0c0,0,0,0,0,0c0,0,0,0,0,0c0,0,0,0,0,0c0,0,0,0,0,0c0,0,0,0,0,0c0,0,0,0,0,0c0,0,0,0,0,0
					c0,0,0,0,0,0c0,0,0,0,0,0c0,0,0,0,0,0c0,0,0,0,0,0c0,0,0,0,0,0c0,0,0,0,0,0c0,0,0,0,0,0c0,0,0,0,0,0c0,0,0,0,0,0c0,0,0,0,0,0
					c0,0,0,0,0,0c0,0,0,0,0,0c0,0,0,0,0,0c0,0,0,0,0,0C173.4,131.2,173.4,131.2,173.5,131.2C173.4,131.2,173.5,131.2,173.5,131.2
					C173.5,131.2,173.5,131.2,173.5,131.2z"/>
				<path class="st2" d="M162.2,124.5v-7.2c0-2.7,1.8-5.3,4.2-5.8l3.7-0.8c3.1-0.7,6,1.7,6,5.4v9.6c0,3.7-2.9,6-6,5.4l-3.7-0.8
					C163.9,129.9,162.2,127.3,162.2,124.5z"/>
			</g>
			<path class="st1" d="M154.6,110.5L154.6,110.5c0-1,0.8-1.8,1.9-1.8h8.1c1,0,1.9,0.8,1.9,1.8l0,0c0,1-0.8,1.8-1.9,1.8h-8.1
				C155.5,112.3,154.6,111.5,154.6,110.5z"/>
			<path class="st1" d="M154.6,131.4L154.6,131.4c0-1,0.8-1.8,1.9-1.8h8.1c1,0,1.9,0.8,1.9,1.8l0,0c0,1-0.8,1.8-1.9,1.8h-8.1
				C155.5,133.2,154.6,132.4,154.6,131.4z"/>
		</g>
		<g>
			<polygon class="st3" points="146.8,120.4 146.8,114.6 162.4,113.2 162.4,120.4 			"/>
			<polygon class="st3" points="146.8,121.6 146.8,127.4 163.8,128.7 162.4,121.6 			"/>
		</g>
	</g>
	<g>
		<path class="st0" d="M44.2,113.9v7.9c0,3.7-3,6.8-6.8,6.8h0c-3.7,0-6.8-3-6.8-6.8v-7.9c0-3.7,3-6.8,6.8-6.8h0
			C41.1,107.1,44.2,110.2,44.2,113.9z"/>
		<g>
			<g>
				<path class="st1" d="M25.9,107.6c-2.7,0.1-4.9,2.3-4.9,5.5v9.6c0,3.2,2.2,5.4,4.9,5.5c0,0,0,0,0,0c0,0,0,0,0,0c0,0,0,0,0,0
					c0,0,0,0,0,0c0,0,0,0,0,0c0,0,0,0,0,0c0,0,0,0,0,0c0,0,0,0,0,0c0,0,0,0,0,0c0,0,0,0,0,0c0,0,0,0,0,0c0,0,0,0,0,0c0,0,0,0,0,0
					c0,0,0,0,0,0c0,0,0,0,0,0c0,0,0,0,0,0c0,0,0,0,0,0c0,0,0,0,0,0c0,0,0,0,0,0c0,0,0,0,0,0c0,0,0,0,0,0c0,0,0,0,0,0c0,0,0,0,0,0
					c0,0,0,0,0,0c0,0,0,0,0,0c0,0,0,0,0,0c0,0,0,0,0,0c0,0,0,0,0,0c0,0,0,0,0,0c0,0,0,0,0,0c0,0,0,0,0,0c0,0,0,0,0,0c0,0,0,0,0,0
					c0,0,0,0,0,0c0,0,0,0,0,0c0,0,0,0,0,0c0,0,0,0,0,0c0,0,0,0,0,0c0,0,0,0,0,0c0,0,0,0,0,0c0,0,0,0,0,0c0,0,0,0,0,0c0,0,0,0,0,0
					c0,0,0,0,0,0c0,0,0,0,0,0c0,0,0,0,0,0c0,0,0,0,0,0c0,0,0,0,0,0c0,0,0,0,0,0c0,0,0,0,0,0c0,0,0,0,0,0c0,0,0,0,0,0c0,0,0,0,0,0
					c0,0,0,0,0,0c0,0,0,0,0,0c0,0,0,0,0,0c0,0,0,0,0,0c0,0,0,0,0,0c0,0,0,0,0,0c0,0,0,0,0,0c0.4,0,0.8,0,1.2-0.1l3.7-0.8
					c2.4-0.5,4.2-3.1,4.2-5.8v-7.2c0-2.7-1.8-5.3-4.2-5.8l-3.7-0.8c-0.4-0.1-0.8-0.1-1.2-0.1c0,0,0,0,0,0c0,0,0,0,0,0c0,0,0,0,0,0
					c0,0,0,0,0,0c0,0,0,0,0,0c0,0,0,0,0,0c0,0,0,0,0,0c0,0,0,0,0,0c0,0,0,0,0,0c0,0,0,0,0,0c0,0,0,0,0,0c0,0,0,0,0,0c0,0,0,0,0,0
					c0,0,0,0,0,0c0,0,0,0,0,0c0,0,0,0,0,0c0,0,0,0,0,0c0,0,0,0,0,0c0,0,0,0,0,0c0,0,0,0,0,0c0,0,0,0,0,0c0,0,0,0,0,0c0,0,0,0,0,0
					c0,0,0,0,0,0c0,0,0,0,0,0c0,0,0,0,0,0c0,0,0,0,0,0c0,0,0,0,0,0c0,0,0,0,0,0c0,0,0,0,0,0c0,0,0,0,0,0c0,0,0,0,0,0c0,0,0,0,0,0
					c0,0,0,0,0,0c0,0,0,0,0,0c0,0,0,0,0,0c0,0,0,0,0,0c0,0,0,0,0,0c0,0,0,0,0,0c0,0,0,0,0,0c0,0,0,0,0,0c0,0,0,0,0,0c0,0,0,0,0,0
					c0,0,0,0,0,0c0,0,0,0,0,0c0,0,0,0,0,0c0,0,0,0,0,0c0,0,0,0,0,0c0,0,0,0,0,0c0,0,0,0,0,0c0,0,0,0,0,0c0,0,0,0,0,0c0,0,0,0,0,0
					c0,0,0,0,0,0c0,0,0,0,0,0c0,0,0,0,0,0c0,0,0,0,0,0C26,107.6,26,107.6,25.9,107.6C26,107.6,25.9,107.6,25.9,107.6
					C25.9,107.6,25.9,107.6,25.9,107.6z"/>
				<path class="st2" d="M37.2,114.3v7.2c0,2.7-1.8,5.3-4.2,5.8l-3.7,0.8c-3.1,0.7-6-1.7-6-5.4V113c0-3.7,2.9-6,6-5.4l3.7,0.8
					C35.5,108.9,37.2,111.5,37.2,114.3z"/>
			</g>
			<path class="st1" d="M44.8,128.3L44.8,128.3c0,1-0.8,1.8-1.9,1.8h-8.1c-1,0-1.9-0.8-1.9-1.8l0,0c0-1,0.8-1.8,1.9-1.8h8.1
				C43.9,126.4,44.8,127.3,44.8,128.3z"/>
			<path class="st1" d="M44.8,107.4L44.8,107.4c0,1-0.8,1.8-1.9,1.8h-8.1c-1,0-1.9-0.8-1.9-1.8l0,0c0-1,0.8-1.8,1.9-1.8h8.1
				C43.9,105.6,44.8,106.4,44.8,107.4z"/>
		</g>
		<g>
			<polygon class="st4" points="52.6,118.4 52.6,124.2 35.8,125.1 37,118.4 			"/>
			<polygon class="st4" points="52.6,117.2 52.6,111.4 35.8,110.2 37,117.1 			"/>
		</g>
	</g>
	<g>
		<path class="st0" d="M101.1,56.3h-8.5c-3.7,0-6.6-3-6.6-6.6v0c0-3.7,3-6.6,6.6-6.6h8.5c3.7,0,6.6,3,6.6,6.6v0
			C107.7,53.4,104.7,56.3,101.1,56.3z"/>
		<g>
			<g>
				<path class="st1" d="M107.3,38.4c-0.1-2.6-2.3-4.8-5.6-4.8h-9.8c-3.3,0-5.5,2.2-5.6,4.8c0,0,0,0,0,0c0,0,0,0,0,0c0,0,0,0,0,0
					c0,0,0,0,0,0c0,0,0,0,0,0c0,0,0,0,0,0c0,0,0,0,0,0c0,0,0,0,0,0c0,0,0,0,0,0c0,0,0,0,0,0c0,0,0,0,0,0c0,0,0,0,0,0c0,0,0,0,0,0
					c0,0,0,0,0,0c0,0,0,0,0,0c0,0,0,0,0,0c0,0,0,0,0,0c0,0,0,0,0,0c0,0,0,0,0,0c0,0,0,0,0,0c0,0,0,0,0,0c0,0,0,0,0,0c0,0,0,0,0,0
					c0,0,0,0,0,0c0,0,0,0,0,0c0,0,0,0,0,0c0,0,0,0,0,0c0,0,0,0,0,0c0,0,0,0,0,0c0,0,0,0,0,0c0,0,0,0,0,0c0,0,0,0,0,0c0,0,0,0,0,0
					c0,0,0,0,0,0c0,0,0,0,0,0c0,0,0,0,0,0c0,0,0,0,0,0c0,0,0,0,0,0c0,0,0,0,0,0c0,0,0,0,0,0c0,0,0,0,0,0c0,0,0,0,0,0c0,0,0,0,0,0
					c0,0,0,0,0,0c0,0,0,0,0,0c0,0,0,0,0,0c0,0,0,0,0,0c0,0,0,0,0,0c0,0,0,0,0,0c0,0,0,0,0,0c0,0,0,0,0,0c0,0,0,0,0,0c0,0,0,0,0,0
					c0,0,0,0,0,0c0,0,0,0,0,0c0,0,0,0,0,0c0,0,0,0,0,0c0,0,0,0,0,0c0,0,0,0,0,0c0,0,0,0,0,0c0,0.4,0,0.8,0.1,1.2l0.8,3.6
					c0.5,2.3,3.2,4.1,5.9,4.1h7.3c2.8,0,5.4-1.7,5.9-4.1l0.8-3.6c0.1-0.4,0.1-0.8,0.1-1.2c0,0,0,0,0,0c0,0,0,0,0,0c0,0,0,0,0,0
					c0,0,0,0,0,0c0,0,0,0,0,0c0,0,0,0,0,0c0,0,0,0,0,0c0,0,0,0,0,0c0,0,0,0,0,0c0,0,0,0,0,0c0,0,0,0,0,0c0,0,0,0,0,0c0,0,0,0,0,0
					c0,0,0,0,0,0c0,0,0,0,0,0c0,0,0,0,0,0c0,0,0,0,0,0c0,0,0,0,0,0c0,0,0,0,0,0c0,0,0,0,0,0c0,0,0,0,0,0c0,0,0,0,0,0c0,0,0,0,0,0
					c0,0,0,0,0,0c0,0,0,0,0,0c0,0,0,0,0,0c0,0,0,0,0,0c0,0,0,0,0,0c0,0,0,0,0,0c0,0,0,0,0,0c0,0,0,0,0,0c0,0,0,0,0,0c0,0,0,0,0,0
					c0,0,0,0,0,0c0,0,0,0,0,0c0,0,0,0,0,0c0,0,0,0,0,0c0,0,0,0,0,0c0,0,0,0,0,0c0,0,0,0,0,0c0,0,0,0,0,0c0,0,0,0,0,0c0,0,0,0,0,0
					c0,0,0,0,0,0c0,0,0,0,0,0c0,0,0,0,0,0c0,0,0,0,0,0c0,0,0,0,0,0c0,0,0,0,0,0c0,0,0,0,0,0c0,0,0,0,0,0c0,0,0,0,0,0c0,0,0,0,0,0
					c0,0,0,0,0,0c0,0,0,0,0,0c0,0,0,0,0,0c0,0,0,0,0,0C107.3,38.5,107.3,38.5,107.3,38.4C107.3,38.4,107.3,38.4,107.3,38.4
					C107.3,38.4,107.3,38.4,107.3,38.4z"/>
				<path class="st2" d="M100.5,49.5h-7.3c-2.8,0-5.4-1.7-5.9-4.1l-0.8-3.6c-0.7-3.1,1.8-5.9,5.5-5.9h9.8c3.7,0,6.2,2.8,5.5,5.9
					l-0.8,3.6C105.9,47.8,103.3,49.5,100.5,49.5z"/>
			</g>
			<path class="st1" d="M86.2,56.9L86.2,56.9c-1,0-1.9-0.8-1.9-1.8v-7.9c0-1,0.8-1.8,1.9-1.8l0,0c1,0,1.9,0.8,1.9,1.8v7.9
				C88.1,56.1,87.2,56.9,86.2,56.9z"/>
			<path class="st1" d="M107.4,56.9L107.4,56.9c-1,0-1.9-0.8-1.9-1.8v-7.9c0-1,0.8-1.8,1.9-1.8l0,0c1,0,1.9,0.8,1.9,1.8v7.9
				C109.3,56.1,108.5,56.9,107.4,56.9z"/>
		</g>
		<g>
			<polygon class="st5" points="96.3,64.6 90.3,64.6 88.9,47.2 96.2,49.3 			"/>
			<polygon class="st5" points="97.5,64.6 103.4,64.6 104.8,48 97.5,49.3 			"/>
		</g>
	</g>
	<g>
		<path class="st0" d="M69.4,53.2l-7.9,2.4c-3.5,1.1-7.4-0.9-8.5-4.3l0,0c-1.1-3.5,0.9-7.2,4.4-8.3l7.9-2.4c3.5-1.1,7.4,0.9,8.5,4.3
			v0C74.9,48.4,72.9,52.1,69.4,53.2z"/>
		<g>
			<g>
				<path class="st1" d="M69.9,34.2c-0.9-2.5-3.7-3.9-6.8-2.9l-9.3,2.9c-3.1,1-4.6,3.7-3.9,6.2c0,0,0,0,0,0c0,0,0,0,0,0c0,0,0,0,0,0
					c0,0,0,0,0,0c0,0,0,0,0,0c0,0,0,0,0,0c0,0,0,0,0,0c0,0,0,0,0,0c0,0,0,0,0,0c0,0,0,0,0,0c0,0,0,0,0,0c0,0,0,0,0,0c0,0,0,0,0,0
					c0,0,0,0,0,0c0,0,0,0,0,0c0,0,0,0,0,0c0,0,0,0,0,0c0,0,0,0,0,0c0,0,0,0,0,0c0,0,0,0,0,0c0,0,0,0,0,0c0,0,0,0,0,0c0,0,0,0,0,0
					c0,0,0,0,0,0c0,0,0,0,0,0c0,0,0,0,0,0c0,0,0,0,0,0c0,0,0,0,0,0c0,0,0,0,0,0c0,0,0,0,0,0c0,0,0,0,0,0c0,0,0,0,0,0c0,0,0,0,0,0
					c0,0,0,0,0,0c0,0,0,0,0,0c0,0,0,0,0,0c0,0,0,0,0,0c0,0,0,0,0,0c0,0,0,0,0,0c0,0,0,0,0,0c0,0,0,0,0,0c0,0,0,0,0,0c0,0,0,0,0,0
					c0,0,0,0,0,0c0,0,0,0,0,0c0,0,0,0,0,0c0,0,0,0,0,0c0,0,0,0,0,0c0,0,0,0,0,0c0,0,0,0,0,0c0,0,0,0,0,0c0,0,0,0,0,0c0,0,0,0,0,0
					c0,0,0,0,0,0c0,0,0,0,0,0c0,0,0,0,0,0c0,0,0,0,0,0c0,0,0,0,0,0c0,0,0,0,0,0c0,0,0,0,0,0c0.1,0.4,0.3,0.7,0.5,1.1l1.8,3.2
					c1.2,2.1,4.3,3,6.9,2.2l7-2.2c2.7-0.8,4.7-3.3,4.4-5.6l-0.4-3.7c0-0.4-0.1-0.8-0.2-1.1c0,0,0,0,0,0c0,0,0,0,0,0c0,0,0,0,0,0
					c0,0,0,0,0,0c0,0,0,0,0,0c0,0,0,0,0,0c0,0,0,0,0,0c0,0,0,0,0,0c0,0,0,0,0,0c0,0,0,0,0,0c0,0,0,0,0,0c0,0,0,0,0,0c0,0,0,0,0,0
					c0,0,0,0,0,0c0,0,0,0,0,0c0,0,0,0,0,0c0,0,0,0,0,0c0,0,0,0,0,0c0,0,0,0,0,0c0,0,0,0,0,0c0,0,0,0,0,0c0,0,0,0,0,0c0,0,0,0,0,0
					c0,0,0,0,0,0c0,0,0,0,0,0c0,0,0,0,0,0c0,0,0,0,0,0c0,0,0,0,0,0c0,0,0,0,0,0c0,0,0,0,0,0c0,0,0,0,0,0c0,0,0,0,0,0c0,0,0,0,0,0
					c0,0,0,0,0,0c0,0,0,0,0,0c0,0,0,0,0,0c0,0,0,0,0,0c0,0,0,0,0,0c0,0,0,0,0,0c0,0,0,0,0,0c0,0,0,0,0,0c0,0,0,0,0,0c0,0,0,0,0,0
					c0,0,0,0,0,0c0,0,0,0,0,0c0,0,0,0,0,0c0,0,0,0,0,0c0,0,0,0,0,0c0,0,0,0,0,0c0,0,0,0,0,0c0,0,0,0,0,0c0,0,0,0,0,0c0,0,0,0,0,0
					c0,0,0,0,0,0c0,0,0,0,0,0c0,0,0,0,0,0c0,0,0,0,0,0C70,34.3,70,34.3,69.9,34.2C69.9,34.3,69.9,34.3,69.9,34.2
					C69.9,34.3,69.9,34.3,69.9,34.2z"/>
				<path class="st2" d="M66.8,46.9l-7,2.2c-2.7,0.8-5.7-0.1-6.9-2.2l-1.8-3.2c-1.6-2.7-0.1-6.2,3.4-7.3l9.3-2.9
					c3.5-1.1,6.7,0.9,7,4l0.4,3.7C71.5,43.6,69.5,46.1,66.8,46.9z"/>
			</g>
			<path class="st1" d="M55.5,58.1L55.5,58.1c-1,0.3-2-0.2-2.3-1.2l-2.4-7.6c-0.3-1,0.2-2,1.2-2.3l0,0c1-0.3,2,0.2,2.3,1.2l2.4,7.6
				C57,56.8,56.4,57.8,55.5,58.1z"/>
			<path class="st1" d="M75.7,51.9L75.7,51.9c-1,0.3-2-0.2-2.3-1.2l-2.4-7.6c-0.3-1,0.2-2,1.2-2.3v0c1-0.3,2,0.2,2.3,1.2l2.4,7.6
				C77.2,50.6,76.7,51.6,75.7,51.9z"/>
		</g>
	</g>
	<g>
		<path class="st0" d="M142.8,146.3l8.2-0.9c3.7-0.4,7.1,2.2,7.5,5.8v0c0.4,3.6-2.3,6.9-5.9,7.4l-8.2,0.9c-3.7,0.4-7.1-2.2-7.5-5.8
			v0C136.4,150,139.1,146.7,142.8,146.3z"/>
		<g>
			<g>
				<path class="st1" d="M138.6,164.8c0.4,2.6,2.9,4.5,6.1,4.1l9.7-1.1c3.2-0.4,5.2-2.8,5-5.4c0,0,0,0,0,0c0,0,0,0,0,0c0,0,0,0,0,0
					c0,0,0,0,0,0c0,0,0,0,0,0c0,0,0,0,0,0c0,0,0,0,0,0c0,0,0,0,0,0c0,0,0,0,0,0c0,0,0,0,0,0c0,0,0,0,0,0c0,0,0,0,0,0c0,0,0,0,0,0
					c0,0,0,0,0,0c0,0,0,0,0,0c0,0,0,0,0,0c0,0,0,0,0,0c0,0,0,0,0,0c0,0,0,0,0,0c0,0,0,0,0,0c0,0,0,0,0,0c0,0,0,0,0,0c0,0,0,0,0,0
					c0,0,0,0,0,0c0,0,0,0,0,0c0,0,0,0,0,0c0,0,0,0,0,0c0,0,0,0,0,0c0,0,0,0,0,0c0,0,0,0,0,0c0,0,0,0,0,0c0,0,0,0,0,0c0,0,0,0,0,0
					c0,0,0,0,0,0c0,0,0,0,0,0c0,0,0,0,0,0c0,0,0,0,0,0c0,0,0,0,0,0c0,0,0,0,0,0c0,0,0,0,0,0c0,0,0,0,0,0c0,0,0,0,0,0c0,0,0,0,0,0
					c0,0,0,0,0,0c0,0,0,0,0,0c0,0,0,0,0,0c0,0,0,0,0,0c0,0,0,0,0,0c0,0,0,0,0,0c0,0,0,0,0,0c0,0,0,0,0,0c0,0,0,0,0,0c0,0,0,0,0,0
					c0,0,0,0,0,0c0,0,0,0,0,0c0,0,0,0,0,0c0,0,0,0,0,0c0,0,0,0,0,0c0,0,0,0,0,0c0,0,0,0,0,0c0-0.4-0.1-0.8-0.2-1.1l-1.2-3.5
					c-0.8-2.3-3.6-3.7-6.4-3.4l-7.3,0.8c-2.8,0.3-5.2,2.3-5.4,4.7l-0.4,3.7c0,0.4,0,0.8,0,1.2c0,0,0,0,0,0c0,0,0,0,0,0c0,0,0,0,0,0
					c0,0,0,0,0,0c0,0,0,0,0,0c0,0,0,0,0,0c0,0,0,0,0,0c0,0,0,0,0,0c0,0,0,0,0,0c0,0,0,0,0,0c0,0,0,0,0,0c0,0,0,0,0,0c0,0,0,0,0,0
					c0,0,0,0,0,0c0,0,0,0,0,0c0,0,0,0,0,0c0,0,0,0,0,0c0,0,0,0,0,0c0,0,0,0,0,0c0,0,0,0,0,0c0,0,0,0,0,0c0,0,0,0,0,0c0,0,0,0,0,0
					c0,0,0,0,0,0c0,0,0,0,0,0c0,0,0,0,0,0c0,0,0,0,0,0c0,0,0,0,0,0c0,0,0,0,0,0c0,0,0,0,0,0c0,0,0,0,0,0c0,0,0,0,0,0c0,0,0,0,0,0
					c0,0,0,0,0,0c0,0,0,0,0,0c0,0,0,0,0,0c0,0,0,0,0,0c0,0,0,0,0,0c0,0,0,0,0,0c0,0,0,0,0,0c0,0,0,0,0,0c0,0,0,0,0,0c0,0,0,0,0,0
					c0,0,0,0,0,0c0,0,0,0,0,0c0,0,0,0,0,0c0,0,0,0,0,0c0,0,0,0,0,0c0,0,0,0,0,0c0,0,0,0,0,0c0,0,0,0,0,0c0,0,0,0,0,0c0,0,0,0,0,0
					c0,0,0,0,0,0c0,0,0,0,0,0c0,0,0,0,0,0c0,0,0,0,0,0C138.6,164.7,138.6,164.7,138.6,164.8C138.6,164.7,138.6,164.8,138.6,164.8
					C138.6,164.8,138.6,164.8,138.6,164.8z"/>
				<path class="st2" d="M144.1,153l7.3-0.8c2.8-0.3,5.6,1.1,6.4,3.4l1.2,3.5c1,3-1.1,6.1-4.8,6.5l-9.7,1.1
					c-3.7,0.4-6.4-2.1-6.1-5.3l0.4-3.7C138.9,155.3,141.3,153.3,144.1,153z"/>
			</g>
			<path class="st1" d="M157.4,144L157.4,144c1-0.1,1.9,0.6,2.1,1.6l0.9,7.9c0.1,1-0.6,1.9-1.6,2l0,0c-1,0.1-1.9-0.6-2.1-1.6
				l-0.9-7.9C155.6,145.1,156.4,144.1,157.4,144z"/>
			<path class="st1" d="M136.3,146.4L136.3,146.4c1-0.1,1.9,0.6,2.1,1.6l0.9,7.9c0.1,1-0.6,1.9-1.6,2l0,0c-1,0.1-1.9-0.6-2.1-1.6
				l-0.9-7.9C134.6,147.4,135.3,146.5,136.3,146.4z"/>
		</g>
	</g>
	<g>
		<path class="st0" d="M137.2,56.3h-8.5c-3.7,0-6.6-3-6.6-6.6v0c0-3.7,3-6.6,6.6-6.6h8.5c3.7,0,6.6,3,6.6,6.6v0
			C143.9,53.4,140.9,56.3,137.2,56.3z"/>
		<g>
			<g>
				<path class="st1" d="M143.5,38.4c-0.1-2.6-2.3-4.8-5.6-4.8h-9.8c-3.3,0-5.5,2.2-5.6,4.8c0,0,0,0,0,0c0,0,0,0,0,0c0,0,0,0,0,0
					c0,0,0,0,0,0c0,0,0,0,0,0c0,0,0,0,0,0c0,0,0,0,0,0c0,0,0,0,0,0c0,0,0,0,0,0c0,0,0,0,0,0c0,0,0,0,0,0c0,0,0,0,0,0c0,0,0,0,0,0
					c0,0,0,0,0,0c0,0,0,0,0,0c0,0,0,0,0,0c0,0,0,0,0,0c0,0,0,0,0,0c0,0,0,0,0,0c0,0,0,0,0,0c0,0,0,0,0,0c0,0,0,0,0,0c0,0,0,0,0,0
					c0,0,0,0,0,0c0,0,0,0,0,0c0,0,0,0,0,0c0,0,0,0,0,0c0,0,0,0,0,0c0,0,0,0,0,0c0,0,0,0,0,0c0,0,0,0,0,0c0,0,0,0,0,0c0,0,0,0,0,0
					c0,0,0,0,0,0c0,0,0,0,0,0c0,0,0,0,0,0c0,0,0,0,0,0c0,0,0,0,0,0c0,0,0,0,0,0c0,0,0,0,0,0c0,0,0,0,0,0c0,0,0,0,0,0c0,0,0,0,0,0
					c0,0,0,0,0,0c0,0,0,0,0,0c0,0,0,0,0,0c0,0,0,0,0,0c0,0,0,0,0,0c0,0,0,0,0,0c0,0,0,0,0,0c0,0,0,0,0,0c0,0,0,0,0,0c0,0,0,0,0,0
					c0,0,0,0,0,0c0,0,0,0,0,0c0,0,0,0,0,0c0,0,0,0,0,0c0,0,0,0,0,0c0,0,0,0,0,0c0,0,0,0,0,0c0,0.4,0,0.8,0.1,1.2l0.8,3.6
					c0.5,2.3,3.2,4.1,5.9,4.1h7.3c2.8,0,5.4-1.7,5.9-4.1l0.8-3.6c0.1-0.4,0.1-0.8,0.1-1.2c0,0,0,0,0,0c0,0,0,0,0,0c0,0,0,0,0,0
					c0,0,0,0,0,0c0,0,0,0,0,0c0,0,0,0,0,0c0,0,0,0,0,0c0,0,0,0,0,0c0,0,0,0,0,0c0,0,0,0,0,0c0,0,0,0,0,0c0,0,0,0,0,0c0,0,0,0,0,0
					c0,0,0,0,0,0c0,0,0,0,0,0c0,0,0,0,0,0c0,0,0,0,0,0c0,0,0,0,0,0c0,0,0,0,0,0c0,0,0,0,0,0c0,0,0,0,0,0c0,0,0,0,0,0c0,0,0,0,0,0
					c0,0,0,0,0,0c0,0,0,0,0,0c0,0,0,0,0,0c0,0,0,0,0,0c0,0,0,0,0,0c0,0,0,0,0,0c0,0,0,0,0,0c0,0,0,0,0,0c0,0,0,0,0,0c0,0,0,0,0,0
					c0,0,0,0,0,0c0,0,0,0,0,0c0,0,0,0,0,0c0,0,0,0,0,0c0,0,0,0,0,0c0,0,0,0,0,0c0,0,0,0,0,0c0,0,0,0,0,0c0,0,0,0,0,0c0,0,0,0,0,0
					c0,0,0,0,0,0c0,0,0,0,0,0c0,0,0,0,0,0c0,0,0,0,0,0c0,0,0,0,0,0c0,0,0,0,0,0c0,0,0,0,0,0c0,0,0,0,0,0c0,0,0,0,0,0c0,0,0,0,0,0
					c0,0,0,0,0,0c0,0,0,0,0,0c0,0,0,0,0,0c0,0,0,0,0,0C143.5,38.5,143.5,38.5,143.5,38.4C143.5,38.4,143.5,38.4,143.5,38.4
					C143.5,38.4,143.5,38.4,143.5,38.4z"/>
				<path class="st2" d="M136.6,49.5h-7.3c-2.8,0-5.4-1.7-5.9-4.1l-0.8-3.6c-0.7-3.1,1.8-5.9,5.5-5.9h9.8c3.7,0,6.2,2.8,5.5,5.9
					l-0.8,3.6C142.1,47.8,139.4,49.5,136.6,49.5z"/>
			</g>
			<path class="st1" d="M122.4,56.9L122.4,56.9c-1,0-1.9-0.8-1.9-1.8v-7.9c0-1,0.8-1.8,1.9-1.8l0,0c1,0,1.9,0.8,1.9,1.8v7.9
				C124.2,56.1,123.4,56.9,122.4,56.9z"/>
			<path class="st1" d="M143.6,56.9L143.6,56.9c-1,0-1.9-0.8-1.9-1.8v-7.9c0-1,0.8-1.8,1.9-1.8l0,0c1,0,1.9,0.8,1.9,1.8v7.9
				C145.4,56.1,144.6,56.9,143.6,56.9z"/>
		</g>
		<g>
			<polygon class="st6" points="132.4,64.6 126.5,64.6 125.2,47.9 132.4,47.9 			"/>
			<polygon class="st6" points="133.6,64.6 139.6,64.6 140.9,47.9 133.7,47.9 			"/>
		</g>
	</g>
	<g>
		<path class="st0" d="M157.9,101.7l-5.8-5.8c-2.6-2.6-2.6-6.8,0.1-9.4l0,0c2.6-2.6,6.9-2.5,9.6,0.1l5.8,5.8
			c2.6,2.6,2.6,6.8-0.1,9.4v0C164.9,104.3,160.6,104.3,157.9,101.7z"/>
		<g>
			<g>
				<path class="st1" d="M175.4,93.5c1.9-1.9,1.8-5-0.5-7.3l-6.9-6.8c-2.3-2.3-5.5-2.3-7.4-0.5c0,0,0,0,0,0c0,0,0,0,0,0c0,0,0,0,0,0
					c0,0,0,0,0,0c0,0,0,0,0,0c0,0,0,0,0,0c0,0,0,0,0,0c0,0,0,0,0,0c0,0,0,0,0,0c0,0,0,0,0,0c0,0,0,0,0,0c0,0,0,0,0,0c0,0,0,0,0,0
					c0,0,0,0,0,0c0,0,0,0,0,0c0,0,0,0,0,0c0,0,0,0,0,0c0,0,0,0,0,0c0,0,0,0,0,0c0,0,0,0,0,0c0,0,0,0,0,0c0,0,0,0,0,0c0,0,0,0,0,0
					c0,0,0,0,0,0c0,0,0,0,0,0c0,0,0,0,0,0c0,0,0,0,0,0c0,0,0,0,0,0c0,0,0,0,0,0c0,0,0,0,0,0c0,0,0,0,0,0c0,0,0,0,0,0c0,0,0,0,0,0
					c0,0,0,0,0,0c0,0,0,0,0,0c0,0,0,0,0,0c0,0,0,0,0,0c0,0,0,0,0,0c0,0,0,0,0,0c0,0,0,0,0,0c0,0,0,0,0,0c0,0,0,0,0,0c0,0,0,0,0,0
					c0,0,0,0,0,0c0,0,0,0,0,0c0,0,0,0,0,0c0,0,0,0,0,0c0,0,0,0,0,0c0,0,0,0,0,0c0,0,0,0,0,0c0,0,0,0,0,0c0,0,0,0,0,0c0,0,0,0,0,0
					c0,0,0,0,0,0c0,0,0,0,0,0c0,0,0,0,0,0c0,0,0,0,0,0c0,0,0,0,0,0c0,0,0,0,0,0c0,0,0,0,0,0c-0.3,0.3-0.5,0.6-0.8,0.9l-2.1,3.1
					c-1.3,2-0.7,5.1,1.2,7l5.1,5.1c2,1.9,5.1,2.6,7.1,1.3l3.2-2c0.3-0.2,0.6-0.5,0.9-0.7c0,0,0,0,0,0c0,0,0,0,0,0c0,0,0,0,0,0
					c0,0,0,0,0,0c0,0,0,0,0,0c0,0,0,0,0,0c0,0,0,0,0,0c0,0,0,0,0,0c0,0,0,0,0,0c0,0,0,0,0,0c0,0,0,0,0,0c0,0,0,0,0,0c0,0,0,0,0,0
					c0,0,0,0,0,0c0,0,0,0,0,0c0,0,0,0,0,0c0,0,0,0,0,0c0,0,0,0,0,0c0,0,0,0,0,0c0,0,0,0,0,0c0,0,0,0,0,0c0,0,0,0,0,0c0,0,0,0,0,0
					c0,0,0,0,0,0c0,0,0,0,0,0c0,0,0,0,0,0c0,0,0,0,0,0c0,0,0,0,0,0c0,0,0,0,0,0c0,0,0,0,0,0c0,0,0,0,0,0c0,0,0,0,0,0c0,0,0,0,0,0
					c0,0,0,0,0,0c0,0,0,0,0,0c0,0,0,0,0,0c0,0,0,0,0,0c0,0,0,0,0,0c0,0,0,0,0,0c0,0,0,0,0,0c0,0,0,0,0,0c0,0,0,0,0,0c0,0,0,0,0,0
					c0,0,0,0,0,0c0,0,0,0,0,0c0,0,0,0,0,0c0,0,0,0,0,0c0,0,0,0,0,0c0,0,0,0,0,0c0,0,0,0,0,0c0,0,0,0,0,0c0,0,0,0,0,0c0,0,0,0,0,0
					c0,0,0,0,0,0c0,0,0,0,0,0c0,0,0,0,0,0C175.3,93.6,175.3,93.6,175.4,93.5C175.3,93.6,175.3,93.5,175.4,93.5
					C175.3,93.5,175.4,93.5,175.4,93.5C175.4,93.5,175.4,93.5,175.4,93.5z"/>
				<path class="st2" d="M162.5,96.6l-5.1-5.1c-2-1.9-2.6-5-1.2-7l2.1-3.1c1.8-2.6,5.5-2.9,8.1-0.3l6.9,6.8c2.6,2.6,2.3,6.3-0.4,8
					l-3.2,2C167.6,99.1,164.5,98.5,162.5,96.6z"/>
			</g>
			<path class="st1" d="M147.1,91.8L147.1,91.8c-0.7-0.7-0.7-1.9,0-2.6l5.8-5.6c0.7-0.7,1.9-0.7,2.6,0l0,0c0.7,0.7,0.7,1.9,0,2.6
				l-5.8,5.6C149,92.5,147.9,92.5,147.1,91.8z"/>
			<path class="st1" d="M162.1,106.6L162.1,106.6c-0.7-0.7-0.7-1.9,0-2.6l5.8-5.6c0.7-0.7,1.9-0.7,2.6,0l0,0c0.7,0.7,0.7,1.9,0,2.6
				l-5.8,5.6C164,107.3,162.8,107.3,162.1,106.6z"/>
		</g>
		<g>
			<polygon class="st7" points="148.7,104.2 144.5,100.1 154.6,88.3 159.7,93.4 			"/>
			<polygon class="st7" points="149.5,105.1 153.7,109.2 167.1,98.2 160.7,94.3 			"/>
		</g>
	</g>
	<g>
		<path class="st0" d="M69.9,141.2h8.5c3.7,0,6.6,3,6.6,6.6v0c0,3.7-3,6.6-6.6,6.6h-8.5c-3.7,0-6.6-3-6.6-6.6v0
			C63.2,144.2,66.2,141.2,69.9,141.2z"/>
		<g>
			<g>
				<path class="st1" d="M63.7,159.2c0.1,2.6,2.3,4.8,5.6,4.8H79c3.3,0,5.5-2.2,5.6-4.8c0,0,0,0,0,0c0,0,0,0,0,0c0,0,0,0,0,0
					c0,0,0,0,0,0c0,0,0,0,0,0c0,0,0,0,0,0c0,0,0,0,0,0c0,0,0,0,0,0c0,0,0,0,0,0c0,0,0,0,0,0c0,0,0,0,0,0c0,0,0,0,0,0c0,0,0,0,0,0
					c0,0,0,0,0,0c0,0,0,0,0,0c0,0,0,0,0,0c0,0,0,0,0,0c0,0,0,0,0,0c0,0,0,0,0,0c0,0,0,0,0,0c0,0,0,0,0,0c0,0,0,0,0,0c0,0,0,0,0,0
					c0,0,0,0,0,0c0,0,0,0,0,0c0,0,0,0,0,0c0,0,0,0,0,0c0,0,0,0,0,0c0,0,0,0,0,0c0,0,0,0,0,0c0,0,0,0,0,0c0,0,0,0,0,0c0,0,0,0,0,0
					c0,0,0,0,0,0c0,0,0,0,0,0c0,0,0,0,0,0c0,0,0,0,0,0c0,0,0,0,0,0c0,0,0,0,0,0c0,0,0,0,0,0c0,0,0,0,0,0c0,0,0,0,0,0c0,0,0,0,0,0
					c0,0,0,0,0,0c0,0,0,0,0,0c0,0,0,0,0,0c0,0,0,0,0,0c0,0,0,0,0,0c0,0,0,0,0,0c0,0,0,0,0,0c0,0,0,0,0,0c0,0,0,0,0,0c0,0,0,0,0,0
					c0,0,0,0,0,0c0,0,0,0,0,0c0,0,0,0,0,0c0,0,0,0,0,0c0,0,0,0,0,0c0,0,0,0,0,0c0,0,0,0,0,0c0-0.4,0-0.8-0.1-1.2l-0.8-3.6
					c-0.5-2.3-3.2-4.1-5.9-4.1h-7.3c-2.8,0-5.4,1.7-5.9,4.1l-0.8,3.6c-0.1,0.4-0.1,0.8-0.1,1.2c0,0,0,0,0,0c0,0,0,0,0,0c0,0,0,0,0,0
					c0,0,0,0,0,0c0,0,0,0,0,0c0,0,0,0,0,0c0,0,0,0,0,0c0,0,0,0,0,0c0,0,0,0,0,0c0,0,0,0,0,0c0,0,0,0,0,0c0,0,0,0,0,0c0,0,0,0,0,0
					c0,0,0,0,0,0c0,0,0,0,0,0c0,0,0,0,0,0c0,0,0,0,0,0c0,0,0,0,0,0c0,0,0,0,0,0c0,0,0,0,0,0c0,0,0,0,0,0c0,0,0,0,0,0c0,0,0,0,0,0
					c0,0,0,0,0,0c0,0,0,0,0,0c0,0,0,0,0,0c0,0,0,0,0,0c0,0,0,0,0,0c0,0,0,0,0,0c0,0,0,0,0,0c0,0,0,0,0,0c0,0,0,0,0,0c0,0,0,0,0,0
					c0,0,0,0,0,0c0,0,0,0,0,0c0,0,0,0,0,0c0,0,0,0,0,0c0,0,0,0,0,0c0,0,0,0,0,0c0,0,0,0,0,0c0,0,0,0,0,0c0,0,0,0,0,0c0,0,0,0,0,0
					c0,0,0,0,0,0c0,0,0,0,0,0c0,0,0,0,0,0c0,0,0,0,0,0c0,0,0,0,0,0c0,0,0,0,0,0c0,0,0,0,0,0c0,0,0,0,0,0c0,0,0,0,0,0c0,0,0,0,0,0
					c0,0,0,0,0,0c0,0,0,0,0,0c0,0,0,0,0,0c0,0,0,0,0,0C63.7,159.1,63.7,159.1,63.7,159.2C63.7,159.1,63.7,159.1,63.7,159.2
					C63.7,159.1,63.7,159.2,63.7,159.2z"/>
				<path class="st2" d="M70.5,148h7.3c2.8,0,5.4,1.7,5.9,4.1l0.8,3.6c0.7,3.1-1.8,5.9-5.5,5.9h-9.8c-3.7,0-6.2-2.8-5.5-5.9l0.8-3.6
					C65.1,149.8,67.7,148,70.5,148z"/>
			</g>
			<path class="st1" d="M84.8,140.6L84.8,140.6c1,0,1.9,0.8,1.9,1.8v7.9c0,1-0.8,1.8-1.9,1.8l0,0c-1,0-1.9-0.8-1.9-1.8v-7.9
				C82.9,141.4,83.7,140.6,84.8,140.6z"/>
			<path class="st1" d="M63.6,140.6L63.6,140.6c1,0,1.9,0.8,1.9,1.8v7.9c0,1-0.8,1.8-1.9,1.8l0,0c-1,0-1.9-0.8-1.9-1.8v-7.9
				C61.7,141.4,62.5,140.6,63.6,140.6z"/>
		</g>
		<g>
			<polygon class="st8" points="74.7,132.9 80.6,132.9 81.7,150.1 74.8,148.3 			"/>
			<polygon class="st8" points="73.5,132.9 67.6,132.9 66.5,149.1 73.4,148.3 			"/>
		</g>
	</g>
	<g>
		<path class="st0" d="M107.1,141.2h8.5c3.7,0,6.6,3,6.6,6.6v0c0,3.7-3,6.6-6.6,6.6h-8.5c-3.7,0-6.6-3-6.6-6.6v0
			C100.5,144.2,103.5,141.2,107.1,141.2z"/>
		<g>
			<g>
				<path class="st1" d="M100.9,159.2c0.1,2.6,2.3,4.8,5.6,4.8h9.8c3.3,0,5.5-2.2,5.6-4.8c0,0,0,0,0,0c0,0,0,0,0,0c0,0,0,0,0,0
					c0,0,0,0,0,0c0,0,0,0,0,0c0,0,0,0,0,0c0,0,0,0,0,0c0,0,0,0,0,0c0,0,0,0,0,0c0,0,0,0,0,0c0,0,0,0,0,0c0,0,0,0,0,0c0,0,0,0,0,0
					c0,0,0,0,0,0c0,0,0,0,0,0c0,0,0,0,0,0c0,0,0,0,0,0c0,0,0,0,0,0c0,0,0,0,0,0c0,0,0,0,0,0c0,0,0,0,0,0c0,0,0,0,0,0c0,0,0,0,0,0
					c0,0,0,0,0,0c0,0,0,0,0,0c0,0,0,0,0,0c0,0,0,0,0,0c0,0,0,0,0,0c0,0,0,0,0,0c0,0,0,0,0,0c0,0,0,0,0,0c0,0,0,0,0,0c0,0,0,0,0,0
					c0,0,0,0,0,0c0,0,0,0,0,0c0,0,0,0,0,0c0,0,0,0,0,0c0,0,0,0,0,0c0,0,0,0,0,0c0,0,0,0,0,0c0,0,0,0,0,0c0,0,0,0,0,0c0,0,0,0,0,0
					c0,0,0,0,0,0c0,0,0,0,0,0c0,0,0,0,0,0c0,0,0,0,0,0c0,0,0,0,0,0c0,0,0,0,0,0c0,0,0,0,0,0c0,0,0,0,0,0c0,0,0,0,0,0c0,0,0,0,0,0
					c0,0,0,0,0,0c0,0,0,0,0,0c0,0,0,0,0,0c0,0,0,0,0,0c0,0,0,0,0,0c0,0,0,0,0,0c0,0,0,0,0,0c0-0.4,0-0.8-0.1-1.2l-0.8-3.6
					c-0.5-2.3-3.2-4.1-5.9-4.1h-7.3c-2.8,0-5.4,1.7-5.9,4.1l-0.8,3.6c-0.1,0.4-0.1,0.8-0.1,1.2c0,0,0,0,0,0c0,0,0,0,0,0c0,0,0,0,0,0
					c0,0,0,0,0,0c0,0,0,0,0,0c0,0,0,0,0,0c0,0,0,0,0,0c0,0,0,0,0,0c0,0,0,0,0,0c0,0,0,0,0,0c0,0,0,0,0,0c0,0,0,0,0,0c0,0,0,0,0,0
					c0,0,0,0,0,0c0,0,0,0,0,0c0,0,0,0,0,0c0,0,0,0,0,0c0,0,0,0,0,0c0,0,0,0,0,0c0,0,0,0,0,0c0,0,0,0,0,0c0,0,0,0,0,0c0,0,0,0,0,0
					c0,0,0,0,0,0c0,0,0,0,0,0c0,0,0,0,0,0c0,0,0,0,0,0c0,0,0,0,0,0c0,0,0,0,0,0c0,0,0,0,0,0c0,0,0,0,0,0c0,0,0,0,0,0c0,0,0,0,0,0
					c0,0,0,0,0,0c0,0,0,0,0,0c0,0,0,0,0,0c0,0,0,0,0,0c0,0,0,0,0,0c0,0,0,0,0,0c0,0,0,0,0,0c0,0,0,0,0,0c0,0,0,0,0,0c0,0,0,0,0,0
					c0,0,0,0,0,0c0,0,0,0,0,0c0,0,0,0,0,0c0,0,0,0,0,0c0,0,0,0,0,0c0,0,0,0,0,0c0,0,0,0,0,0c0,0,0,0,0,0c0,0,0,0,0,0c0,0,0,0,0,0
					c0,0,0,0,0,0c0,0,0,0,0,0c0,0,0,0,0,0c0,0,0,0,0,0C100.9,159.1,100.9,159.1,100.9,159.2C100.9,159.1,100.9,159.1,100.9,159.2
					C100.9,159.1,100.9,159.2,100.9,159.2z"/>
				<path class="st2" d="M107.8,148h7.3c2.8,0,5.4,1.7,5.9,4.1l0.8,3.6c0.7,3.1-1.8,5.9-5.5,5.9h-9.8c-3.7,0-6.2-2.8-5.5-5.9
					l0.8-3.6C102.3,149.8,105,148,107.8,148z"/>
			</g>
			<path class="st1" d="M122,140.6L122,140.6c1,0,1.9,0.8,1.9,1.8v7.9c0,1-0.8,1.8-1.9,1.8l0,0c-1,0-1.9-0.8-1.9-1.8v-7.9
				C120.2,141.4,121,140.6,122,140.6z"/>
			<path class="st1" d="M100.8,140.6L100.8,140.6c1,0,1.9,0.8,1.9,1.8v7.9c0,1-0.8,1.8-1.9,1.8l0,0c-1,0-1.9-0.8-1.9-1.8v-7.9
				C98.9,141.4,99.8,140.6,100.8,140.6z"/>
		</g>
		<g>
			<polygon class="st9" points="111.9,132.9 117.9,132.9 119.1,149.8 112,148.3 			"/>
			<polygon class="st9" points="110.8,132.9 104.8,132.9 103.5,150.8 110.7,148.3 			"/>
		</g>
	</g>
	<g>
		<path class="st0" d="M44.4,75.3v7.9c0,3.7-3,6.8-6.8,6.8h0c-3.7,0-6.8-3-6.8-6.8v-7.9c0-3.7,3-6.8,6.8-6.8h0
			C41.4,68.5,44.4,71.6,44.4,75.3z"/>
		<g>
			<g>
				<path class="st1" d="M26.1,68.9c-2.7,0.1-4.9,2.3-4.9,5.5V84c0,3.2,2.2,5.4,4.9,5.5c0,0,0,0,0,0c0,0,0,0,0,0c0,0,0,0,0,0
					c0,0,0,0,0,0c0,0,0,0,0,0c0,0,0,0,0,0c0,0,0,0,0,0c0,0,0,0,0,0c0,0,0,0,0,0c0,0,0,0,0,0c0,0,0,0,0,0c0,0,0,0,0,0c0,0,0,0,0,0
					c0,0,0,0,0,0c0,0,0,0,0,0c0,0,0,0,0,0c0,0,0,0,0,0c0,0,0,0,0,0c0,0,0,0,0,0c0,0,0,0,0,0c0,0,0,0,0,0c0,0,0,0,0,0c0,0,0,0,0,0
					c0,0,0,0,0,0c0,0,0,0,0,0c0,0,0,0,0,0c0,0,0,0,0,0c0,0,0,0,0,0c0,0,0,0,0,0c0,0,0,0,0,0c0,0,0,0,0,0c0,0,0,0,0,0c0,0,0,0,0,0
					c0,0,0,0,0,0c0,0,0,0,0,0c0,0,0,0,0,0c0,0,0,0,0,0c0,0,0,0,0,0c0,0,0,0,0,0c0,0,0,0,0,0c0,0,0,0,0,0c0,0,0,0,0,0c0,0,0,0,0,0
					c0,0,0,0,0,0c0,0,0,0,0,0c0,0,0,0,0,0c0,0,0,0,0,0c0,0,0,0,0,0c0,0,0,0,0,0c0,0,0,0,0,0c0,0,0,0,0,0c0,0,0,0,0,0c0,0,0,0,0,0
					c0,0,0,0,0,0c0,0,0,0,0,0c0,0,0,0,0,0c0,0,0,0,0,0c0,0,0,0,0,0c0,0,0,0,0,0c0,0,0,0,0,0c0.4,0,0.8,0,1.2-0.1l3.7-0.8
					c2.4-0.5,4.2-3.1,4.2-5.8v-7.2c0-2.7-1.8-5.3-4.2-5.8L29.6,69c-0.4-0.1-0.8-0.1-1.2-0.1c0,0,0,0,0,0c0,0,0,0,0,0c0,0,0,0,0,0
					c0,0,0,0,0,0c0,0,0,0,0,0c0,0,0,0,0,0c0,0,0,0,0,0c0,0,0,0,0,0c0,0,0,0,0,0c0,0,0,0,0,0c0,0,0,0,0,0c0,0,0,0,0,0c0,0,0,0,0,0
					c0,0,0,0,0,0c0,0,0,0,0,0c0,0,0,0,0,0c0,0,0,0,0,0c0,0,0,0,0,0c0,0,0,0,0,0c0,0,0,0,0,0c0,0,0,0,0,0c0,0,0,0,0,0c0,0,0,0,0,0
					c0,0,0,0,0,0c0,0,0,0,0,0c0,0,0,0,0,0c0,0,0,0,0,0c0,0,0,0,0,0c0,0,0,0,0,0c0,0,0,0,0,0c0,0,0,0,0,0c0,0,0,0,0,0c0,0,0,0,0,0
					c0,0,0,0,0,0c0,0,0,0,0,0c0,0,0,0,0,0c0,0,0,0,0,0c0,0,0,0,0,0c0,0,0,0,0,0c0,0,0,0,0,0c0,0,0,0,0,0c0,0,0,0,0,0c0,0,0,0,0,0
					c0,0,0,0,0,0c0,0,0,0,0,0c0,0,0,0,0,0c0,0,0,0,0,0c0,0,0,0,0,0c0,0,0,0,0,0c0,0,0,0,0,0c0,0,0,0,0,0c0,0,0,0,0,0c0,0,0,0,0,0
					c0,0,0,0,0,0c0,0,0,0,0,0c0,0,0,0,0,0c0,0,0,0,0,0C26.2,68.9,26.2,68.9,26.1,68.9C26.2,68.9,26.2,68.9,26.1,68.9
					C26.2,68.9,26.2,68.9,26.1,68.9z"/>
				<path class="st2" d="M37.5,75.6v7.2c0,2.7-1.8,5.3-4.2,5.8l-3.7,0.8c-3.1,0.7-6-1.7-6-5.4v-9.6c0-3.7,2.9-6,6-5.4l3.7,0.8
					C35.7,70.3,37.5,72.9,37.5,75.6z"/>
			</g>
			<path class="st1" d="M45,89.7L45,89.7c0,1-0.8,1.8-1.9,1.8h-8.1c-1,0-1.9-0.8-1.9-1.8l0,0c0-1,0.8-1.8,1.9-1.8h8.1
				C44.2,87.8,45,88.7,45,89.7z"/>
			<path class="st1" d="M45,68.8L45,68.8c0,1-0.8,1.8-1.9,1.8h-8.1c-1,0-1.9-0.8-1.9-1.8l0,0c0-1,0.8-1.8,1.9-1.8h8.1
				C44.2,67,45,67.8,45,68.8z"/>
		</g>
		<g>
			<polygon class="st10" points="52.8,79.8 52.8,85.6 35.4,86.7 37.2,79.8 			"/>
			<polygon class="st10" points="52.8,78.6 52.8,72.7 36.3,71.7 37.2,78.5 			"/>
		</g>
	</g>
	<path class="st11" d="M140.7,143.3H59.4c-8.7,0-15.8-7.1-15.8-15.8v-57c0-8.7,7.1-15.8,15.8-15.8h81.3c8.7,0,15.8,7.1,15.8,15.8v57
		C156.5,136.2,149.3,143.3,140.7,143.3z"/>
	<g>
		<polygon class="st12" points="54.7,122 47.9,113.2 59.6,104.6 66.4,113.4 		"/>
		<polygon class="st13" points="62.9,114.1 58,107.6 58.6,107.2 63.6,113.6 		"/>
		<polygon class="st13" points="60.3,113.9 56.4,108.8 57,108.3 61,113.4 		"/>
		<polygon class="st13" points="59.8,116.4 54.9,109.9 55.5,109.5 60.4,116 		"/>
		<polygon class="st13" points="57.2,116.2 53.3,111.1 53.9,110.6 57.8,115.8 		"/>
	</g>
	<g>
		<polygon class="st14" points="140.4,90.6 145.6,100.5 132.6,107.1 127.4,97.3 		"/>
		<polygon class="st13" points="130.9,97.2 134.7,104.4 134,104.7 130.2,97.5 		"/>
		<polygon class="st13" points="133.4,97.8 136.5,103.5 135.8,103.8 132.8,98.1 		"/>
		<polygon class="st13" points="134.4,95.4 138.2,102.6 137.5,102.9 133.7,95.7 		"/>
		<polygon class="st13" points="136.9,96 139.9,101.7 139.3,102 136.3,96.4 		"/>
	</g>
	<g>
		<polygon class="st14" points="86.5,138.9 77.2,132.6 85.5,120.8 94.8,127 		"/>
		<polygon class="st13" points="91.7,128.8 84.9,124.2 85.4,123.6 92.2,128.1 		"/>
		<polygon class="st13" points="89.2,129.4 83.8,125.8 84.3,125.2 89.6,128.8 		"/>
		<polygon class="st13" points="89.5,131.9 82.7,127.4 83.2,126.7 89.9,131.3 		"/>
		<polygon class="st13" points="87,132.6 81.6,129 82,128.3 87.4,132 		"/>
	</g>
	<g>
		<path class="st3" d="M115,124.8l13.9,2.8c1.8,0.4,3,2.1,2.6,3.9l-1.2,5.7c-0.4,1.8-2.2,3-4,2.6l-13.9-2.8c-1.8-0.4-3-2.1-2.6-3.9
			l1.2-5.7C111.3,125.6,113.1,124.4,115,124.8z"/>
		<path class="st3" d="M114.7,120.2l16.2,3.3c1.2,0.2,1.9,1.4,1.7,2.5l-0.2,0.9c-0.2,1.2-1.4,1.9-2.6,1.7l-16.2-3.3
			c-1.2-0.2-1.9-1.4-1.7-2.5l0.2-0.9C112.4,120.7,113.5,120,114.7,120.2z"/>
		<g>
			<path class="st15" d="M114.6,120.8l16.2,3.3c1.2,0.2,1.9,1.4,1.7,2.5l-0.2,0.9c-0.2,1.2-1.4,1.9-2.6,1.7l-16.2-3.3
				c-1.2-0.2-1.9-1.4-1.7-2.5l0.2-0.9C112.2,121.3,113.4,120.6,114.6,120.8z"/>
		</g>
		<path class="st16" d="M114.9,121.5l15.4,3.1c1,0.2,1.6,1.2,1.4,2.1l-0.1,0.3c-0.2,1-1.2,1.6-2.2,1.4l-15.4-3.1
			c-1-0.2-1.6-1.2-1.4-2.1l0.1-0.3C112.9,121.9,113.9,121.3,114.9,121.5z"/>
		<polygon class="st7" points="117.7,126.1 122.9,127.2 127.7,124.1 122.5,123 		"/>
		<path class="st7" d="M116.9,121.9l-3.1-0.6c-0.4-0.1-0.8,0.2-0.8,0.5l-0.5,2.5c0,0.1,0,0.3,0,0.4L116.9,121.9z"/>
		<path class="st7" d="M128.5,128.3l2,0.4c0.4,0.1,0.8-0.2,0.8-0.5l0.4-2L128.5,128.3z"/>
		<polygon class="st17" points="118,134.8 122,135.6 121.7,137.3 117.7,136.5 		"/>
		<polygon class="st6" points="119.5,137.6 121.5,138 121.7,137.3 119.7,136.9 		"/>
		<polygon class="st6" points="117.5,137.2 119.5,137.6 119.7,136.9 117.7,136.5 		"/>
		<g>
			<polygon class="st3" points="127.9,135.3 128,134.7 128.6,134.8 128.5,135.4 			"/>
			<polygon class="st15" points="127.7,134.1 127.3,135.7 128.9,136 129.2,134.5 127.7,134.1 			"/>
		</g>
		<g>
			<polygon class="st3" points="126.3,135 126.5,134.4 127.1,134.5 126.9,135.1 			"/>
			<polygon class="st15" points="126.1,133.8 125.7,135.4 127.3,135.7 127.7,134.1 126.1,133.8 			"/>
		</g>
		<g>
			<polygon class="st3" points="124.8,134.7 124.9,134.1 125.5,134.2 125.4,134.8 			"/>
			<polygon class="st15" points="124.5,133.5 124.2,135 125.7,135.4 126.1,133.8 124.5,133.5 			"/>
		</g>
		<g>
			<polygon class="st3" points="116.9,133 117,132.5 123.9,133.9 123.8,134.5 			"/>
			<polygon class="st15" points="116.6,131.9 116.3,133.4 117.9,133.7 119.4,134.1 121,134.4 122.6,134.7 124.2,135 124.5,133.5 
				122.9,133.2 121.3,132.8 119.8,132.5 118.2,132.2 116.6,131.9 			"/>
		</g>
		<g>
			<polygon class="st3" points="115.3,132.7 115.4,132.1 116,132.3 115.9,132.8 			"/>
			<polygon class="st15" points="115,131.6 114.7,133.1 116.3,133.4 116.6,131.9 115,131.6 			"/>
		</g>
		<g>
			<polygon class="st3" points="113.7,132.4 113.8,131.8 114.4,131.9 114.3,132.5 			"/>
			<polygon class="st15" points="113.4,131.2 113.1,132.8 114.7,133.1 115,131.6 113.4,131.2 			"/>
		</g>
		<g>
			<polygon class="st3" points="112.1,132.1 112.2,131.5 112.8,131.6 112.7,132.2 			"/>
			<polygon class="st15" points="111.9,130.9 111.5,132.5 113.1,132.8 113.4,131.2 111.9,130.9 			"/>
		</g>
		<g>
			<polygon class="st3" points="128.2,133.7 128.4,133.2 129,133.3 128.8,133.9 			"/>
			<polygon class="st15" points="128,132.6 127.7,134.1 129.2,134.5 129.6,132.9 128,132.6 			"/>
		</g>
		<g>
			<polygon class="st3" points="126.7,133.4 126.8,132.8 127.4,133 127.3,133.5 			"/>
			<polygon class="st15" points="126.4,132.3 126.1,133.8 127.7,134.1 128,132.6 126.4,132.3 			"/>
		</g>
		<g>
			<polygon class="st3" points="125.1,133.1 125.2,132.5 125.8,132.6 125.7,133.2 			"/>
			<polygon class="st15" points="124.8,131.9 124.5,133.5 126.1,133.8 126.4,132.3 124.8,131.9 			"/>
		</g>
		<g>
			<polygon class="st3" points="123.5,132.8 123.6,132.2 124.2,132.3 124.1,132.9 			"/>
			<polygon class="st15" points="123.2,131.6 122.9,133.2 124.5,133.5 124.8,131.9 123.2,131.6 			"/>
		</g>
		<g>
			<polygon class="st3" points="121.9,132.5 122.1,131.9 122.7,132 122.5,132.6 			"/>
			<polygon class="st15" points="121.7,131.3 121.3,132.8 122.9,133.2 123.2,131.6 121.7,131.3 			"/>
		</g>
		<g>
			<polygon class="st3" points="120.4,132.1 120.5,131.6 121.1,131.7 121,132.3 			"/>
			<polygon class="st15" points="120.1,131 119.8,132.5 121.3,132.8 121.7,131.3 120.1,131 			"/>
		</g>
		<g>
			<polygon class="st3" points="118.8,131.8 118.9,131.2 119.5,131.4 119.4,131.9 			"/>
			<polygon class="st15" points="118.5,130.6 118.2,132.2 119.8,132.5 120.1,131 118.5,130.6 			"/>
		</g>
		<g>
			<polygon class="st3" points="117.2,131.5 117.3,130.9 117.9,131 117.8,131.6 			"/>
			<polygon class="st15" points="116.9,130.3 116.6,131.9 118.2,132.2 118.5,130.6 116.9,130.3 			"/>
		</g>
		<g>
			<polygon class="st3" points="115.6,131.2 115.7,130.6 116.3,130.7 116.2,131.3 			"/>
			<polygon class="st15" points="115.4,130 115,131.6 116.6,131.9 116.9,130.3 115.4,130 			"/>
		</g>
		<g>
			<polygon class="st3" points="112.5,130.5 112.6,129.9 113.2,130.1 113.1,130.6 			"/>
			<polygon class="st15" points="112.2,129.4 111.9,130.9 113.4,131.2 113.8,129.7 112.2,129.4 			"/>
		</g>
		<g>
			<polygon class="st3" points="128.6,132.2 128.7,131.6 129.3,131.7 129.2,132.3 			"/>
			<polygon class="st15" points="128.3,131 128,132.6 129.6,132.9 129.9,131.4 128.3,131 			"/>
		</g>
		<g>
			<polygon class="st3" points="127,131.9 127.1,131.3 127.7,131.4 127.6,132 			"/>
			<polygon class="st15" points="126.7,130.7 126.4,132.3 128,132.6 128.3,131 126.7,130.7 			"/>
		</g>
		<g>
			<polygon class="st3" points="125.4,131.5 125.5,131 126.1,131.1 126,131.7 			"/>
			<polygon class="st15" points="125.2,130.4 124.8,131.9 126.4,132.3 126.7,130.7 125.2,130.4 			"/>
		</g>
		<g>
			<polygon class="st3" points="123.8,131.2 124,130.7 124.6,130.8 124.4,131.3 			"/>
			<polygon class="st15" points="123.6,130.1 123.2,131.6 124.8,131.9 125.2,130.4 123.6,130.1 			"/>
		</g>
		<g>
			<polygon class="st3" points="122.3,130.9 122.4,130.3 123,130.5 122.9,131 			"/>
			<polygon class="st15" points="122,129.7 121.7,131.3 123.2,131.6 123.6,130.1 122,129.7 			"/>
		</g>
		<g>
			<polygon class="st3" points="120.7,130.6 120.8,130 121.4,130.1 121.3,130.7 			"/>
			<polygon class="st15" points="120.4,129.4 120.1,131 121.7,131.3 122,129.7 120.4,129.4 			"/>
		</g>
		<g>
			<polygon class="st3" points="119.1,130.3 119.2,129.7 119.8,129.8 119.7,130.4 			"/>
			<polygon class="st15" points="118.8,129.1 118.5,130.6 120.1,131 120.4,129.4 118.8,129.1 			"/>
		</g>
		<g>
			<polygon class="st3" points="117.5,129.9 117.6,129.4 118.2,129.5 118.1,130.1 			"/>
			<polygon class="st15" points="117.3,128.8 116.9,130.3 118.5,130.6 118.8,129.1 117.3,128.8 			"/>
		</g>
		<g>
			<polygon class="st3" points="115.9,129.6 116.1,129 116.7,129.2 116.5,129.7 			"/>
			<polygon class="st15" points="115.7,128.4 115.4,130 116.9,130.3 117.3,128.8 115.7,128.4 			"/>
		</g>
		<g>
			<polygon class="st3" points="114,130.8 114.5,128.7 115.1,128.8 114.6,131 			"/>
			<polygon class="st15" points="114.1,128.1 113.8,129.7 113.4,131.2 115,131.6 115.4,130 115.7,128.4 114.1,128.1 			"/>
		</g>
		<g>
			<polygon class="st3" points="112.8,129 112.9,128.4 113.5,128.5 113.4,129.1 			"/>
			<polygon class="st15" points="112.5,127.8 112.2,129.4 113.8,129.7 114.1,128.1 112.5,127.8 			"/>
		</g>
		<g>
			<polygon class="st3" points="125.7,130 125.9,129.4 129.6,130.2 129.5,130.8 			"/>
			<polygon class="st15" points="125.5,128.8 125.2,130.4 126.7,130.7 128.3,131 129.9,131.4 130.2,129.8 128.6,129.5 127.1,129.2 
				125.5,128.8 			"/>
		</g>
		<g>
			<polygon class="st3" points="124.2,129.7 124.3,129.1 124.9,129.2 124.8,129.8 			"/>
			<polygon class="st15" points="123.9,128.5 123.6,130.1 125.2,130.4 125.5,128.8 123.9,128.5 			"/>
		</g>
		<g>
			<polygon class="st3" points="122.6,129.4 122.7,128.8 123.3,128.9 123.2,129.5 			"/>
			<polygon class="st15" points="122.3,128.2 122,129.7 123.6,130.1 123.9,128.5 122.3,128.2 			"/>
		</g>
		<g>
			<polygon class="st3" points="121,129 121.1,128.5 121.7,128.6 121.6,129.2 			"/>
			<polygon class="st15" points="120.7,127.9 120.4,129.4 122,129.7 122.3,128.2 120.7,127.9 			"/>
		</g>
		<g>
			<polygon class="st3" points="119.4,128.7 119.6,128.1 120.2,128.3 120,128.8 			"/>
			<polygon class="st15" points="119.2,127.5 118.8,129.1 120.4,129.4 120.7,127.9 119.2,127.5 			"/>
		</g>
		<g>
			<polygon class="st3" points="117.9,128.4 118,127.8 118.6,127.9 118.5,128.5 			"/>
			<polygon class="st15" points="117.6,127.2 117.3,128.8 118.8,129.1 119.2,127.5 117.6,127.2 			"/>
		</g>
		<g>
			<polygon class="st3" points="116.3,128.1 116.4,127.5 117,127.6 116.9,128.2 			"/>
			<polygon class="st15" points="116,126.9 115.7,128.4 117.3,128.8 117.6,127.2 116,126.9 			"/>
		</g>
		<g>
			<polygon class="st3" points="114.7,127.7 114.8,127.2 115.4,127.3 115.3,127.9 			"/>
			<polygon class="st15" points="114.4,126.6 114.1,128.1 115.7,128.4 116,126.9 114.4,126.6 			"/>
		</g>
		<g>
			<polygon class="st3" points="113.1,127.4 113.2,126.8 113.8,127 113.7,127.5 			"/>
			<polygon class="st15" points="112.8,126.3 112.5,127.8 114.1,128.1 114.4,126.6 112.8,126.3 			"/>
		</g>
	</g>
	<g>
		<path class="st4" d="M58.8,130.4h-5.5c-1.4,0-2.5-1.1-2.5-2.5v-8.6c0-1.4,1.1-2.5,2.5-2.5h5.5c1.4,0,2.5,1.1,2.5,2.5v8.6
			C61.4,129.3,60.2,130.4,58.8,130.4z"/>
		<path class="st18" d="M58.2,129.4h-3.8c-1.1,0-2-0.9-2-2v-7.5c0-1.1,0.9-2,2-2h3.8c1.1,0,2,0.9,2,2v7.5
			C60.2,128.5,59.3,129.4,58.2,129.4z"/>
		<path class="st7" d="M58.1,129.2h-3.6c-1,0-1.9-0.9-1.9-1.9V120c0-1,0.9-1.9,1.9-1.9h3.6c1,0,1.9,0.9,1.9,1.9v7.3
			C60,128.3,59.1,129.2,58.1,129.2z"/>
		<path class="st19" d="M54.5,118.1h-1.2c-0.4,0-0.6,0.3-0.6,0.6v1.2C53.2,119.3,53.8,118.7,54.5,118.1z"/>
		<path class="st19" d="M60,120.9v-2.2c0-0.1,0-0.2-0.1-0.3c-2.4,2.4-4.9,4.8-7.3,7.2v2.7C55.1,125.8,57.5,123.3,60,120.9z"/>
		<path class="st19" d="M57.3,129.2h2c0.4,0,0.6-0.3,0.6-0.6v-2C59.1,127.4,58.2,128.3,57.3,129.2z"/>
		<ellipse class="st12" cx="51.6" cy="123.6" rx="0.5" ry="0.5"/>
		<ellipse class="st4" cx="51.6" cy="123.6" rx="0.3" ry="0.3"/>
	</g>
	<g>
		<path class="st3" d="M136.7,73.5h-13.2c-2.1,0-3.9-1.7-3.9-3.9V65c0-2.1,1.7-3.9,3.9-3.9h13.2c2.1,0,3.9,1.7,3.9,3.9v4.7
			C140.5,71.8,138.8,73.5,136.7,73.5z"/>
		<path class="st3" d="M138,78h-16c-1.4,0-2.5-1.1-2.5-2.5v-0.2c0-1.4,1.1-2.5,2.5-2.5h16c1.4,0,2.5,1.1,2.5,2.5v0.2
			C140.5,76.9,139.4,78,138,78z"/>
		<g>
			<path class="st15" d="M138,77.4h-16c-1.4,0-2.5-1.1-2.5-2.5v-0.2c0-1.4,1.1-2.5,2.5-2.5h16c1.4,0,2.5,1.1,2.5,2.5v0.2
				C140.5,76.3,139.4,77.4,138,77.4z"/>
		</g>
		<path class="st7" d="M137.8,76.8h-15.4c-1.1,0-2-0.9-2-2v0c0-1.1,0.9-2,2-2h15.4c1.1,0,2,0.9,2,2v0
			C139.7,75.9,138.9,76.8,137.8,76.8z"/>
		<polygon class="st20" points="134.2,72.8 128.9,72.8 124.8,76.8 130.2,76.8 		"/>
		<path class="st20" d="M135.9,76.8h3.1c0.4,0,0.7-0.3,0.7-0.7v-2.6c0-0.1,0-0.3-0.1-0.4L135.9,76.8z"/>
		<path class="st20" d="M123.1,72.8H121c-0.4,0-0.7,0.3-0.7,0.7v2.1L123.1,72.8z"/>
		<rect x="128" y="62.7" class="st17" width="4.1" height="1.7"/>
		<rect x="128" y="61.9" class="st6" width="2" height="0.7"/>
		<rect x="130" y="61.9" class="st6" width="2" height="0.7"/>
		<g>
			<rect x="121.7" y="65.9" class="st3" width="0.6" height="0.6"/>
			<polygon class="st15" points="122.8,65.4 121.2,65.4 121.2,67 122.8,67 122.8,65.4 			"/>
		</g>
		<g>
			<rect x="123.3" y="65.9" class="st3" width="0.6" height="0.6"/>
			<polygon class="st15" points="124.4,65.4 122.8,65.4 122.8,67 124.4,67 124.4,65.4 			"/>
		</g>
		<g>
			<rect x="124.9" y="65.9" class="st3" width="0.6" height="0.6"/>
			<polygon class="st15" points="126,65.4 124.4,65.4 124.4,67 126,67 126,65.4 			"/>
		</g>
		<g>
			<rect x="126.5" y="65.9" class="st3" width="7.1" height="0.6"/>
			<polygon class="st15" points="134.1,65.4 132.5,65.4 130.8,65.4 129.2,65.4 127.6,65.4 126,65.4 126,67 127.6,67 129.2,67 
				130.8,67 132.5,67 134.1,67 134.1,65.4 			"/>
		</g>
		<g>
			<rect x="134.6" y="65.9" class="st3" width="0.6" height="0.6"/>
			<polygon class="st15" points="135.7,65.4 134.1,65.4 134.1,67 135.7,67 135.7,65.4 			"/>
		</g>
		<g>
			<rect x="136.2" y="65.9" class="st3" width="0.6" height="0.6"/>
			<polygon class="st15" points="137.3,65.4 135.7,65.4 135.7,67 137.3,67 137.3,65.4 			"/>
		</g>
		<g>
			<rect x="137.8" y="65.9" class="st3" width="0.6" height="0.6"/>
			<polygon class="st15" points="138.9,65.4 137.3,65.4 137.3,67 138.9,67 138.9,65.4 			"/>
		</g>
		<g>
			<rect x="121.7" y="67.5" class="st3" width="0.6" height="0.6"/>
			<polygon class="st15" points="122.8,67 121.2,67 121.2,68.5 122.8,68.5 122.8,67 			"/>
		</g>
		<g>
			<rect x="123.3" y="67.5" class="st3" width="0.6" height="0.6"/>
			<polygon class="st15" points="124.4,67 122.8,67 122.8,68.5 124.4,68.5 124.4,67 			"/>
		</g>
		<g>
			<rect x="124.9" y="67.5" class="st3" width="0.6" height="0.6"/>
			<polygon class="st15" points="126,67 124.4,67 124.4,68.5 126,68.5 126,67 			"/>
		</g>
		<g>
			<rect x="126.5" y="67.5" class="st3" width="0.6" height="0.6"/>
			<polygon class="st15" points="127.6,67 126,67 126,68.5 127.6,68.5 127.6,67 			"/>
		</g>
		<g>
			<rect x="128.1" y="67.5" class="st3" width="0.6" height="0.6"/>
			<polygon class="st15" points="129.2,67 127.6,67 127.6,68.5 129.2,68.5 129.2,67 			"/>
		</g>
		<g>
			<rect x="129.7" y="67.5" class="st3" width="0.6" height="0.6"/>
			<polygon class="st15" points="130.8,67 129.2,67 129.2,68.5 130.8,68.5 130.8,67 			"/>
		</g>
		<g>
			<rect x="131.3" y="67.5" class="st3" width="0.6" height="0.6"/>
			<polygon class="st15" points="132.5,67 130.8,67 130.8,68.5 132.5,68.5 132.5,67 			"/>
		</g>
		<g>
			<rect x="133" y="67.5" class="st3" width="0.6" height="0.6"/>
			<polygon class="st15" points="134.1,67 132.5,67 132.5,68.5 134.1,68.5 134.1,67 			"/>
		</g>
		<g>
			<rect x="134.6" y="67.5" class="st3" width="0.6" height="0.6"/>
			<polygon class="st15" points="135.7,67 134.1,67 134.1,68.5 135.7,68.5 135.7,67 			"/>
		</g>
		<g>
			<rect x="137.8" y="67.5" class="st3" width="0.6" height="0.6"/>
			<polygon class="st15" points="138.9,67 137.3,67 137.3,68.5 138.9,68.5 138.9,67 			"/>
		</g>
		<g>
			<rect x="121.7" y="69" class="st3" width="0.6" height="0.6"/>
			<polygon class="st15" points="122.8,68.5 121.2,68.5 121.2,70.1 122.8,70.1 122.8,68.5 			"/>
		</g>
		<g>
			<rect x="123.3" y="69" class="st3" width="0.6" height="0.6"/>
			<polygon class="st15" points="124.4,68.5 122.8,68.5 122.8,70.1 124.4,70.1 124.4,68.5 			"/>
		</g>
		<g>
			<rect x="124.9" y="69" class="st3" width="0.6" height="0.6"/>
			<polygon class="st15" points="126,68.5 124.4,68.5 124.4,70.1 126,70.1 126,68.5 			"/>
		</g>
		<g>
			<rect x="126.5" y="69" class="st3" width="0.6" height="0.6"/>
			<polygon class="st15" points="127.6,68.5 126,68.5 126,70.1 127.6,70.1 127.6,68.5 			"/>
		</g>
		<g>
			<rect x="128.1" y="69" class="st3" width="0.6" height="0.6"/>
			<polygon class="st15" points="129.2,68.5 127.6,68.5 127.6,70.1 129.2,70.1 129.2,68.5 			"/>
		</g>
		<g>
			<rect x="129.7" y="69" class="st3" width="0.6" height="0.6"/>
			<polygon class="st15" points="130.8,68.5 129.2,68.5 129.2,70.1 130.8,70.1 130.8,68.5 			"/>
		</g>
		<g>
			<rect x="131.3" y="69" class="st3" width="0.6" height="0.6"/>
			<polygon class="st15" points="132.5,68.5 130.8,68.5 130.8,70.1 132.5,70.1 132.5,68.5 			"/>
		</g>
		<g>
			<rect x="133" y="69" class="st3" width="0.6" height="0.6"/>
			<polygon class="st15" points="134.1,68.5 132.5,68.5 132.5,70.1 134.1,70.1 134.1,68.5 			"/>
		</g>
		<g>
			<rect x="134.6" y="69" class="st3" width="0.6" height="0.6"/>
			<polygon class="st15" points="135.7,68.5 134.1,68.5 134.1,70.1 135.7,70.1 135.7,68.5 			"/>
		</g>
		<g>
			<rect x="136.2" y="67.5" class="st3" width="0.6" height="2.2"/>
			<polygon class="st15" points="137.3,67 135.7,67 135.7,68.5 135.7,70.1 137.3,70.1 137.3,68.5 137.3,67 			"/>
		</g>
		<g>
			<rect x="137.8" y="69" class="st3" width="0.6" height="0.6"/>
			<polygon class="st15" points="138.9,68.5 137.3,68.5 137.3,70.1 138.9,70.1 138.9,68.5 			"/>
		</g>
		<g>
			<rect x="121.7" y="70.6" class="st3" width="3.8" height="0.6"/>
			<polygon class="st15" points="126,70.1 124.4,70.1 122.8,70.1 121.2,70.1 121.2,71.7 122.8,71.7 124.4,71.7 126,71.7 126,70.1 
							"/>
		</g>
		<g>
			<rect x="126.5" y="70.6" class="st3" width="0.6" height="0.6"/>
			<polygon class="st15" points="127.6,70.1 126,70.1 126,71.7 127.6,71.7 127.6,70.1 			"/>
		</g>
		<g>
			<rect x="128.1" y="70.6" class="st3" width="0.6" height="0.6"/>
			<polygon class="st15" points="129.2,70.1 127.6,70.1 127.6,71.7 129.2,71.7 129.2,70.1 			"/>
		</g>
		<g>
			<rect x="129.7" y="70.6" class="st3" width="0.6" height="0.6"/>
			<polygon class="st15" points="130.8,70.1 129.2,70.1 129.2,71.7 130.8,71.7 130.8,70.1 			"/>
		</g>
		<g>
			<rect x="131.3" y="70.6" class="st3" width="0.6" height="0.6"/>
			<polygon class="st15" points="132.5,70.1 130.8,70.1 130.8,71.7 132.5,71.7 132.5,70.1 			"/>
		</g>
		<g>
			<rect x="133" y="70.6" class="st3" width="0.6" height="0.6"/>
			<polygon class="st15" points="134.1,70.1 132.5,70.1 132.5,71.7 134.1,71.7 134.1,70.1 			"/>
		</g>
		<g>
			<rect x="134.6" y="70.6" class="st3" width="0.6" height="0.6"/>
			<polygon class="st15" points="135.7,70.1 134.1,70.1 134.1,71.7 135.7,71.7 135.7,70.1 			"/>
		</g>
		<g>
			<rect x="136.2" y="70.6" class="st3" width="0.6" height="0.6"/>
			<polygon class="st15" points="137.3,70.1 135.7,70.1 135.7,71.7 137.3,71.7 137.3,70.1 			"/>
		</g>
		<g>
			<rect x="137.8" y="70.6" class="st3" width="0.6" height="0.6"/>
			<polygon class="st15" points="138.9,70.1 137.3,70.1 137.3,71.7 138.9,71.7 138.9,70.1 			"/>
		</g>
	</g>
	<g>
		<polygon class="st12" points="75.2,67.6 83.2,59.8 93.5,69.9 85.5,77.8 		"/>
		<polygon class="st21" points="84.4,74.5 90.2,68.8 90.7,69.3 84.9,75 		"/>
		<polygon class="st21" points="84.2,71.9 88.8,67.4 89.4,68 84.8,72.5 		"/>
		<polygon class="st21" points="81.6,71.8 87.4,66.1 88,66.6 82.1,72.3 		"/>
		<polygon class="st21" points="81.4,69.2 86,64.7 86.6,65.2 82,69.7 		"/>
	</g>
	<g>
		<polygon class="st14" points="96.6,72.8 107.4,69.7 111.4,83.6 100.6,86.6 		"/>
		<polygon class="st21" points="101.2,83.2 109.1,81 109.3,81.7 101.4,83.9 		"/>
		<polygon class="st21" points="102.3,80.9 108.6,79.1 108.8,79.9 102.5,81.6 		"/>
		<polygon class="st21" points="100.1,79.5 108,77.3 108.2,78 100.3,80.2 		"/>
		<polygon class="st21" points="101.2,77.2 107.5,75.4 107.7,76.2 101.4,77.9 		"/>
	</g>
	<g>
		<polygon class="st12" points="44.8,88.3 50.1,78.5 63.1,85.3 57.7,95.1 		"/>
		<polygon class="st13" points="55.7,92.3 59.5,85.2 60.2,85.5 56.3,92.6 		"/>
		<polygon class="st13" points="54.7,89.9 57.8,84.3 58.5,84.6 55.4,90.2 		"/>
		<polygon class="st13" points="52.2,90.5 56.1,83.3 56.8,83.7 52.9,90.8 		"/>
		<polygon class="st13" points="51.3,88.1 54.3,82.4 55,82.8 52,88.4 		"/>
	</g>
	<g>
		<polygon class="st14" points="148.9,84.9 145.2,95.3 131.4,90.6 135.1,80.1 		"/>
		<polygon class="st21" points="137.6,82.5 134.9,90.2 134.2,89.9 136.9,82.3 		"/>
		<polygon class="st21" points="138.9,84.8 136.7,90.8 136,90.6 138.2,84.5 		"/>
		<polygon class="st21" points="141.3,83.8 138.6,91.5 137.9,91.2 140.6,83.6 		"/>
		<polygon class="st21" points="142.6,86.1 140.4,92.1 139.7,91.8 141.9,85.8 		"/>
	</g>
	<g>
		<path class="st22" d="M100.1,60L100.1,60c-0.3-0.1-0.4-0.5-0.2-0.7l0.4-0.9c0.1-0.3,0.5-0.4,0.7-0.2l0,0c0.3,0.1,0.4,0.5,0.2,0.7
			l-0.4,0.9C100.7,60,100.3,60.1,100.1,60z"/>
		<path class="st23" d="M88.9,42c0,0-4.3,1.8-7.5,6c-3.2,4.1-1.2,12.9-1.2,12.9l3.3-0.5c0,0-0.3-7.4,0.8-9.2
			c1.5-2.4,6.7-3.5,6.7-3.5L88.9,42z"/>
		<path class="st22" d="M100.5,58.5L100.5,58.5c-0.2-0.2-0.3-0.5-0.1-0.8L101,57c0.2-0.2,0.5-0.3,0.8-0.1l0,0
			c0.2,0.2,0.3,0.5,0.1,0.8l-0.6,0.8C101.1,58.6,100.7,58.7,100.5,58.5z"/>
		<path class="st22" d="M101.6,59.5L101.6,59.5c-0.3,0.2-0.6,0.1-0.8-0.2l-0.5-0.8c-0.2-0.3-0.1-0.6,0.2-0.8l0,0
			c0.3-0.2,0.6-0.1,0.8,0.2l0.5,0.8C102,59,101.9,59.3,101.6,59.5z"/>
		<path class="st22" d="M103.1,59.6l-2.4,1c-0.3,0.1-0.6,0-0.7-0.3l0,0c-0.1-0.3,0-0.6,0.3-0.7l2.4-1c0.3-0.1,0.6,0,0.7,0.3l0,0
			C103.5,59.2,103.4,59.5,103.1,59.6z"/>
		<path class="st22" d="M104.2,59l-0.8,0.5c-0.8,0.5-1.9,0.2-2.4-0.6l0,0c-0.5-0.8-0.2-1.8,0.6-2.3l0.8-0.5c0.8-0.5,1.9-0.2,2.4,0.6
			l0,0C105.3,57.5,105,58.6,104.2,59z"/>
		<path class="st24" d="M104.8,48c0,2.9-3.6,4.9-7.7,4.9c-4.1,0-8.1-2.2-8.1-5.1c0-2.9,4-5.4,8.1-5.4
			C101.2,42.4,104.8,45.1,104.8,48z"/>
		<path class="st23" d="M104.8,42c0,0,4.3,1.8,7.5,6c3.2,4.1-7.4,10.9-7.4,10.9l-1.9-3.4c0,0,3.9-2.8,4.4-4.3
			c0.4-1.5-4.8-3.5-4.8-3.5L104.8,42z"/>
		<path class="st23" d="M97.3,49.6c-0.4,1.3-2.5,2-4.6,1.5c-2.1-0.5-3.5-2-3.1-3.3c0.4-1.3,2.5-2,4.6-1.5
			C96.3,46.8,97.7,48.3,97.3,49.6z"/>
		<path class="st23" d="M96.3,49.6c0.4,1.3,2.5,2,4.6,1.5c2.1-0.5,3.5-2,3.1-3.3c-0.4-1.3-2.5-2-4.6-1.5
			C97.3,46.8,95.9,48.3,96.3,49.6z"/>
		<path class="st23" d="M107.1,45.3c0,2.9-4.6,4.8-10.3,4.8s-10.3-1.9-10.3-4.8c0-2.9,4.6-5.2,10.3-5.2S107.1,42.4,107.1,45.3z"/>
		<path class="st22" d="M96.8,50.9L96.8,50.9c-0.6,0-1.1-0.5-1.1-1.1l0,0c0-0.6,0.5-1.1,1.1-1.1l0,0c0.6,0,1.1,0.5,1.1,1.1l0,0
			C97.9,50.4,97.4,50.9,96.8,50.9z"/>
		<path class="st22" d="M91.6,45.9L91.6,45.9c-0.4,0.1-0.8-0.1-0.9-0.5l-0.4-1.2c-0.1-0.4,0.1-0.8,0.5-0.9l0,0
			c0.4-0.1,0.8,0.1,0.9,0.5l0.4,1.2C92.2,45.4,92,45.8,91.6,45.9z"/>
		<path class="st22" d="M102.8,43.3L102.8,43.3c-0.4-0.1-0.8,0.1-0.9,0.5l-0.4,1.2c-0.1,0.4,0.1,0.8,0.5,0.9l0,0
			c0.4,0.1,0.8-0.1,0.9-0.5l0.4-1.2C103.4,43.9,103.2,43.5,102.8,43.3z"/>
		<path class="st22" d="M96.8,50.2L96.8,50.2c-3,0-5.4-2.4-5.4-5.4v-1.3c0-3,2.4-5.4,5.4-5.4h0c3,0,5.4,2.4,5.4,5.4v1.3
			C102.2,47.7,99.8,50.2,96.8,50.2z"/>
		<ellipse class="st25" cx="96.8" cy="36.7" rx="3.5" ry="3.4"/>
		<path class="st26" d="M97,48.4h-0.3c-3.1,0-5.6-2.1-5.6-5v-0.2c0-2.9,2.5-5.2,5.6-5.2H97c3.1,0,5.6,2.3,5.6,5.2v0.2
			C102.6,46.3,100.1,48.4,97,48.4z"/>
		<g>
			<path class="st22" d="M81.5,65.3L81.5,65.3C81.3,65.4,81,65.2,81,65l-0.8-3.5c-0.1-0.2,0.1-0.4,0.3-0.5l0,0
				c0.2-0.1,0.4,0.1,0.5,0.3l0.8,3.5C81.8,65.1,81.7,65.3,81.5,65.3z"/>
			<path class="st22" d="M82.7,65.7L82.7,65.7c-0.2,0.1-0.4-0.1-0.5-0.3l-0.8-3.5c-0.1-0.2,0.1-0.4,0.3-0.5l0,0
				c0.2-0.1,0.4,0.1,0.5,0.3l0.8,3.5C83,65.4,82.9,65.6,82.7,65.7z"/>
			<path class="st22" d="M83.8,65.6L83.8,65.6c-0.2,0.1-0.4-0.1-0.5-0.3l-0.8-3.5c-0.1-0.2,0.1-0.4,0.3-0.5l0,0
				c0.2-0.1,0.4,0.1,0.5,0.3l0.8,3.5C84.2,65.4,84,65.6,83.8,65.6z"/>
			<path class="st22" d="M84.8,64.9L84.8,64.9c-0.2,0.1-0.4-0.1-0.5-0.3l-0.8-3.5c-0.1-0.2,0.1-0.4,0.3-0.5l0,0
				c0.2-0.1,0.4,0.1,0.5,0.3l0.8,3.5C85.1,64.6,85,64.8,84.8,64.9z"/>
			<path class="st22" d="M85.4,61L85.4,61c-0.1,0.2-0.5,0.3-0.7,0.2l-1.4-0.8c-0.2-0.1-0.3-0.5-0.2-0.7l0,0c0.1-0.2,0.5-0.3,0.7-0.2
				l1.4,0.8C85.5,60.5,85.6,60.8,85.4,61z"/>
			<path class="st22" d="M81.6,58.7L81.6,58.7c-1.1,0.3-1.8,1.4-1.5,2.4l0.1,0.3c0.3,1.1,1.4,1.8,2.5,1.5v0c1.1-0.3,1.8-1.4,1.5-2.4
				l-0.1-0.3C83.8,59.1,82.7,58.4,81.6,58.7z"/>
		</g>
		<g>
			<path class="st0" d="M100.8,59.9l-1.2,0.6c-0.2,0.1-0.5,0-0.6-0.2l0,0c-0.1-0.2,0-0.5,0.2-0.6l1.2-0.6c0.2-0.1,0.5,0,0.6,0.2l0,0
				C101.1,59.5,101,59.8,100.8,59.9z"/>
			<path class="st14" d="M99.8,61.6c-0.5,1.3-2,2-3.3,1.5c-1.3-0.5-2-1.9-1.6-3.2c0.5-1.3,2-2,3.3-1.5
				C99.6,58.9,100.3,60.3,99.8,61.6z"/>
			<path class="st8" d="M99.1,61.4c-0.3,1-1.4,1.5-2.4,1.1c-1-0.3-1.5-1.4-1.1-2.4c0.3-1,1.4-1.5,2.4-1.1
				C99,59.4,99.5,60.4,99.1,61.4z"/>
		</g>
	</g>
	<g>
		<path class="st27" d="M104.8,135.1L104.8,135.1c0.3,0,0.5,0.3,0.5,0.6l-0.1,1c0,0.3-0.3,0.5-0.6,0.5l0,0c-0.3,0-0.5-0.3-0.5-0.6
			l0.1-1C104.3,135.3,104.5,135.1,104.8,135.1z"/>
		<path class="st28" d="M119.3,156.8c0,0,4.3-1.8,7.5-6c3.2-4.1,1.2-12.9,1.2-12.9l-3.3,0.5c0,0,0.3,7.4-0.8,9.2
			c-1.5,2.4-6.7,3.5-6.7,3.5L119.3,156.8z"/>
		<path class="st27" d="M105,136.7L105,136.7c0.3,0.1,0.5,0.4,0.4,0.6l-0.2,1c-0.1,0.3-0.4,0.5-0.7,0.4l0,0
			c-0.3-0.1-0.5-0.4-0.4-0.6l0.2-1C104.5,136.8,104.7,136.6,105,136.7z"/>
		<path class="st27" d="M103.6,136.3L103.6,136.3c0.2-0.2,0.5-0.3,0.8-0.2l0.8,0.5c0.3,0.2,0.3,0.5,0.2,0.8l0,0
			c-0.2,0.2-0.5,0.3-0.8,0.2l-0.8-0.5C103.5,136.8,103.4,136.5,103.6,136.3z"/>
		<path class="st27" d="M102.2,136.7l1.8-1.8c0.2-0.2,0.6-0.2,0.8,0l0,0c0.2,0.2,0.2,0.6,0,0.8l-1.8,1.8c-0.2,0.2-0.6,0.2-0.8,0l0,0
			C102,137.2,102,136.9,102.2,136.7z"/>
		<path class="st27" d="M101.5,137.6l0.5-0.7c0.6-0.7,1.6-0.9,2.4-0.4l0,0c0.8,0.6,0.9,1.6,0.4,2.4l-0.5,0.7
			c-0.6,0.7-1.6,0.9-2.4,0.4l0,0C101.1,139.4,100.9,138.4,101.5,137.6z"/>
		<path class="st29" d="M103.4,151.1c0-2.9,3.8-4.9,8-4.9c4.3,0,8.4,2.2,8.4,5.1c0,2.9-4.1,5.4-8.4,5.4
			C107.2,156.7,103.4,154,103.4,151.1z"/>
		<path class="st28" d="M103.4,156.8c0,0-4.3-1.8-7.5-6c-3.2-4.1,5-12.8,5-12.8l3.1,2.4c0,0-3.3,4.8-3.4,6.6
			c-0.1,1.6,4.9,4.2,4.9,4.2L103.4,156.8z"/>
		<path class="st28" d="M110.8,149.2c0.4-1.3,2.5-2,4.6-1.5c2.1,0.5,3.5,2,3.1,3.3s-2.5,2-4.6,1.5
			C111.8,152,110.4,150.5,110.8,149.2z"/>
		<path class="st28" d="M111.8,149.2c-0.4-1.3-2.5-2-4.6-1.5c-2.1,0.5-3.5,2-3.1,3.3c0.4,1.3,2.5,2,4.6,1.5
			C110.8,152,112.2,150.5,111.8,149.2z"/>
		<path class="st28" d="M101,153.5c0-2.9,4.6-4.8,10.3-4.8c5.7,0,10.3,1.9,10.3,4.8c0,2.9-4.6,5.2-10.3,5.2
			C105.6,158.8,101,156.4,101,153.5z"/>
		<path class="st27" d="M111.3,147.9L111.3,147.9c0.6,0,1.1,0.5,1.1,1.1l0,0c0,0.6-0.5,1.1-1.1,1.1l0,0c-0.6,0-1.1-0.5-1.1-1.1l0,0
			C110.2,148.4,110.7,147.9,111.3,147.9z"/>
		<path class="st27" d="M116.5,152.9L116.5,152.9c0.4-0.1,0.8,0.1,0.9,0.5l0.4,1.2c0.1,0.4-0.1,0.8-0.5,0.9l0,0
			c-0.4,0.1-0.8-0.1-0.9-0.5l-0.4-1.2C115.9,153.4,116.2,153,116.5,152.9z"/>
		<path class="st27" d="M105.3,155.5L105.3,155.5c0.4,0.1,0.8-0.1,0.9-0.5l0.4-1.2c0.1-0.4-0.1-0.8-0.5-0.9h0
			c-0.4-0.1-0.8,0.1-0.9,0.5l-0.4,1.2C104.7,155,104.9,155.4,105.3,155.5z"/>
		<path class="st27" d="M111.3,148.7L111.3,148.7c3,0,5.4,2.4,5.4,5.4v1.3c0,3-2.4,5.4-5.4,5.4h0c-3,0-5.4-2.4-5.4-5.4v-1.3
			C105.9,151.1,108.4,148.7,111.3,148.7z"/>
		<ellipse class="st5" cx="111.3" cy="162.2" rx="3.5" ry="3.4"/>
		<path class="st9" d="M111.2,150.1h0.3c3.1,0,5.6,2.2,5.6,5.2v0.2c0,3-2.5,5.4-5.6,5.4h-0.3c-3.1,0-5.6-2.5-5.6-5.4v-0.2
			C105.6,152.3,108.1,150.1,111.2,150.1z"/>
		<g>
			<path class="st27" d="M126.7,133.5L126.7,133.5c0.2-0.1,0.4,0.1,0.5,0.3l0.8,3.5c0.1,0.2-0.1,0.4-0.3,0.5l0,0
				c-0.2,0.1-0.4-0.1-0.5-0.3l-0.8-3.5C126.3,133.8,126.5,133.6,126.7,133.5z"/>
			<path class="st27" d="M125.5,133.2L125.5,133.2c0.2-0.1,0.4,0.1,0.5,0.3l0.8,3.5c0.1,0.2-0.1,0.4-0.3,0.5l0,0
				c-0.2,0.1-0.4-0.1-0.5-0.3l-0.8-3.5C125.1,133.5,125.2,133.2,125.5,133.2z"/>
			<path class="st27" d="M124.3,133.2L124.3,133.2c0.2-0.1,0.4,0.1,0.5,0.3l0.8,3.5c0.1,0.2-0.1,0.4-0.3,0.5l0,0
				c-0.2,0.1-0.4-0.1-0.5-0.3l-0.8-3.5C124,133.5,124.1,133.3,124.3,133.2z"/>
			<path class="st27" d="M123.4,134L123.4,134c0.2-0.1,0.4,0.1,0.5,0.3l0.8,3.5c0.1,0.2-0.1,0.4-0.3,0.5l0,0
				c-0.2,0.1-0.4-0.1-0.5-0.3l-0.8-3.5C123,134.2,123.2,134,123.4,134z"/>
			<path class="st27" d="M122.7,137.8L122.7,137.8c0.1-0.2,0.5-0.3,0.7-0.2l1.4,0.8c0.2,0.1,0.3,0.5,0.2,0.7l0,0
				c-0.1,0.2-0.5,0.3-0.7,0.2l-1.4-0.8C122.7,138.4,122.6,138.1,122.7,137.8z"/>
			<path class="st27" d="M126.6,140.1L126.6,140.1c1.1-0.3,1.8-1.4,1.5-2.4l-0.1-0.3c-0.3-1.1-1.4-1.8-2.5-1.5h0
				c-1.1,0.3-1.8,1.4-1.5,2.4l0.1,0.3C124.4,139.7,125.5,140.4,126.6,140.1z"/>
		</g>
		<g>
			<path class="st0" d="M104.2,135.5l0.9-1c0.2-0.2,0.5-0.2,0.7,0l0,0c0.2,0.2,0.2,0.5,0,0.6l-0.9,1c-0.2,0.2-0.5,0.2-0.7,0l0,0
				C104.1,136,104.1,135.7,104.2,135.5z"/>
			
				<ellipse transform="matrix(0.998 -6.296802e-02 6.296802e-02 0.998 -8.1852 7.0032)" class="st14" cx="107" cy="133.4" rx="2.3" ry="2.3"/>
			
				<ellipse transform="matrix(0.998 -6.298269e-02 6.298269e-02 0.998 -8.187 7.0049)" class="st8" cx="107" cy="133.4" rx="1.6" ry="1.6"/>
		</g>
	</g>
	<g>
		<path class="st6" d="M140.9,47.2c0,2.9-3.7,4.9-7.8,4.9c-4.1,0-8.2-2.2-8.2-5.1s4-5.4,8.2-5.4C137.3,41.6,140.9,44.3,140.9,47.2z"
			/>
		<path class="st30" d="M123.2,43.7c0,0-1.7,1.5-3.6,7.5c-1.6,5,0,11.1,0,11.1l3.3-0.5c0,0-0.8-6.8,0-8.8c1.6-3.7,4.3-5.3,4.3-5.3
			L123.2,43.7z"/>
		<path class="st3" d="M119.9,49.5c1.1,1.1,2.4,1.9,3.7,2.7c1.6-3.1,3.6-4.5,3.6-4.5l-4-4c0,0-1.7,1-3.4,5.6
			C119.8,49.4,119.8,49.4,119.9,49.5z"/>
		<path class="st30" d="M142.3,43.1c0,0,4.3,3.2,4.3,9.4c0,5.2-6.6,10.4-6.6,10.4l-3-1.5c0,0,6-6.3,5.8-8.4c-0.4-4-3.3-5.6-3.3-5.6
			L142.3,43.1z"/>
		<path class="st3" d="M142,51.3c1.4-0.9,2.8-1.7,4.3-2.5c-1.2-3.8-4-5.7-4-5.7l-2.8,4.3C139.5,47.4,141.2,48.7,142,51.3z"/>
		<g>
			<path class="st30" d="M137.4,66.7L137.4,66.7c0.2,0.1,0.5,0,0.6-0.1l1.8-3.1c0.1-0.2,0-0.4-0.1-0.6l0,0c-0.2-0.1-0.5,0-0.6,0.1
				l-1.8,3.1C137.1,66.3,137.2,66.6,137.4,66.7z"/>
			<path class="st30" d="M136.2,66.7L136.2,66.7c0.2,0.1,0.5,0,0.6-0.1l1.8-3.1c0.1-0.2,0-0.4-0.1-0.6l0,0c-0.2-0.1-0.5,0-0.6,0.1
				l-1.8,3.1C135.9,66.3,136,66.6,136.2,66.7z"/>
			<path class="st30" d="M135.1,66.3L135.1,66.3c0.2,0.1,0.5,0,0.6-0.1l1.8-3.1c0.1-0.2,0-0.4-0.1-0.6l0,0c-0.2-0.1-0.5,0-0.6,0.1
				l-1.8,3.1C134.8,66,134.9,66.2,135.1,66.3z"/>
			<path class="st30" d="M134.4,65.3L134.4,65.3c0.2,0.1,0.5,0,0.6-0.1l1.8-3.1c0.1-0.2,0-0.4-0.1-0.6l0,0c-0.2-0.1-0.5,0-0.6,0.1
				l-1.8,3.1C134.2,65,134.2,65.2,134.4,65.3z"/>
			<path class="st30" d="M134.9,61.5L134.9,61.5c0.1,0.3,0.4,0.4,0.6,0.4l1.6-0.4c0.3-0.1,0.4-0.4,0.4-0.6l0,0
				c-0.1-0.3-0.4-0.4-0.6-0.4l-1.6,0.4C135,60.9,134.9,61.2,134.9,61.5z"/>
			<path class="st30" d="M139.3,60.3L139.3,60.3c1,0.6,1.3,1.8,0.7,2.8l-0.1,0.2c-0.6,1-1.8,1.3-2.8,0.7l0,0c-1-0.6-1.3-1.8-0.7-2.8
				l0.1-0.2C137.1,60.1,138.3,59.8,139.3,60.3z"/>
		</g>
		<ellipse class="st3" cx="133" cy="45.3" rx="10.3" ry="5.2"/>
		<path class="st30" d="M132.9,50.9L132.9,50.9c-0.6,0-1.1-0.5-1.1-1.1l0,0c0-0.6,0.5-1.1,1.1-1.1l0,0c0.6,0,1.1,0.5,1.1,1.1l0,0
			C134,50.4,133.5,50.9,132.9,50.9z"/>
		<path class="st30" d="M133,50.2L133,50.2c-3,0-5.4-2.4-5.4-5.4v-1.3c0-3,2.4-5.4,5.4-5.4l0,0c3,0,5.4,2.4,5.4,5.4v1.3
			C138.4,47.7,136,50.2,133,50.2z"/>
		<path class="st30" d="M127.8,45.9L127.8,45.9c-0.4,0.1-0.8-0.1-0.9-0.5l-0.4-1.2c-0.1-0.4,0.1-0.8,0.5-0.9l0,0
			c0.4-0.1,0.8,0.1,0.9,0.5l0.4,1.2C128.4,45.4,128.1,45.8,127.8,45.9z"/>
		<path class="st30" d="M139,43.3L139,43.3c-0.4-0.1-0.8,0.1-0.9,0.5l-0.4,1.2c-0.1,0.4,0.1,0.8,0.5,0.9l0,0
			c0.4,0.1,0.8-0.1,0.9-0.5l0.4-1.2C139.6,43.9,139.4,43.5,139,43.3z"/>
		<path class="st26" d="M133.1,49h-0.2c-2.9,0-5.3-1.6-5.3-4.6V43c0-3,2.4-5.4,5.3-5.4h0.2c2.9,0,5.3,2.4,5.3,5.4v1.4
			C138.4,47.4,136,49,133.1,49z"/>
		<g>
			<path class="st30" d="M120.8,66.7L120.8,66.7c-0.2,0.1-0.4-0.1-0.5-0.3l-0.8-3.5c-0.1-0.2,0.1-0.4,0.3-0.5l0,0
				c0.2-0.1,0.4,0.1,0.5,0.3l0.8,3.5C121.2,66.4,121,66.6,120.8,66.7z"/>
			<path class="st30" d="M122,67L122,67c-0.2,0.1-0.4-0.1-0.5-0.3l-0.8-3.5c-0.1-0.2,0.1-0.4,0.3-0.5l0,0c0.2-0.1,0.4,0.1,0.5,0.3
				l0.8,3.5C122.4,66.7,122.3,67,122,67z"/>
			<path class="st30" d="M123.2,67L123.2,67c-0.2,0.1-0.4-0.1-0.5-0.3l-0.8-3.5c-0.1-0.2,0.1-0.4,0.3-0.5l0,0
				c0.2-0.1,0.4,0.1,0.5,0.3l0.8,3.5C123.5,66.7,123.4,66.9,123.2,67z"/>
			<path class="st30" d="M124.1,66.2L124.1,66.2c-0.2,0.1-0.4-0.1-0.5-0.3l-0.8-3.5c-0.1-0.2,0.1-0.4,0.3-0.5l0,0
				c0.2-0.1,0.4,0.1,0.5,0.3l0.8,3.5C124.5,66,124.3,66.2,124.1,66.2z"/>
			<path class="st30" d="M124.8,62.4L124.8,62.4c-0.1,0.2-0.5,0.3-0.7,0.2l-1.4-0.8c-0.2-0.1-0.3-0.5-0.2-0.7l0,0
				c0.1-0.2,0.5-0.3,0.7-0.2l1.4,0.8C124.8,61.8,124.9,62.1,124.8,62.4z"/>
			<path class="st30" d="M120.9,60.1L120.9,60.1c-1.1,0.3-1.8,1.4-1.5,2.4l0.1,0.3c0.3,1.1,1.4,1.8,2.5,1.5l0,0
				c1.1-0.3,1.8-1.4,1.5-2.4l-0.1-0.3C123.1,60.5,122,59.8,120.9,60.1z"/>
		</g>
	</g>
	<g>
		<path class="st14" d="M137.7,124.5v-12.9c0-2.1,1.7-3.9,3.9-3.9h5c2.1,0,3.9,1.7,3.9,3.9v12.9c0,2.1-1.7,3.9-3.9,3.9h-5
			C139.5,128.4,137.7,126.6,137.7,124.5z"/>
		<path class="st14" d="M133.2,125.9v-15.6c0-1.4,1.1-2.5,2.5-2.5h0.3c1.4,0,2.5,1.1,2.5,2.5v15.6c0,1.4-1.1,2.5-2.5,2.5h-0.3
			C134.3,128.4,133.2,127.2,133.2,125.9z"/>
		<path class="st31" d="M133.8,125.9v-15.6c0-1.4,1.1-2.5,2.5-2.5h0.3c1.4,0,2.5,1.1,2.5,2.5v15.6c0,1.4-1.1,2.5-2.5,2.5h-0.3
			C134.9,128.4,133.8,127.2,133.8,125.9z"/>
		<path class="st16" d="M134.4,125.6v-15c0-1.1,0.9-2,2-2l0,0c1.1,0,2,0.9,2,2v15c0,1.1-0.9,2-2,2h0
			C135.3,127.6,134.4,126.7,134.4,125.6z"/>
		<polygon class="st7" points="138.5,122.2 138.5,116.9 134.4,112.9 134.4,118.2 		"/>
		<path class="st7" d="M134.4,123.8v3.1c0,0.4,0.3,0.7,0.7,0.7h2.6c0.1,0,0.3,0,0.4-0.1L134.4,123.8z"/>
		<path class="st7" d="M138.5,111.3v-2.1c0-0.4-0.3-0.7-0.7-0.7h-2.1L138.5,111.3z"/>
		
			<rect x="145.9" y="117.2" transform="matrix(-1.836970e-16 1 -1 -1.836970e-16 265.9721 -29.8629)" class="st31" width="4" height="1.7"/>
		
			<rect x="148.2" y="116.7" transform="matrix(-1.836970e-16 1 -1 -1.836970e-16 266.2112 -32.0971)" class="st32" width="2" height="0.8"/>
		
			<rect x="148.2" y="118.7" transform="matrix(-1.836970e-16 1 -1 -1.836970e-16 268.2063 -30.102)" class="st32" width="2" height="0.8"/>
		<g>
			<rect x="144.9" y="109.8" class="st21" width="0.6" height="0.6"/>
			<polygon class="st33" points="146,109.3 144.4,109.3 144.4,110.9 146,110.9 146,109.3 			"/>
		</g>
		<g>
			<rect x="144.9" y="111.4" class="st21" width="0.6" height="0.6"/>
			<polygon class="st33" points="146,110.9 144.4,110.9 144.4,112.5 146,112.5 146,110.9 			"/>
		</g>
		<g>
			<rect x="144.9" y="113" class="st21" width="0.6" height="0.6"/>
			<polygon class="st33" points="146,112.5 144.4,112.5 144.4,114.1 146,114.1 146,112.5 			"/>
		</g>
		<g>
			<rect x="144.9" y="114.6" class="st21" width="0.6" height="6.9"/>
			<polygon class="st33" points="146,114.1 144.4,114.1 144.4,115.7 144.4,117.3 144.4,118.8 144.4,120.4 144.4,122 146,122 
				146,120.4 146,118.8 146,117.3 146,115.7 146,114.1 			"/>
		</g>
		<g>
			<rect x="144.9" y="122.5" class="st21" width="0.6" height="0.6"/>
			<polygon class="st33" points="146,122 144.4,122 144.4,123.6 146,123.6 146,122 			"/>
		</g>
		<g>
			<rect x="144.9" y="124.1" class="st21" width="0.6" height="0.6"/>
			<polygon class="st33" points="146,123.6 144.4,123.6 144.4,125.2 146,125.2 146,123.6 			"/>
		</g>
		<g>
			<rect x="144.9" y="125.7" class="st21" width="0.6" height="0.6"/>
			<polygon class="st33" points="146,125.2 144.4,125.2 144.4,126.8 146,126.8 146,125.2 			"/>
		</g>
		<g>
			<rect x="143.3" y="109.8" class="st21" width="0.6" height="0.6"/>
			<polygon class="st33" points="144.4,109.3 142.8,109.3 142.8,110.9 144.4,110.9 144.4,109.3 			"/>
		</g>
		<g>
			<rect x="143.3" y="111.4" class="st21" width="0.6" height="0.6"/>
			<polygon class="st33" points="144.4,110.9 142.8,110.9 142.8,112.5 144.4,112.5 144.4,110.9 			"/>
		</g>
		<g>
			<rect x="143.3" y="113" class="st21" width="0.6" height="0.6"/>
			<polygon class="st33" points="144.4,112.5 142.8,112.5 142.8,114.1 144.4,114.1 144.4,112.5 			"/>
		</g>
		<g>
			<rect x="143.3" y="114.6" class="st21" width="0.6" height="0.6"/>
			<polygon class="st33" points="144.4,114.1 142.8,114.1 142.8,115.7 144.4,115.7 144.4,114.1 			"/>
		</g>
		<g>
			<rect x="143.3" y="116.2" class="st21" width="0.6" height="0.6"/>
			<polygon class="st33" points="144.4,115.7 142.8,115.7 142.8,117.3 144.4,117.3 144.4,115.7 			"/>
		</g>
		<g>
			<rect x="143.3" y="117.8" class="st21" width="0.6" height="0.6"/>
			<polygon class="st33" points="144.4,117.3 142.8,117.3 142.8,118.8 144.4,118.8 144.4,117.3 			"/>
		</g>
		<g>
			<rect x="143.3" y="119.3" class="st21" width="0.6" height="0.6"/>
			<polygon class="st33" points="144.4,118.8 142.8,118.8 142.8,120.4 144.4,120.4 144.4,118.8 			"/>
		</g>
		<g>
			<rect x="143.3" y="120.9" class="st21" width="0.6" height="0.6"/>
			<polygon class="st33" points="144.4,120.4 142.8,120.4 142.8,122 144.4,122 144.4,120.4 			"/>
		</g>
		<g>
			<rect x="143.3" y="122.5" class="st21" width="0.6" height="0.6"/>
			<polygon class="st33" points="144.4,122 142.8,122 142.8,123.6 144.4,123.6 144.4,122 			"/>
		</g>
		<g>
			<rect x="143.3" y="125.7" class="st21" width="0.6" height="0.6"/>
			<polygon class="st33" points="144.4,125.2 142.8,125.2 142.8,126.8 144.4,126.8 144.4,125.2 			"/>
		</g>
		<g>
			<rect x="141.7" y="109.8" class="st21" width="0.6" height="0.6"/>
			<polygon class="st33" points="142.8,109.3 141.2,109.3 141.2,110.9 142.8,110.9 142.8,109.3 			"/>
		</g>
		<g>
			<rect x="141.7" y="111.4" class="st21" width="0.6" height="0.6"/>
			<polygon class="st33" points="142.8,110.9 141.2,110.9 141.2,112.5 142.8,112.5 142.8,110.9 			"/>
		</g>
		<g>
			<rect x="141.7" y="113" class="st21" width="0.6" height="0.6"/>
			<polygon class="st33" points="142.8,112.5 141.2,112.5 141.2,114.1 142.8,114.1 142.8,112.5 			"/>
		</g>
		<g>
			<rect x="141.7" y="114.6" class="st21" width="0.6" height="0.6"/>
			<polygon class="st33" points="142.8,114.1 141.2,114.1 141.2,115.7 142.8,115.7 142.8,114.1 			"/>
		</g>
		<g>
			<rect x="141.7" y="116.2" class="st21" width="0.6" height="0.6"/>
			<polygon class="st33" points="142.8,115.7 141.2,115.7 141.2,117.3 142.8,117.3 142.8,115.7 			"/>
		</g>
		<g>
			<rect x="141.7" y="117.8" class="st21" width="0.6" height="0.6"/>
			<polygon class="st33" points="142.8,117.3 141.2,117.3 141.2,118.8 142.8,118.8 142.8,117.3 			"/>
		</g>
		<g>
			<rect x="141.7" y="119.3" class="st21" width="0.6" height="0.6"/>
			<polygon class="st33" points="142.8,118.8 141.2,118.8 141.2,120.4 142.8,120.4 142.8,118.8 			"/>
		</g>
		<g>
			<rect x="141.7" y="120.9" class="st21" width="0.6" height="0.6"/>
			<polygon class="st33" points="142.8,120.4 141.2,120.4 141.2,122 142.8,122 142.8,120.4 			"/>
		</g>
		<g>
			<rect x="141.7" y="122.5" class="st21" width="0.6" height="0.6"/>
			<polygon class="st33" points="142.8,122 141.2,122 141.2,123.6 142.8,123.6 142.8,122 			"/>
		</g>
		<g>
			<rect x="141.7" y="124.1" class="st21" width="2.2" height="0.6"/>
			<polygon class="st33" points="144.4,123.6 142.8,123.6 141.2,123.6 141.2,125.2 142.8,125.2 144.4,125.2 144.4,123.6 			"/>
		</g>
		<g>
			<rect x="141.7" y="125.7" class="st21" width="0.6" height="0.6"/>
			<polygon class="st33" points="142.8,125.2 141.2,125.2 141.2,126.8 142.8,126.8 142.8,125.2 			"/>
		</g>
		<g>
			<rect x="140.1" y="109.8" class="st21" width="0.6" height="3.8"/>
			<polygon class="st33" points="141.2,109.3 139.6,109.3 139.6,110.9 139.6,112.5 139.6,114.1 141.2,114.1 141.2,112.5 
				141.2,110.9 141.2,109.3 			"/>
		</g>
		<g>
			<rect x="140.1" y="114.6" class="st21" width="0.6" height="0.6"/>
			<polygon class="st33" points="141.2,114.1 139.6,114.1 139.6,115.7 141.2,115.7 141.2,114.1 			"/>
		</g>
		<g>
			<rect x="140.1" y="116.2" class="st21" width="0.6" height="0.6"/>
			<polygon class="st33" points="141.2,115.7 139.6,115.7 139.6,117.3 141.2,117.3 141.2,115.7 			"/>
		</g>
		<g>
			<rect x="140.1" y="117.8" class="st21" width="0.6" height="0.6"/>
			<polygon class="st33" points="141.2,117.3 139.6,117.3 139.6,118.8 141.2,118.8 141.2,117.3 			"/>
		</g>
		<g>
			<rect x="140.1" y="119.3" class="st21" width="0.6" height="0.6"/>
			<polygon class="st33" points="141.2,118.8 139.6,118.8 139.6,120.4 141.2,120.4 141.2,118.8 			"/>
		</g>
		<g>
			<rect x="140.1" y="120.9" class="st21" width="0.6" height="0.6"/>
			<polygon class="st33" points="141.2,120.4 139.6,120.4 139.6,122 141.2,122 141.2,120.4 			"/>
		</g>
		<g>
			<rect x="140.1" y="122.5" class="st21" width="0.6" height="0.6"/>
			<polygon class="st33" points="141.2,122 139.6,122 139.6,123.6 141.2,123.6 141.2,122 			"/>
		</g>
		<g>
			<rect x="140.1" y="124.1" class="st21" width="0.6" height="0.6"/>
			<polygon class="st33" points="141.2,123.6 139.6,123.6 139.6,125.2 141.2,125.2 141.2,123.6 			"/>
		</g>
		<g>
			<rect x="140.1" y="125.7" class="st21" width="0.6" height="0.6"/>
			<polygon class="st33" points="141.2,125.2 139.6,125.2 139.6,126.8 141.2,126.8 141.2,125.2 			"/>
		</g>
	</g>
	<g>
		<path class="st14" d="M75.2,85.3l-0.7,13.9c-0.1,1.8-1.7,3.3-3.6,3.2l-5.9-0.3c-1.9-0.1-3.3-1.7-3.2-3.5l0.7-13.9
			c0.1-1.8,1.7-3.3,3.6-3.2l5.9,0.3C73.9,81.9,75.3,83.5,75.2,85.3z"/>
		<path class="st14" d="M79.8,84.3L79,100.6c-0.1,1.2-1.1,2.1-2.3,2l-0.9,0c-1.2-0.1-2.1-1.1-2.1-2.2l0.8-16.3
			c0.1-1.2,1.1-2.1,2.3-2l0.9,0C78.9,82.1,79.9,83.2,79.8,84.3z"/>
		<path class="st31" d="M79.2,84.3l-0.8,16.3c-0.1,1.2-1.1,2.1-2.3,2l-0.9,0c-1.2-0.1-2.1-1.1-2.1-2.2l0.8-16.3
			c0.1-1.2,1.1-2.1,2.3-2l0.9,0C78.3,82.1,79.3,83.1,79.2,84.3z"/>
		<path class="st16" d="M78.6,84.7l-0.8,15.4c0,1-0.9,1.8-1.9,1.7l-0.4,0c-1,0-1.8-0.9-1.8-1.9l0.8-15.4c0-1,0.9-1.8,1.9-1.7l0.4,0
			C77.8,82.9,78.6,83.7,78.6,84.7z"/>
		<polygon class="st7" points="74.4,88.1 74.1,93.4 77.9,97.6 78.2,92.3 		"/>
		<path class="st7" d="M78.5,86.7l0.2-3.1c0-0.4-0.3-0.7-0.7-0.7l-2.6-0.1c-0.1,0-0.3,0-0.4,0.1L78.5,86.7z"/>
		<path class="st7" d="M73.8,99l-0.1,2.1c0,0.4,0.3,0.7,0.7,0.7l2.1,0.1L73.8,99z"/>
		<polygon class="st31" points="65.7,89.8 65.5,93.8 63.7,93.7 63.9,89.8 		"/>
		<polygon class="st32" points="63.1,91.7 63,93.7 63.7,93.7 63.8,91.7 		"/>
		<polygon class="st32" points="63.2,89.7 63.1,91.7 63.8,91.7 63.9,89.8 		"/>
		<g>
			<polygon class="st21" points="66.7,100.1 66.7,99.5 67.3,99.6 67.3,100.1 			"/>
			<polygon class="st33" points="66.2,99 66.2,100.6 67.8,100.7 67.8,99.1 66.2,99 			"/>
		</g>
		<g>
			<polygon class="st21" points="66.8,98.5 66.8,97.9 67.4,98 67.4,98.6 			"/>
			<polygon class="st33" points="66.3,97.4 66.2,99 67.8,99.1 67.9,97.5 66.3,97.4 			"/>
		</g>
		<g>
			<polygon class="st21" points="66.8,96.9 66.9,96.4 67.5,96.4 67.5,97 			"/>
			<polygon class="st33" points="66.4,95.8 66.3,97.4 67.9,97.5 68,95.9 66.4,95.8 			"/>
		</g>
		<g>
			<polygon class="st21" points="66.9,95.4 67.3,88.4 67.9,88.5 67.5,95.4 			"/>
			<polygon class="st33" points="66.8,87.9 66.7,89.5 66.6,91.1 66.5,92.7 66.5,94.3 66.4,95.8 68,95.9 68.1,94.3 68.2,92.7 
				68.2,91.2 68.3,89.6 68.4,88 66.8,87.9 			"/>
		</g>
		<g>
			<polygon class="st21" points="67.3,87.4 67.3,86.9 67.9,86.9 67.9,87.5 			"/>
			<polygon class="st33" points="66.9,86.3 66.8,87.9 68.4,88 68.5,86.4 66.9,86.3 			"/>
		</g>
		<g>
			<polygon class="st21" points="67.4,85.9 67.4,85.3 68,85.3 68,85.9 			"/>
			<polygon class="st33" points="66.9,84.8 66.9,86.3 68.5,86.4 68.5,84.8 66.9,84.8 			"/>
		</g>
		<g>
			<polygon class="st21" points="67.5,84.3 67.5,83.7 68.1,83.7 68.1,84.3 			"/>
			<polygon class="st33" points="67,83.2 66.9,84.8 68.5,84.8 68.6,83.2 67,83.2 			"/>
		</g>
		<g>
			<polygon class="st21" points="68.3,100.2 68.3,99.6 68.9,99.6 68.9,100.2 			"/>
			<polygon class="st33" points="67.8,99.1 67.8,100.7 69.4,100.7 69.5,99.2 67.8,99.1 			"/>
		</g>
		<g>
			<polygon class="st21" points="68.4,98.6 68.4,98 69,98 69,98.6 			"/>
			<polygon class="st33" points="67.9,97.5 67.8,99.1 69.5,99.2 69.5,97.6 67.9,97.5 			"/>
		</g>
		<g>
			<polygon class="st21" points="68.5,97 68.5,96.4 69.1,96.5 69.1,97 			"/>
			<polygon class="st33" points="68,95.9 67.9,97.5 69.5,97.6 69.6,96 68,95.9 			"/>
		</g>
		<g>
			<polygon class="st21" points="68.5,95.4 68.6,94.9 69.2,94.9 69.1,95.5 			"/>
			<polygon class="st33" points="68.1,94.3 68,95.9 69.6,96 69.7,94.4 68.1,94.3 			"/>
		</g>
		<g>
			<polygon class="st21" points="68.6,93.9 68.6,93.3 69.2,93.3 69.2,93.9 			"/>
			<polygon class="st33" points="68.2,92.7 68.1,94.3 69.7,94.4 69.8,92.8 68.2,92.7 			"/>
		</g>
		<g>
			<polygon class="st21" points="68.7,92.3 68.7,91.7 69.3,91.7 69.3,92.3 			"/>
			<polygon class="st33" points="68.2,91.2 68.2,92.7 69.8,92.8 69.8,91.2 68.2,91.2 			"/>
		</g>
		<g>
			<polygon class="st21" points="68.8,90.7 68.8,90.1 69.4,90.1 69.4,90.7 			"/>
			<polygon class="st33" points="68.3,89.6 68.2,91.2 69.8,91.2 69.9,89.7 68.3,89.6 			"/>
		</g>
		<g>
			<polygon class="st21" points="68.8,89.1 68.9,88.5 69.5,88.5 69.4,89.1 			"/>
			<polygon class="st33" points="68.4,88 68.3,89.6 69.9,89.7 70,88.1 68.4,88 			"/>
		</g>
		<g>
			<polygon class="st21" points="68.9,87.5 68.9,86.9 69.6,87 69.5,87.5 			"/>
			<polygon class="st33" points="68.5,86.4 68.4,88 70,88.1 70.1,86.5 68.5,86.4 			"/>
		</g>
		<g>
			<polygon class="st21" points="69.1,84.4 69.1,83.8 69.7,83.8 69.7,84.4 			"/>
			<polygon class="st33" points="68.6,83.2 68.5,84.8 70.2,84.9 70.2,83.3 68.6,83.2 			"/>
		</g>
		<g>
			<polygon class="st21" points="69.9,100.3 69.9,99.7 70.5,99.7 70.5,100.3 			"/>
			<polygon class="st33" points="69.5,99.2 69.4,100.7 71,100.8 71.1,99.2 69.5,99.2 			"/>
		</g>
		<g>
			<polygon class="st21" points="70,98.7 70,98.1 70.6,98.1 70.6,98.7 			"/>
			<polygon class="st33" points="69.5,97.6 69.5,99.2 71.1,99.2 71.1,97.6 69.5,97.6 			"/>
		</g>
		<g>
			<polygon class="st21" points="70.1,97.1 70.1,96.5 70.7,96.5 70.7,97.1 			"/>
			<polygon class="st33" points="69.6,96 69.5,97.6 71.1,97.6 71.2,96.1 69.6,96 			"/>
		</g>
		<g>
			<polygon class="st21" points="70.1,95.5 70.2,94.9 70.8,95 70.8,95.5 			"/>
			<polygon class="st33" points="69.7,94.4 69.6,96 71.2,96.1 71.3,94.5 69.7,94.4 			"/>
		</g>
		<g>
			<polygon class="st21" points="70.2,93.9 70.2,93.3 70.9,93.4 70.8,94 			"/>
			<polygon class="st33" points="69.8,92.8 69.7,94.4 71.3,94.5 71.4,92.9 69.8,92.8 			"/>
		</g>
		<g>
			<polygon class="st21" points="70.3,92.3 70.3,91.8 70.9,91.8 70.9,92.4 			"/>
			<polygon class="st33" points="69.8,91.2 69.8,92.8 71.4,92.9 71.5,91.3 69.8,91.2 			"/>
		</g>
		<g>
			<polygon class="st21" points="70.4,90.8 70.4,90.2 71,90.2 71,90.8 			"/>
			<polygon class="st33" points="69.9,89.7 69.8,91.2 71.5,91.3 71.5,89.7 69.9,89.7 			"/>
		</g>
		<g>
			<polygon class="st21" points="70.4,89.2 70.5,88.6 71.1,88.6 71.1,89.2 			"/>
			<polygon class="st33" points="70,88.1 69.9,89.7 71.5,89.7 71.6,88.1 70,88.1 			"/>
		</g>
		<g>
			<polygon class="st21" points="70.5,87.6 70.6,87 71.2,87 71.1,87.6 			"/>
			<polygon class="st33" points="70.1,86.5 70,88.1 71.6,88.1 71.7,86.6 70.1,86.5 			"/>
		</g>
		<g>
			<polygon class="st21" points="69,85.9 69,85.4 71.2,85.5 71.2,86 			"/>
			<polygon class="st33" points="68.5,84.8 68.5,86.4 70.1,86.5 71.7,86.6 71.8,85 70.2,84.9 68.5,84.8 			"/>
		</g>
		<g>
			<polygon class="st21" points="70.7,84.4 70.7,83.8 71.3,83.9 71.3,84.5 			"/>
			<polygon class="st33" points="70.2,83.3 70.2,84.9 71.8,85 71.8,83.4 70.2,83.3 			"/>
		</g>
		<g>
			<polygon class="st21" points="71.5,100.3 71.7,96.6 72.3,96.6 72.1,100.4 			"/>
			<polygon class="st33" points="71.2,96.1 71.1,97.6 71.1,99.2 71,100.8 72.6,100.9 72.7,99.3 72.8,97.7 72.8,96.1 71.2,96.1 			
				"/>
		</g>
		<g>
			<polygon class="st21" points="71.8,95.6 71.8,95 72.4,95 72.4,95.6 			"/>
			<polygon class="st33" points="71.3,94.5 71.2,96.1 72.8,96.1 72.9,94.6 71.3,94.5 			"/>
		</g>
		<g>
			<polygon class="st21" points="71.8,94 71.9,93.4 72.5,93.4 72.4,94 			"/>
			<polygon class="st33" points="71.4,92.9 71.3,94.5 72.9,94.6 73,93 71.4,92.9 			"/>
		</g>
		<g>
			<polygon class="st21" points="71.9,92.4 71.9,91.8 72.5,91.9 72.5,92.4 			"/>
			<polygon class="st33" points="71.5,91.3 71.4,92.9 73,93 73.1,91.4 71.5,91.3 			"/>
		</g>
		<g>
			<polygon class="st21" points="72,90.8 72,90.3 72.6,90.3 72.6,90.9 			"/>
			<polygon class="st33" points="71.5,89.7 71.5,91.3 73.1,91.4 73.1,89.8 71.5,89.7 			"/>
		</g>
		<g>
			<polygon class="st21" points="72.1,89.3 72.1,88.7 72.7,88.7 72.7,89.3 			"/>
			<polygon class="st33" points="71.6,88.1 71.5,89.7 73.1,89.8 73.2,88.2 71.6,88.1 			"/>
		</g>
		<g>
			<polygon class="st21" points="72.1,87.7 72.2,87.1 72.8,87.1 72.7,87.7 			"/>
			<polygon class="st33" points="71.7,86.6 71.6,88.1 73.2,88.2 73.3,86.6 71.7,86.6 			"/>
		</g>
		<g>
			<polygon class="st21" points="72.2,86.1 72.2,85.5 72.9,85.5 72.8,86.1 			"/>
			<polygon class="st33" points="71.8,85 71.7,86.6 73.3,86.6 73.4,85.1 71.8,85 			"/>
		</g>
		<g>
			<polygon class="st21" points="72.3,84.5 72.3,83.9 72.9,83.9 72.9,84.5 			"/>
			<polygon class="st33" points="71.8,83.4 71.8,85 73.4,85.1 73.5,83.5 71.8,83.4 			"/>
		</g>
	</g>
	<g>
		<path class="st5" d="M164.5,128.7c-3,0-5-3.6-5-7.7s2.3-8,5.2-8c3,0,5.5,3.9,5.5,8S167.4,128.7,164.5,128.7z"/>
		<path class="st22" d="M168.1,111.3c0,0-1.2-2-7.3-3.9c-5.1-1.5-11.6,0.4-11.6,0.4l0.6,3.2c0,0,7-0.4,8.9,0.4
			c3.8,1.5,5.4,3.9,5.4,3.9L168.1,111.3z"/>
		<path class="st22" d="M168.8,130.1c0,0-3.2,4.5-9.6,4.5c-5.3,0-10.6-6.9-10.6-6.9l1.5-2.9c0,0,6.1,5.6,8.2,5.4
			c4.1-0.4,6.1-2.9,6.1-2.9L168.8,130.1z"/>
		<g>
			<path class="st22" d="M144.7,125.3L144.7,125.3c-0.1,0.2,0,0.4,0.1,0.6l3.1,1.8c0.2,0.1,0.5,0,0.6-0.1l0,0c0.1-0.2,0-0.4-0.1-0.6
				l-3.1-1.8C145.1,125,144.8,125.1,144.7,125.3z"/>
			<path class="st22" d="M144.7,124.1L144.7,124.1c-0.1,0.2,0,0.4,0.1,0.6l3.1,1.8c0.2,0.1,0.5,0,0.6-0.1l0,0c0.1-0.2,0-0.4-0.1-0.6
				l-3.1-1.8C145.1,123.8,144.8,123.9,144.7,124.1z"/>
			<path class="st22" d="M145.1,123L145.1,123c-0.1,0.2,0,0.4,0.1,0.6l3.1,1.8c0.2,0.1,0.5,0,0.6-0.1l0,0c0.1-0.2,0-0.4-0.1-0.6
				l-3.1-1.8C145.4,122.8,145.2,122.8,145.1,123z"/>
			<path class="st22" d="M146.1,122.4L146.1,122.4c-0.1,0.2,0,0.4,0.1,0.6l3.1,1.8c0.2,0.1,0.5,0,0.6-0.1l0,0c0.1-0.2,0-0.4-0.1-0.6
				l-3.1-1.8C146.5,122.1,146.2,122.2,146.1,122.4z"/>
			<path class="st22" d="M150,122.9L150,122.9c-0.3,0.1-0.4,0.4-0.4,0.6l0.4,1.5c0.1,0.3,0.4,0.4,0.6,0.4l0,0
				c0.3-0.1,0.4-0.4,0.4-0.6l-0.4-1.5C150.6,123,150.3,122.8,150,122.9z"/>
			<path class="st22" d="M151.2,127.2L151.2,127.2c-0.6,1-1.8,1.3-2.8,0.7l-0.2-0.1c-1-0.6-1.3-1.8-0.7-2.8v0c0.6-1,1.8-1.3,2.8-0.7
				l0.2,0.1C151.4,124.9,151.7,126.2,151.2,127.2z"/>
		</g>
		<ellipse class="st9" cx="166.5" cy="120.9" rx="5.3" ry="10.1"/>
		<path class="st22" d="M160.7,120.9L160.7,120.9c0-0.6,0.5-1.1,1.1-1.1l0,0c0.6,0,1.1,0.5,1.1,1.1l0,0c0,0.6-0.5,1.1-1.1,1.1l0,0
			C161.3,122,160.7,121.5,160.7,120.9z"/>
		<path class="st22" d="M161.5,120.9L161.5,120.9c0-2.9,2.4-5.3,5.3-5.3h1.7c2.9,0,5.3,2.4,5.3,5.3v0c0,2.9-2.4,5.3-5.3,5.3h-1.7
			C163.9,126.3,161.5,123.9,161.5,120.9z"/>
		<path class="st22" d="M165.8,115.8L165.8,115.8c-0.1-0.4,0.1-0.8,0.5-0.9l1.2-0.4c0.4-0.1,0.8,0.1,0.9,0.5l0,0
			c0.1,0.4-0.1,0.8-0.5,0.9l-1.2,0.4C166.3,116.4,165.9,116.2,165.8,115.8z"/>
		<path class="st22" d="M168.5,126.8L168.5,126.8c0.1-0.4-0.1-0.8-0.5-0.9l-1.2-0.4c-0.4-0.1-0.8,0.1-0.9,0.5l0,0
			c-0.1,0.4,0.1,0.8,0.5,0.9l1.2,0.4C167.9,127.4,168.3,127.2,168.5,126.8z"/>
		<path class="st3" d="M162.7,121.1v-0.2c0-2.9,1.5-5.2,4.5-5.2h1.4c2.9,0,5.3,2.3,5.3,5.2v0.2c0,2.9-2.4,5.2-5.3,5.2h-1.4
			C164.3,126.3,162.7,123.9,162.7,121.1z"/>
		<g>
			<path class="st22" d="M144.7,109L144.7,109c-0.1-0.2,0.1-0.4,0.3-0.5l3.5-0.8c0.2-0.1,0.4,0.1,0.5,0.3l0,0
				c0.1,0.2-0.1,0.4-0.3,0.5l-3.5,0.8C145,109.4,144.8,109.2,144.7,109z"/>
			<path class="st22" d="M144.4,110.2L144.4,110.2c-0.1-0.2,0.1-0.4,0.3-0.5l3.5-0.8c0.2-0.1,0.4,0.1,0.5,0.3l0,0
				c0.1,0.2-0.1,0.4-0.3,0.5l-3.5,0.8C144.7,110.5,144.4,110.4,144.4,110.2z"/>
			<path class="st22" d="M144.4,111.3L144.4,111.3c-0.1-0.2,0.1-0.4,0.3-0.5l3.5-0.8c0.2-0.1,0.4,0.1,0.5,0.3l0,0
				c0.1,0.2-0.1,0.4-0.3,0.5l-3.5,0.8C144.7,111.6,144.5,111.5,144.4,111.3z"/>
			<path class="st22" d="M145.2,112.2L145.2,112.2c-0.1-0.2,0.1-0.4,0.3-0.5l3.5-0.8c0.2-0.1,0.4,0.1,0.5,0.3l0,0
				c0.1,0.2-0.1,0.4-0.3,0.5l-3.5,0.8C145.5,112.6,145.2,112.4,145.2,112.2z"/>
			<path class="st22" d="M149.1,112.9L149.1,112.9c-0.2-0.1-0.3-0.5-0.2-0.7l0.8-1.3c0.1-0.2,0.5-0.3,0.7-0.2l0,0
				c0.2,0.1,0.3,0.5,0.2,0.7l-0.8,1.3C149.7,112.9,149.3,113,149.1,112.9z"/>
			<path class="st22" d="M151.5,109.1L151.5,109.1c-0.3-1.1-1.4-1.8-2.5-1.5l-0.3,0.1c-1.1,0.3-1.8,1.4-1.5,2.4v0
				c0.3,1.1,1.4,1.8,2.5,1.5l0.3-0.1C151,111.3,151.7,110.2,151.5,109.1z"/>
		</g>
	</g>
	<g>
		<path class="st34" d="M34.9,110c3,0,5,3.6,5,7.7c0,4.1-2.3,8-5.2,8c-3,0-5.5-3.9-5.5-8C29.2,113.6,32,110,34.9,110z"/>
		<path class="st5" d="M31.3,127.5c0,0,1.2,2,7.3,3.9c5.1,1.5,11.6-0.4,11.6-0.4l-0.6-3.2c0,0-7,0.4-8.9-0.4
			c-3.8-1.5-5.4-3.9-5.4-3.9L31.3,127.5z"/>
		<path class="st5" d="M30.6,108.7c0,0,3.6-3.7,9.9-3.7c6.9,0,11.8,8.8,11.8,8.8l-1.5,2.9c0,0-6.4-6.6-8.4-7.1
			c-5.5-1.3-7.4,1.8-7.4,1.8L30.6,108.7z"/>
		<g>
			<path class="st27" d="M55.4,116.4l-0.8-1.2c-0.2,0.2-0.4,0.4-0.6,0.5l0.8,1.1c0.1,0.2,0.4,0.2,0.6,0.1
				C55.4,116.9,55.5,116.6,55.4,116.4z"/>
			<path class="st27" d="M54.8,117.5l-1.1-1.6c-0.2,0.2-0.4,0.3-0.7,0.5l1.1,1.6c0.1,0.2,0.4,0.2,0.6,0.1
				C54.9,118,54.9,117.7,54.8,117.5z"/>
			<path class="st27" d="M54,119L54,119c0.2-0.1,0.2-0.4,0.1-0.6l-2.1-2.9c-0.1-0.2-0.4-0.2-0.6-0.1l0,0c-0.2,0.1-0.2,0.4-0.1,0.6
				l2.1,2.9C53.6,119.1,53.9,119.1,54,119z"/>
			<path class="st27" d="M53.7,120.4L53.7,120.4c0.2-0.1,0.2-0.4,0.1-0.6l-2.1-2.9c-0.1-0.2-0.4-0.2-0.6-0.1l0,0
				c-0.2,0.1-0.2,0.4-0.1,0.6l2.1,2.9C53.2,120.5,53.5,120.5,53.7,120.4z"/>
			<path class="st27" d="M50.3,118.3L50.3,118.3c0.3,0,0.5-0.1,0.6-0.4l0.3-1.6c0-0.3-0.1-0.5-0.4-0.6l0,0c-0.3,0-0.5,0.1-0.6,0.4
				l-0.3,1.6C49.8,118,50,118.3,50.3,118.3z"/>
			<path class="st27" d="M51.1,113.9L51.1,113.9c0.9-0.6,2.2-0.4,2.9,0.5l0.2,0.2c0.7,0.9,0.4,2.2-0.5,2.8h0
				c-0.9,0.6-2.2,0.4-2.9-0.5l-0.2-0.2C49.9,115.9,50.1,114.6,51.1,113.9z"/>
		</g>
		<ellipse class="st5" cx="32.9" cy="117.9" rx="5.3" ry="10.1"/>
		<path class="st27" d="M38.7,117.9L38.7,117.9c0,0.6-0.5,1.1-1.1,1.1l0,0c-0.6,0-1.1-0.5-1.1-1.1l0,0c0-0.6,0.5-1.1,1.1-1.1l0,0
			C38.1,116.8,38.7,117.3,38.7,117.9z"/>
		<path class="st27" d="M37.9,117.9L37.9,117.9c0,2.9-2.4,5.3-5.3,5.3h-1.7c-2.9,0-5.3-2.4-5.3-5.3v0c0-2.9,2.4-5.3,5.3-5.3h1.7
			C35.5,112.5,37.9,114.9,37.9,117.9z"/>
		<path class="st27" d="M33.6,123L33.6,123c0.1,0.4-0.1,0.8-0.5,0.9l-1.2,0.4c-0.4,0.1-0.8-0.1-0.9-0.5l0,0
			c-0.1-0.4,0.1-0.8,0.5-0.9l1.2-0.4C33.1,122.4,33.5,122.6,33.6,123z"/>
		<path class="st27" d="M30.9,112L30.9,112c-0.1,0.4,0.1,0.8,0.5,0.9l1.2,0.4c0.4,0.1,0.8-0.1,0.9-0.5l0,0c0.1-0.4-0.1-0.8-0.5-0.9
			l-1.2-0.4C31.5,111.4,31.1,111.6,30.9,112z"/>
		<path class="st8" d="M36.7,117.7v0.2c0,2.9-1.5,5.2-4.5,5.2h-1.9c-2.9,0-4.8-2.3-4.8-5.2v-0.2c0-2.9,1.8-5.2,4.8-5.2h1.9
			C35.1,112.5,36.7,114.9,36.7,117.7z"/>
		<g>
			<path class="st27" d="M54.7,129.8L54.7,129.8c0.1,0.2-0.1,0.4-0.3,0.5l-3.5,0.8c-0.2,0.1-0.4-0.1-0.5-0.3l0,0
				c-0.1-0.2,0.1-0.4,0.3-0.5l3.5-0.8C54.4,129.4,54.6,129.6,54.7,129.8z"/>
			<path class="st27" d="M55,128.6L55,128.6c0.1,0.2-0.1,0.4-0.3,0.5l-3.5,0.8c-0.2,0.1-0.4-0.1-0.5-0.3l0,0
				c-0.1-0.2,0.1-0.4,0.3-0.5l3.5-0.8C54.8,128.3,55,128.4,55,128.6z"/>
			<path class="st27" d="M55,127.5L55,127.5c0.1,0.2-0.1,0.4-0.3,0.5l-3.5,0.8c-0.2,0.1-0.4-0.1-0.5-0.3l0,0
				c-0.1-0.2,0.1-0.4,0.3-0.5l3.5-0.8C54.7,127.2,54.9,127.3,55,127.5z"/>
			<path class="st27" d="M54.2,126.6L54.2,126.6c0.1,0.2-0.1,0.4-0.3,0.5l-3.5,0.8c-0.2,0.1-0.4-0.1-0.5-0.3l0,0
				c-0.1-0.2,0.1-0.4,0.3-0.5l3.5-0.8C53.9,126.2,54.2,126.4,54.2,126.6z"/>
			<path class="st27" d="M50.3,125.9L50.3,125.9c0.2,0.1,0.3,0.5,0.2,0.7l-0.8,1.3c-0.1,0.2-0.5,0.3-0.7,0.2l0,0
				c-0.2-0.1-0.3-0.5-0.2-0.7l0.8-1.3C49.7,125.9,50.1,125.8,50.3,125.9z"/>
			<path class="st27" d="M47.9,129.7L47.9,129.7c0.3,1.1,1.4,1.8,2.5,1.5l0.3-0.1c1.1-0.3,1.8-1.4,1.5-2.4l0,0
				c-0.3-1.1-1.4-1.8-2.5-1.5l-0.3,0.1C48.4,127.5,47.7,128.6,47.9,129.7z"/>
		</g>
	</g>
	<g>
		<path class="st35" d="M167.9,97.9c-2.1,2-6.1,0.9-9-2c-2.9-2.9-4.1-7.3-2-9.3s6.7-1,9.6,1.9C169.4,91.4,170,95.9,167.9,97.9z"/>
		<path class="st3" d="M157.3,83.1c0,0-2.3-0.6-7.9,2.3c-4.7,2.4-5,11.5-5,11.5l3.2,0.8c0,0,1.1-7.3,3.1-8.1
			c3.8-1.5,6.6-0.9,6.6-0.9L157.3,83.1z"/>
		<path class="st3" d="M169.6,91.2c0,0,4.1,3.9,6.4,9.7c1.9,4.9,2.4,13.7,2.4,13.7l-2.8,0.6c0,0-1.4-8.4-2.4-10.3
			c-2.2-4.3-6-6.1-6-6.1L169.6,91.2z"/>
		<path class="st3" d="M170.2,98.2c-2.1,2-7,0.5-11-3.5c-4-4-5.5-8.8-3.4-10.9c2.1-2,7-0.5,11,3.5C170.8,91.3,172.3,96.2,170.2,98.2
			z"/>
		<path class="st27" d="M158.9,94.9L158.9,94.9c-0.4-0.4-0.4-1.1,0-1.5h0c0.4-0.4,1.1-0.4,1.6,0l0,0c0.4,0.4,0.4,1.1,0,1.5l0,0
			C160.1,95.4,159.3,95.4,158.9,94.9z"/>
		<path class="st27" d="M159.1,87.7L159.1,87.7c-0.3-0.2-0.5-0.6-0.3-1l0.6-1.1c0.2-0.3,0.6-0.5,1-0.3l0,0c0.3,0.2,0.5,0.6,0.3,1
			l-0.6,1.1C159.9,87.8,159.5,87.9,159.1,87.7z"/>
		<path class="st27" d="M168.7,93.5L168.7,93.5c-0.2-0.3-0.6-0.5-1-0.3l-1.1,0.6c-0.4,0.2-0.5,0.6-0.3,1v0c0.2,0.3,0.6,0.5,1,0.3
			l1.1-0.6C168.8,94.3,168.9,93.9,168.7,93.5z"/>
		<path class="st27" d="M159.5,94.4L159.5,94.4c-2.1-2.1-2.1-5.5,0-7.5l1.1-1c2.1-2.1,5.6-2,7.7,0l0,0c2.1,2.1,2.1,5.5,0,7.5l-1.1,1
			C165,96.5,161.6,96.5,159.5,94.4z"/>
		<path class="st4" d="M160.6,93.4L160.6,93.4c-2.1-2.1-2.1-5.5,0-7.5l0,0c2.1-2.1,5.6-2,7.7,0l0,0c2.1,2.1,2.1,5.5,0,7.5l0,0
			C166.1,95.5,162.7,95.5,160.6,93.4z"/>
		<g>
			<path class="st27" d="M178.2,119.8L178.2,119.8c0.2,0,0.4-0.1,0.4-0.4l0.3-3.6c0-0.2-0.2-0.4-0.4-0.4l0,0c-0.2,0-0.4,0.1-0.4,0.4
				l-0.3,3.6C177.8,119.6,178,119.8,178.2,119.8z"/>
			<path class="st27" d="M177.1,120.3L177.1,120.3c0.2,0,0.4-0.1,0.4-0.4l0.3-3.6c0-0.2-0.2-0.4-0.4-0.4l0,0c-0.2,0-0.4,0.1-0.4,0.4
				l-0.3,3.6C176.7,120.1,176.8,120.3,177.1,120.3z"/>
			<path class="st27" d="M176,120.4L176,120.4c0.2,0,0.4-0.1,0.4-0.4l0.3-3.6c0-0.2-0.2-0.4-0.4-0.4l0,0c-0.2,0-0.4,0.1-0.4,0.4
				l-0.3,3.6C175.6,120.2,175.7,120.4,176,120.4z"/>
			<path class="st27" d="M174.9,119.8L174.9,119.8c0.2,0,0.4-0.1,0.4-0.4l0.3-3.6c0-0.2-0.2-0.4-0.4-0.4l0,0c-0.2,0-0.4,0.1-0.4,0.4
				l-0.3,3.6C174.5,119.6,174.7,119.8,174.9,119.8z"/>
			<path class="st27" d="M173.7,116.1L173.7,116.1c0.2,0.2,0.5,0.2,0.7,0.1l1.2-1c0.2-0.2,0.2-0.5,0.1-0.7l0,0
				c-0.2-0.2-0.5-0.2-0.7-0.1l-1.2,1C173.5,115.6,173.5,115.9,173.7,116.1z"/>
			<path class="st27" d="M177.1,113.3L177.1,113.3c1.1,0.1,2,1.1,1.9,2.2l0,0.3c-0.1,1.1-1.1,1.9-2.2,1.9l0,0
				c-1.1-0.1-2-1.1-1.9-2.2l0-0.3C175,114,176,113.2,177.1,113.3z"/>
		</g>
		<g>
			<path class="st27" d="M142.7,99.7l0.6-1.3c0.2,0.2,0.5,0.3,0.7,0.4l-0.6,1.2c-0.1,0.2-0.3,0.3-0.6,0.2
				C142.7,100.1,142.6,99.9,142.7,99.7z"/>
			<path class="st27" d="M143.4,100.6l0.8-1.8c0.2,0.1,0.5,0.2,0.8,0.3l-0.8,1.8c-0.1,0.2-0.3,0.3-0.6,0.2
				C143.4,101.1,143.3,100.9,143.4,100.6z"/>
			<path class="st27" d="M144.4,101.9L144.4,101.9c-0.2-0.1-0.3-0.3-0.2-0.5l1.5-3.2c0.1-0.2,0.3-0.3,0.6-0.2l0,0
				c0.2,0.1,0.3,0.3,0.2,0.5l-1.5,3.2C144.9,101.9,144.6,102,144.4,101.9z"/>
			<path class="st27" d="M145.1,103.2L145.1,103.2c-0.2-0.1-0.3-0.3-0.2-0.5l1.5-3.2c0.1-0.2,0.3-0.3,0.6-0.2l0,0
				c0.2,0.1,0.3,0.3,0.2,0.5l-1.5,3.2C145.5,103.2,145.3,103.3,145.1,103.2z"/>
			<path class="st27" d="M148,100.6L148,100.6c-0.3,0.1-0.6,0-0.7-0.3l-0.6-1.5c-0.1-0.3,0-0.6,0.3-0.7l0,0c0.3-0.1,0.6,0,0.7,0.3
				l0.6,1.5C148.4,100.2,148.3,100.5,148,100.6z"/>
			<path class="st27" d="M146.4,96.4L146.4,96.4c-1-0.5-2.3,0-2.7,1l-0.1,0.2c-0.5,1,0,2.2,1,2.7l0,0c1,0.5,2.3,0,2.7-1l0.1-0.2
				C147.9,98.1,147.4,96.9,146.4,96.4z"/>
		</g>
	</g>
	<g>
		<path class="st36" d="M66.2,151.1c0-2.9,3.7-4.9,7.8-4.9c4.1,0,8.2,2.2,8.2,5.1c0,2.9-4,5.4-8.2,5.4
			C69.9,156.7,66.2,154,66.2,151.1z"/>
		<path class="st22" d="M84,153.8c0,0,1.7-1.9,3.6-7.8c1.6-5-4.5-10.9-4.5-10.9l-2.5,1.6c0,0,4.5,5.9,3.7,7.8
			c-1.6,3.7-4.3,5.3-4.3,5.3L84,153.8z"/>
		<path class="st4" d="M85.6,147.6c-0.8-0.4-1.7-0.9-2.6-1.3c-1.5,2.5-3.1,3.5-3.1,3.5l4,4c0,0,1.7-1,3.4-5.4
			C86.7,148.1,86.2,147.9,85.6,147.6z"/>
		<path class="st22" d="M64.9,154.5c0,0-4.3-3.2-4.3-9.4c0-5.2,6.9-10.6,6.9-10.6l3,1.5c0,0-6.2,6.5-6,8.6c0.4,4,3.2,5.7,3.2,5.7
			L64.9,154.5z"/>
		<path class="st4" d="M64.9,145.4c-1.5,0.7-3,1.6-4.2,2.8c1.1,4.2,4.2,6.4,4.2,6.4l2.8-4.3C67.6,150.2,65.6,148.6,64.9,145.4z"/>
		<ellipse class="st4" cx="74.2" cy="152.2" rx="10.3" ry="5.2"/>
		<path class="st22" d="M74.2,146.6L74.2,146.6c0.6,0,1.1,0.5,1.1,1.1l0,0c0,0.6-0.5,1.1-1.1,1.1h0c-0.6,0-1.1-0.5-1.1-1.1l0,0
			C73.1,147.1,73.6,146.6,74.2,146.6z"/>
		<path class="st22" d="M74.2,147.4L74.2,147.4c3,0,5.4,2.4,5.4,5.4v1.3c0,3-2.4,5.4-5.4,5.4h0c-3,0-5.4-2.4-5.4-5.4v-1.3
			C68.7,149.8,71.2,147.4,74.2,147.4z"/>
		<path class="st22" d="M79.3,151.9L79.3,151.9c0.4-0.1,0.8,0.1,0.9,0.5l0.4,1.2c0.1,0.4-0.1,0.8-0.5,0.9l0,0
			c-0.4,0.1-0.8-0.1-0.9-0.5l-0.4-1.2C78.7,152.4,78.9,152,79.3,151.9z"/>
		<path class="st22" d="M68.3,154.5L68.3,154.5c0.4,0.1,0.8-0.1,0.9-0.5l0.4-1.2c0.1-0.4-0.1-0.8-0.5-0.9l0,0
			c-0.4-0.1-0.8,0.1-0.9,0.5l-0.4,1.2C67.7,154,68,154.4,68.3,154.5z"/>
		<path class="st9" d="M79.6,154.3v-1.4c0-1.7-0.5-2.8-1.5-3.5c-1.2-0.8-2.2-1.1-3.9-0.9c-1.5,0.2-2.7,1.2-3.3,2.4
			c-1.3,0-2.2,0.2-2.2,1.9v1.4c0,2.9,2.4,5.2,5.3,5.2h0.2C77.2,159.5,79.6,157.2,79.6,154.3z"/>
		<g>
			<path class="st22" d="M73.8,131.8L73.8,131.8c0.1,0.3-0.1,0.6-0.4,0.7l-1,0.3c-0.3,0.1-0.6-0.1-0.7-0.4l0,0
				c-0.1-0.3,0.1-0.6,0.4-0.7l1-0.3C73.4,131.3,73.7,131.5,73.8,131.8z"/>
			<path class="st22" d="M72.3,136.2L72.3,136.2c-0.1,0.3-0.4,0.5-0.7,0.4l-1-0.3c-0.3-0.1-0.5-0.4-0.4-0.7v0
				c0.1-0.3,0.4-0.5,0.7-0.4l1,0.3C72.2,135.6,72.4,135.9,72.3,136.2z"/>
			<path class="st22" d="M72.8,134.8L72.8,134.8c0.2,0.2,0.3,0.5,0.1,0.8l-0.6,0.8c-0.2,0.2-0.5,0.3-0.8,0.1l0,0
				c-0.2-0.2-0.3-0.5-0.1-0.8l0.6-0.8C72.2,134.6,72.5,134.6,72.8,134.8z"/>
			<path class="st22" d="M69.4,132.7l2.4-1c0.3-0.1,0.6,0,0.7,0.3l0,0c0.1,0.3,0,0.6-0.3,0.7l-2.4,1c-0.3,0.1-0.6,0-0.7-0.3l0,0
				C69,133.2,69.1,132.8,69.4,132.7z"/>
			<path class="st22" d="M68.4,133.3l0.8-0.5c0.8-0.5,1.9-0.2,2.4,0.6l0,0c0.5,0.8,0.2,1.8-0.6,2.3l-0.8,0.5
				c-0.8,0.5-1.9,0.2-2.4-0.6l0,0C67.3,134.8,67.6,133.8,68.4,133.3z"/>
		</g>
		<g>
			<path class="st22" d="M76.8,132.5L76.8,132.5c-0.1,0.3,0.1,0.6,0.4,0.7l1,0.3c0.3,0.1,0.6-0.1,0.7-0.4l0,0
				c0.1-0.3-0.1-0.6-0.4-0.7l-1-0.3C77.2,132,76.9,132.2,76.8,132.5z"/>
			<path class="st22" d="M77.6,136.1L77.6,136.1c0,0.3,0.3,0.5,0.6,0.5l1,0c0.3,0,0.5-0.3,0.5-0.6l0,0c0-0.3-0.3-0.5-0.6-0.5l-1,0
				C77.8,135.6,77.6,135.8,77.6,136.1z"/>
			<path class="st22" d="M77.4,134.6L77.4,134.6c-0.3,0.1-0.4,0.4-0.3,0.7l0.4,0.9c0.1,0.3,0.4,0.4,0.7,0.3l0,0
				c0.3-0.1,0.4-0.4,0.3-0.7l-0.4-0.9C78,134.7,77.7,134.5,77.4,134.6z"/>
			<path class="st22" d="M81.2,133.4l-2.4-1c-0.3-0.1-0.6,0-0.7,0.3l0,0c-0.1,0.3,0,0.6,0.3,0.7l2.4,1c0.3,0.1,0.6,0,0.7-0.3l0,0
				C81.6,133.9,81.5,133.5,81.2,133.4z"/>
			<path class="st22" d="M82.2,134l-0.8-0.5c-0.8-0.5-1.9-0.2-2.4,0.6l0,0c-0.5,0.8-0.2,1.8,0.6,2.3l0.8,0.5
				c0.8,0.5,1.9,0.2,2.4-0.6l0,0C83.3,135.5,83,134.5,82.2,134z"/>
		</g>
		<polygon class="st13" points="71.5,134.9 69.7,128.1 81,128.1 79.1,134.9 		"/>
	</g>
	<g>
		<path class="st37" d="M35.2,71.4c3,0,5,3.6,5,7.7c0,4.1-2.3,8-5.2,8c-3,0-5.5-3.9-5.5-8C29.5,75,32.2,71.4,35.2,71.4z"/>
		<path class="st30" d="M31.6,88.9c0,0,1.9,1.7,7.9,3.5C44.6,94,50.6,88,50.6,88L49,85.5c0,0-6,4.4-8,3.6c-3.8-1.5-5.4-4.2-5.4-4.2
			L31.6,88.9z"/>
		<path class="st19" d="M37.9,90.5c0.4-0.8,0.9-1.7,1.3-2.5c-2.5-1.4-3.6-3-3.6-3l-4,4c0,0,1,1.6,5.5,3.3
			C37.4,91.6,37.6,91,37.9,90.5z"/>
		<path class="st30" d="M30.9,70.1c0,0,3.2-4.2,9.6-4.2c5.3,0,10.8,6.8,10.8,6.8l-1.5,2.9c0,0-6.6-6.1-8.7-5.9
			c-4.1,0.4-5.8,3.1-5.8,3.1L30.9,70.1z"/>
		<path class="st19" d="M40.2,70.1c-0.7-1.5-1.6-2.9-2.8-4.2c-4.3,1.1-6.5,4.1-6.5,4.1l4.4,2.7C35.3,72.8,36.9,70.8,40.2,70.1z"/>
		<ellipse class="st19" cx="33.2" cy="79.2" rx="5.3" ry="10.1"/>
		<path class="st30" d="M38.9,79.3L38.9,79.3c0,0.6-0.5,1.1-1.1,1.1l0,0c-0.6,0-1.1-0.5-1.1-1.1l0,0c0-0.6,0.5-1.1,1.1-1.1l0,0
			C38.4,78.2,38.9,78.7,38.9,79.3z"/>
		<path class="st30" d="M38.1,79.2L38.1,79.2c0,2.9-2.4,5.3-5.3,5.3h-1.7c-2.9,0-5.3-2.4-5.3-5.3v0c0-2.9,2.4-5.3,5.3-5.3h1.7
			C35.7,73.9,38.1,76.3,38.1,79.2z"/>
		<path class="st30" d="M33.6,84.3L33.6,84.3c0.1,0.4-0.1,0.8-0.5,0.9l-1.2,0.3c-0.4,0.1-0.8-0.1-0.9-0.5l0,0
			c-0.1-0.4,0.1-0.8,0.5-0.9l1.2-0.3C33.1,83.7,33.5,83.9,33.6,84.3z"/>
		<path class="st30" d="M30.9,73.5L30.9,73.5c-0.1,0.4,0.1,0.8,0.5,0.9l1.2,0.3c0.4,0.1,0.8-0.1,0.9-0.5l0,0
			c0.1-0.4-0.1-0.8-0.5-0.9L31.8,73C31.4,72.9,31,73.2,30.9,73.5z"/>
		<path class="st26" d="M30.9,84.6h1.6c1.7,0,2.9-0.4,3.6-1.5c0.8-1.2,1.1-2.1,0.9-3.8c-0.2-1.5-1.2-2.7-2.5-3.2
			c0-1.3-0.2-2.1-2-2.1h-1.6c-2.9,0-5.4,2.3-5.4,5.2v0.2C25.5,82.2,28,84.6,30.9,84.6z"/>
		<g>
			<path class="st30" d="M54,78.9L54,78.9c-0.3,0.1-0.6-0.1-0.7-0.4l-0.3-0.9c-0.1-0.3,0.1-0.6,0.4-0.7l0,0c0.3-0.1,0.6,0.1,0.7,0.4
				l0.3,0.9C54.5,78.5,54.3,78.8,54,78.9z"/>
			<path class="st30" d="M49.6,77.4L49.6,77.4c-0.3-0.1-0.5-0.4-0.4-0.7l0.3-0.9c0.1-0.3,0.4-0.5,0.7-0.4l0,0
				c0.3,0.1,0.5,0.4,0.4,0.7L50.2,77C50.2,77.3,49.9,77.5,49.6,77.4z"/>
			<path class="st30" d="M51,77.9L51,77.9c-0.2,0.2-0.5,0.3-0.8,0.1l-0.8-0.6c-0.2-0.2-0.3-0.5-0.1-0.8l0,0c0.2-0.2,0.5-0.3,0.8-0.1
				l0.8,0.6C51.1,77.3,51.1,77.7,51,77.9z"/>
			<path class="st30" d="M53.1,74.6l1,2.3c0.1,0.3,0,0.6-0.3,0.7l0,0c-0.3,0.1-0.6,0-0.7-0.3L52,75c-0.1-0.3,0-0.6,0.3-0.7l0,0
				C52.6,74.2,52.9,74.3,53.1,74.6z"/>
			<path class="st30" d="M52.5,73.6l0.5,0.8c0.5,0.8,0.2,1.8-0.6,2.3l0,0c-0.8,0.5-1.9,0.2-2.4-0.6l-0.5-0.8
				c-0.5-0.8-0.2-1.8,0.6-2.3l0,0C50.9,72.5,52,72.7,52.5,73.6z"/>
		</g>
		<g>
			<path class="st30" d="M53.3,81.9L53.3,81.9c-0.3-0.1-0.6,0.1-0.7,0.4l-0.3,0.9c-0.1,0.3,0.1,0.6,0.4,0.7l0,0
				c0.3,0.1,0.6-0.1,0.7-0.4l0.3-0.9C53.7,82.2,53.6,81.9,53.3,81.9z"/>
			<path class="st30" d="M49.6,82.6L49.6,82.6c-0.3,0-0.5,0.3-0.5,0.6l0,1c0,0.3,0.3,0.5,0.6,0.5h0c0.3,0,0.5-0.3,0.5-0.6l0-1
				C50.2,82.8,49.9,82.6,49.6,82.6z"/>
			<path class="st30" d="M51.1,82.4L51.1,82.4c-0.1-0.3-0.4-0.4-0.7-0.3l-0.9,0.4c-0.3,0.1-0.4,0.4-0.3,0.7l0,0
				c0.1,0.3,0.4,0.4,0.7,0.3l0.9-0.4C51.1,83,51.2,82.7,51.1,82.4z"/>
			<path class="st30" d="M52.3,86.1l1-2.3c0.1-0.3,0-0.6-0.3-0.7l0,0c-0.3-0.1-0.6,0-0.7,0.3l-1,2.3c-0.1,0.3,0,0.6,0.3,0.7l0,0
				C51.9,86.5,52.2,86.4,52.3,86.1z"/>
			<path class="st30" d="M51.7,87.2l0.5-0.8c0.5-0.8,0.2-1.8-0.6-2.3l0,0c-0.8-0.5-1.9-0.2-2.4,0.6l-0.5,0.8
				c-0.5,0.8-0.2,1.8,0.6,2.3v0C50.2,88.2,51.3,88,51.7,87.2z"/>
		</g>
		<path class="st3" d="M55.5,74.3C55.5,74.3,55.5,74.3,55.5,74.3C55.5,74.3,55.5,74.3,55.5,74.3C55.5,74.3,55.5,74.3,55.5,74.3
			C55.5,74.3,55.5,74.3,55.5,74.3C55.5,74.3,55.4,74.3,55.5,74.3C55.4,74.3,55.4,74.3,55.5,74.3C55.4,74.3,55.4,74.3,55.5,74.3
			C55.4,74.3,55.4,74.3,55.5,74.3c-0.1,0-0.1,0-0.1,0c0,0,0,0,0,0c0,0,0,0,0,0c0,0,0,0,0,0c0,0,0,0,0,0c0,0,0,0,0,0c0,0,0,0,0,0
			c0,0,0,0,0,0c0,0,0,0,0,0c0,0,0,0,0,0c0,0,0,0,0,0c0,0,0,0,0,0c0,0,0,0,0,0c0,0,0,0,0,0c0,0,0,0,0,0c0,0,0,0,0,0c0,0,0,0,0,0
			c0,0,0,0,0,0c0,0,0,0,0,0c0,0,0,0,0,0c0,0,0,0,0,0c0,0,0,0,0,0c0,0,0,0,0,0c0,0,0,0,0,0c0,0,0,0,0,0c0,0,0,0,0,0c0,0,0,0,0,0
			c0,0,0,0,0,0c0,0,0,0,0,0c0,0,0,0,0,0c0,0,0,0,0,0c0,0,0,0,0,0c0,0,0,0,0,0c0,0,0,0,0,0c0,0,0,0,0,0c0,0,0,0,0,0c0,0,0,0,0,0
			c0,0,0,0,0,0c0,0,0,0,0,0c0,0,0,0,0,0c0,0,0,0,0,0c0,0,0,0,0,0c-0.1,0-0.1,0-0.2,0l-3.4,1.9c-0.1,0.1-0.2,0.3-0.2,0.6v6.7
			c0,0.3,0.1,0.5,0.2,0.6l3.4,1.9c0.1,0,0.1,0.1,0.2,0c0,0,0,0,0,0c0,0,0,0,0,0c0,0,0,0,0,0c0,0,0,0,0,0c0,0,0,0,0,0c0,0,0,0,0,0
			c0,0,0,0,0,0c0,0,0,0,0,0c0,0,0,0,0,0c0,0,0,0,0,0c0,0,0,0,0,0c0,0,0,0,0,0c0,0,0,0,0,0c0,0,0,0,0,0c0,0,0,0,0,0c0,0,0,0,0,0
			c0,0,0,0,0,0c0,0,0,0,0,0c0,0,0,0,0,0c0,0,0,0,0,0c0,0,0,0,0,0c0,0,0,0,0,0c0,0,0,0,0,0c0,0,0,0,0,0c0,0,0,0,0,0c0,0,0,0,0,0
			c0,0,0,0,0,0c0,0,0,0,0,0c0,0,0,0,0,0c0,0,0,0,0,0c0,0,0,0,0,0c0,0,0,0,0,0c0,0,0,0,0,0c0,0,0,0,0,0c0,0,0,0,0,0c0,0,0,0,0,0
			c0,0,0,0,0,0c0,0,0,0,0,0c0,0,0,0,0,0c0,0,0,0,0,0c0,0,0,0,0,0c0,0,0,0,0,0c0,0,0,0,0,0c0,0,0,0,0,0c0,0,0,0,0,0c0,0,0,0,0,0
			c0,0,0,0,0,0c0,0,0,0,0,0c0,0,0,0,0,0c0,0,0,0,0,0c0.2,0,0.3-0.2,0.3-0.5V74.8C55.8,74.5,55.7,74.3,55.5,74.3z"/>
		<g>
			<g>
				<path class="st15" d="M54.7,86.1l-3.4-1.9c-0.1-0.1-0.2-0.3-0.2-0.6v-6.7c0-0.3,0.1-0.5,0.2-0.6l3.4-1.9
					c0.3-0.2,0.5,0.1,0.5,0.5v10.8C55.2,86,55,86.3,54.7,86.1z"/>
			</g>
			<g>
				<path class="st38" d="M54.2,84.9l-2.5-1.2c-0.1,0-0.2-0.3-0.2-0.5v-6.1c0-0.2,0.1-0.4,0.2-0.5l2.5-1.2c0.2-0.1,0.4,0.1,0.4,0.4
					v8.7C54.5,84.8,54.3,85,54.2,84.9z"/>
			</g>
			<path class="st7" d="M54.1,84.7l-2.3-1.1c-0.1,0-0.2-0.3-0.2-0.5v-5.9c0-0.2,0.1-0.4,0.2-0.5l2.3-1.1c0.2-0.1,0.3,0.1,0.3,0.4
				v8.3C54.4,84.6,54.2,84.8,54.1,84.7z"/>
			<path class="st39" d="M52.1,76.6l-0.4,0.2c-0.1,0-0.2,0.3-0.2,0.5V78C51.7,77.5,51.9,77.1,52.1,76.6z"/>
			<path class="st39" d="M54.4,78v-1.9c0-0.1,0-0.2-0.1-0.3c-1.1,2.3-2,4.1-2.8,5.6V83C52.3,81.7,53.2,80,54.4,78z"/>
			<path class="st39" d="M53.2,84.3l0.9,0.4c0.2,0.1,0.3-0.1,0.3-0.4v-1.7C54,83.3,53.5,83.8,53.2,84.3z"/>
			<ellipse class="st14" cx="51.3" cy="80.2" rx="0.1" ry="0.3"/>
			<g>
				<ellipse class="st15" cx="51.3" cy="80.2" rx="0.1" ry="0.2"/>
			</g>
		</g>
	</g>
	<g>
		<path class="st2" d="M127,89.7l-0.6-1.3c-0.1-0.2,0-0.5,0.2-0.6l0,0c0.2-0.1,0.5,0,0.7,0.2l0.6,1.3c0.1,0.2,0,0.5-0.2,0.6l0,0
			C127.5,90.1,127.2,90,127,89.7z"/>
		<path class="st14" d="M125.2,88.7c-1.4-0.5-2.2-2-1.6-3.4c0.5-1.4,2.1-2.1,3.5-1.6c1.4,0.5,2.2,2,1.6,3.4
			C128.1,88.5,126.6,89.2,125.2,88.7z"/>
		<path class="st8" d="M125.4,88c-1-0.4-1.6-1.5-1.2-2.5c0.4-1,1.5-1.5,2.5-1.2c1,0.4,1.6,1.5,1.2,2.5
			C127.6,87.9,126.4,88.4,125.4,88z"/>
	</g>
	<g>
		<path class="st16" d="M114.1,64.1l-0.9,1.1c-0.2,0.2-0.5,0.3-0.7,0.1l0,0c-0.2-0.2-0.3-0.5-0.1-0.7l0.9-1.1
			c0.2-0.2,0.5-0.3,0.7-0.1l0,0C114.2,63.6,114.2,63.9,114.1,64.1z"/>
		<path class="st14" d="M114.1,66.2c0.2,1.5-0.9,2.9-2.4,3.2c-1.6,0.2-3-0.8-3.2-2.4c-0.2-1.5,0.9-2.9,2.4-3.2
			C112.5,63.6,113.9,64.7,114.1,66.2z"/>
		<path class="st8" d="M113.3,66.3c0.2,1.1-0.6,2-1.7,2.2c-1.1,0.2-2.1-0.6-2.2-1.6c-0.2-1.1,0.6-2,1.7-2.2
			C112.1,64.5,113.1,65.3,113.3,66.3z"/>
	</g>
	<g>
		<path class="st0" d="M65.3,125.1l0.8-1.2c0.2-0.2,0.5-0.3,0.7-0.1l0,0c0.2,0.2,0.3,0.5,0.1,0.7l-0.8,1.2c-0.2,0.2-0.5,0.3-0.7,0.1
			v0C65.3,125.6,65.2,125.3,65.3,125.1z"/>
		<path class="st14" d="M65.3,123c-0.3-1.5,0.7-2.9,2.2-3.1c1.5-0.3,2.9,0.7,3.2,2.1c0.3,1.5-0.7,2.9-2.2,3.1
			C67,125.4,65.6,124.4,65.3,123z"/>
		<path class="st8" d="M66,122.8c-0.2-1.1,0.5-2.1,1.6-2.3c1.1-0.2,2.1,0.5,2.3,1.5c0.2,1.1-0.5,2.1-1.6,2.3
			C67.3,124.6,66.2,123.9,66,122.8z"/>
	</g>
</g>
</svg>
