<?xml version="1.0" encoding="utf-8"?>
<!-- Generator: Adobe Illustrator 19.2.1, SVG Export Plug-In . SVG Version: 6.00 Build 0)  -->
<svg version="1.1" id="Layer_1" xmlns="http://www.w3.org/2000/svg" xmlns:xlink="http://www.w3.org/1999/xlink" x="0px" y="0px"
	 viewBox="0 0 200 200" style="enable-background:new 0 0 200 200;" xml:space="preserve">
<style type="text/css">
	.st0{fill:#FFFFFF;}
	.st1{fill:#35465C;}
	.st2{fill:#34404F;}
	.st3{fill:#E6E6E5;}
	.st4{fill:#A1D9D5;}
	.st5{fill:#E74D40;}
	.st6{fill:#36404A;}
	.st7{fill:#F47B56;}
	.st8{fill:#78CEDD;}
	.st9{fill:#FFDB7A;}
	.st10{fill:#CDCCCC;}
	.st11{fill:#4E4E4E;}
	.st12{fill:#FFDB7B;}
	.st13{fill:#FED9B2;}
	.st14{fill:#FDEBD7;}
	.st15{fill:#07253F;}
</style>
<g id="Website_Builder_1_">
	<g id="Website_Builder">
		<path id="Compound_2_" class="st0" d="M179,98.8c0-0.3,0-0.7,0-1h-9v-8.6h8.2c0-0.3-0.1-0.7-0.1-1h-8v-8.5h6.2
			c-0.1-0.3-0.2-0.7-0.3-1h-6v-8.6h2.9c-0.1-0.3-0.3-0.7-0.4-1H170h-0.7h-0.7H157h-0.7h-0.7H144h-0.7h-0.7H131h-0.7h-0.7H118h-0.7
			h-0.7h-12.3h-0.7v0.5v9.1v0.5v0.5v8.5v0.5v0.5v8.6v0.5v0.5v8.5v0.5v0.5v9v0.5h0.7h12.3h0.7h0.7h11.7h0.7h0.7h11.7h0.7h0.7h11.7
			h0.7h0.7H169h0.7h0.7h7.1c0.1-0.3,0.1-0.7,0.2-1H170v-8.5h8.6c0-0.3,0.1-0.7,0.1-1H170v-8.5H179z M116.6,116.8h-11.7v-8.5h11.7
			V116.8z M116.6,107.3h-11.7v-8.5h11.7V107.3z M116.6,97.8h-11.7v-8.6h11.7V97.8z M116.6,88.2h-11.7v-8.5h11.7V88.2z M116.6,78.7
			h-11.7v-8.6h11.7V78.7z M129.6,116.8H118v-8.5h11.7L129.6,116.8L129.6,116.8z M129.6,107.3H118v-8.5h11.7L129.6,107.3L129.6,107.3
			z M129.6,97.8H118v-8.6h11.7L129.6,97.8L129.6,97.8z M129.6,88.2H118v-8.5h11.7L129.6,88.2L129.6,88.2z M129.6,78.7H118v-8.6h11.7
			L129.6,78.7L129.6,78.7z M142.6,116.8H131v-8.5h11.7L142.6,116.8L142.6,116.8z M142.6,107.3H131v-8.5h11.7L142.6,107.3
			L142.6,107.3z M142.6,97.8H131v-8.6h11.7L142.6,97.8L142.6,97.8z M142.6,88.2H131v-8.5h11.7L142.6,88.2L142.6,88.2z M142.6,78.7
			H131v-8.6h11.7L142.6,78.7L142.6,78.7z M155.6,116.8H144v-8.5h11.7L155.6,116.8L155.6,116.8z M155.6,107.3H144v-8.5h11.7
			L155.6,107.3L155.6,107.3z M155.6,97.8H144v-8.6h11.7L155.6,97.8L155.6,97.8z M155.6,88.2H144v-8.5h11.7L155.6,88.2L155.6,88.2z
			 M155.6,78.7H144v-8.6h11.7L155.6,78.7L155.6,78.7z M168.7,116.8H157v-8.5h11.7V116.8z M168.7,107.3H157v-8.5h11.7V107.3z
			 M168.7,97.8H157v-8.6h11.7V97.8z M168.7,88.2H157v-8.5h11.7V88.2z M168.7,78.7H157v-8.6h11.7V78.7z"/>
		<g id="Laptop_2_">
			<path class="st1" d="M40.6,68.5h94.7c2,0,3.6,1.6,3.6,3.6v65.5H37V72.1C37,70.1,38.7,68.5,40.6,68.5L40.6,68.5z"/>
			<path class="st2" d="M21.3,149.5h66.6h66.6c0.4,0,0.3-0.3-0.2-0.6l-14.3-11c-0.4-0.4-1.1-0.6-1.5-0.6H87.9H37.2
				c-0.4,0-1,0.3-1.5,0.6l-14.3,11C21,149.2,20.9,149.5,21.3,149.5L21.3,149.5z"/>
			<path class="st1" d="M21.8,148.7c44.1,0,88.1,0,132.2,0c1,0,1.1,0.8,0.2,1.8l-1.8,2c-0.9,1-2.4,1.8-3.4,1.8
				c-40.7,0-81.5,0-122.2,0c-1,0-2.6-0.8-3.4-1.8l-1.8-2C20.7,149.5,20.8,148.7,21.8,148.7L21.8,148.7z"/>
			<polygon class="st3" points="77.6,143.3 83.2,143.3 92.7,143.3 98.3,143.3 101.4,146.8 89.6,146.8 86.3,146.8 74.4,146.8 			"/>
			<rect x="40.2" y="73.9" class="st4" width="95.4" height="60.3"/>
		</g>
		<g id="Code">
			<polygon class="st5" points="113.2,65.1 147.4,59 151.6,82.6 117.5,88.7 			"/>
			<path class="st0" d="M120.7,76.6l-0.2-1.4l7.7-4.9l0.3,1.6l-6.1,3.8l7.1,1.6l0.3,1.5L120.7,76.6z M131,80.8l1.5-13.6l1.2-0.2
				l-1.5,13.6L131,80.8z M144.2,72.8l-7.7,4.9l-0.3-1.5l6.1-3.8l-7-1.6l-0.3-1.5l8.9,2.1L144.2,72.8z"/>
		</g>
		<g id="Browser_2_">
			<g>
				<path class="st0" d="M29.9,77.2h88.9c1.2,0,2.2,0.9,2.2,2.1v48.1c0,1.2-1,2.1-2.2,2.1H29.9c-1.2,0-2.1-1-2.1-2.1V79.3
					C27.7,78.1,28.7,77.2,29.9,77.2L29.9,77.2z"/>
				<path class="st6" d="M29.6,77.2H119c1,0,1.9,0.8,1.9,1.8v5.8c0,0.1-0.1,0.2-0.2,0.2h-93v-6C27.7,78,28.6,77.2,29.6,77.2
					L29.6,77.2z"/>
				<path class="st7" d="M32.3,82.7c0.9,0,1.7-0.8,1.7-1.7c0-0.9-0.8-1.7-1.7-1.7s-1.7,0.8-1.7,1.7C30.6,81.9,31.4,82.7,32.3,82.7
					L32.3,82.7z"/>
				<path class="st8" d="M37.1,82.7c0.9,0,1.7-0.8,1.7-1.7c0-0.9-0.8-1.7-1.7-1.7s-1.7,0.8-1.7,1.7C35.4,81.9,36.2,82.7,37.1,82.7
					L37.1,82.7z"/>
				<path class="st9" d="M41.9,82.7c0.9,0,1.7-0.8,1.7-1.7c0-0.9-0.8-1.7-1.7-1.7s-1.7,0.8-1.7,1.7C40.2,81.9,40.9,82.7,41.9,82.7
					L41.9,82.7z"/>
				<rect x="46.2" y="79.5" class="st0" width="72" height="3.3"/>
			</g>
			<g>
				<rect x="34.7" y="94.6" class="st9" width="48.1" height="20.9"/>
				<g>
					<rect x="35.2" y="88" class="st10" width="20" height="2.5"/>
					<rect x="63.5" y="88" class="st10" width="20" height="2.5"/>
					<rect x="91.8" y="88" class="st10" width="20" height="2.5"/>
					<rect x="34.3" y="117.9" class="st10" width="36.7" height="1.4"/>
					<rect x="41.3" y="120.6" class="st10" width="36.7" height="1.4"/>
					<rect x="35.4" y="123.5" class="st10" width="36.7" height="1.4"/>
				</g>
				<g>
					<rect x="86.7" y="94.6" class="st7" width="38.7" height="26.7"/>
					<path class="st11" d="M102.6,117.4c5.2,0,9.4-4.2,9.4-9.4c0-5.2-4.2-9.4-9.4-9.4c-5.2,0-9.4,4.2-9.4,9.4
						C93.2,113.2,97.4,117.4,102.6,117.4L102.6,117.4z"/>
					<polygon class="st0" points="108.7,108 104.1,110.6 99.6,113.2 99.6,108 99.6,102.7 104.1,105.3 					"/>
				</g>
			</g>
		</g>
		<g id="Gears_3_">
			<path class="st0" d="M84.7,52.7c-1,0.5-1.9,1.3-2.6,2.1l-3.2-1.2l-1.8,5l3.2,1.2c0,0.5,0,1.1,0.1,1.7c0.1,0.6,0.3,1.1,0.5,1.6
				l-2.6,2.2l3.4,4.1l2.6-2.2c1,0.6,2,1,3.2,1.1l0.6,3.4l5.2-0.9l-0.6-3.4c1-0.5,1.9-1.3,2.6-2.1l3.2,1.2l1.8-5l-3.2-1.2
				c0-0.5,0-1.1-0.1-1.7c-0.1-0.6-0.3-1.1-0.5-1.6l2.6-2.2l-3.4-4.1l-2.6,2.2c-0.9-0.6-2-1-3.2-1.2l-0.6-3.4l-5.2,0.9L84.7,52.7z"/>
			<path class="st0" d="M49.3,41.7c-0.9,1.4-1.4,3-1.6,4.7l-5,0.9l1.4,7.6L49,54c0.4,0.7,0.9,1.4,1.4,2s1.1,1.2,1.8,1.7l-1.7,4.7
				L58,65l1.7-4.7c1.6,0,3.3-0.3,4.8-0.9l3.3,3.8l5.9-5.1l-3.3-3.8c0.9-1.4,1.4-3,1.6-4.7l4.9-0.9l-1.4-7.6L70.7,42
				c-0.4-0.7-0.9-1.4-1.4-2s-1.1-1.2-1.8-1.7l1.7-4.7L61.8,31l-1.7,4.7c-1.6,0-3.3,0.3-4.8,0.9L52,32.8l-5.9,5.1L49.3,41.7z"/>
			<path class="st6" d="M88.2,57.5c-1.4,0.2-2.4,1.6-2.2,3.1c0.3,1.4,1.6,2.4,3.1,2.1c1.4-0.2,2.4-1.6,2.2-3.1
				C91.1,58.2,89.7,57.2,88.2,57.5L88.2,57.5z M87.8,54.9c-2.8,0.5-4.7,3.2-4.2,6.1c0.5,2.8,3.2,4.7,6,4.2c2.9-0.5,4.7-3.2,4.3-6
				C93.3,56.3,90.6,54.4,87.8,54.9L87.8,54.9z"/>
			<path class="st6" d="M57.4,45.1c-1.6,1.4-1.8,3.9-0.4,5.5c1.4,1.6,3.8,1.8,5.5,0.4c1.6-1.4,1.8-3.8,0.4-5.5
				C61.5,43.9,59,43.7,57.4,45.1L57.4,45.1z M54.9,42.2c-3.2,2.8-3.6,7.6-0.8,10.8s7.6,3.6,10.8,0.8c3.2-2.8,3.6-7.6,0.8-10.8
				C62.9,39.8,58.1,39.5,54.9,42.2L54.9,42.2z"/>
		</g>
		<path id="Points_12_" class="st12" d="M149.4,40.6c0.4,0,0.7,0.4,0.7,0.9s-0.3,0.9-0.7,0.9h-1.3c-0.4,0-0.7-0.4-0.7-0.9
			s0.3-0.9,0.7-0.9H149.4z M143.9,40.6c0.4,0,0.7,0.4,0.7,0.9s-0.3,0.9-0.7,0.9h-1.4c-0.4,0-0.7-0.4-0.7-0.9s0.3-0.9,0.7-0.9H143.9z
			 M138.3,40.6c0.4,0,0.7,0.4,0.7,0.9s-0.3,0.9-0.7,0.9h-1.4c-0.4,0-0.7-0.4-0.7-0.9s0.3-0.9,0.7-0.9H138.3z M132.7,40.6
			c0.4,0,0.7,0.4,0.7,0.9s-0.3,0.9-0.7,0.9h-1.4c-0.4,0-0.7-0.4-0.7-0.9s0.3-0.9,0.7-0.9H132.7z M127.1,40.6c0.4,0,0.7,0.4,0.7,0.9
			s-0.3,0.9-0.7,0.9h-1.4c-0.4,0-0.7-0.4-0.7-0.9s0.3-0.9,0.7-0.9H127.1z M121.4,40.6c0.4,0,0.7,0.4,0.7,0.9s-0.3,0.9-0.7,0.9H120
			c-0.4,0-0.7-0.4-0.7-0.9s0.3-0.9,0.7-0.9H121.4z M115.8,40.6c0.4,0,0.7,0.4,0.7,0.9s-0.3,0.9-0.7,0.9h-1.4c-0.4,0-0.7-0.4-0.7-0.9
			s0.3-0.9,0.7-0.9H115.8z M110.2,40.6c0.4,0,0.7,0.4,0.7,0.9s-0.3,0.9-0.7,0.9h-1.4c-0.4,0-0.7-0.4-0.7-0.9s0.3-0.9,0.7-0.9H110.2z
			 M104.6,40.6c0.4,0,0.7,0.4,0.7,0.9s-0.3,0.9-0.7,0.9h-1.4c-0.4,0-0.7-0.4-0.7-0.9s0.3-0.9,0.7-0.9H104.6z M98.9,40.6
			c0.4,0,0.7,0.4,0.7,0.9s-0.3,0.9-0.7,0.9h-1.4c-0.4,0-0.7-0.4-0.7-0.9s0.3-0.9,0.7-0.9H98.9z M93.3,40.6c0.4,0,0.7,0.4,0.7,0.9
			s-0.3,0.9-0.7,0.9h-1.4c-0.4,0-0.7-0.4-0.7-0.9s0.3-0.9,0.7-0.9H93.3z M87.7,40.6c0.4,0,0.7,0.4,0.7,0.9s-0.3,0.9-0.7,0.9h-1.4
			c-0.4,0-0.7-0.4-0.7-0.9s0.3-0.9,0.7-0.9H87.7z M82.1,40.6c0.4,0,0.7,0.4,0.7,0.9s-0.3,0.9-0.7,0.9h-1.4c-0.4,0-0.7-0.4-0.7-0.9
			s0.3-0.9,0.7-0.9H82.1z"/>
		<g id="Bullet_1_">
			<path class="st0" d="M131.7,163.1c0.9,0,1.7-0.8,1.7-1.7s-0.8-1.7-1.7-1.7c-1,0-1.7,0.8-1.7,1.7
				C129.9,162.3,130.7,163.1,131.7,163.1L131.7,163.1z"/>
			<path class="st0" d="M124.3,163.6c1.1,0,2-0.9,2-2s-0.9-2-2-2s-2,0.9-2,2S123.2,163.6,124.3,163.6L124.3,163.6z"/>
			<path class="st0" d="M116.9,164.2c1.3,0,2.3-1,2.3-2.3s-1-2.3-2.3-2.3s-2.4,1-2.4,2.3S115.6,164.2,116.9,164.2L116.9,164.2z"/>
			<path class="st0" d="M108.3,165.1c1.5,0,2.8-1.2,2.8-2.8c0-1.5-1.2-2.8-2.8-2.8c-1.5,0-2.8,1.2-2.8,2.8
				C105.5,163.8,106.8,165.1,108.3,165.1L108.3,165.1z"/>
		</g>
		<g id="Hand_5_">
			<path class="st13" d="M164.7,145.6v-17c1.6-0.4,2.8-1.9,2.8-3.6v-21c0-2-1.6-3.7-3.7-3.7c-2,0-3.7,1.7-3.7,3.7v-1.4
				c0-2-1.7-3.7-3.7-3.7s-3.7,1.7-3.7,3.7v-1.1c0-2-1.7-3.7-3.7-3.7s-3.7,1.7-3.7,3.7V77.2c0-2-1.6-3.7-3.7-3.7
				c-2,0-3.7,1.7-3.7,3.7v35.4c-4.1-2.1-8.2-4-12.6-4.6c-5.8,0.2-6.3,3.7-2.4,6.8c5.4,4.3,10.9,8.7,16.4,13c0.5,0.4,1.1,0.7,1.8,0.8
				v39.1C150.4,162,158.5,154.4,164.7,145.6z"/>
			<path class="st14" d="M120.5,111.6c0.3,1,1.1,2.1,2.4,3.1l3.6,2.9c0.1-0.3,0.1-0.7,0.1-1.1c0-2.8-2.4-5-5.4-5
				C121,111.6,120.7,111.6,120.5,111.6L120.5,111.6z"/>
			<path class="st14" d="M145,75.9c-0.5-1.4-1.9-2.5-3.5-2.5l0,0c-1.5,0-2.9,0.9-3.4,2.3c0.1,2.6,1.6,4.7,3.5,4.7
				C143.4,80.4,144.8,78.4,145,75.9L145,75.9z"/>
			<rect x="140" y="145.7" class="st0" width="25.9" height="2.1"/>
			<rect x="138.3" y="147.6" class="st15" width="29.2" height="21.4"/>
		</g>
	</g>
</g>
</svg>
