<?xml version="1.0" encoding="utf-8"?>
<!-- Generator: Adobe Illustrator 19.2.1, SVG Export Plug-In . SVG Version: 6.00 Build 0)  -->
<svg version="1.1" id="Layer_1" xmlns="http://www.w3.org/2000/svg" xmlns:xlink="http://www.w3.org/1999/xlink" x="0px" y="0px"
	 viewBox="0 0 883 350" style="enable-background:new 0 0 883 350;" xml:space="preserve">
<style type="text/css">
	.st0{display:none;fill:#36BB9D;}
	.st1{fill:none;stroke:#FFFFFF;stroke-width:2;stroke-linecap:round;stroke-linejoin:round;stroke-miterlimit:10;}
	.st2{fill:none;stroke:#FFFFFF;stroke-width:2;stroke-miterlimit:10;}
	.st3{fill:#FFFFFF;}
</style>
<rect class="st0" width="883" height="350"/>
<g>
	<rect id="XMLID_172_" x="462.1" y="58.2" class="st1" width="106.6" height="267.6"/>
	<line id="XMLID_151_" class="st2" x1="781.9" y1="25.6" x2="134" y2="25.6"/>
	<circle id="XMLID_150_" class="st3" cx="134" cy="25.6" r="3.3"/>
	<line id="XMLID_148_" class="st1" x1="262.4" y1="19.6" x2="262.4" y2="10.6"/>
	<line id="XMLID_168_" class="st1" x1="845.6" y1="325.8" x2="882.9" y2="325.8"/>
	<line id="XMLID_165_" class="st1" x1="0.1" y1="324.2" x2="90.3" y2="324.2"/>
	<rect id="XMLID_173_" x="551" y="58.2" class="st1" width="17.8" height="267.6"/>
	<rect id="XMLID_174_" x="543.2" y="58.2" class="st1" width="7.8" height="267.6"/>
	<rect id="XMLID_175_" x="462.1" y="115.8" class="st1" width="81.1" height="5.2"/>
	<rect id="XMLID_177_" x="462.1" y="197.7" class="st1" width="81.1" height="5.2"/>
	<rect id="XMLID_178_" x="462.1" y="279.7" class="st1" width="81.1" height="5.2"/>
	<rect id="XMLID_176_" x="462.1" y="68.2" class="st1" width="13.3" height="47.6"/>
	<rect id="XMLID_183_" x="462.1" y="150.2" class="st1" width="13.3" height="47.6"/>
	<rect id="XMLID_180_" x="474.9" y="68.2" class="st1" width="13.3" height="47.6"/>
	<circle id="XMLID_179_" class="st1" cx="481.6" cy="78.9" r="3.1"/>
	<circle id="XMLID_182_" class="st1" cx="468.8" cy="78.9" r="3.1"/>
	<g id="XMLID_185_">
		
			<rect id="XMLID_184_" x="495.3" y="169.6" transform="matrix(-1.836970e-16 1 -1 -1.836970e-16 692.9814 -306.2301)" class="st1" width="8.7" height="47.6"/>
		<rect id="XMLID_181_" x="514.4" y="189" class="st1" width="3.3" height="8.7"/>
		<rect id="XMLID_186_" x="511.1" y="189" class="st1" width="3.3" height="8.7"/>
		<rect id="XMLID_188_" x="484.9" y="189" class="st1" width="3.3" height="8.7"/>
		<rect id="XMLID_187_" x="481.6" y="189" class="st1" width="3.3" height="8.7"/>
	</g>
	<g id="XMLID_190_">
		
			<rect id="XMLID_195_" x="496.8" y="162.4" transform="matrix(-1.836970e-16 1 -1 -1.836970e-16 685.7724 -313.4391)" class="st1" width="5.7" height="47.6"/>
		<rect id="XMLID_194_" x="514.4" y="183.3" class="st1" width="3.3" height="5.7"/>
		<rect id="XMLID_193_" x="511.1" y="183.3" class="st1" width="3.3" height="5.7"/>
		<rect id="XMLID_192_" x="484.9" y="183.3" class="st1" width="3.3" height="5.7"/>
		<rect id="XMLID_191_" x="481.6" y="183.3" class="st1" width="3.3" height="5.7"/>
	</g>
	<g id="XMLID_211_">
		<g id="XMLID_1_">
			<g>
			</g>
			<g>
				<path class="st1" d="M227.7,318.1c0.4,0.8,0.7,1.6,0.7,2.6c0,2.8-2.3,5.1-5.1,5.1c-2.8,0-5.1-2.3-5.1-5.1c0-1.1,0.4-2.1,1-3"/>
				<polyline class="st1" points="355.5,325.8 223.3,325.8 178,325.8 132.4,325.8 109.1,325.8 				"/>
				<line class="st1" x1="824.3" y1="325.8" x2="462.1" y2="325.8"/>
				<path class="st1" d="M136.5,317.7c0.6,0.8,0.9,1.9,0.9,3c0,2.8-2.3,5.1-5.1,5.1c-2.8,0-5.1-2.3-5.1-5.1c0-0.9,0.3-1.8,0.7-2.6"
					/>
				<path class="st1" d="M181.8,317.4c0.8,0.9,1.3,2.1,1.3,3.4c0,2.8-2.3,5.1-5.1,5.1c-2.8,0-5.1-2.3-5.1-5.1c0-1.3,0.5-2.4,1.2-3.3
					"/>
				<polyline class="st1" points="355.5,116.4 355.5,58.2 462.1,58.2 462.1,325.8 397,325.8 				"/>
				<line class="st1" x1="355.5" y1="189.8" x2="355.5" y2="189.6"/>
				<line class="st1" x1="355.5" y1="199.1" x2="355.5" y2="198.7"/>
				<line class="st1" x1="355.5" y1="207.9" x2="355.5" y2="207.3"/>
				<polyline class="st1" points="391,325.8 355.5,325.8 355.5,303.9 				"/>
				<polyline class="st1" points="185.6,303.9 355.5,303.9 384.3,303.9 384.3,207.9 355.5,207.9 230.2,207.9 				"/>
				<polyline class="st1" points="125.7,207.9 53.3,207.9 53.3,303.9 170.3,303.9 				"/>
				<rect x="391" y="207.9" class="st1" width="6" height="117.9"/>
				<line class="st1" x1="126.8" y1="199.1" x2="53.3" y2="199.1"/>
				<polyline class="st1" points="230.1,207.3 355.5,207.3 397,207.3 411.4,207.3 411.4,199.1 355.5,199.1 229.1,199.1 				"/>
				<line class="st1" x1="53.3" y1="207.3" x2="125.8" y2="207.3"/>
				<path class="st1" d="M269.2,187.2h-8.2c-4.1,0-7.5-3.4-7.5-7.5v-55.8c0-4.1,3.3-7.5,7.5-7.5h94.4h18c4.1,0,7.5,3.3,7.5,7.5v55.8
					c0,4.1-3.4,7.5-7.5,7.5h-9.8"/>
				<polygon class="st1" points="355.5,122.8 376.7,122.8 376.7,180.8 355.5,180.8 258,180.8 258,122.8 				"/>
				<path class="st1" d="M355.5,189.8H386v1.8c0,3.9-3.2,7.1-7.1,7.1h-23.4h-99.7c-3.9,0-7.1-3.2-7.1-7.1v-1.8h50.9h18h17.5H355.5z"
					/>
				<polygon class="st1" points="363.8,187.2 363.8,185.1 355.5,185.1 269.2,185.1 269.2,187.2 269.2,189.6 355.5,189.6 
					363.8,189.6 				"/>
				<rect x="449.4" y="187.8" class="st1" width="4.5" height="29.7"/>
				<line class="st1" x1="253.5" y1="226.9" x2="253.5" y2="243.6"/>
				<line class="st1" x1="240.1" y1="243.6" x2="240.1" y2="226.9"/>
				<line class="st1" x1="115.8" y1="226.9" x2="115.8" y2="243.6"/>
				<line class="st1" x1="102.4" y1="243.6" x2="102.4" y2="226.9"/>
				<path class="st1" d="M115.8,226.9h2.3v-2.6c0-3.8-3-6.8-6.8-6.8h-4.5c-3.8,0-6.8,3-6.8,6.8v2.6h2.3H115.8z"/>
				<path class="st1" d="M253.5,226.9h2.3v-2.6c0-3.8-3-6.8-6.8-6.8h-4.5c-3.8,0-6.8,3-6.8,6.8v2.6h2.3H253.5z"/>
				<path class="st1" d="M234.6,243.6h5.5h13.5v0.7c0,3.3-2.7,6-6,6h-13.8"/>
				<path class="st1" d="M122.1,250.3h-13.8c-3.3,0-6-2.7-6-6v-0.7h13.5h5.5"/>
				<path class="st1" d="M170.3,263.3h-30.6c-8.4,0-15.3-5.6-17.6-13c-0.7-2.1-0.9-4.4-0.8-6.7c0-0.3,0.1-0.7,0.1-1l4.3-34.6
					l0.1-0.7l1-8.2l6.1-49c1.1-9.2,9-16.2,18.3-16.2h53.5c9.3,0,17.1,6.9,18.3,16.2l6.1,49l1,8.2l0.1,0.7l4.3,34.6
					c0,0.3,0.1,0.7,0.1,1c0.2,2.3-0.1,4.6-0.8,6.7c-2.3,7.4-9.2,13-17.6,13h-30.6"/>
				<polyline class="st1" points="170.3,307.6 170.3,303.9 170.3,263.3 185.6,263.3 185.6,303.9 185.6,307.6 				"/>
				<polyline class="st1" points="174.1,307.6 170.3,307.6 124.6,313.9 124.6,318.3 127.9,318.1 136.5,317.7 174.1,316.1 				"/>
				<polyline class="st1" points="181.8,307.6 185.6,307.6 231.3,313.9 231.3,318.3 227.7,318.1 219.1,317.7 181.8,316.1 				"/>
				<polygon class="st1" points="181.8,317.4 181.8,318.3 174.1,318.3 174.1,317.4 174.1,316.1 174.1,307.6 177.9,307.6 
					181.8,307.6 181.8,316.1 				"/>
			</g>
		</g>
	</g>
	<rect id="XMLID_198_" x="154.1" y="60.1" class="st1" width="65.5" height="39"/>
	<rect id="XMLID_199_" x="164.1" y="70.1" class="st1" width="45.5" height="19"/>
	<polygon class="st1" points="205.9,73.4 205.9,74.8 201.8,74.8 201.8,80.4 199.1,80.4 199.1,77.7 196.1,77.7 196.1,84.3 
		193.8,84.3 193.8,74.8 189.5,74.8 189.5,81.1 183.7,81.1 183.7,77.3 177.9,77.3 177.9,84.3 173.8,84.3 173.8,82.6 169.8,82.6 
		169.8,79.6 164.1,79.6 164.1,89.1 168.1,89.1 169.8,89.1 173.1,89.1 173.8,89.1 177.9,89.1 178.8,89.1 183,89.1 183.7,89.1 
		189.5,89.1 191.1,89.1 192,89.1 193.8,89.1 196.1,89.1 197.8,89.1 198.9,89.1 199.1,89.1 201.8,89.1 202,89.1 205.9,89.1 
		206.1,89.1 209,89.1 209,73.4 	"/>
</g>
<path class="st2" d="M659,72.4"/>
<path class="st2" d="M808,72.4"/>
<path class="st2" d="M808,325.8"/>
<polyline class="st2" points="658.2,325.8 658.2,72.4 781.9,72.4 781.9,325.8 "/>
<rect x="666.6" y="186.2" class="st1" width="6.6" height="31.7"/>
</svg>
