<?xml version="1.0" encoding="utf-8"?>
<!-- Generator: Adobe Illustrator 19.2.1, SVG Export Plug-In . SVG Version: 6.00 Build 0)  -->
<svg version="1.1" id="Layer_1" xmlns="http://www.w3.org/2000/svg" xmlns:xlink="http://www.w3.org/1999/xlink" x="0px" y="0px"
	 viewBox="0 0 126 80.1" style="enable-background:new 0 0 126 80.1;" xml:space="preserve">
<style type="text/css">
	.st0{fill:none;stroke:#EEEEEE;stroke-width:4;stroke-miterlimit:10;}
</style>
<g>
	<path class="st0" d="M57.7,61.7L55,59.2l-1.9-1.7c-0.1-0.1-0.1-0.1-0.2-0.1H37.2H32c-0.2,0-0.3-0.1-0.3-0.3v-5.9V37.6
		c0-0.1,0-0.2-0.1-0.2l-1-0.9L16.4,23.1C12.8,19.8,7,22.3,7,27.2v37.9c0,5.8,4.7,10.5,10.5,10.5h14.3h30c3.8,0,5.7-4.7,2.9-7.3
		l-5.3-5L57.7,61.7z"/>
	<path class="st0" d="M96.2,26.8v20.3c0,1.6-1.9,2.4-3,1.3l-3.9-3.7c-0.4-0.3-0.6-0.8-0.6-1.3l0,0v-11c0-15.2-12.1-27.7-27.3-28
		c-0.2,0-0.3,0-0.5,0H46.1H31.7l0,0c-4.8,0-7.1,5.9-3.6,9.1l3.6,3.4l3.3,3l0,0c3.2,3,7.5,4.6,11.9,4.4c0.2,0,0.3,0,0.5,0
		c10.1-0.2,18.5,8.1,18.5,18.2c0,0.1,0,0.1,0,0.2c0,3.9,1.5,7.6,4.4,10.2l4.7,4.4l1.5,1.4L93,74.3c0.9,0.8,2,1.3,3.2,1.3l0,0H110
		c5.4,0,9.8-4.4,9.8-9.8v-8.4V16.1c0-4.7-5.4-7.2-9-4.3L98.5,22C97,23.2,96.2,25,96.2,26.8z"/>
</g>
</svg>
